<svg fill="#fff" height="407" viewBox="-140 -430 3053 1838" width="774" xmlns="http://www.w3.org/2000/svg">
<path xmlns="http://www.w3.org/2000/svg" transform="matrix(0.87,0,0,0.87,115,112)" class="land pk" d="M 1856.4434,439.23992 C 1860.3753,440.15491 1863.797,442.14986 1867.595,443.34082 C 1872.1142,444.75836 1876.15,443.29483 1880.8886,443.20156 C 1882.5732,443.16835 1883.8817,443.84664 1885.4704,444.08419 C 1887.1027,444.32809 1888.4522,443.14407 1890.0043,442.61125 C 1892.0511,441.90828 1893.7361,442.70326 1895.6811,442.60358 C 1897.3215,442.52051 1898.9931,441.68839 1900.6339,441.32399 C 1902.5394,440.90069 1906.1578,440.59498 1907.6064,438.87252 C 1908.4727,437.84426 1906.9056,437.28574 1907.2641,436.28872 C 1908.1344,433.86464 1907.3354,431.90663 1907.954,429.54035 C 1908.5832,427.13909 1908.9621,427.68111 1910.6092,426.25945 C 1911.623,425.38587 1912.0785,423.92775 1913.3333,423.32278 C 1914.6448,422.68924 1914.8438,423.9716 1915.9898,424.10701 C 1917.9413,424.33913 1919.807,423.70332 1921.7049,422.77054 C 1921.1122,422.01806 1919.82,421.97028 1919.7127,420.81839 C 1921.4307,420.78739 1923.383,419.70845 1924.533,418.30171 C 1925.8944,416.63767 1928.1103,419.46674 1928.5465,417.37411 C 1929.7224,417.97705 1930.304,417.69243 1930.8589,419.02978 C 1931.3259,420.15819 1932.4245,419.77307 1933.4462,419.09055 C 1936.1836,417.26024 1936.1608,413.8783 1935.6088,411.45507 C 1935.2547,409.89806 1936.5125,409.6551 1937.0749,408.31376 C 1937.5132,407.26547 1937.8207,405.67111 1937.6249,404.6448 C 1937.3898,403.42367 1938.7084,403.20986 1939.6001,403.01688 C 1941.0775,402.69609 1941.7437,403.17857 1943.2243,402.13131 C 1945.0292,400.85499 1944.9965,400.78972 1944.6216,399.21064 C 1944.3073,397.89045 1943.7935,396.4371 1942.6951,395.65175 C 1940.5407,394.10881 1940.5469,391.89031 1943.7736,392.82288 C 1945.9706,393.45743 1951.4222,394.20971 1952.6308,390.89423 C 1952.9891,389.91466 1953.1109,389.18031 1952.49,388.5166 C 1952.2276,388.23264 1950.9776,387.28053 1951.3828,386.69376 C 1951.689,386.43451 1952.0272,386.32659 1952.3953,386.37003 C 1952.1604,385.42744 1953.0816,384.70304 1953.739,384.04292 C 1954.3464,383.43395 1956.3299,382.04124 1956.4921,381.29298 C 1956.6552,380.58269 1957.0178,379.95138 1957.5797,379.40043 C 1958.0262,378.91276 1956.9466,378.41833 1956.856,378.10626 C 1956.7939,377.75975 1956.9383,377.50313 1957.2928,377.33776 C 1957.9393,376.77669 1957.2848,375.63948 1957.2484,375.11229 C 1957.1972,374.41003 1956.3623,372.74194 1956.0163,372.13558 C 1955.5202,371.26342 1954.5304,370.67644 1953.8562,369.95235 C 1952.9408,368.96872 1957.227,364.75369 1958.2472,365.10025 C 1959.6501,365.57598 1960.1216,363.90565 1961.2111,362.9891 C 1962.3652,362.01865 1963.7432,361.39495 1965.1136,360.98747 C 1968.0584,360.11206 1970.9828,360.10404 1973.8439,359.99173 C 1975.2935,359.93559 1977.4848,359.17332 1978.6416,359.84867 C 1979.7773,360.5104 1979.7847,360.87923 1981.2136,359.97301 C 1983.1731,358.72915 1987.7959,356.65522 1988.2319,359.53176 C 1989.946,357.39459 1992.5348,359.15058 1993.0918,360.59994 C 1993.6053,361.93853 1996.1605,361.20791 1997.2209,362.51396 C 1997.9865,363.4401 1998.3825,364.49239 1998.4197,365.80247 C 1998.4485,366.75204 1997.9834,368.37959 1998.1594,369.19341 C 1998.3496,370.08125 2000.0774,371.28732 2000.6684,371.96967 C 2001.4291,372.84939 2003.0692,371.37629 2004.023,371.14126 C 2003.2427,375.26464 2012.5643,377.0083 2015.7645,375.72423 C 2014.657,376.53582 2008.385,379.337 2008.5226,380.85998 C 2008.5762,381.46062 2007.6852,382.76412 2007.0464,382.25101 C 2006.2829,381.64009 2005.737,383.22037 2005.3327,383.89663 C 2004.9075,384.61082 1999.0996,385.50646 1997.8809,386.05808 C 1994.455,387.612 1992.5819,386.3345 1989.3927,385.63286 C 1986.8157,385.06529 1983.5728,383.2797 1980.5759,384.91645 C 1978.5372,386.02913 1976.9345,388.62832 1979.0026,389.58758 C 1980.9079,390.46492 1977.783,391.889 1979.3909,392.43864 C 1979.9216,392.61962 1983.7039,392.64323 1981.9501,394.11798 C 1980.3616,395.45535 1978.584,395.98949 1980.6632,397.69168 C 1982.3994,399.11657 1979.7138,401.03122 1980.7714,402.45742 C 1981.3762,403.27376 1982.1396,403.68178 1982.8849,404.33731 C 1983.2301,404.59659 1983.3914,404.96005 1983.3716,405.42761 C 1983.228,406.74501 1983.5475,406.44698 1984.8808,406.75282 C 1987.1603,407.27327 1985.805,409.85518 1988.3058,410.36568 C 1989.6653,410.64361 1991.9959,410.75918 1992.7744,411.94957 C 1993.7307,413.41283 1989.5335,414.83999 1988.6729,415.20796 C 1986.4791,416.14697 1984.0772,417.78946 1985.4861,420.04835 C 1986.4129,421.53519 1983.7401,425.50187 1986.5266,425.55727 C 1985.8969,426.58534 1983.2335,427.24596 1982.7278,428.52409 C 1982.0276,430.29386 1978.095,432.66951 1979.3647,434.1675 C 1981.1875,436.32332 1976.1267,437.29983 1974.9592,437.99155 C 1973.8054,438.6741 1973.7315,440.36984 1973.3637,441.42116 C 1972.7397,443.20413 1971.9179,445.03793 1970.8654,446.66096 C 1969.2993,449.07282 1966.7183,449.57856 1964.7393,451.426 C 1963.9423,452.1691 1963.5608,453.12688 1963.325,454.10712 C 1962.9075,455.83642 1961.2613,456.84086 1960.4146,458.36503 C 1958.6152,461.59904 1956.8316,460.78559 1953.6188,461.60664 C 1952.5242,461.88658 1951.1732,462.96299 1950.056,462.85284 C 1948.7144,462.72117 1948.3399,461.08464 1947.8045,460.13917 C 1946.5441,457.92222 1943.6819,461.28611 1942.8603,462.67051 C 1941.4056,465.12314 1939.3101,467.22439 1937.9638,469.63048 C 1936.3075,472.59017 1937.7665,474.24374 1940.5332,474.95298 C 1943.1129,475.61286 1944.4032,475.7501 1943.81,478.96873 C 1943.4725,480.80637 1942.6858,484.91279 1945.8598,484.94666 C 1946.774,484.9567 1947.9019,484.29684 1948.6336,485.02693 C 1949.3607,485.75181 1948.4987,487.72472 1949.1029,488.73811 C 1950.3412,490.82004 1951.7919,492.37628 1952.2016,494.94 C 1952.3587,495.92181 1952.9593,495.6283 1951.9168,496.31268 C 1951.0856,496.8583 1952.1541,498.67538 1952.7902,498.80513 C 1950.9359,500.086 1948.9665,501.68898 1947.774,499.29159 C 1947.2194,498.1763 1946.1,499.01095 1945.2114,499.34773 C 1944.7706,499.4662 1944.3337,499.60713 1943.9025,499.76801 C 1943.1768,500.11717 1943.5201,500.96241 1942.7457,501.27401 C 1940.1904,502.29579 1937.6931,499.9663 1935.1132,500.10469 C 1933.7345,500.1795 1931.8879,500.41764 1930.6788,499.79295 C 1930.6512,500.78665 1931.2572,503.56126 1929.4356,503.56126 C 1927.8915,503.56126 1925.5352,503.59862 1925.4457,505.71218 C 1925.462,504.48757 1925.3077,504.51744 1924.983,505.80177 C 1924.428,505.28165 1924.0959,504.56723 1923.7156,503.91987 C 1923.9867,504.48259 1924.0172,505.08127 1923.8078,505.71093 C 1923.1799,505.30404 1922.6536,504.79626 1922.2265,504.18756 C 1922.4825,505.82788 1921.2561,504.90329 1920.2018,505.44217 C 1920.2476,504.96428 1920.2934,504.48507 1920.3391,504.00828 C 1919.158,504.79128 1917.8871,503.3122 1919.221,502.57485 C 1917.7102,502.85014 1915.8405,500.71808 1917.5283,499.52358 C 1915.8978,498.5419 1917.1185,495.71074 1915.7593,495.00246 C 1914.9972,494.60765 1910.9545,494.43521 1911.2005,493.15279 C 1911.693,490.55598 1911.1734,489.78869 1910.0801,487.73222 C 1909.2652,486.20568 1906.5225,484.63431 1905.7509,487.37261 C 1907.3251,487.29365 1908.5072,485.91483 1909.1417,488.00409 C 1907.5771,486.93649 1905.6363,487.5944 1903.862,488.13188 C 1902.0126,488.69177 1900.3556,488.073 1898.6028,488.5803 C 1897.651,488.85584 1891.2066,488.76817 1892.6886,490.52844 C 1891.9145,490.7512 1891.4579,490.39953 1891.4989,489.62719 C 1888.8813,490.90388 1887.2551,487.21096 1885.8423,487.82369 C 1886.0208,488.12687 1886.2018,488.4275 1886.3881,488.72684 C 1885.1051,488.98107 1880.1107,487.34379 1881.1357,490.34947 C 1879.8869,489.68979 1870.105,488.96729 1870.7407,491.42938 C 1870.0806,491.40186 1869.6561,490.4496 1869.1465,490.14669 C 1868.2656,489.62218 1868.146,490.85884 1867.5464,491.18791 C 1865.1374,492.50633 1863.6039,491.00899 1863.8649,489.00736 C 1864.2166,486.30724 1864.4651,476.52056 1869.6486,477.70093 C 1868.4723,473.65403 1877.6531,475.84705 1878.3235,473.62505 C 1878.6518,472.65447 1879.4986,468.95375 1879.1252,468.62539 C 1878.2266,467.83467 1876.8264,468.40817 1875.7025,468.33617 C 1874.0909,468.23386 1874.6802,465.57086 1874.7828,464.47797 C 1874.9801,462.37295 1874.6644,459.66502 1874.2594,457.64685 C 1874.0718,456.71262 1872.4266,456.65422 1871.6651,456.14376 C 1870.4005,455.29909 1869.0546,454.78833 1867.6854,454.11603 C 1864.6462,452.62578 1863.5928,450.44454 1862.3287,447.46437 C 1860.9975,444.29871 1858.5847,441.7766 1856.4434,439.23992" id="pk" />
</svg>