<svg fill="#fff" height="407" viewBox="-140 -430 3053 1838" width="774" xmlns="http://www.w3.org/2000/svg">
<path xmlns="http://www.w3.org/2000/svg" d="M 1469.7649,402.80598 C 1469.9246,401.9513 1470.2793,397.71279 1470.8918,397.46979 C 1472.4109,396.86955 1473.0262,394.58572 1474.6122,393.7715 C 1475.4579,393.33818 1476.4592,394.10303 1477.2536,393.53811 C 1478.25,392.83071 1478.6268,393.36939 1479.4278,393.90089 C 1480.5753,394.66423 1484.4668,394.33978 1482.114,392.7729 C 1482.9161,392.43522 1483.7585,392.47917 1484.5452,392.68964 C 1484.138,392.84227 1483.9254,393.11279 1483.9084,393.49997 C 1484.3219,394.18157 1486.6763,393.77959 1487.2728,393.72182 C 1489.1082,393.54504 1491.657,394.67462 1493.2811,393.2723 C 1492.6059,392.51502 1491.6195,393.17868 1490.8984,392.52427 C 1492.0687,389.8567 1496.51,390.86237 1498.5851,390.35732 C 1496.8919,389.43587 1494.3234,390.21017 1492.9611,388.59842 C 1491.4291,386.78693 1493.2047,385.2822 1494.9725,385.46138 C 1496.9123,385.65798 1498.7911,386.62655 1500.8118,386.16504 C 1503.5096,385.5498 1505.5459,387.0902 1508.2696,386.80552 C 1509.5278,386.6742 1509.7655,385.99178 1510.3097,384.9517 C 1510.9222,383.80467 1512.8794,383.30243 1513.91,382.69501 C 1516.8887,380.93976 1519.2789,379.39472 1522.5509,378.47629 C 1525.9664,377.5173 1528.4566,378.02909 1531.8241,378.02909 C 1533.1823,378.02909 1534.5578,378.62609 1535.9492,378.19769 C 1536.5926,377.99865 1536.8857,377.20566 1537.5042,377.01699 C 1538.1352,376.82595 1538.6211,377.21269 1539.2091,377.2701 C 1538.0589,378.56641 1539.586,380.32643 1540.6417,380.68279 C 1541.4431,380.95261 1542.2768,381.17566 1543.1661,381.05305 C 1544.1389,380.91991 1545.0854,379.76889 1544.9176,381.22821 C 1545.3872,379.05902 1546.3884,381.6975 1546.5067,382.31711 C 1546.663,383.13574 1548.4627,385.90107 1549.3745,384.96217 C 1550.5947,383.72079 1551.7223,383.99457 1552.7795,384.98894 C 1554.0785,386.19992 1555.8014,386.41848 1557.3024,387.26329 C 1558.1459,387.74179 1558.4993,385.77663 1559.5795,387.21102 C 1560.4461,388.36285 1562.362,388.33499 1563.6965,388.4789 C 1565.5512,388.67964 1567.6182,387.29814 1569.5228,387.10065 C 1571.151,386.93102 1572.0589,386.70558 1573.5352,387.29349 C 1575.603,388.11678 1577.1422,388.67848 1579.4862,387.57108 C 1582.3017,386.24061 1584.9158,384.72238 1587.4642,382.76381 C 1588.4886,381.97876 1589.1497,383.30709 1590.0702,383.32807 C 1590.6332,383.34205 1590.7047,382.5154 1591.3461,382.65652 C 1591.7628,382.74749 1592.1743,382.85127 1592.5894,382.94454 C 1593.1907,383.08095 1594.8516,383.82448 1595.3589,382.93172 C 1595.981,381.83756 1598.348,380.92458 1597.4149,382.57256 C 1598.1407,382.43142 1598.6813,382.91306 1599.1172,383.3607 C 1599.4263,383.7103 1599.7546,384.03999 1600.1013,384.34747 C 1600.7212,384.43131 1600.8274,384.74334 1600.4165,385.28569 C 1600.5938,386.22317 1601.896,385.31013 1602.2867,386.07667 C 1602.5409,386.5754 1602.5629,388.05325 1602.9793,388.45411 C 1604.3066,389.73182 1605.361,391.00597 1604.3487,392.30798 C 1603.3503,393.59242 1605.3728,395.49746 1604.0781,396.34742 C 1605.854,397.36727 1606.857,397.13457 1608.8399,397.21291 C 1610.5342,397.27973 1612.6131,399.67809 1613.0511,401.23499 C 1612.2309,400.42634 1610.9725,399.25262 1610.3267,401.23499 C 1610.1277,401.84572 1610.1944,402.48712 1609.9395,403.09494 C 1609.6086,403.88123 1607.6972,403.46523 1607.0466,403.71278 C 1607.4291,404.28335 1608.1519,405.75326 1608.236,406.46813 C 1608.3751,407.6602 1608.7944,408.28037 1609.054,409.38289 C 1609.4338,411.00298 1608.5995,413.3673 1610.4632,414.06654 C 1609.7167,414.72678 1609.1601,416.04965 1608.837,416.95274 C 1608.1883,418.76385 1610,418.4988 1610.789,419.3753 C 1611.5832,420.25461 1611.2513,421.41367 1611.3895,422.56156 C 1611.4595,423.13513 1612.3898,423.3891 1612.7208,423.74231 C 1613.0874,424.13266 1612.5976,425.05842 1612.7616,425.5543 C 1611.1403,424.22064 1609.9673,427.53263 1608.9849,427.17479 C 1607.7131,426.71103 1609.0424,424.8634 1608.1535,424.17439 C 1607.7093,423.83032 1606.8942,423.86191 1606.3979,424.28267 C 1605.5033,425.04038 1604.3534,424.8634 1603.4515,424.5522 C 1601.9807,424.04467 1600.8648,423.51099 1599.2384,423.53581 C 1598.0843,423.55387 1597.4048,423.21641 1596.6702,424.28267 C 1595.7824,425.57233 1594.184,426.73017 1593.9199,424.80815 C 1593.6901,423.13062 1591.4352,425.14859 1590.519,425.44838 C 1588.1674,426.21895 1586.276,426.19642 1584.0202,425.87765 C 1579.9666,425.30525 1575.9124,429.66424 1571.7187,429.96864 C 1570.046,430.08993 1567.0065,430.52111 1565.7231,429.41145 C 1564.3312,428.19968 1563.4523,427.50338 1561.4691,428.46393 C 1559.3527,429.48898 1554.7616,431.90355 1553.2408,429.65413 C 1552.4896,428.52465 1550.6876,428.1322 1550.2455,429.91023 C 1549.8307,431.65679 1550.3013,432.87782 1550.8758,434.36986 C 1550.1192,434.41464 1549.3007,434.63964 1548.5661,434.44935 C 1548.3824,435.13877 1548.7567,435.867 1548.4655,436.54343 C 1548.1216,437.34578 1547.0921,437.51446 1546.7697,438.39328 C 1546.2297,437.988 1545.6898,437.5301 1545.0201,437.34801 C 1545.7582,436.44618 1544.952,435.27304 1544.4907,434.59711 C 1543.6308,433.33614 1544.7448,432.59312 1545.8252,431.67922 C 1546.9364,430.74001 1547.6619,430.07758 1546.7969,428.65394 C 1546.4523,428.08497 1545.6812,427.38185 1545.0326,428.16144 C 1544.1351,429.23841 1543.3513,429.06871 1542.288,429.84733 C 1543.942,429.6721 1542.1121,431.40437 1540.9183,431.17098 C 1539.4364,430.88144 1538.1734,429.94954 1536.8897,429.23841 C 1533.8337,427.54388 1531.7367,432.51017 1530.0656,434.52995 C 1529.8581,434.26014 1529.6483,433.9914 1529.4374,433.72373 C 1528.8085,434.36091 1528.3375,435.49343 1527.4294,435.12087 C 1526.6408,434.79746 1524.2922,435.39163 1523.4937,435.79431 C 1522.0437,436.52555 1520.4194,436.416 1519.1081,435.78648 C 1517.0946,434.81872 1516.5264,432.38685 1514.6128,431.36398 C 1512.5082,430.23929 1510.3986,428.95295 1508.0238,428.50216 C 1506.7737,428.26603 1504.2245,427.72614 1504.0597,429.84733 C 1503.9761,431.06325 1504.0385,433.27115 1503.1272,434.23999 C 1502.6306,434.76724 1502.0865,433.78982 1501.6557,433.72709 C 1500.5533,433.56692 1499.312,434.95078 1498.1992,435.14437 C 1496.9163,435.36814 1495.0426,434.50868 1494.0424,433.80438 C 1493.2813,433.26891 1493.3576,431.51656 1492.2712,431.46271 C 1493.1992,430.2056 1491.3178,428.83942 1490.9553,430.49416 C 1490.1778,429.73725 1488.1158,429.45302 1487.9528,428.14682 C 1487.6923,429.09119 1485.4264,430.64572 1484.6753,431.22036 C 1484.9624,430.65582 1484.8051,430.30666 1484.2046,430.16966 C 1484.8184,430.03265 1485.237,429.52493 1485.2847,428.87539 C 1484.4555,429.56425 1480.7357,430.38862 1479.7461,430.08881 C 1480.612,429.05972 1482.109,428.99791 1483.2599,429.02938 C 1484.4235,429.06084 1484.2785,429.38561 1484.8188,428.43695 C 1485.1964,427.77677 1485.9355,427.4775 1486.4234,426.93167 C 1485.0484,426.264 1480.1725,426.17728 1478.9251,427.41786 C 1477.305,425.24101 1480.58,426.39125 1480.8686,425.82921 C 1481.1083,425.36161 1481.1248,424.70781 1480.9035,424.2635 C 1480.3818,423.22205 1479.6314,424.66722 1480.0596,423.03579 C 1478.2106,425.32441 1478.6404,420.603 1477.0486,420.67651 C 1478.1901,420.04643 1479.4843,419.43869 1478.6421,417.86201 C 1478.0338,416.72362 1476.0528,417.31335 1475.6374,416.46724 C 1475.2072,415.59106 1474.791,414.36318 1473.9684,415.89756 C 1473.6038,416.57729 1471.4203,414.74836 1471.4137,414.14611 C 1473.6877,414.73019 1471.8462,412.14528 1471.9914,411.13628 C 1472.11,410.30093 1473.3193,410.91069 1473.5303,411.32083 C 1473.9684,412.17032 1473.7167,413.56176 1474.4334,414.22794 C 1474.379,412.41276 1476.9126,414.68361 1477.7737,412.83608 C 1476.2439,412.63468 1475.6653,411.84357 1474.8088,410.62237 C 1475.6448,410.15044 1476.1258,409.11591 1477.0955,408.89794 C 1476.7551,407.56424 1475.3625,408.94816 1475.5774,407.43856 C 1475.7926,405.93631 1475.0537,405.74296 1474.0815,404.78267 C 1474.8231,403.94311 1475.6637,403.20501 1476.3473,402.30701 C 1474.2003,401.10752 1471.9504,403.57984 1469.7649,402.80598" id="path3458"/>
</svg>