<svg fill="#fff" height="407" viewBox="-140 -430 3053 1838" width="774" xmlns="http://www.w3.org/2000/svg">
<path xmlns="http://www.w3.org/2000/svg" d="M 1607.0508,403.71393 C 1609.2592,402.87249 1610.0607,404.02445 1610.428,401.0122 C 1610.6094,399.51252 1611.6269,400.01952 1612.5253,400.75492 C 1613.3688,401.44855 1613.7054,402.60986 1614.4363,403.41594 C 1615.1421,404.194 1615.9816,404.82275 1616.6838,405.60108 C 1618.1204,407.19288 1618.7202,408.0771 1621.0386,408.46419 C 1622.4747,408.70391 1624.5364,408.87055 1626.0314,408.4208 C 1626.8561,408.17303 1629.8637,405.72466 1630.2457,404.93838 C 1630.6869,404.03133 1631.8956,403.8354 1632.6275,403.24513 C 1633.4759,402.56054 1634.2435,401.74472 1635.1503,401.14427 C 1637.5202,399.57577 1639.1004,401.96622 1640.1711,403.63027 C 1637.1477,404.77008 1640.653,407.31287 1639.0038,407.69561 C 1635.9459,408.40596 1638.7542,410.24279 1639.897,411.07248 C 1640.7021,411.65682 1641.3674,412.55844 1642.2534,413.02038 C 1642.6112,413.2058 1643.8067,412.96691 1643.8883,413.22172 C 1644.7036,415.75907 1643.9228,419.92989 1646.3608,421.39559 C 1648.4304,422.64287 1651.1981,422.05666 1653.3219,423.08321 C 1654.7006,423.75134 1654.9336,425.48895 1655.9746,426.49485 C 1657.112,427.59564 1658.9692,428.37173 1660.3856,429.08669 C 1663.0576,430.43017 1666.7763,431.3651 1669.9911,430.39424 C 1673.8692,429.22829 1678.8273,427.34134 1682.6464,427.98487 C 1681.8034,428.29752 1680.9726,428.20193 1680.1339,428.30876 C 1680.6259,428.75287 1682.6911,429.62267 1683.2069,428.41334 C 1683.6583,427.35372 1682.5768,424.6909 1682.4533,423.60465 C 1684.2736,423.68928 1685.7352,423.2514 1687.5565,422.72418 C 1689.7237,422.0962 1688.4976,421.38428 1689.6334,419.93667 C 1690.7637,418.49653 1692.9902,417.06955 1694.5865,416.47404 C 1696.9111,415.60582 1698.7861,416.938 1701.054,416.4366 C 1700.5279,415.13571 1702.2091,414.54158 1703.1251,414.81994 C 1703.7876,415.01986 1704.1299,414.21544 1704.7978,414.69383 C 1705.3105,415.06075 1705.6773,415.33217 1706.4138,415.15047 C 1708.1399,414.72678 1708.2908,415.14707 1708.8247,416.74064 C 1709.3324,418.25522 1711.8234,418.3232 1713.2167,418.59848 C 1714.7697,418.90315 1715.4596,420.45144 1717.1262,420.59282 C 1718.9829,420.75002 1720.539,420.42089 1722.2451,421.1435 C 1723.9251,421.85555 1724.1733,422.62706 1724.8617,424.23192 C 1725.5612,425.86413 1727.908,425.73458 1729.1349,426.74142 C 1730.2225,427.63389 1730.5351,429.56537 1731.7647,430.25052 C 1733.1191,431.00041 1736.0665,430.41332 1737.6897,430.41332 C 1738.2877,430.41332 1737.8022,433.00671 1737.808,433.42016 C 1737.8151,434.11122 1738.2382,434.60718 1738.2246,435.32338 C 1738.2006,436.62391 1737.3057,436.39699 1738.1259,437.27875 C 1738.632,437.82384 1738.7905,440.13255 1738.7413,440.94846 C 1738.6647,442.23267 1737.4006,443.11413 1737.386,444.48199 C 1737.3646,446.34264 1737.2832,450.32363 1734.5855,450.63801 C 1734.7619,450.98663 1735.5347,451.76767 1735.3767,452.23102 C 1735.1353,452.97163 1733.4873,453.19705 1733.0473,454.15914 C 1732.2591,455.88405 1732.6483,459.93306 1734.6373,460.07496 C 1737.1898,460.25753 1734.5016,462.40826 1733.839,463.72666 C 1732.6357,466.12566 1735.1972,469.74677 1735.5227,472.00344 C 1735.8574,474.33866 1734.5115,477.58446 1736.0736,479.48364 C 1737.2559,480.9226 1740.566,479.82367 1742.1466,480.7109 C 1743.7965,481.63889 1743.102,484.49232 1742.4217,486.06115 C 1741.723,487.67286 1740.2991,489.11452 1739.2016,490.4848 C 1738.3261,491.57895 1736.252,493.41716 1735.967,494.77435 C 1735.7857,495.63551 1736.6428,496.2811 1737.1059,496.76945 C 1738.0537,497.76615 1738.7713,499.00936 1739.4164,500.24955 C 1740.7486,502.74451 1741.4009,505.63634 1744.0656,506.92547 C 1744.9719,507.36389 1745.9376,507.6889 1746.8243,508.16454 C 1747.6552,508.61122 1748.439,509.91857 1749.4345,509.98583 C 1750.8205,510.07872 1750.5043,515.08669 1750.4314,516.3587 C 1750.2253,519.9679 1751.2457,518.60155 1753.5989,519.31354 C 1754.693,519.64499 1753.7876,522.09308 1753.5444,523.34673 C 1753.1259,525.87813 1745.4186,523.79306 1746.3786,527.21723 C 1745.6486,527.0458 1744.3956,527.64366 1743.7328,527.99277 C 1742.4023,528.69292 1743.0496,530.36302 1742.6612,531.47953 C 1742.1249,533.02179 1741.7046,534.08203 1741.73,535.78044 C 1741.7398,536.49165 1741.8157,538.16075 1740.6275,537.70385 C 1741.0231,539.68759 1736.9541,537.91547 1736.3044,537.7028 C 1735.5756,537.46379 1733.8389,537.62594 1733.7336,536.55486 C 1733.5866,535.0753 1731.8309,535.95853 1732.5041,536.64229 C 1732.1663,536.70655 1728.4125,536.59173 1728.1209,536.33362 C 1726.9988,535.34516 1724.6528,535.49167 1723.269,535.91638 C 1722.1019,536.27568 1721.3333,535.63079 1720.5094,534.99097 C 1719.4088,534.13687 1718.397,534.65675 1717.1583,534.30666 C 1716.1719,534.02718 1715.2229,534.87395 1714.2419,534.44164 C 1713.3402,534.04406 1713.2235,532.68409 1712.0626,533.91011 C 1712.4632,532.42656 1709.3276,532.85084 1708.5321,532.02331 C 1706.8601,530.28378 1706.6361,526.42023 1706.4139,524.02308 C 1706.2291,521.00424 1703.7633,519.33903 1700.8509,519.56638 C 1699.5234,519.67049 1698.4603,520.80148 1697.1904,521.16771 C 1696.1319,521.47339 1694.8013,521.68139 1695.2593,522.90561 C 1695.5524,523.68917 1692.9257,523.33931 1692.7413,523.38384 C 1691.379,523.71356 1690.7532,525.13038 1689.5744,525.71081 C 1687.5894,526.68911 1686.0485,524.01354 1684.2,524.01354 C 1681.9276,524.01354 1680.6207,524.47031 1679.42,522.3233 C 1678.8275,521.2505 1677.2961,520.90339 1676.295,520.29819 C 1674.9877,519.51008 1673.7244,518.64938 1672.3442,517.97543 C 1673.8806,516.60981 1670.5926,515.33903 1669.8357,514.96636 C 1669.1488,514.62664 1668.5693,513.96512 1667.8236,513.77547 C 1666.7759,513.50907 1665.291,513.94701 1664.4625,513.25116 C 1662.6292,511.71254 1662.283,510.30717 1661.178,508.16241 C 1660.6544,507.1479 1661.2114,505.75727 1660.3032,504.9363 C 1659.6838,504.37628 1658.6497,504.06676 1658.7513,502.98782 C 1659.9687,503.11107 1659.8975,501.99617 1659.0037,501.78598 C 1658.4075,501.64548 1656.8668,501.76882 1657.5942,500.64451 C 1658.5457,499.1898 1656.373,497.59846 1655.7262,496.83397 C 1654.6351,495.54511 1653.8897,494.17128 1653.4525,492.48698 C 1652.7006,489.5984 1649.9545,494.65052 1648.9642,492.92572 C 1648.298,491.76879 1647.0112,492.59156 1646.6038,491.49805 C 1646.4083,490.97478 1644.8939,490.69419 1644.5025,489.8986 C 1645.2875,489.84569 1646.0288,490.16096 1646.8276,489.8986 C 1646.692,488.82066 1645.5042,488.52892 1644.5963,489.04322 C 1644.7661,489.28303 1644.9419,489.51632 1645.1247,489.74203 C 1642.9243,489.43964 1645.9815,494.73128 1642.2777,493.08308 C 1642.4562,493.89014 1641.7593,494.10127 1641.1911,493.82874 C 1640.393,493.44733 1640.4654,492.44385 1640.2512,491.66956 C 1639.8099,490.07027 1637.6482,489.93855 1637.6025,487.95718 C 1637.5743,486.69628 1638.3985,484.18358 1636.6658,484.23883 C 1633.9399,484.32658 1635.1935,480.46444 1635.764,478.54574 C 1636.5253,475.99232 1635.358,475.52297 1634.1099,473.72601 C 1632.8389,471.89647 1633.2294,470.84165 1630.8991,470.37298 C 1629.1208,470.01564 1628.1328,467.99362 1626.7993,466.96027 C 1626.0712,466.39625 1625.224,465.68626 1624.209,465.77393 C 1622.5095,465.91858 1623.6177,464.92991 1622.4359,464.43534 C 1625.2217,463.57742 1620.3447,459.19368 1619.5597,458.42862 C 1618.9852,457.86806 1618.4991,457.1993 1617.9408,456.61844 C 1617.1118,455.75721 1617.97,455.55754 1618.4531,454.47933 C 1618.8942,453.49646 1618.7542,453.01693 1618.0503,452.38691 C 1617.3587,451.75993 1618.0767,450.83059 1618.2947,450.0734 C 1618.7464,450.38894 1619.2605,450.54835 1619.8357,450.55278 C 1619.7961,449.84639 1619.5438,449.18953 1619.5594,448.47029 C 1619.584,447.22492 1620.8768,447.42682 1621.083,446.5036 C 1621.3836,445.15544 1621.3867,445.53758 1622.4669,445.54424 C 1623.4835,445.5498 1623.4859,444.58203 1623.2195,443.96948 C 1622.7747,442.93944 1621.5123,441.95209 1622.03,440.5818 C 1622.4764,439.39761 1624.1623,439.701 1624.6148,438.38882 C 1623.8476,438.6143 1623.3859,438.03043 1622.6538,438.10747 C 1621.7633,438.20126 1620.7581,438.64555 1619.9627,438.14767 C 1618.7579,437.39493 1618.6802,436.29302 1616.9201,436.69992 C 1618.4308,433.86037 1614.1437,433.0392 1614.5441,431.1362 C 1614.7779,430.02592 1614.7443,429.63278 1613.802,429.19009 C 1613.5596,429.07546 1612.7222,425.49571 1612.788,425.00206 C 1613.0166,423.2751 1611.9822,423.96683 1611.4223,422.78741 C 1610.8506,421.58434 1611.9548,420.03738 1610.5718,419.26096 C 1610.1424,419.01865 1608.4536,418.59622 1608.6239,417.82007 C 1608.879,416.65783 1609.5241,414.89491 1610.4672,414.06086 C 1608.6929,413.3946 1609.3586,410.69531 1609.0446,409.12504 C 1608.9059,408.43108 1607.7065,408.02114 1608.1494,407.14031 C 1608.6484,406.15249 1607.5502,404.46089 1607.0508,403.71393" id="path4606"/>
</svg>