<svg fill="#fff" height="407" viewBox="-140 -430 3053 1838" width="774" xmlns="http://www.w3.org/2000/svg">
<path xmlns="http://www.w3.org/2000/svg" transform="matrix(0.85,0,0,0.85,166,125)" class="land ua" d="M 1492.5586,221.67209 C 1492.37,219.41368 1494.2843,217.85534 1495.2741,215.97259 C 1496.3839,213.86089 1496.9295,212.21378 1499.4082,214.16581 C 1499.5735,213.32558 1499.2232,212.96809 1498.6539,212.52963 C 1497.833,211.89783 1498.288,210.45921 1497.9801,209.50354 C 1496.9745,206.3982 1499.5395,204.3159 1501.6154,202.15395 C 1503.3477,200.36762 1505.1479,198.26278 1507.2421,196.96048 C 1509.5752,195.51057 1512.3317,194.49717 1509.5592,191.65556 C 1510.1677,191.38075 1510.7707,191.08752 1511.3668,190.77589 C 1508.8995,190.16149 1505.7975,184.34474 1506.167,181.66742 C 1506.4866,179.35538 1509.2387,181.73524 1510.4858,181.05829 C 1511.6382,180.43336 1512.7038,179.51144 1513.48,178.40773 C 1514.4619,177.01477 1516.608,177.38024 1517.9121,177.37404 C 1520.8469,177.35856 1523.8188,177.08757 1526.7558,176.96675 C 1529.3629,176.85988 1531.3706,177.86936 1533.7315,178.52682 C 1534.889,178.84845 1538.7038,178.43713 1539.4593,179.44656 C 1540.2491,180.50589 1540.9956,181.6335 1542.5268,181.10457 C 1543.8466,180.64942 1544.662,181.95873 1545.7645,182.26846 C 1546.1329,180.41637 1546.699,181.45773 1548.1469,181.28503 C 1549.215,181.15701 1550.1471,181.09994 1550.9908,181.81694 C 1551.5878,182.32548 1552.6378,181.37755 1553.3606,181.71674 C 1554.0559,182.04196 1553.9581,183.32945 1554.7054,183.71108 C 1554.6676,181.46699 1557.2631,180.72966 1558.7066,181.60729 C 1560.2257,182.52882 1559.8752,185.11168 1562.4538,183.25866 C 1563.1984,182.72442 1563.7542,182.69977 1564.4966,183.1232 C 1565.4503,183.66799 1566.923,182.52266 1568.026,182.78756 C 1568.7197,182.95386 1571.362,186.88619 1572.0293,184.82895 C 1572.8525,182.28387 1570.9017,181.45929 1572.5676,178.65208 C 1573.7539,176.65229 1575.7425,174.2385 1577.8686,175.44612 C 1578.2043,175.63692 1579.7005,174.86113 1580.0494,174.7711 C 1581.1412,174.48853 1582.6101,174.60498 1583.6527,174.79284 C 1586.013,175.21961 1588.4907,175.83852 1588.7243,171.89819 C 1590.5785,172.0383 1592.1643,173.37145 1594.1326,172.50364 C 1595.0977,172.07877 1596.1463,171.55562 1597.1602,171.44192 C 1598.3969,171.30329 1598.7758,172.33402 1599.7687,172.34647 C 1600.5446,172.35581 1601.0716,171.57588 1601.8156,171.59924 C 1602.9962,171.6366 1604.2746,173.22997 1604.6598,174.26646 C 1605.4106,176.29433 1607.6482,177.38024 1608.1821,179.26885 C 1607.3495,179.78023 1605.7312,179.71999 1605.0568,180.3994 C 1604.6634,180.79756 1607.6836,184.61839 1606.0146,185.59246 C 1607.2398,186.04998 1611.178,187.01194 1612.5169,186.59475 C 1614.6809,185.92257 1614.8171,188.46313 1616.7605,188.35133 C 1615.836,189.80522 1617.4067,190.82784 1617.623,192.03103 C 1617.9115,193.65494 1617.057,195.01311 1618.3305,196.36799 C 1619.6183,197.74085 1621.1007,196.22057 1622.6576,196.0701 C 1624.486,195.89377 1625.1575,197.99426 1627.0037,197.81976 C 1628.4873,197.68014 1627.8605,199.1513 1629.8316,197.99123 C 1631.4559,197.03492 1633.1907,197.32797 1634.8982,196.40143 C 1636.5901,195.48472 1637.4139,197.57996 1637.9669,198.70409 C 1638.8431,200.48115 1641.2394,200.90793 1641.7345,202.91385 C 1644.3329,201.45248 1643.4111,200.44028 1646.0412,202.05269 C 1647.4122,202.88667 1651.1622,204.6763 1652.6204,203.13281 C 1653.3606,205.40125 1655.2506,204.04438 1656.2397,205.57751 C 1656.7258,206.33347 1657.6228,206.91287 1658.5037,207.09189 C 1659.6064,207.31602 1660.7461,206.19648 1661.6743,206.71275 C 1660.0382,208.15638 1662.5225,211.11283 1659.7928,213.17153 C 1659.0106,213.76073 1657.4875,213.48411 1657.9135,214.91724 C 1658.4673,216.78543 1660.4804,214.66184 1660.3522,216.85102 C 1659.2063,216.46931 1656.9434,217.67363 1657.3806,219.27981 C 1657.53,219.82855 1661.1676,221.21334 1658.9585,222.73878 C 1659.3232,223.09758 1659.7791,223.2043 1660.3251,223.05903 C 1660.352,223.74814 1658.8209,227.16377 1658.381,227.85184 C 1657.0728,229.93124 1654.4259,228.31376 1652.5258,228.70176 C 1651.4188,228.92888 1650.607,228.21638 1649.4656,228.77697 C 1648.3366,229.33436 1648.1129,230.71628 1646.7506,231.21089 C 1645.967,231.49636 1644.6509,231.67439 1644.306,232.69637 C 1643.8275,234.11534 1643.2494,235.31552 1644.491,235.58385 C 1643.6301,236.29324 1644.2604,237.46482 1643.2577,238.02966 C 1642.0334,238.72001 1639.2447,238.01211 1637.8501,238.27396 C 1636.4743,238.5343 1636.0972,240.05563 1634.6916,240.16662 C 1633.0349,240.29804 1630.9806,241.20152 1630.3368,243.05447 C 1629.7462,241.72812 1627.996,241.83163 1626.7888,242.5066 C 1624.7566,243.64137 1623.4969,243.07776 1621.4198,243.70689 C 1617.9463,244.76048 1616.8293,249.68419 1613.3664,250.58051 C 1613.5702,249.97531 1618.7332,246.18658 1615.0511,245.67217 C 1616.1206,247.65592 1613.5622,248.03314 1612.3416,248.82923 C 1610.5673,249.98545 1612.777,253.81413 1613.3989,254.87468 C 1614.5245,256.79288 1619.0328,263.326 1621.0147,258.163 C 1621.9297,259.46118 1622.6592,259.06884 1623.9644,258.40174 C 1625.7093,257.51121 1627.5998,258.36292 1628.7765,259.51004 C 1627.1732,259.72985 1627.1017,260.52401 1626.9587,261.88708 C 1626.7819,263.5566 1625.3362,263.47927 1624.0926,263.62533 C 1622.7405,263.78285 1622.0163,263.72127 1620.887,263.0223 C 1620.2031,262.59816 1619.2717,261.93441 1618.3351,262.30001 C 1617.4104,262.66264 1617.7753,263.62533 1617.2078,263.85014 C 1615.8268,264.39837 1614.9058,265.76575 1613.4843,265.9716 C 1611.5542,266.25172 1609.9045,266.0545 1608.2534,267.60136 C 1605.4217,270.25499 1600.3759,273.4331 1598.1572,268.68146 C 1600.0868,269.14774 1601.3523,262.18532 1598.3455,261.71498 C 1596.6825,261.45392 1595.8635,260.81539 1594.5264,259.92233 C 1593.2794,259.09041 1591.9774,259.68244 1590.584,259.49854 C 1588.4677,259.21545 1593.6067,255.881 1594.3809,255.57113 C 1595.9109,254.96122 1601.0732,254.10713 1601.7412,252.24538 C 1600.4779,252.28441 1600.4185,250.97125 1600.5054,249.95359 C 1598.9509,250.81353 1599.2961,251.02624 1597.5344,250.0622 C 1596.0866,249.26983 1593.9297,250.11724 1592.2433,250.14764 C 1590.4128,250.18095 1589.2494,250.38798 1587.6777,249.41908 C 1586.3252,248.58567 1584.839,247.22344 1583.025,247.76185 C 1588.4497,245.60966 1581.8371,246.43208 1580.7643,244.51899 C 1583.8482,246.19529 1588.2493,245.72449 1591.2299,243.57585 C 1589.3138,244.13194 1586.6945,245.09063 1585.2211,243.37053 C 1584.1108,242.07514 1585.2827,239.86868 1584.0611,238.53284 C 1584.9712,239.99429 1584.4908,241.38243 1584.356,243.00348 C 1584.2529,244.24254 1581.6102,243.455 1580.9244,243.89033 C 1580.6377,243.171 1580.7411,242.47163 1581.2311,241.79228 C 1580.3998,241.97162 1580.1373,243.11273 1579.6756,243.7098 C 1579.029,244.54808 1577.4641,243.75347 1576.6046,243.9078 C 1572.9313,244.56409 1573.1362,248.16368 1570.8099,250.4734 C 1570.7205,249.37706 1569.0432,246.06454 1567.5453,247.13344 C 1567.9148,248.66831 1570.1731,248.80024 1570.4579,250.34021 C 1570.795,252.15865 1565.6113,255.49903 1564.306,256.19367 C 1565.5039,255.40822 1566.9885,254.57754 1567.4801,253.07769 C 1566.1553,253.18023 1563.3325,257.7314 1563.3566,254.53281 C 1562.6682,255.24963 1561.5889,257.55583 1563.6609,256.60709 C 1563.3851,256.94263 1563.1251,257.28815 1562.8778,257.64505 C 1564.2572,257.85657 1564.7757,260.64459 1563.1503,261.16268 C 1564.4601,257.26511 1559.4704,258.81585 1557.5211,259.38645 C 1555.0327,260.11334 1553.6937,261.53712 1551.2579,260.11477 C 1550.8519,259.87781 1548.3556,257.54719 1550.4167,257.53137 C 1552.8791,257.50977 1552.0873,255.76715 1553.3862,254.24712 C 1554.8202,252.56912 1557.3,251.29968 1557.1878,248.80024 C 1557.0892,246.60347 1556.1962,245.82186 1558.8787,244.83321 C 1559.0366,245.46865 1559.21,246.09504 1559.4019,246.71674 C 1561.1839,243.4943 1565.1475,248.87562 1567.6114,246.40303 C 1566.6686,246.09069 1566.3531,245.38402 1565.4717,244.9856 C 1568.313,243.96278 1564.3786,239.59228 1562.9085,240.55233 C 1562.1657,241.03752 1558.7249,238.65406 1561.8848,237.26794 C 1562.8521,236.84375 1563.0238,234.21369 1560.9991,235.23341 C 1560.4175,235.52667 1559.9992,232.31754 1559.7702,231.89547 C 1559.1878,230.81538 1558.7624,229.69842 1558.4142,228.37573 C 1557.8037,225.97415 1556.5089,227.96254 1555.4988,226.18408 C 1554.8679,225.07184 1552.6778,223.44402 1552.0344,225.59962 C 1551.8986,223.68702 1550.5153,226.29568 1550.3467,224.45239 C 1548.2008,225.47353 1546.3109,221.99116 1544.6496,221.24007 C 1542.5068,220.27004 1539.9995,222.19146 1537.6294,221.96594 C 1536.8033,221.88729 1535.8522,221.99413 1536.0373,223.16577 C 1535.2571,223.01604 1534.1197,223.56442 1533.3818,223.84741 C 1532.6572,224.12439 1531.6527,224.38502 1531.3005,225.2272 C 1530.4884,227.16967 1529.5414,227.00719 1527.6371,227.18593 C 1525.2893,227.40744 1522.7938,226.9348 1520.9285,228.96723 C 1518.2069,231.95534 1517.0871,228.2931 1514.7531,227.47389 C 1513.6372,227.08252 1512.3079,227.50638 1511.1515,227.65107 C 1509.7105,227.83117 1509.0121,227.33213 1507.6847,227.08844 C 1506.3375,226.84173 1504.9673,227.33213 1503.8055,226.42945 C 1501.8674,224.92089 1501.4626,226.81809 1499.5673,227.3218 C 1499.6682,225.03631 1497.5419,225.9357 1496.5425,224.67668 C 1495.8386,223.78816 1495.3773,224.17624 1494.6716,223.59555 C 1493.8708,222.93895 1493.7492,221.96297 1492.5586,221.67209" id="ua"/>
</svg>