<svg fill="#fff" height="407" viewBox="-140 -430 3053 1838" width="774" xmlns="http://www.w3.org/2000/svg">
<path transform="matrix(0.9,0,0,0.9,87,101)"
d="M 1606.538,424.25531 C 1607.0289,423.64012 1609.6751,420.6905 1608.6023,419.97986 C 1610.7456,416.77616 1611.4702,413.04842 1612.4275,409.4368 C 1612.7222,408.33065 1612.8848,406.51075 1613.8327,405.71279 C 1614.5437,405.11504 1613.6215,403.81994 1614.2794,403.15771 C 1614.8843,402.55001 1616.2004,403.16422 1616.8433,403.24507 C 1618.3636,403.43541 1618.278,401.83906 1618.8238,400.90329 C 1620.5533,401.6368 1619.0181,409.10931 1618.5384,411.02666 C 1617.6088,410.95136 1616.8782,409.89416 1615.993,409.52647 C 1614.6671,408.97805 1613.8168,410.90981 1613.5583,411.92362 C 1613.2429,413.16773 1612.0403,417.53069 1613.9553,417.43234 C 1617.4361,417.25376 1612.2369,419.93204 1612.4902,422.18201 C 1612.6633,423.71107 1617.0863,421.01214 1617.8905,421.0031 C 1617.9506,422.60407 1617.0907,423.64012 1617.4299,425.29051 C 1617.8088,427.14682 1615.9347,429.40917 1615.2987,431.11261 C 1614.0114,434.55498 1615.3772,440.53614 1612.3766,443.3817 C 1611.1132,440.40182 1611.49,436.81035 1609.7503,434.01736 C 1609.0197,432.84414 1608.9732,431.35488 1608.5237,430.05985 C 1607.8538,428.12997 1607.0743,426.41394 1606.538,424.25531" />
</svg>