<svg fill="#fff" height="407" viewBox="-140 -430 3053 1838" width="774" xmlns="http://www.w3.org/2000/svg">
<path d="M 1791.7478,550.783 C 1791.8206,549.00518 1793.7365,548.97376 1794.992,548.97376 C 1796.4732,548.97376 1795.9796,546.63886 1796.0029,545.80407 C 1796.9538,546.31379 1799.1191,546.41761 1800.217,546.08936 C 1802.2251,545.48832 1803.536,548.07698 1805.5414,547.16201 C 1806.0047,546.95025 1809.105,543.71991 1809.7281,545.01723 C 1810.7488,547.13685 1812.1526,546.27918 1813.9822,544.97211 C 1812.3714,544.63105 1814.0492,542.44177 1813.575,541.3752 C 1812.7345,539.48667 1811.7886,537.71228 1810.7692,535.93113 C 1810.2075,534.95302 1811.2926,532.73581 1809.3179,533.32251 C 1807.6686,533.81306 1806.0316,531.64849 1806.354,530.06715 C 1806.5826,528.94564 1807.211,526.45305 1806.3207,525.58478 C 1804.8728,524.17252 1801.9157,525.25856 1801.4576,522.59061 C 1801.1668,520.65709 1803.1676,518.70252 1804.392,517.2821 C 1805.2727,516.26186 1805.8365,515.07923 1806.5638,513.9566 C 1807.0754,513.16482 1808.1678,511.3829 1809.2595,511.66987 C 1810.6772,512.04319 1810.1781,514.59682 1811.7628,514.74805 C 1812.6659,514.83431 1813.6839,514.12813 1814.528,513.76588 C 1815.5689,513.31937 1816.5465,513.37159 1817.6009,513.22451 C 1820.0441,512.88234 1819.8859,510.8846 1821.4638,509.42949 C 1823.3761,507.66859 1822.7332,505.34736 1825.3697,503.92536 C 1827.7826,502.62446 1828.9314,501.00398 1830.0366,498.44534 C 1830.8762,496.57262 1830.8343,494.08835 1833.1732,493.31371 C 1833.9719,493.04967 1834.9169,492.87614 1835.4746,492.07832 C 1836.2589,490.95535 1834.8957,490.70283 1835.0008,490.13613 C 1835.1277,489.45368 1837.2966,487.04783 1837.803,486.42257 C 1838.7508,485.25689 1840.6619,484.62772 1841.4141,483.35999 C 1839.8139,483.32747 1840.5024,481.7615 1840.6949,480.62513 C 1840.9281,479.2446 1839.8948,478.20544 1840.1415,477.01874 C 1840.574,474.94019 1844.506,474.54682 1845.863,473.20474 C 1848.1929,470.89735 1842.7706,470.67342 1841.8898,470.31288 C 1840.9842,469.94242 1841.6774,468.44111 1840.7524,467.86011 C 1840.1208,467.4628 1839.2719,467.46937 1838.6042,467.12452 C 1839.0646,466.2867 1838.8089,465.80791 1838.1865,465.42432 C 1837.5233,465.01434 1835.6385,463.73324 1836.3865,462.73 C 1837.0971,461.77885 1837.6663,460.76444 1836.7477,459.99796 C 1836.1838,459.52821 1835.285,458.53102 1836.366,457.69732 C 1836.7966,457.36569 1839.2527,455.83001 1837.435,455.65793 C 1837.138,455.62925 1834.2798,455.60498 1835.2972,454.51687 C 1836.5734,453.15175 1835.18,453.2534 1834.4831,452.59142 C 1833.6483,451.76657 1835.8167,449.60384 1836.5743,449.17623 C 1838.5245,448.07561 1840.123,448.91805 1841.8005,449.33023 C 1843.7004,449.79656 1845.5675,450.32031 1847.454,450.80513 C 1849.0617,451.21789 1850.3211,450.10994 1851.9541,449.55953 C 1853.379,449.07984 1854.7523,449.14188 1856.1544,448.70527 C 1856.5923,448.56894 1859.4803,446.09506 1859.3755,445.77415 C 1859.0903,444.90432 1861.8431,443.57357 1862.6296,443.014 C 1863.2614,442.56551 1863.9492,442.06789 1864.6576,441.82849 C 1865.2522,441.62691 1865.4035,442.1102 1865.8926,441.96546 C 1867.5321,441.48211 1866.5497,443.54576 1867.0649,444.49867 C 1867.8401,445.93184 1867.5967,447.94064 1868.5976,449.19617 C 1869.6691,450.54101 1872.5554,450.13551 1873.5031,452.25755 C 1873.7784,452.84887 1874.5861,453.49867 1873.6867,454.147 C 1871.9646,455.38874 1872.3183,455.58402 1872.5603,457.4329 C 1872.7755,459.07922 1872.8504,460.67098 1873.8781,461.90189 C 1874.6587,462.8387 1876.3745,462.93861 1877.0019,463.83309 C 1877.308,464.26972 1877.002,465.01105 1877.1404,465.52954 C 1877.2961,466.1147 1877.7055,466.53645 1877.9906,467.03364 C 1878.957,468.71021 1877.4665,469.04377 1876.2957,469.961 C 1875.2597,470.77173 1873.5286,472.43889 1873.0364,470.33473 C 1872.6611,468.73208 1871.5511,468.51878 1869.7623,469.72491 C 1870.1842,470.37188 1870.2452,471.10815 1870.3039,471.91502 C 1870.3701,472.8175 1871.1314,473.27236 1871.5688,473.92335 C 1872.5085,475.31929 1871.8615,476.89033 1872.7301,478.10105 C 1873.2443,478.81749 1871.5836,481.74956 1873.465,481.48698 C 1874.2843,481.37303 1874.1586,480.5969 1874.7862,480.38734 C 1875.7711,480.0572 1875.9019,481.1462 1876.1414,481.73112 C 1876.4817,482.56636 1877.9206,484.34717 1878.8164,484.53998 C 1879.8865,484.77068 1880.7616,484.02648 1881.481,485.12913 C 1881.917,485.79816 1882.905,485.55028 1883.3993,486.09037 C 1883.7338,486.45503 1883.6516,487.11488 1883.6681,487.61339 C 1883.696,488.45003 1884.6148,488.45868 1885.2282,488.76556 C 1886.9101,489.61136 1888.7493,489.99793 1889.8109,491.69113 C 1887.7059,491.81841 1886.5955,494.85833 1884.9564,495.89378 C 1884.7993,495.99277 1884.7504,497.51568 1884.5157,497.87363 C 1883.6757,499.14899 1884.4166,499.6913 1883.9874,500.89346 C 1883.5962,501.99188 1881.6026,503.14965 1882.5955,504.4491 C 1883.1873,505.22534 1885.6438,507.40345 1885.903,505.84609 C 1887.0237,506.65274 1888.348,507.80542 1889.6353,508.33233 C 1891.1625,508.95737 1891.6571,510.31358 1893.0009,511.23567 C 1893.3981,511.50772 1895.4487,513.48136 1896.1166,513.22451 C 1897.681,512.62221 1898.8991,513.85538 1900.0288,514.51267 C 1900.5103,514.79278 1902.3094,514.82153 1902.5342,515.18465 C 1903.3166,516.44808 1903.3957,516.79067 1905.0815,517.15553 C 1905.968,517.34804 1906.9943,518.33051 1908.0285,517.63518 C 1909.4088,516.70662 1909.9995,517.44057 1911.2504,518.05623 C 1910.7924,515.65095 1916.2092,518.09451 1916.5879,518.21995 C 1918.1079,518.72484 1916.6746,520.91401 1918.0922,521.26643 C 1919.3071,521.56784 1921.1153,522.22464 1921.6929,523.36158 C 1922.1751,524.27108 1923.6846,522.96499 1924.4444,522.9003 C 1926.3046,522.74228 1924.9802,525.57737 1927.5278,524.56144 C 1928.2784,524.26154 1931.2533,525.36766 1931.8828,525.79024 C 1933.5038,526.8754 1934.0464,525.79553 1935.7405,525.23843 C 1935.7357,526.43611 1937.473,527.6299 1938.4646,526.73251 C 1938.8406,526.39165 1941.4525,526.7378 1942.0291,526.7505 C 1943.2634,526.77908 1943.5237,526.69017 1943.8883,525.32317 C 1944.5599,522.99151 1943.6606,522.08353 1943.1641,520.08473 C 1942.8912,518.98733 1943.2859,517.60966 1943.6035,516.44063 C 1943.9871,515.02173 1943.8622,513.92251 1944.0437,512.53692 C 1945.4441,512.43776 1947.2473,511.23247 1948.5516,511.6464 C 1951.1113,512.45801 1948.092,515.91492 1948.9769,517.36613 C 1949.1358,517.62667 1950.0382,518.24121 1949.6367,518.69508 C 1949.0175,519.39428 1948.5775,519.3061 1948.9306,520.30668 C 1949.7076,522.50575 1951.3105,522.43892 1953.3321,522.71682 C 1954.6917,522.90349 1955.33,524.17252 1956.7337,524.02202 C 1957.3219,523.95948 1958.255,523.9404 1958.8228,523.58952 C 1959.4159,523.2248 1960.7012,521.86178 1961.3488,522.4018 C 1962.9705,523.75278 1965.4011,523.30962 1967.5739,523.2248 C 1968.2372,523.19935 1969.4989,522.34239 1969.7798,522.79637 C 1970.2109,523.49517 1972.2523,522.79637 1973.0986,522.69561 C 1975.2191,522.44423 1973.1969,520.53923 1973.6496,519.6195 C 1975.1535,516.5715 1971.7746,517.83509 1970.7874,516.40658 C 1970.2481,515.62646 1970.275,514.02585 1971.6957,514.3987 C 1972.8334,514.698 1973.3175,514.0983 1974.4195,513.84366 C 1976.0766,513.46005 1978.8134,514.30603 1978.7154,511.49279 C 1978.6732,510.30717 1982.2247,509.11547 1982.6782,507.49433 C 1983.3971,504.93308 1986.3564,506.1949 1988.0855,504.73715 C 1989.473,503.56862 1990.4207,502.18061 1991.9257,501.11664 C 1992.4805,500.72392 1993.0514,500.29248 1993.6447,499.97903 C 1994.1557,499.70848 1996.0436,501.39878 1996.4553,501.68302 C 1996.0176,501.11234 1996.2226,501.09518 1997.0705,501.63476 C 1997.7485,501.95757 1998.5055,502.49689 1999.3516,502.46151 C 2000.2167,502.42506 2000.2945,501.3666 2000.7185,500.80226 C 2001.4752,499.7933 2003.5187,499.15758 2004.6005,498.75047 C 2004.8396,498.6613 2006.6418,500.66812 2006.8532,500.91171 C 2005.2224,501.58756 2005.3047,501.79134 2005.4361,502.95674 C 2005.5293,503.78182 2007.5309,502.33607 2007.937,502.2235 C 2007.3879,503.35539 2009.183,504.07211 2008.65,504.96948 C 2007.8364,506.3329 2007.2026,506.79607 2006.6507,508.1592 C 2006.2568,509.12935 2008.3498,508.28531 2008.6966,508.19126 C 2010.1736,507.79259 2010.9031,509.25753 2012.4133,508.81315 C 2013.7087,508.43171 2014.3872,510.11822 2014.1669,511.18338 C 2014.0845,511.58133 2014.5864,511.90774 2014.4618,512.20422 C 2014.1629,512.91752 2012.8722,513.7776 2012.3048,514.25916 C 2009.247,516.8545 2012.7794,517.90101 2012.7076,520.35341 C 2010.9092,521.05201 2010.8616,518.7174 2009.5981,518.3422 C 2008.3878,517.98288 2005.0003,519.12441 2003.9466,520.21642 C 2003.141,521.05201 2002.4627,521.75673 2001.5418,522.47287 C 2001.1567,522.94697 2000.7031,523.13148 2000.1817,523.02756 C 1999.6334,523.41777 2000.0365,523.70189 1999.2158,524.14708 C 1998.3485,524.62184 1997.7289,524.07289 1997.2481,525.26809 C 1996.8948,526.14602 1996.8767,527.14422 1996.9857,528.0044 C 1997.0686,528.66014 1997.4956,529.11058 1997.5969,529.72368 C 1997.732,530.54263 1996.5731,531.01061 1996.7087,531.89662 C 1997.0405,534.04722 1993.0894,535.45056 1993.6396,537.24791 C 1993.8368,537.89231 1994.4899,538.11759 1994.6424,538.84801 C 1994.8756,539.96842 1993.993,541.3174 1993.382,542.29364 C 1991.8728,544.70347 1990.4172,547.37795 1990.055,550.10785 C 1989.3938,549.50579 1987.5592,548.92453 1986.6647,548.67941 C 1986.1931,548.71294 1985.7218,548.77998 1985.25,548.88054 C 1984.6756,548.75798 1984.5965,548.22682 1983.8715,548.3735 C 1984.3441,550.50563 1984.5153,552.40254 1984.3322,554.65941 C 1984.2547,555.60999 1983.9599,558.60962 1982.4412,557.33259 C 1982.4265,559.38656 1982.0637,560.89175 1982.6,562.82915 C 1982.7906,563.51729 1983.1396,565.82594 1981.7196,564.90961 C 1980.5307,568.00982 1981.046,566.10982 1979.082,565.36002 C 1979.1276,565.96529 1978.8028,566.55793 1978.2795,566.93216 C 1977.8281,565.35794 1977.9414,563.5787 1977.8461,561.91168 C 1977.7323,559.90473 1976.7382,558.16942 1976.4732,556.19582 C 1976.2675,554.66567 1975.904,553.12511 1975.8244,551.57304 C 1975.7558,550.21463 1973.9788,552.28227 1973.2524,551.5406 C 1973.3951,552.43392 1973.6648,553.11674 1972.77,553.84849 C 1971.8089,554.63433 1972.2278,555.55986 1972.2674,556.49442 C 1972.3059,557.38999 1971.1314,558.46985 1970.3621,557.82095 C 1969.6108,557.18857 1970.0412,555.93164 1969.049,555.45333 C 1969.0768,555.95984 1968.9863,556.46205 1968.7811,556.95686 C 1968.3337,555.41677 1967.8802,553.87984 1967.4666,552.32306 C 1967.0501,550.75369 1969.1968,549.18743 1968.9585,547.76889 C 1969.7083,547.87264 1971.0411,548.11889 1971.0771,546.86323 C 1971.4623,547.6578 1972.3467,546.44906 1972.9639,547.09073 C 1973.4739,545.10852 1976.5224,543.10771 1975.6413,540.74027 C 1976.0985,540.78443 1978.0426,540.69926 1977.2683,539.7486 C 1976.3614,538.63439 1974.4861,537.99442 1972.9943,538.01443 C 1971.6735,538.03232 1970.3281,538.28496 1969.0423,538.06811 C 1967.3525,537.78387 1965.771,538.29233 1964.0771,538.07338 C 1961.9394,537.79861 1956.3609,538.39653 1957.141,535.02681 C 1957.4732,533.5947 1957.4543,528.78069 1955.2043,528.97419 C 1955.4724,529.62327 1955.2097,530.23623 1954.8731,530.87752 C 1953.9198,530.29117 1952.5696,530.11471 1951.9727,529.07569 C 1951.4733,528.20538 1951.3545,526.50598 1949.9379,526.76638 C 1950.3565,527.20983 1950.6319,527.74311 1950.7631,528.36614 C 1950.0325,528.06047 1949.1673,528.04143 1948.4698,527.65741 C 1948.0273,527.41406 1947.9225,526.65947 1947.5281,526.29531 C 1946.9977,525.80612 1946.3477,525.4704 1945.7911,525.01279 C 1944.7702,526.51127 1946.7328,525.79765 1946.9283,527.07014 C 1944.4667,527.98113 1942.5016,531.39399 1945.1851,532.54689 C 1946.2557,533.00702 1946.4951,534.26448 1947.3789,534.92244 C 1948.0267,535.40524 1949.4736,534.55974 1949.4466,535.58758 C 1949.4052,537.08467 1951.4981,536.51799 1950.331,538.09022 C 1949.7342,537.74491 1948.6798,537.85335 1947.9797,537.92073 C 1947.0316,538.01232 1946.8071,538.07548 1946.5942,538.9585 C 1946.372,539.88007 1945.2602,541.49187 1944.657,540.05992 C 1944.3591,541.62114 1942.9682,542.85564 1944.3317,544.14508 C 1945.3304,545.08858 1946.6356,545.68344 1948.0529,545.79148 C 1950.9142,546.01279 1945.384,552.91495 1948.6768,553.16693 C 1949.6441,553.24116 1948.9092,554.47865 1949.0307,555.24861 C 1949.0777,555.54002 1949.8859,555.65281 1950.0208,555.69563 C 1950.776,555.93477 1949.8353,557.08107 1949.831,557.558 C 1949.8197,558.52305 1950.5616,559.13526 1950.4601,560.1153 C 1950.323,561.42938 1950.224,562.15645 1950.7236,563.3372 C 1951.2318,564.54235 1951.7069,566.20236 1950.9197,567.45494 C 1950.6575,567.26891 1950.3866,567.0943 1950.1081,566.93112 C 1950.2698,567.43208 1951.7443,569.40168 1951.0831,569.90525 C 1950.3799,570.44298 1949.6443,569.48267 1949.7047,568.87619 C 1949.4647,569.68826 1948.7701,570.39939 1948.4011,569.32483 C 1948.0126,568.19268 1948.8356,566.76584 1948.9509,565.58363 C 1948.2112,565.93305 1948.8753,566.64733 1947.9943,567.30425 C 1948.2814,566.51219 1947.8792,565.75523 1948.3619,564.98451 C 1946.8343,566.06303 1947.6523,569.55016 1947.2215,571.0439 C 1947.0301,570.05579 1947.6115,568.46174 1946.7629,567.75422 C 1946.7604,567.86228 1946.6519,570.53121 1946.2514,570.23642 C 1946.1366,570.04748 1946.0372,569.85023 1945.9542,569.64361 C 1945.2664,568.43577 1945.6247,571.43613 1945.1835,569.17529 C 1945.4474,569.71006 1945.4021,570.25821 1945.0457,570.81974 C 1944.1558,569.89279 1944.4341,567.89449 1944.4748,566.63174 C 1944.5344,564.68697 1942.9802,565.06045 1942.5932,563.48606 C 1942.6394,565.06357 1945.2,564.75876 1943.7584,566.77728 C 1942.1333,569.04963 1940.7693,569.97481 1938.1428,570.74605 C 1936.7507,571.15597 1934.8257,571.86979 1934.3308,573.46064 C 1933.9964,574.54173 1934.5678,578.07413 1935.3067,578.87708 C 1934.7416,579.28156 1933.8899,579.69633 1933.5625,580.35093 C 1933.0639,581.34855 1934.0131,581.42606 1932.7231,582.37369 C 1931.1853,583.50275 1930.3914,585.67794 1928.9583,583.41806 C 1929.0977,584.26793 1930.0275,584.67676 1930.6729,585.05354 C 1928.4027,586.13815 1925.9801,587.23678 1923.5499,587.57814 C 1924.353,587.16149 1924.7868,585.30848 1923.5415,585.72644 C 1922.2657,586.15466 1920.9643,587.94524 1921.2276,589.21115 C 1921.4375,588.73289 1922.7522,587.14602 1923.0677,587.94936 C 1922.295,588.16589 1920.9116,590.14166 1920.1132,590.84732 C 1918.3206,592.43004 1917.2771,594.35964 1915.9307,596.30336 C 1914.6143,598.2684 1913.1112,600.21673 1910.9154,601.1858 C 1909.0321,602.01707 1908.6047,604.45003 1906.7531,605.26914 C 1907.866,605.98555 1901.9054,608.67856 1901.2176,609.25702 C 1900.5463,609.82206 1899.8123,610.64488 1899.4169,611.42248 C 1898.779,612.6775 1900.4092,612.99655 1899.7246,614.42881 C 1898.3711,617.26289 1895.0673,617.01779 1892.6252,617.13932 C 1891.6309,617.18936 1891.4544,617.90824 1891.156,618.75763 C 1890.8305,619.68437 1889.713,621.33207 1889.7086,622.19897 C 1888.9589,621.80737 1889.0088,621.00974 1888.7786,620.28947 C 1889.029,621.11888 1888.4576,621.88692 1888.1445,622.63948 C 1888.8958,620.15478 1885.2089,621.56361 1884.4741,622.76795 C 1883.3966,624.53242 1881.9719,627.22993 1882.498,629.19577 C 1882.9307,630.81163 1883.4404,632.56509 1883.3251,634.21813 C 1883.1282,637.04881 1883.4896,639.29381 1884.0369,642.04377 C 1883.8399,641.56901 1882.9096,639.29482 1882.8714,641.16724 C 1882.3335,639.82568 1882.2099,641.56495 1882.6774,641.86929 C 1883.2778,642.25882 1883.8878,642.30548 1884.2618,643.00025 C 1884.9477,644.27385 1884.0371,647.58583 1883.7451,648.96237 C 1883.2257,651.42062 1881.6615,653.28871 1880.7879,655.59999 C 1880.1067,657.39866 1880.7818,660.00293 1879.3771,661.50099 C 1879.6145,661.28283 1879.8684,661.0899 1880.1399,660.92021 C 1880.8905,661.87468 1880.8099,663.23889 1880.7229,664.42206 C 1880.5785,666.36481 1880.8928,668.28362 1880.7275,670.2209 C 1880.2187,670.18158 1879.7151,670.10999 1879.2189,670.00311 C 1881.1504,670.63731 1879.1633,670.32375 1878.8183,670.22997 C 1878.0985,670.03336 1877.053,669.65724 1876.5704,670.55363 C 1876.3204,671.01941 1875.934,671.58394 1876.1899,672.11314 C 1876.5713,672.90432 1875.3834,673.67624 1874.9945,674.28382 C 1874.2381,675.46254 1872.7503,678.04479 1874.7385,678.90462 C 1875.2541,679.12812 1875.9152,679.06268 1876.4393,678.8563 C 1876.8073,678.71032 1877.5146,680.02504 1877.7386,680.23037 C 1875.8301,678.16965 1872.4693,679.45731 1870.2782,680.52025 C 1867.4279,681.90199 1868.6068,684.52879 1867.1802,686.65479 C 1866.4582,687.72759 1865.0937,688.46548 1863.95,688.96808 C 1862.1484,689.76011 1861.1701,688.96205 1859.8876,687.76378 C 1859.2962,687.20982 1854.7512,682.21091 1856.2752,681.82552 C 1854.9264,682.30348 1854.5102,679.63347 1854.0799,678.50996 C 1853.469,676.91293 1852.8216,675.02433 1853.3372,673.27013 C 1853.7037,673.89993 1853.834,674.6425 1853.8422,675.37389 C 1854.0764,673.62585 1853.6806,677.05694 1854.7181,677.18786 C 1854.3949,676.23411 1854.7092,675.14723 1854.3158,674.2143 C 1853.9797,673.41625 1853.2,672.98494 1853.1706,672.03754 C 1853.1364,673.89288 1852.5869,672.09499 1852.6417,671.69583 C 1852.7697,670.75628 1852.241,670.46389 1851.8451,669.45051 C 1851.1789,667.64611 1850.6775,665.76238 1850.1017,663.92339 C 1849.8847,663.23082 1846.0743,656.31489 1846.3325,655.97414 C 1843.8646,652.67453 1842.2578,648.70208 1841.592,644.55974 C 1841.3798,643.08543 1841.2974,641.74147 1840.8783,640.35546 C 1840.5995,639.43592 1840.2873,638.58014 1839.9848,637.67644 C 1839.7569,636.99497 1838.8445,635.25269 1840.0251,635.68757 C 1838.7166,635.23542 1839.1709,633.35713 1838.532,632.39425 C 1838.1266,631.78203 1835.9728,630.56238 1837.9026,630.19711 C 1836.739,630.71396 1836.2765,629.36268 1836.0164,628.53416 C 1835.8123,627.88363 1835.6566,627.20753 1835.3825,626.58629 C 1835.1015,625.94968 1834.1141,625.65527 1835.4223,625.50449 C 1834.7959,625.34148 1834.3237,624.42338 1834.3919,623.79045 C 1834.4629,623.13396 1833.7613,622.9321 1833.3135,622.22039 C 1832.232,620.50067 1831.5979,618.44934 1831.1179,616.45092 C 1830.7836,615.0604 1830.5225,613.60081 1830.6389,612.1283 C 1830.7602,610.59372 1830.0505,609.15976 1829.9282,607.65039 C 1829.8135,606.23559 1829.1189,605.02312 1828.8009,603.66046 C 1828.5928,602.76912 1827.2272,599.82039 1828.6416,600.3964 C 1828.4024,600.05553 1826.5892,597.41554 1828.2902,598.40093 C 1828.0854,597.3179 1826.8481,596.62513 1827.4592,595.36663 C 1827.6866,595.55996 1827.9105,595.7574 1828.1309,595.95893 C 1828.2373,595.32652 1828.0691,594.80814 1827.6274,594.40284 C 1828.7286,593.98102 1828.2704,592.95193 1828.1457,592.1809 C 1828.0209,592.80474 1827.7457,593.36876 1827.25,593.81125 C 1826.5881,592.51961 1827.1219,589.60997 1828.7063,591.66196 C 1828.4857,590.93487 1825.8728,590.47648 1826.8122,589.45334 C 1827.1398,589.09674 1826.0601,587.62764 1825.9692,587.17283 C 1825.7265,585.95449 1825.8049,584.75109 1826.1779,583.50172 C 1826.763,581.54699 1828.1187,579.50085 1827.5471,577.4966 C 1827.4731,577.23573 1827.2975,573.80481 1826.1907,575.0764 C 1826.6167,574.17693 1826.4223,574.15102 1825.6065,575.0018 C 1826.6232,573.90536 1825.0889,573.57261 1825.4344,572.76386 C 1825.6594,572.23907 1825.8576,571.67683 1825.991,571.13003 C 1826.1866,570.33295 1828.8777,569.8305 1829.4626,568.87827 C 1827.3829,570.34749 1823.0576,569.20645 1826.2722,567.007 C 1825.2087,567.46741 1824.0898,566.74193 1824.9449,565.58571 C 1825.6771,564.59542 1826.5797,565.60235 1827.3236,564.61102 C 1826.2898,564.87424 1824.2187,564.49969 1823.7557,563.4871 C 1823.6396,563.99813 1822.633,564.19586 1822.6624,564.08659 C 1822.5239,564.57773 1823.2387,564.6568 1823.1808,565.41202 C 1823.1036,566.42902 1822.3624,566.73569 1821.489,567.00596 C 1821.6533,567.26164 1821.8254,567.51106 1822.0061,567.75526 C 1821.4317,567.59523 1820.9676,567.94229 1820.7456,568.50329 C 1822.7553,569.1566 1823.5111,570.5364 1821.9478,572.49526 C 1821.3939,573.189 1821.564,574.15827 1820.588,574.51789 C 1819.4037,574.95414 1818.3001,575.72595 1817.1989,576.36083 C 1815.2523,577.48211 1813.0276,578.86259 1810.8774,578.12587 C 1808.7088,577.38377 1806.2528,575.24942 1805.1098,573.28646 C 1803.4127,570.36409 1800.638,568.52615 1798.5677,565.95593 C 1798.0223,565.27889 1796.5093,562.97388 1798.5389,562.68963 C 1799.0925,562.61257 1799.0171,563.67758 1799.4064,563.90447 C 1800.1502,564.33633 1801.6299,563.99397 1801.8713,562.96346 C 1802.5365,564.07202 1806.3159,561.98668 1807.113,561.23872 C 1807.8046,560.58849 1807.7841,559.5805 1808.3079,558.837 C 1808.8601,558.0557 1810.143,557.53087 1809.1931,556.58316 C 1808.6161,557.11342 1809.0476,558.36867 1808.0346,558.31129 C 1806.9412,558.2487 1806.0244,558.46568 1804.9253,558.83282 C 1803.9902,559.14569 1803.5521,560.0048 1802.5264,559.95477 C 1801.2766,559.89326 1800.0869,559.27916 1799.0472,558.69932 C 1798.0101,558.12039 1796.8202,557.61644 1795.898,556.87857 C 1795.1621,556.28979 1795.2441,554.82553 1794.3341,554.48074 C 1791.2566,553.30597 1795.2265,550.78614 1796.2427,550.03561 C 1794.5599,549.83877 1793.1336,553.15856 1791.5215,552.37012 C 1791.896,551.85132 1791.9699,551.32402 1791.7478,550.783" id="path5490" />
</svg>