<svg fill="#fff" height="407" viewBox="-140 -430 3053 1838" width="774" xmlns="http://www.w3.org/2000/svg">
<path xmlns="http://www.w3.org/2000/svg" d="M 1833.5256,402.97111 C 1834.6228,402.97684 1835.536,402.39076 1835.5963,401.15346 C 1835.6756,399.45273 1834.8223,399.77122 1835.7431,397.97417 C 1836.4896,396.51803 1837.5199,397.03202 1838.6388,396.59756 C 1839.9426,396.09146 1840.8411,394.31091 1842.2494,394.27165 C 1842.152,393.73569 1842.2309,393.18099 1842.4871,392.60754 C 1843.2506,392.78446 1844.6802,393.62592 1845.5971,392.91395 C 1846.2853,392.3797 1847.1218,391.48991 1847.9482,391.37183 C 1848.8107,391.24912 1848.6473,393.54735 1849.0835,394.073 C 1849.8243,394.96551 1851.9814,393.75417 1853.1735,393.86739 C 1855.3652,394.07416 1856.3651,390.68748 1857.0291,389.02418 C 1857.5759,387.65121 1858.2937,387.13551 1859.6427,387.35738 C 1861.3541,387.63844 1862.996,387.67444 1864.8147,387.26794 C 1865.7642,387.05534 1866.9198,387.41081 1867.8416,386.6649 C 1868.8599,385.84059 1869.1445,384.21121 1870.2092,383.24648 C 1872.8886,380.81595 1876.7596,380.57414 1879.6289,378.60269 C 1880.7838,377.80894 1881.3812,377.38023 1882.5476,377.34977 C 1884.0459,377.30994 1883.8198,376.73452 1883.7243,375.58047 C 1883.6018,374.10924 1883.4968,372.81842 1883.2545,371.40129 C 1882.9342,369.5436 1884.9518,369.12944 1886.2499,368.80367 C 1885.9291,368.33137 1885.5132,367.96283 1885.0024,367.69817 C 1885.7293,366.92153 1886.9148,365.75259 1887.6753,366.50639 C 1888.7966,364.94734 1887.08,364.79333 1887.405,363.49521 C 1887.8414,361.79287 1886.6599,360.59941 1886.1956,359.32843 C 1885.5574,357.58137 1884.8497,355.82189 1884.8251,353.74476 C 1884.8087,352.37332 1886.2813,350.13807 1885.263,349.54096 C 1884.4024,349.0373 1880.077,349.56139 1881.834,347.68979 C 1882.8314,346.62861 1885.3987,346.32849 1886.6157,345.95713 C 1888.8333,345.28039 1890.8701,345.10661 1893.1378,344.32303 C 1895.3973,343.54248 1895.352,344.63702 1896.7762,345.35159 C 1897.9187,345.92457 1899.5193,344.45105 1900.5168,345.45173 C 1901.663,346.6033 1902.3138,344.6986 1902.3634,343.57391 C 1902.4375,341.88637 1900.1752,342.86536 1899.7954,341.60546 C 1899.4697,340.52707 1900.8624,338.46162 1901.3397,337.28138 C 1902.0594,335.49928 1902.2804,333.62369 1902.8804,331.81915 C 1903.447,330.10934 1904.7373,328.22719 1904.9673,326.55783 C 1905.2449,324.54071 1906.3904,323.97138 1907.7517,324.83019 C 1908.9011,325.5541 1909.8758,326.24182 1911.266,326.63036 C 1913.0774,327.13549 1915.2375,326.3279 1917.1487,326.54308 C 1918.6131,326.70781 1918.411,328.88114 1920.2426,327.5986 C 1921.6543,326.61069 1923.1793,326.47791 1924.5353,325.48641 C 1927.01,323.67672 1924.0343,318.67471 1924.1976,316.70804 C 1924.3066,315.63925 1925.1796,312.71374 1926.4397,311.96128 C 1927.6502,311.23694 1928.754,311.97875 1929.9879,311.46679 C 1933.115,310.17064 1933.4188,308.82257 1933.5848,306.1243 C 1933.6922,304.35754 1935.5836,304.2304 1936.5916,304.34747 C 1938.2046,304.53374 1938.9563,304.56646 1940.7802,304.00881 C 1941.5889,303.76198 1942.8421,305.29604 1942.0376,305.91825 C 1940.7484,306.91415 1941.7189,307.95036 1942.652,308.18729 C 1944.4872,308.6497 1942.3687,309.72651 1943.2976,310.32447 C 1944.589,311.15323 1946.8047,311.06451 1947.3985,312.68879 C 1948.0612,314.50823 1951.1546,316.69686 1953.5052,315.98363 C 1955.0625,315.51116 1957.1788,319.11216 1958.2719,317.24447 C 1958.9181,317.50637 1958.6927,318.24078 1959.133,318.67347 C 1959.7298,319.26206 1960.5825,319.31161 1961.1101,320.02112 C 1962.1039,321.35203 1961.9143,323.38443 1962.8401,324.7489 C 1963.6475,325.94169 1964.8515,326.74837 1965.6965,327.90067 C 1967.0954,329.80917 1965.7718,331.43021 1965.7025,333.78968 C 1965.6553,335.38231 1967.0547,335.71369 1965.604,337.71303 C 1964.3838,339.39292 1963.3083,340.94038 1964.0468,342.43951 C 1964.5756,343.51589 1965.1999,345.34193 1966.7009,345.21523 C 1968.6095,345.05351 1970.0271,346.29353 1971.8085,346.38997 C 1973.6048,346.4876 1975.2669,347.09128 1977.1099,347.01298 C 1978.8751,346.93708 1980.5947,346.79852 1982.2827,346.93829 C 1986.3103,347.26954 1988.1908,349.85578 1991.324,351.48123 C 1992.7515,352.22229 1993.8707,353.3401 1995.3182,354.04276 C 1996.3688,354.55242 1997.6784,354.45673 1998.9048,354.64929 C 2000.4475,354.89324 1998.6276,356.13246 1999.5274,356.89177 C 2000.7505,357.92361 2001.518,358.30985 2001.9138,360.12951 C 2002.2239,361.56356 2002.6309,363.02775 2003.2014,364.31694 C 2003.8643,365.82007 2005.3233,366.61049 2006.2601,367.8695 C 2006.9142,368.74937 2006.8405,370.03661 2008.0603,370.25003 C 2009.7365,370.54237 2011.6565,369.86798 2013.4719,369.67926 C 2017.3732,369.27459 2020.7587,371.16454 2024.4571,371.40365 C 2026.4052,371.52966 2028.3252,371.85346 2030.3464,371.79931 C 2032.2832,371.7475 2034.3567,370.78515 2036.2495,370.93127 C 2038.2726,371.08679 2040.1364,371.54497 2042.0816,371.84875 C 2043.7649,372.11244 2045.9369,371.79813 2047.373,372.47254 C 2048.7291,373.1101 2049.1158,374.66602 2050.2888,375.47838 C 2052.0033,376.6677 2054.8837,376.65012 2057.0459,377.18222 C 2060.3202,377.98811 2062.6644,380.31708 2066.8566,379.33624 C 2068.7688,378.88938 2068.8402,379.19003 2069.3522,380.46315 C 2069.8533,381.71268 2072.4282,380.38252 2072.8676,381.38466 C 2072.7484,381.1126 2083.5014,376.03449 2084.5141,375.58634 C 2086.5522,374.68363 2088.8796,374.26197 2090.8143,374.01289 C 2093.1181,373.71674 2095.8534,373.07365 2098.0389,373.03013 C 2101.2985,372.96427 2104.5919,374.20558 2108.3653,372.31604 C 2110.1332,371.43074 2112.8308,371.13862 2114.4332,369.83377 C 2115.9697,368.58289 2116.861,366.70038 2118.2184,365.28609 C 2119.4797,363.97077 2120.9878,363.40743 2122.4659,362.70492 C 2123.3042,362.30836 2124.049,361.78218 2124.7186,361.03225 C 2125.111,360.59465 2125.8577,361.02036 2126.1363,360.61606 C 2127.8202,358.15967 2122.8598,355.7992 2122.6731,353.9207 C 2122.4909,352.10601 2124.1141,347.11417 2127.0832,346.50568 C 2130.7343,345.75693 2133.1812,348.84611 2136.1785,349.42078 C 2136.8255,349.54577 2138.5527,350.20413 2139.4615,349.54817 C 2140.8783,348.52136 2142.6209,347.82583 2143.7693,346.55389 C 2144.7925,345.41795 2145.7182,344.07056 2146.9268,343.08064 C 2148.085,342.13212 2150.0847,342.95849 2150.9778,343.05766 C 2153.3604,343.32126 2156.444,341.94812 2158.9588,339.63199 C 2160.1866,338.51021 2159.1824,336.87995 2160.8865,335.14833 C 2162.4777,333.53213 2163.5516,333.15729 2165.2234,333.11455 C 2166.4301,333.08401 2167.1945,333.7311 2167.9286,331.78002 C 2168.4974,330.26735 2169.8769,331.2369 2170.3755,331.44856 C 2170.8979,331.67118 2173.6139,329.966 2174.621,329.70256 C 2175.4527,329.4844 2176.0424,329.6854 2176.7197,329.77853 C 2177.1512,329.85083 2177.6088,329.87656 2178.0904,329.85573 C 2178.4236,329.55794 2178.7597,329.26374 2179.0991,328.9719 C 2179.6582,328.96822 2180.5306,329.71359 2181.1222,329.85206 C 2182.1961,330.10076 2183.2883,330.32981 2184.4503,330.43513 C 2188.7141,330.81957 2186.7761,326.59594 2185.7089,325.20452 C 2183.1973,321.93775 2179.9392,319.0688 2176.4465,316.78877 C 2174.8852,315.74742 2172.2076,314.92023 2169.4403,317.56842 C 2166.0791,320.95394 2165.5029,317.41949 2162.5731,317.56221 C 2161.5856,317.61061 2159.7873,317.18737 2158.7246,317.62798 C 2157.4051,318.18498 2156.6841,319.66705 2155.5873,318.72057 C 2154.8897,318.118 2152.3388,316.15142 2154.115,314.47586 C 2155.1154,313.53041 2155.7841,313.56281 2155.718,312.38313 C 2155.6509,311.2107 2156.143,310.22942 2156.854,308.90023 C 2158.9908,304.8873 2160.6796,300.85793 2162.4514,296.82702 C 2164.4461,298.26898 2167.4678,298.23097 2169.4367,299.51883 C 2171.6748,300.98175 2173.596,298.10043 2176.3898,296.276 C 2178.3749,295.00507 2181.3235,296.13755 2182.5697,293.41893 C 2183.2569,291.96652 2182.6773,291.64485 2181.7056,291.36649 C 2181.0634,291.18129 2181.9336,289.90684 2182.2919,289.19274 C 2182.8637,288.05384 2183.8663,287.53963 2184.0773,286.36773 C 2184.101,285.83453 2184.385,285.27399 2184.9326,284.68477 C 2186.0619,283.47549 2185.829,282.79734 2186.521,281.60605 C 2187.9875,279.07599 2188.3046,277.12284 2191.5116,275.32391 C 2195.1138,273.30984 2192.895,270.91816 2193.0665,269.1333 C 2193.2168,267.54685 2192.1199,266.24549 2190.0193,266.98976 C 2188.1414,267.65455 2188.1765,266.37177 2187.932,265.28062 C 2190.8665,264.37262 2192.7371,260.26138 2195.9444,259.64089 C 2199.7688,258.90177 2203.6704,257.5066 2207.0392,257.72335 C 2210.3872,257.93737 2214.1233,256.54584 2217.0671,257.56778 C 2218.3207,258.00383 2219.33,258.81681 2220.2882,259.56529 C 2221.5988,260.58734 2223.7827,260.60192 2225.0018,261.66764 C 2226.4335,259.33179 2231.0376,262.03006 2230.9422,262.97635 C 2230.8561,263.82786 2233.0163,264.89725 2233.557,265.42812 C 2233.9746,265.8402 2233.2206,266.64138 2233.5688,267.03839 C 2234.114,267.65849 2234.9439,267.82657 2235.3341,268.60745 C 2235.7572,269.45966 2236.9348,270.15519 2236.724,271.36541 C 2236.5966,272.08547 2238.4832,271.65299 2237.7637,272.86755 C 2236.7107,274.66395 2238.0144,275.54769 2238.6725,276.41751 C 2239.2788,277.21632 2238.9849,279.40884 2240.007,279.82829 C 2241.3769,280.40146 2240.4329,282.75864 2241.0905,283.8865 C 2241.8267,285.14795 2242.9962,286.04914 2243.6368,287.38697 C 2244.1793,288.51906 2243.4509,290.2854 2243.8886,291.45843 C 2244.3745,292.76379 2245.7235,292.30337 2245.0699,294.30528 C 2244.1542,297.57429 2247.5273,300.39788 2250.8747,299.77948 C 2252.2915,299.51757 2254.0937,299.06316 2254.8446,299.76556 C 2256.0679,300.91353 2257.7225,301.14345 2259.1627,302.02218 C 2259.2975,299.88953 2260.9933,302.83955 2261.5837,302.83955 C 2262.9997,302.83955 2263.3716,305.17155 2264.1387,305.93835 C 2265.3737,307.1752 2267.6994,306.18209 2269.1042,307.00578 C 2269.5216,307.25174 2268.2463,309.05302 2268.3438,309.61638 C 2268.4543,310.25569 2269.1818,310.71582 2269.5842,311.12074 C 2270.7775,312.31824 2269.732,313.3609 2269.386,315.20019 C 2269.1398,316.50432 2271.015,319.59523 2272.4548,319.41318 C 2273.2611,319.31037 2274.1332,318.94613 2274.9038,318.94613 C 2276.0602,318.94613 2276.596,319.72648 2277.8589,319.57046 C 2279.2809,319.39336 2282.9825,319.65962 2284.0988,317.90218 C 2285.3379,316.10668 2288.0447,314.76093 2289.5359,314.95134 C 2289.6284,314.96379 2290.6368,315.63178 2290.9987,315.18775 C 2291.8378,314.15833 2291.9388,313.86809 2293.1781,313.56531 C 2294.3168,313.28611 2297.2758,311.41933 2297.8435,312.14102 C 2298.1541,312.5366 2299.6557,313.29982 2300.2322,313.3983 C 2299.3796,314.61281 2299.0901,315.60318 2299.3312,316.46829 C 2299.6851,317.73221 2301.1164,319.67943 2298.8508,321.79568 C 2298.3699,322.24405 2297.3977,322.33666 2296.8366,322.72184 C 2295.436,323.68041 2296.3326,324.39164 2296.2378,325.16882 C 2296.1609,325.79898 2295.5979,326.54431 2295.3559,327.20798 C 2294.909,328.42845 2295.3879,329.45743 2294.5612,330.74122 C 2293.6019,332.22995 2295.0501,334.43021 2292.4979,335.48831 C 2293.2979,336.63415 2291.8468,336.94686 2291.1524,338.29275 C 2290.639,339.2849 2291.2594,340.08448 2290.5427,341.1282 C 2289.5611,342.56051 2288.3037,342.03407 2288.0635,344.03674 C 2287.9779,344.74689 2288.0232,345.43967 2287.7009,346.22843 C 2287.18,347.49836 2281.8856,345.45656 2281.0192,345.21161 C 2280.638,345.1042 2278.7271,343.87604 2278.3099,344.2868 C 2277.3862,345.19351 2276.5734,346.82262 2275.3982,347.36951 C 2274.4582,347.80777 2272.9719,347.86916 2272.1612,348.46963 C 2271.3819,349.04571 2272.7437,350.53676 2272.838,350.80686 C 2273.7366,353.40596 2273.797,356.43338 2273.506,359.62608 C 2273.2584,362.2953 2274.6633,364.06918 2272.7886,367.21357 C 2271.9714,368.58171 2272.9376,368.39278 2271.1496,368.97955 C 2269.7212,369.44804 2268.6939,369.11882 2267.248,370.50819 C 2268.9089,371.09032 2267.9555,372.23602 2268.7386,373.38995 C 2267.9163,372.07712 2266.0707,371.60974 2265.8944,369.79131 C 2265.7466,368.28294 2264.7303,367.85768 2263.0327,367.95811 C 2262.7604,369.04329 2262.7541,372.13597 2261.5482,373.19124 C 2260.6118,374.01054 2259.5745,373.16302 2258.5521,373.79196 C 2257.0566,374.71182 2257.9069,376.60323 2255.3737,377.20683 C 2253.1076,377.74687 2251.289,377.2455 2249.0376,377.78318 C 2249.2887,379.28361 2251.7483,381.08458 2250.222,383.1439 C 2249.4078,384.24266 2245.6964,383.44345 2244.7323,383.27096 C 2243.836,383.11242 2242.9324,382.88391 2242.349,382.3451 C 2241.6638,381.71268 2241.65,379.86242 2240.2223,380.02257 C 2239.4801,380.10672 2238.914,380.96195 2238.0628,380.98064 C 2237.1354,382.89091 2236.7505,383.92001 2235.3235,385.75569 C 2234.7175,386.56494 2234.0092,387.93336 2233.0831,388.48354 C 2232.609,388.76433 2230.9119,388.83394 2230.7476,389.46486 C 2230.5332,390.28433 2229.8902,390.17309 2229.2769,390.77898 C 2228.7143,391.17155 2228.1453,391.41351 2227.5708,391.50495 C 2226.9777,391.76305 2225.9966,392.96829 2225.6835,393.05731 C 2223.7502,393.60628 2221.5861,395.58745 2220.7447,397.6126 C 2219.7545,399.99308 2216.294,400.07354 2215.6379,398.67743 C 2215.2811,399.93446 2213.6886,399.79191 2212.9907,399.75282 C 2212.9025,400.67221 2212.044,400.84451 2211.3448,400.96052 C 2209.895,401.19939 2208.4532,402.29439 2207.0408,403.14195 C 2205.645,403.97977 2204.7778,404.33261 2204.0103,405.84593 C 2203.4521,406.94715 2202.2948,406.84313 2202.1385,407.9195 C 2201.7819,407.54139 2201.2833,407.37686 2200.6383,407.42599 C 2200.9805,408.61374 2196.1651,411.51105 2196.5103,408.70734 C 2196.6938,407.24202 2199.3592,407.27059 2199.908,406.84427 C 2200.7043,406.22569 2200.226,405.71322 2200.4274,405.09522 C 2200.6781,404.32344 2201.9913,403.91904 2202.566,403.38843 C 2199.6655,404.52502 2199.1425,402.77731 2197.1361,402.39764 C 2197.769,401.81473 2198.5398,401.38196 2199.2649,401.24073 C 2198.8123,399.06859 2199.6286,399.42053 2201.8161,397.81297 C 2202.8196,397.07466 2204.0197,394.86971 2204.5234,393.86046 C 2206.3345,390.21944 2200.7174,390.99207 2201.6297,387.77314 C 2201.006,389.89379 2199.3462,388.9685 2198.4554,388.56593 C 2197.3289,388.05642 2193.8114,389.65964 2195.4869,390.52879 C 2193.81,390.85079 2191.8574,393.3821 2191.3522,394.92973 C 2190.937,396.2033 2186.8264,397.59993 2185.7782,398.17794 C 2184.7655,398.73611 2183.8714,399.14566 2183.0459,400.08273 C 2181.6994,401.61042 2182.7968,402.36552 2181.9707,403.53514 C 2180.0141,406.3046 2178.1887,405.37679 2175.7196,406.6385 C 2174.032,407.5014 2173.5657,405.23716 2171.9774,405.53014 C 2169.6721,405.95575 2169.258,409.64069 2169.1918,411.03261 C 2169.0754,413.4651 2171.3098,414.35523 2172.6103,415.72275 C 2173.0194,416.15406 2174.342,416.31406 2175.1152,416.03717 C 2176.3995,415.5797 2175.9735,417.25779 2176.844,417.42219 C 2177.3308,416.85066 2177.5628,416.27889 2177.5399,415.70685 C 2179.1092,415.70685 2180.5858,417.36777 2180.7252,418.82954 C 2180.9154,420.84162 2178.6826,422.78176 2180.0732,424.4665 C 2181.0056,425.59599 2182.5825,425.90131 2184.3994,425.61515 C 2185.678,425.41232 2187.4087,424.71908 2186.5745,423.44892 C 2187.4007,423.04257 2191.5878,420.35755 2189.3219,420.35868 C 2190.5167,420.61431 2192.2085,419.40926 2193.5345,419.03677 C 2194.7873,418.68343 2196.0598,419.90159 2196.3679,420.75341 C 2196.6355,421.49505 2197.1571,421.40689 2198.0621,421.15368 C 2198.5829,421.00896 2198.7341,421.97983 2198.8632,422.2295 C 2199.4541,423.3733 2201.9681,421.68944 2202.5552,422.87999 C 2202.8262,422.53446 2203.0782,422.18318 2203.3115,421.82278 C 2204.4332,423.03467 2207.0845,422.13122 2208.1352,423.36766 C 2207.7841,423.5234 2207.4334,423.68589 2207.083,423.85514 C 2208.169,425.30976 2205.416,425.71768 2206.5147,426.92717 C 2206.9542,427.41224 2206.558,428.14907 2205.5547,428.50441 C 2203.8996,429.09119 2204.3302,427.73852 2204.1182,426.85738 C 2203.7616,427.27945 2203.3833,427.68452 2202.9824,428.07259 C 2203.328,426.854 2202.4536,427.20855 2201.5418,427.82626 C 2201.0145,428.18281 2197.4976,430.19886 2199.7317,428.47855 C 2198.6077,429.07208 2196.4102,430.64123 2195.356,430.82869 C 2194.6107,430.96112 2193.309,429.98548 2193.1697,431.46944 C 2194.6878,430.42568 2195.1199,431.98542 2194.0303,433.08403 C 2194.0161,432.23324 2193.0887,432.17606 2192.5401,433.16471 C 2192.0729,434.0026 2192.7772,434.49077 2192.3003,435.35359 C 2192.0829,435.74845 2190.7226,436.31203 2190.4091,436.22706 C 2189.4221,435.95647 2190.3756,434.62286 2189.6418,434.1325 C 2190.104,435.69253 2189.1332,434.39449 2188.2675,434.53554 C 2187.9,435.58515 2188.5881,437.05753 2189.6422,437.03183 C 2187.3402,437.37594 2187.1096,441.38743 2184.7457,440.72781 C 2184.3781,441.80844 2183.2953,444.08845 2182.4166,445.021 C 2180.9549,446.57131 2181.316,447.59099 2181.1619,449.12859 C 2182.6614,448.03791 2183.8438,449.59387 2184.4639,450.26938 C 2185.6848,451.60176 2187.5084,452.09281 2189.1138,453.0081 C 2190.3996,453.72512 2190.2356,456.09139 2190.7248,457.40095 C 2191.4651,459.38296 2192.0423,461.67337 2193.2769,463.29866 C 2194.1257,464.41779 2194.7674,466.09498 2194.3516,467.77474 C 2193.8575,469.76754 2196.6707,470.04952 2197.8533,470.68871 C 2198.8898,471.24902 2198.115,471.99471 2198.405,472.95059 C 2198.6298,473.68457 2199.3723,473.68566 2199.9572,474.0509 C 2200.9193,474.65253 2203.0674,475.97598 2201.7411,477.73456 C 2200.2523,477.26572 2198.973,475.57307 2197.0229,476.10228 C 2194.4082,476.81307 2195.0474,475.03715 2193.2465,474.24602 C 2191.437,473.45122 2189.7072,476.1676 2188.2814,475.18313 C 2187.5759,474.69612 2187.3526,473.86447 2187.0547,473.06185 C 2186.6852,472.06565 2185.687,472.12241 2184.9458,471.53729 C 2185.2978,471.91066 2185.2738,472.55565 2184.8292,473.10767 C 2185.4097,472.5982 2185.8734,472.57201 2186.2179,473.02913 C 2186.003,472.80441 2185.7988,472.56874 2185.607,472.32322 C 2186.634,471.96633 2187.7072,474.47598 2186.1804,473.65841 C 2187.1435,474.51086 2187.981,476.40601 2189.9457,475.59703 C 2190.7362,475.27137 2190.873,474.57734 2191.736,474.62529 C 2192.4797,474.6656 2193.3409,475.01427 2193.6276,475.65257 C 2193.8062,476.04893 2193.3019,476.53227 2193.7333,476.79566 C 2194.4347,477.22655 2195.3759,477.35493 2196.1349,477.70628 C 2197.7726,478.46638 2198.8453,480.21794 2200.3443,481.20155 C 2201.1699,481.74414 2202.6625,483.89862 2202.1903,485.20059 C 2201.9714,485.80465 2200.8214,485.5741 2200.4814,485.60549 C 2199.1661,485.72564 2198.1341,486.81095 2196.9626,487.53879 C 2196.1814,488.0242 2195.3296,488.27496 2194.9256,489.12748 C 2194.7457,489.5066 2194.3863,490.42652 2193.845,490.45998 C 2192.9212,490.51611 2192.6853,489.60704 2191.5279,490.01737 C 2190.5561,490.36175 2189.6703,491.16792 2188.7937,491.77095 C 2189.3545,491.5261 2191.6477,489.97742 2192.0547,490.35851 C 2192.8278,491.08268 2192.2326,493.0486 2193.7409,493.01303 C 2193.4914,492.80823 2193.2219,492.62713 2192.9324,492.46973 C 2194.6238,492.74895 2196.4166,490.56036 2197.9735,491.06865 C 2199.0459,491.41822 2199.3177,492.41582 2199.8585,493.26198 C 2200.5009,494.26607 2202.5596,494.48361 2203.7514,494.79696 C 2202.7327,495.22544 2202.1229,495.91745 2201.2882,496.65652 C 2200.9578,497.04905 2200.5937,497.41032 2200.1958,497.74035 C 2199.6262,498.10685 2199.0794,497.91233 2198.5022,498.35938 C 2198.554,498.65915 2198.6699,498.91698 2198.85,499.13288 C 2199.5281,498.45609 2200.7076,497.51031 2201.2927,498.28202 C 2201.003,497.82849 2201.4787,496.60059 2202.187,497.08669 C 2202.9722,497.62748 2201.8683,498.46361 2202.0759,499.25639 C 2202.0801,499.2725 2202.2768,501.87821 2201.4791,501.23036 C 2201.0356,500.86986 2201.3355,499.94146 2200.9726,499.5195 C 2200.95,500.02842 2200.8896,500.54363 2200.7859,501.06514 C 2200.1061,501.23679 2199.7919,500.82265 2199.8143,500.21413 C 2199.7099,501.64655 2199.5503,500.73787 2199.3581,500.21413 C 2199.0641,500.83659 2198.6664,501.40307 2198.1639,501.9136 C 2199.1806,501.71198 2200.3728,502.65769 2200.2419,503.68861 C 2199.926,503.2043 2199.5667,503.25574 2199.1631,503.84395 C 2199.9641,503.7861 2200.5655,504.91595 2199.5208,505.47901 C 2198.2249,506.17778 2197.0184,504.80675 2196.1776,504.38378 C 2196.5747,504.79711 2196.6484,505.66737 2197.1952,505.9242 C 2197.967,506.2869 2198.75,505.55393 2198.9928,506.64954 C 2199.1091,507.1725 2200.1631,508.49475 2199.2974,509.13576 C 2198.5117,509.71782 2197.7228,509.67618 2197.766,510.84832 C 2196.9149,510.38723 2197.2156,509.04497 2196.3328,508.6187 C 2195.9182,509.12722 2195.8596,509.2319 2195.2917,509.46473 C 2196.7174,509.66977 2193.3363,514.1995 2191.7185,511.15564 C 2191.748,512.27567 2194.2099,512.05918 2193.553,513.35241 C 2192.9881,514.46474 2191.353,516.48106 2192.5055,517.21616 C 2191.6527,517.58095 2191.5376,518.08069 2191.4507,518.81411 C 2191.2628,520.39588 2190.4083,518.73547 2190.5604,519.81708 C 2190.1773,519.36559 2189.8023,518.90657 2189.4363,518.43999 C 2189.2692,518.99264 2191.3897,520.89702 2189.3572,520.4288 C 2189.5024,521.33542 2188.6041,522.1631 2187.7191,522.41559 C 2188.2763,523.70402 2188.5019,525.99249 2186.0221,525.31576 C 2186.8713,524.98313 2187.396,524.14814 2187.2509,523.33189 C 2186.8198,523.62133 2186.4625,523.9775 2186.1935,524.40037 C 2185.7647,524.02944 2185.5071,523.48987 2185.5131,522.87379 C 2185.0575,523.43791 2184.4118,523.77928 2183.8681,523.48456 C 2184.1397,523.92132 2184.1963,524.43004 2184.0054,525.01068 C 2185.33,524.44594 2186.3298,526.63407 2184.6213,526.4594 C 2184.5142,527.4003 2185.5585,527.90497 2186.0487,526.76426 C 2186.7842,527.73888 2185.7722,527.69444 2185.0293,528.32596 C 2184.2635,528.97525 2183.7679,529.87165 2183.3076,530.72329 C 2182.6517,529.95725 2181.5099,529.52392 2180.5427,529.20256 C 2181.2508,529.71946 2181.4759,531.17115 2182.6547,530.97575 C 2183.8209,530.78139 2184.4427,529.56937 2185.1042,531.02856 C 2184.2836,531.35069 2184.3164,532.62394 2183.9262,533.42907 C 2183.2803,534.75797 2185.2779,534.80014 2184.5761,536.1935 C 2184.5331,535.18178 2184.2594,535.18178 2183.7531,536.1935 C 2183.4265,535.46321 2182.8849,534.84126 2182.1429,534.52389 C 2181.9686,535.16175 2181.501,535.72353 2180.9004,536.04072 C 2181.3823,536.33995 2182.6989,536.53168 2182.3001,537.48168 C 2181.7248,538.85117 2181.0413,536.87929 2180.7145,538.61965 C 2180.6932,537.83546 2180.2164,536.47901 2179.1935,537.63436 C 2180.1457,538.00179 2178.9652,539.54873 2180.1493,539.60343 C 2179.7267,540.44166 2177.7578,541.72833 2178.0285,540.28498 C 2177.0876,540.95158 2177.2421,541.13029 2177.8394,541.5728 C 2178.5815,542.12343 2177.6079,543.43536 2177.107,543.99182 C 2176.7558,543.55401 2176.4231,543.09931 2176.1092,542.63086 C 2175.6649,543.62646 2174.2703,544.2574 2173.9598,543.08461 C 2173.2395,543.91623 2171.9583,543.39125 2172.5684,544.59537 C 2172.0371,544.42744 2171.4741,544.4012 2170.8779,544.52085 C 2171.2881,545.09593 2171.9937,545.31416 2172.7709,545.04976 C 2172.5112,545.65406 2172.7301,546.00965 2173.3264,546.03167 C 2173.0136,546.58957 2172.5153,546.58748 2172.0693,546.92509 C 2171.3734,547.45342 2171.5821,548.46046 2170.5473,549.05022 C 2171.0096,548.31797 2170.8397,548.04135 2170.0338,548.22053 C 2170.183,549.03346 2169.5535,549.75606 2169.4056,550.55797 C 2169.5885,549.03661 2167.8187,550.63333 2167.0342,550.63333 C 2166.8386,550.82277 2165.7976,553.44815 2165.1346,552.65039 C 2164.5523,551.9486 2164.1435,551.5835 2163.783,552.89926 C 2163.3848,554.3449 2162.6582,554.68553 2161.2787,554.47342 C 2162.0698,554.80672 2163.1327,554.78583 2163.1741,555.9024 C 2162.4303,554.71791 2162.1757,556.56228 2161.6302,555.82722 C 2161.1765,556.74496 2161.5037,557.91485 2160.2551,558.28209 C 2159.439,558.52201 2158.0423,558.82865 2157.3613,558.38223 C 2158.2621,559.57633 2153.8953,560.18097 2155.1629,558.30712 C 2154.397,559.04036 2153.606,558.7327 2152.9389,558.38223 C 2152.9741,559.02263 2154.5135,559.8745 2153.9351,560.65519 C 2153.5792,561.13349 2153.0231,560.72918 2152.7814,560.53847 C 2152.0296,559.94747 2151.2258,560.04025 2151.5069,558.983 C 2150.9418,559.6222 2149.0696,560.6677 2148.5678,560.26019 C 2149.7888,560.72293 2148.7726,561.73669 2148.0263,561.51689 C 2147.1491,561.25956 2147.3746,560.13302 2148.0897,559.58467 C 2147.2162,559.58154 2146.3569,560.04546 2145.7581,560.78545 C 2146.7135,560.96781 2145.4851,561.99501 2146.5275,562.28455 C 2146.277,562.48345 2146.0061,562.6334 2145.7137,562.73544 C 2145.5206,561.12515 2141.8572,561.26893 2140.8092,562.5855 C 2141.0719,560.38943 2138.4713,559.81716 2139.1589,557.48182 C 2138.6157,558.97883 2138.8051,558.08491 2138.2658,557.55696 C 2138.8948,556.71573 2139.7654,556.57376 2140.6158,556.73035 C 2139.6105,555.92015 2138.3798,557.55487 2137.3194,557.03097 C 2138.8446,557.702 2136.9136,558.99656 2135.879,558.60858 C 2136.2633,558.77755 2137.7102,559.36258 2137.7063,559.86928 C 2137.5225,560.00168 2137.3333,560.00689 2137.1398,559.88492 C 2137.9539,560.50616 2139.6664,563.50688 2138.5203,564.83367 C 2137.298,566.23979 2135.9077,562.17103 2135.5215,561.61064 C 2135.2319,562.95305 2136.6181,564.15423 2137.057,565.20816 C 2136.4895,565.33713 2136.0161,565.76563 2135.8355,566.33129 C 2135.3396,566.05783 2135.0172,565.54723 2135.123,564.90857 C 2133.6804,565.53371 2134.816,567.07975 2133.7923,567.97761 C 2133.007,566.65357 2132.0936,567.71889 2131.2569,568.66222 C 2130.6909,569.29991 2129.3035,567.93917 2130.3456,567.07975 C 2129.6692,567.33127 2129.3234,567.02051 2129.5104,566.33129 C 2129.2434,567.20032 2129.7206,568.0971 2129.3095,568.96551 C 2128.7926,570.0589 2126.3306,568.07424 2125.7859,567.9028 C 2126.829,569.60935 2125.1991,568.82529 2124.2356,568.87619 C 2125.786,569.5429 2122.951,572.08867 2122.1258,570.52083 C 2121.8582,571.08437 2121.4018,571.64156 2120.8014,571.86564 C 2121.5356,570.72529 2120.0564,571.41849 2119.2765,571.59798 C 2118.3099,571.82103 2116.9355,572.12809 2116.2088,572.98577 C 2116.4444,572.55852 2116.7271,572.16024 2117.0572,571.79095 C 2116.3755,572.22559 2115.7745,572.97644 2116.09,573.73225 C 2114.4208,574.21942 2115.1611,573.06665 2114.3278,572.31375 C 2113.8127,573.16516 2114.8569,573.72189 2113.9923,574.48888 C 2113.3822,575.02874 2112.1572,575.58093 2112.4671,576.55965 C 2112.6443,577.11979 2113.4207,577.14877 2113.8954,577.32476 C 2114.556,577.56905 2114.0903,579.16157 2113.8044,577.4614 C 2113.7022,578.76948 2115.3876,579.45017 2115.0874,580.75002 C 2114.582,582.93879 2111.8226,581.86633 2110.5134,582.45118 C 2110.6971,581.69892 2110.026,580.49672 2111.2349,581.18627 C 2111.1657,579.92179 2108.8833,580.17721 2110.0516,578.43114 C 2108.9959,578.57083 2109.8812,577.0732 2109.0314,576.97899 C 2108.4913,576.91894 2108.6669,574.83084 2109.0929,574.44535 C 2109.9322,573.6856 2109.1207,573.15686 2110.2109,572.54296 C 2111.8885,571.59902 2109.8278,571.05635 2109.3314,570.5229 C 2109.4215,570.79172 2109.4996,571.06569 2109.5655,571.34482 C 2108.3901,571.59279 2108.1009,569.88034 2107.7112,569.17737 C 2107.2494,569.79728 2107.4184,570.3807 2107.9799,570.67133 C 2107.4732,571.15908 2105.8241,572.43614 2105.4394,571.41849 C 2104.205,573.51455 2104.5155,570.34852 2104.1165,569.99869 C 2103.6486,569.58754 2101.5998,570.45336 2102.9783,568.87827 C 2102.7301,568.78271 2102.4735,568.70793 2102.2086,568.65287 C 2102.0534,569.19918 2102.0947,569.69864 2102.335,570.14818 C 2101.4636,570.01011 2101.3223,568.28098 2100.3928,568.50329 C 2100.8816,567.97761 2100.7877,567.46637 2100.2297,567.2315 C 2099.9092,567.76565 2099.5585,568.52095 2099.6011,567.45598 C 2099.2328,568.55835 2100.7759,569.2428 2099.982,570.36617 C 2099.6005,570.90588 2098.7864,569.65088 2098.3639,569.69968 C 2098.5427,570.34437 2098.1501,570.94739 2097.5209,571.26907 C 2097.6014,570.59867 2095.9111,570.37136 2095.1359,570.01322 C 2094.0513,569.51278 2092.204,571.08229 2091.938,569.84919 C 2091.6701,569.99973 2091.4013,570.14922 2091.1315,570.2987 C 2090.9876,569.04029 2089.3537,569.15452 2088.6388,568.4285 C 2088.3791,568.16463 2089.0748,567.78227 2088.5747,567.62329 C 2087.855,567.39259 2087.048,566.30529 2086.1346,567.007 C 2085.8204,565.01572 2084.9874,563.51208 2085.3158,561.46376 C 2087.0617,562.1127 2087.0604,557.47139 2084.2637,558.7692 C 2083.1272,559.29689 2082.7482,558.37075 2082.0005,557.95763 C 2081.0941,557.45782 2080.3414,558.91939 2079.388,558.07552 C 2077.9601,556.81281 2076.5678,556.10498 2075.5799,554.32818 C 2074.8477,555.59433 2073.3353,555.73845 2072.2687,556.53722 C 2071.5874,557.04767 2072.552,558.07031 2071.6773,558.84847 C 2070.9579,559.48979 2066.8304,561.39083 2067.5314,559.28751 C 2066.1916,559.34173 2065.3833,562.51053 2064.9559,562.20644 C 2064.3467,561.77315 2063.8992,561.08139 2063.4413,560.49782 C 2062.4657,559.25622 2062.347,560.60204 2061.8083,561.53876 C 2060.6302,559.86199 2060.4977,559.49917 2059.066,561.5971 C 2057.7494,563.52665 2056.611,561.47313 2055.7569,560.64685 C 2053.9018,558.85264 2053.166,561.42833 2052.059,562.82603 C 2051.4605,563.58078 2050.952,562.70525 2050.3683,562.75835 C 2049.9738,562.79063 2049.5822,562.86559 2049.1917,562.98116 C 2048.6668,563.1342 2048.9152,562.28871 2048.4744,562.28871 C 2046.5504,562.28871 2046.9244,566.07343 2047.2932,566.79599 C 2047.7109,567.61498 2048.2848,568.39837 2048.4307,569.35806 C 2048.5928,569.66126 2048.7359,569.97481 2048.86,570.29974 C 2048.8489,570.84568 2048.3205,571.32095 2048.2581,571.86875 C 2048.1908,572.44859 2049.198,573.66798 2048.5815,574.18211 C 2047.7501,574.87747 2047.1368,573.30202 2046.1862,573.5809 C 2044.7367,574.00798 2044.5618,574.10956 2044.2043,572.65393 C 2043.9004,571.40085 2043.3141,570.18347 2043.4246,568.80348 C 2042.0405,569.74329 2039.5152,572.37287 2038.0332,571.29813 C 2037.3246,570.78445 2036.9753,571.97353 2036.3393,571.83452 C 2035.6888,571.69032 2035.698,570.18659 2036.0817,569.70072 C 2033.5182,569.66646 2035.7799,567.10158 2034.5132,566.41342 C 2033.1249,565.65851 2031.2678,565.75627 2029.6653,565.98088 C 2027.5997,566.27098 2029.6336,563.29765 2029.8634,562.57196 C 2030.2032,561.5023 2029.4305,558.45525 2031.3772,558.53557 C 2031.0815,556.95373 2030.1113,556.80759 2028.606,556.80759 C 2026.6214,556.80759 2027.0344,555.16295 2026.4006,553.87253 C 2026.3427,553.75442 2025.7635,552.97455 2025.9271,552.77692 C 2026.7618,551.76344 2025.4606,551.0687 2025.1454,550.31617 C 2024.6168,549.05127 2026.4884,548.50656 2026.3762,547.24378 C 2024.3748,548.5956 2022.412,546.87686 2020.3872,547.94599 C 2019.9197,548.19224 2017.1025,550.23138 2016.7123,549.87751 C 2015.9158,549.15287 2016.9762,548.3955 2017.3827,547.65151 C 2017.7863,546.91356 2017.4671,545.73798 2017.1644,545.12845 C 2016.6949,544.18182 2016.3052,544.30778 2016.2766,542.94912 C 2016.2548,541.9385 2016.79,541.20493 2017.8538,541.12188 C 2017.2564,539.78541 2018.1346,538.73647 2018.2736,537.33426 C 2019.7651,538.94061 2020.5114,534.78117 2020.7502,534.22335 C 2023.273,534.41106 2021.6018,533.29614 2023.4517,532.02014 C 2023.7427,531.81954 2024.5836,532.35056 2024.7125,531.88817 C 2024.9707,530.96202 2023.9377,530.28272 2023.7602,529.51018 C 2025.1933,530.11999 2024.8369,527.30083 2024.9539,526.52821 C 2025.2085,524.84646 2025.0943,522.8897 2024.8766,521.30888 C 2024.7025,520.04968 2024.6725,518.73228 2024.6728,517.42568 C 2024.6735,515.88512 2023.8477,515.65201 2022.6172,514.99724 C 2022.7925,515.60943 2022.3763,516.0884 2021.7536,516.30123 C 2021.452,515.19636 2020.6819,514.08338 2020.5814,512.91752 C 2020.4924,511.88747 2020.7125,511.00305 2020.0416,510.23245 C 2018.9314,508.9563 2016.9022,508.45201 2015.9922,507.08374 C 2015.7431,508.13248 2015.0563,511.16418 2013.7441,509.49036 C 2013.0292,508.58023 2012.3253,509.40599 2011.5117,508.98408 C 2010.7668,508.59947 2009.9091,507.8439 2008.97,507.85352 C 2008.1013,507.86314 2007.5314,509.00758 2006.6841,508.62511 C 2006.0766,508.35156 2006.8198,507.36603 2007.1059,506.98536 C 2007.5571,506.38532 2008.3111,505.76583 2008.6109,505.10544 C 2009.0921,504.04426 2007.3029,503.55897 2007.9501,502.22564 C 2007.2445,502.42184 2006.3551,503.36504 2005.6356,503.18608 C 2004.0313,502.78739 2006.2322,501.17672 2006.8663,500.91385 C 2006.3182,500.28068 2005.5938,499.42822 2004.9825,498.87616 C 2004.3772,498.32822 2001.7902,500.0252 2001.094,500.46421 C 2000.3777,500.916 2000.482,501.91682 1999.8011,502.33822 C 1999.1926,502.71557 1998.3139,502.23529 1997.8882,502.03263 C 1997.7252,501.95435 1995.7826,500.55115 1996.4683,501.68517 C 1995.8675,501.27112 1994.9803,500.42128 1994.2883,500.21735 C 1993.4913,499.98226 1992.685,500.71427 1991.7613,501.21748 C 1990.4319,501.94041 1989.525,503.29539 1988.4474,504.33987 C 1987.0826,505.66416 1986.0212,505.63313 1984.4218,505.91136 C 1982.6582,506.21843 1983.0884,507.40666 1982.1339,508.49155 C 1981.2573,509.48716 1979.4983,509.93458 1978.9686,511.1151 C 1978.2753,512.65526 1978.0378,513.78186 1976.0053,513.85645 C 1974.6975,513.90333 1973.5793,514.72995 1972.3379,514.55421 C 1971.4246,514.42533 1970.7463,514.32733 1970.9182,513.26501 C 1971.0725,512.31939 1968.8338,511.56 1968.0562,511.45758 C 1966.8735,511.30182 1966.5953,512.74802 1965.3529,512.08051 C 1964.2516,511.48959 1963.0999,511.50132 1961.7835,511.48105 C 1960.4824,511.46185 1961.6228,509.96555 1960.5288,509.6057 C 1959.1338,509.14858 1957.8121,509.24365 1956.3249,510.14491 C 1954.7635,511.09162 1953.4194,512.59236 1952.4206,514.11534 C 1951.6629,515.27195 1950.2258,517.10129 1949.8935,518.36771 C 1947.9095,517.25977 1949.8908,514.83218 1949.5559,513.0028 C 1949.0304,510.14598 1946.0241,512.40257 1944.053,512.54225 C 1944.0483,512.82478 1944.0478,513.1062 1944.0507,513.38651 C 1942.4587,512.88447 1939.9643,513.52932 1938.1881,513.49202 C 1936.5851,513.45791 1935.6707,512.82158 1934.3208,512.04425 C 1933.8494,511.77334 1933.0696,511.19299 1932.3978,511.47039 C 1931.8001,511.71681 1931.9916,512.63501 1931.3794,512.74589 C 1930.4483,512.91432 1928.9153,511.59093 1929.0465,510.62313 C 1928.7993,510.80456 1928.1853,513.95873 1927.6598,512.64993 C 1927.1235,511.31675 1925.5942,510.53027 1925.3789,509.00865 C 1924.8933,510.2506 1920.9381,509.7317 1920.8377,508.63472 C 1920.7844,508.04805 1921.5527,507.01423 1921.1805,506.52866 C 1920.7946,506.02585 1919.1603,507.15539 1918.425,506.64526 C 1917.255,505.83324 1914.4805,504.8121 1914.2377,503.22145 C 1913.9391,501.26147 1912.3762,499.11354 1909.9977,501.17779 C 1909.1493,501.92111 1907.4187,498.72898 1907.1432,498.26912 C 1906.383,497.00281 1904.4134,496.73718 1903.0904,495.78079 C 1901.0284,494.28976 1899.254,492.63144 1897.6025,490.74384 C 1896.9711,490.02169 1895.8793,490.12857 1895.0057,489.81653 C 1894.0628,489.4796 1893.7846,490.80751 1892.7858,490.37686 C 1892.6292,493.20271 1891.0197,493.55939 1889.7901,491.75369 C 1888.6883,490.13613 1887.0458,489.38024 1885.1766,488.82066 C 1884.7817,488.70181 1883.8249,488.57431 1883.6002,488.20038 C 1883.254,487.62204 1884.29,486.68979 1883.3737,486.27866 C 1882.6799,485.967 1882.3206,485.87609 1881.7853,485.2504 C 1880.867,484.17708 1879.9718,484.94937 1878.8387,484.58114 C 1877.128,484.02648 1876.7883,481.99367 1875.8114,480.75324 C 1874.8253,479.49994 1872.8133,483.05212 1872.5249,480.55239 C 1872.4218,479.67159 1872.9219,478.77836 1872.5718,477.95425 C 1872.218,477.11993 1872.1474,476.43649 1872.1777,475.47287 C 1872.2113,474.43566 1871.334,473.80342 1870.7673,473.16329 C 1869.9287,472.21627 1870.4444,470.76081 1869.7737,469.73147 C 1872.1449,468.13258 1872.3247,469.29855 1873.2275,470.77501 C 1873.6725,471.50236 1874.5267,471.6301 1875.1558,470.81434 C 1875.9403,469.79487 1876.9411,469.87598 1877.7403,468.98933 C 1878.7254,467.89536 1877.8943,466.82558 1877.4242,466.06759 C 1877.0508,465.46488 1877.6214,463.81005 1877.0545,463.62132 C 1874.7377,462.84419 1874.8555,463.02469 1873.4535,461.16313 C 1871.8685,459.05958 1872.3451,455.27172 1872.5148,454.75201 C 1872.5994,454.4932 1875.3961,453.67843 1873.3049,452.92782 C 1871.511,452.27857 1870.3739,450.7108 1868.8274,449.5641 C 1866.6931,447.98233 1868.3446,444.31723 1864.7667,441.76056 C 1862.2766,441.87415 1854.963,441.33841 1855.648,437.59935 C 1854.8713,437.79704 1853.5388,439.03614 1852.9203,438.29616 C 1852.4401,437.72109 1851.0348,436.70774 1850.8802,435.96094 C 1850.7384,435.27528 1851.1153,433.90741 1851.0919,433.10868 C 1851.0603,432.00785 1850.7393,431.12273 1850.117,430.34259 C 1849.2547,429.24403 1847.1773,429.85857 1846.7595,428.73263 C 1846.3066,427.51351 1844.2006,426.03648 1842.8079,427.83414 C 1842.5208,425.87765 1840.0319,427.31884 1839.6487,425.89342 C 1839.1411,424.00857 1842.308,424.80477 1842.8168,424.71232 C 1844.925,424.33004 1844.6095,422.36166 1843.6465,421.6205 C 1842.8326,420.99087 1843.3701,420.66068 1843.5791,419.67073 C 1843.6729,419.22812 1843.2734,417.89828 1843.1942,417.42333 C 1843.0819,416.75198 1842.3265,416.67938 1842.2571,415.93048 C 1842.1758,415.05166 1842.6782,414.10746 1842.7216,413.20921 C 1842.8001,411.55091 1840.2758,411.09641 1839.0515,410.79674 C 1837.4269,410.39669 1835.6344,412.82356 1834.7374,411.08046 C 1834.446,410.51637 1833.2633,407.93435 1834.9978,407.92292 C 1834.6407,407.09574 1834.0402,406.46127 1833.5388,405.74983 C 1833.0417,405.04943 1833.6082,403.8205 1833.5256,402.97111" id="path2708"/>
</svg>