<svg fill="#fff" height="407" viewBox="-140 -430 3053 1838" width="774" xmlns="http://www.w3.org/2000/svg">
<path d="M 1538.7358,464.52201 C 1540.5536,462.48735 1540.7582,458.80957 1542.3453,456.51373 C 1543.1327,455.37553 1542.4133,453.8367 1543.303,452.73735 C 1544.0097,451.88161 1545.8257,450.93464 1545.3863,449.60386 C 1546.0268,449.74785 1546.9896,450.0391 1547.6503,449.64927 C 1549.1704,448.75184 1547.9998,450.45981 1548.1652,450.97337 C 1548.1438,450.90476 1549.084,451.2854 1549.1762,451.38829 C 1549.8346,452.11715 1549.441,451.95571 1549.9004,453.00591 C 1550.9029,455.2376 1547.151,455.59507 1548.4964,457.477 C 1547.0222,457.00646 1544.3757,458.10709 1546.0453,459.85498 C 1545.3651,460.01558 1542.9317,462.31054 1542.7809,463.01987 C 1542.6231,462.92875 1542.5061,462.797 1542.4309,462.62462 C 1542.1448,463.13513 1542.178,463.80788 1541.7824,464.26097 C 1541.0763,465.07137 1539.5636,464.54833 1538.7358,464.52201" />
</svg>