<svg fill="#fff" height="407" viewBox="-140 -430 3053 1838" width="774" xmlns="http://www.w3.org/2000/svg">
<path xmlns="http://www.w3.org/2000/svg" d="M 1664.6499,546.18165 C 1665.1762,545.84288 1665.3577,546.04426 1665.1904,546.78565 C 1665.4473,546.55288 1665.711,546.32637 1665.9783,546.10614 C 1666.4059,546.82129 1665.9064,547.85482 1666.3988,548.52122 C 1666.8769,549.16543 1668.0973,549.01671 1668.8089,548.97481 C 1669.7337,548.91929 1670.5208,548.77055 1671.2774,548.11994 C 1671.6213,547.82443 1672.0575,546.95969 1672.5029,546.86218 C 1672.986,546.75419 1674.1161,547.48486 1674.699,547.49744 C 1675.6547,547.51945 1676.5995,547.63264 1677.5583,547.59806 C 1680.1645,547.50373 1681.8642,548.72551 1684.5287,547.16411 C 1684.3256,546.80033 1684.1062,546.44802 1683.8705,546.10719 C 1684.6958,545.79777 1684.5096,546.78355 1685.1483,546.7112 C 1686.0779,546.60635 1686.9474,545.47048 1687.3811,544.71711 C 1688.5625,542.66132 1688.7833,541.48977 1690.6928,539.96001 C 1692.5531,538.46915 1693.4744,535.77833 1695.2337,534.38365 C 1697.1828,532.83923 1698.3128,532.42656 1699.0403,529.88644 C 1700.3678,529.95619 1699.6367,531.93357 1699.581,532.76747 C 1699.4748,534.34357 1701.2086,533.54512 1701.2689,535.29562 C 1701.3287,537.04992 1701.9188,538.71331 1700.8826,540.41221 C 1699.4796,542.71279 1699.2631,541.71467 1698.6365,540.27656 C 1697.9011,538.59334 1697.0758,541.3237 1697.1509,542.0772 C 1697.2079,542.64241 1697.3855,542.76006 1696.993,543.25474 C 1696.4785,543.90364 1697.3454,544.83464 1697.1344,545.57958 C 1696.7967,546.77202 1699.0955,546.73322 1698.2102,547.91455 C 1697.4017,548.9968 1695.5321,548.33369 1694.6165,549.3529 C 1695.8295,550.11308 1694.6571,552.2216 1694.1912,553.1962 C 1693.3205,555.01671 1692.6449,556.76688 1692.6264,558.74522 C 1692.6068,560.80734 1691.54,561.27831 1689.8078,560.85736 C 1687.676,560.3394 1685.4479,560.13094 1683.2693,559.7984 C 1680.9841,559.45017 1678.6993,559.10502 1676.4025,558.81092 C 1674.7152,558.59398 1672.6504,558.93816 1671.6149,557.39416 C 1670.5629,555.82513 1669.5659,554.23308 1668.4502,552.70268 C 1667.6707,551.63267 1666.869,550.581 1666.0811,549.51627 C 1665.2907,548.43846 1665.2336,547.32449 1664.6499,546.18165" id="path2784"/>
</svg>