<svg fill="#fff" height="407" viewBox="-140 -430 3053 1838" width="774" xmlns="http://www.w3.org/2000/svg">
<g xmlns="http://www.w3.org/2000/svg" class="land id" id="id" transform="matrix(1,0,0,1.05,0,-32)">
    <path d="M 2295.3492,793.52169 C 2294.8605,793.84307 2295.0182,794.08335 2295.8233,794.24255 C 2295.6646,794.00225 2295.5069,793.76197 2295.3492,793.52169" id="path2528"/>
    <path d="M 2296.596,774.71967 C 2295.9451,774.93872 2295.8752,775.68191 2296.1043,776.23005 C 2296.1403,775.68391 2296.3045,775.18078 2296.596,774.71967" id="path2530"/>
    <path d="M 2297.7701,777.02029 C 2297.2353,776.90225 2297.1866,777.14232 2297.6241,777.74152 C 2297.6717,777.50044 2297.7214,777.26036 2297.7701,777.02029" id="path2532"/>
    <path d="M 2301.5979,767.7387 C 2300.6909,767.93272 2300.847,769.73487 2301.8236,769.45884 C 2302.3968,769.29783 2301.8114,767.99172 2301.5979,767.7387" id="path2540"/>
    <path d="M 2303.354,772.33921 C 2303.3318,772.48523 2303.3096,772.63226 2303.2874,772.77828 C 2303.8023,772.74328 2304.3059,772.64726 2304.7961,772.48923 C 2304.3147,772.44523 2303.8334,772.39522 2303.354,772.33921" id="path2542"/>
    <path d="M 2305.2638,765.13858 C 2305.2732,766.26962 2307.1785,767.6987 2307.9936,766.44463 C 2308.5746,765.5516 2305.7141,765.18258 2305.2638,765.13858" id="path2544"/>
    <path d="M 2306.1705,773.4194 C 2306.1249,773.65945 2306.0792,773.8995 2306.0336,774.13955 C 2307.8916,774.26657 2309.4956,775.28081 2311.2931,775.6609 C 2312.0552,775.82195 2312.8683,776.16704 2313.6603,775.95598 C 2314.5401,775.72192 2315.5333,775.19479 2316.4725,775.36983 C 2315.702,774.24857 2313.737,774.32158 2312.556,774.17955 C 2310.4242,773.9225 2308.3162,773.64044 2306.1705,773.4194" id="path2546"/>
    <path d="M 2322.6148,831.86672 C 2322.5629,832.10801 2322.511,832.34931 2322.458,832.59062 C 2323.9052,832.09393 2325.5386,832.31814 2327.0781,832.3101 C 2328.5877,832.30306 2329.4098,831.52893 2330.4902,830.63627 C 2330.9649,830.24426 2333.7793,826.34447 2333.0728,825.55492 C 2331.0323,823.27715 2329.8131,823.04018 2327.1034,824.2161 C 2324.3169,825.42635 2323.5301,829.23821 2322.6148,831.86672" id="path2548"/>
    <path d="M 2331.5468,832.44985 C 2331.7841,832.37646 2332.0214,832.30306 2332.2586,832.22866 C 2331.8186,831.49173 2331.7294,830.0754 2330.5621,830.5649 C 2329.0106,831.21427 2330.3976,832.41265 2331.5468,832.44985" id="path2550"/>
    <path d="M 2329.8927,817.84554 C 2329.9777,818.41553 2330.3718,818.78786 2330.9226,818.92936 C 2330.8223,818.37941 2330.4487,817.96596 2329.8927,817.84554" id="path2552"/>
    <path d="M 2273.8765,768.23874 C 2274.1035,767.6727 2274.0047,767.16867 2273.5783,766.72765 C 2275.8215,766.15662 2277.685,766.03061 2279.4254,764.41956 C 2281.0404,762.92354 2282.7271,762.28653 2284.9123,762.82454 C 2287.1216,763.36855 2288.2318,764.99758 2290.1356,765.81661 C 2292.0624,766.64464 2294.0366,765.5436 2295.8316,766.93766 C 2294.4711,767.95172 2295.7918,769.31283 2296.3816,770.33493 C 2297.1784,771.71611 2296.2857,772.8683 2295.7837,774.14255 C 2294.4996,777.40741 2296.4616,781.30895 2297.9478,784.15249 C 2298.4479,783.41805 2297.7475,781.76717 2298.5716,781.22291 C 2299.7316,780.45556 2299.6068,783.89033 2299.6196,784.21653 C 2299.6472,784.86994 2299.8642,785.03004 2300.3127,785.46734 C 2300.9574,786.09477 2300.6611,786.94139 2301.2338,787.58189 C 2302.344,788.82092 2304.6103,789.48351 2305.8743,788.16436 C 2306.7931,787.2056 2307.7396,786.35596 2308.6806,785.42431 C 2309.6693,784.44467 2309.853,783.13289 2311.1766,782.29244 C 2312.3626,781.53906 2312.0047,778.74687 2313.522,778.73787 C 2315.3203,778.72686 2316.1875,778.89692 2317.8648,778.01961 C 2319.0665,777.3914 2319.1211,776.97027 2318.5776,775.84395 C 2318.1606,774.97673 2320.7931,773.74846 2321.3246,773.46541 C 2322.6607,772.75228 2323.8991,772.2592 2325.3216,772.99032 C 2327.1784,773.9455 2329.3906,774.61265 2331.0571,775.86296 C 2332.4575,776.91325 2334.0462,777.49243 2335.602,778.2777 C 2336.6664,778.81489 2338.7593,780.45756 2340.0031,780.02137 C 2341.5722,779.47015 2342.2364,780.66865 2343.8466,780.64664 C 2345.5368,780.62363 2346.3862,782.37048 2348.0603,782.14336 C 2347.8808,787.18058 2347.6052,792.20821 2347.5862,797.24053 C 2347.5661,802.51125 2348.146,807.93075 2347.9372,813.17464 C 2347.8801,814.85371 2346.7148,816.05353 2346.9501,817.83751 C 2347.0469,818.57309 2348.0341,818.97051 2348.0761,819.43219 C 2348.1781,820.55336 2348.0923,821.70481 2348.1169,822.8253 C 2348.2341,828.10268 2348.3134,833.40108 2348.2978,838.67757 C 2346.035,837.58368 2345.3654,835.10477 2343.5796,833.53382 C 2342.6968,832.75753 2339.4196,830.78403 2340.7471,829.41509 C 2339.8679,830.15682 2338.1522,829.84222 2337.06,830.29351 C 2336.1303,830.67748 2334.3544,830.76594 2334.7285,829.19499 C 2334.3008,829.78494 2333.1702,830.89762 2332.3523,830.90566 C 2331.1153,830.91773 2332.3704,828.78297 2332.4719,828.4815 C 2332.8033,827.4978 2333.9798,825.29075 2332.9331,824.75441 C 2331.9894,824.27133 2331.6245,823.08235 2330.8702,822.39355 C 2331.9591,821.37451 2333.6825,823.15666 2334.4784,821.6004 C 2332.9942,823.22996 2330.6353,820.66177 2329.4027,819.654 C 2330.757,817.91779 2332.6601,819.94407 2334.1959,820.01433 C 2332.8184,819.49642 2331.6054,818.5741 2330.3237,817.84655 C 2331.7214,817.59668 2330.4597,817.15919 2329.947,816.66855 C 2329.2186,815.97427 2328.4888,815.1386 2328.1451,814.19569 C 2327.7244,812.98308 2326.4601,810.71276 2328.0159,810.11318 C 2326.48,810.69471 2326.2803,808.99534 2327.7093,808.73971 C 2327.1705,808.7387 2325.8783,809.59585 2325.4199,808.96126 C 2324.8706,808.2024 2325.8146,807.20705 2325.3974,806.36514 C 2325.0507,808.21543 2323.499,805.26274 2322.88,805.00219 C 2321.824,804.55727 2321.747,804.30174 2320.9395,803.94102 C 2320.3155,803.66246 2318.8272,803.25066 2318.4248,802.64049 C 2317.8709,801.79893 2314.7656,801.73081 2313.7663,801.14577 C 2312.1981,800.22819 2310.3798,799.22855 2308.6557,798.68369 C 2306.9921,798.15889 2304.6181,798.64363 2303.1519,797.94156 C 2301.8426,797.31564 2300.0994,796.44941 2299.4768,795.03754 C 2298.8983,793.72593 2301.003,793.93217 2301.709,793.81303 C 2300.8225,793.54972 2299.6997,793.1042 2299.0563,793.98624 C 2298.3316,794.97947 2297.72,793.4506 2296.9904,793.23235 C 2297.0695,794.71012 2294.7001,793.6238 2295.7218,792.59163 C 2294.1481,792.60664 2293.5338,792.62366 2293.0163,790.70866 C 2292.9801,791.26522 2292.7066,791.71969 2292.2208,791.1481 C 2291.5525,790.3403 2292.0538,789.83583 2291.9751,788.99207 C 2291.8316,787.44778 2293.3631,786.57512 2293.4125,785.01403 C 2293.0359,785.82458 2291.6881,786.11178 2291.6937,787.12253 C 2291.6987,788.02525 2291.7855,789.42846 2290.4857,789.34738 C 2291.6158,789.85184 2290.7248,790.4404 2290.3774,791.06902 C 2290.1381,791.29625 2289.9136,791.5365 2289.7008,791.78976 C 2289.6908,792.26927 2289.6939,792.7498 2289.708,793.23135 C 2289.4188,794.25456 2287.403,795.33592 2286.3011,795.03353 C 2285.3254,794.76519 2284.6289,792.51855 2284.5453,791.67865 C 2284.4892,791.11206 2285.2362,791.05901 2285.6135,790.87883 C 2286.6264,790.40036 2285.0419,789.11618 2285.2973,788.26645 C 2284.0621,789.01409 2282.5028,785.01203 2280.7649,784.94199 C 2278.0717,784.83192 2279.5089,782.97881 2281.4453,782.7827 C 2283.4586,782.57759 2284.921,784.57475 2286.3044,782.23641 C 2287.341,780.48657 2290.5347,779.92933 2289.7272,782.7827 C 2289.9466,782.29744 2290.1109,781.79418 2290.219,781.27193 C 2290.5127,782.65363 2292.0886,780.94478 2292.0358,782.42251 C 2292.2452,781.22291 2292.662,781.89023 2292.9675,782.50255 C 2293.2551,781.87523 2293.3006,781.06183 2292.7356,780.5516 C 2293.2343,780.65665 2293.7172,780.61063 2294.1852,780.41154 C 2293.7663,779.91032 2293.7866,779.43013 2294.2472,778.97095 C 2292.7132,780.11741 2293.8885,778.15065 2294.1708,777.82054 C 2292.5212,777.95859 2291.6378,779.00797 2289.8629,778.73286 C 2288.7567,778.5618 2287.2872,779.6072 2286.332,779.25606 C 2285.1564,778.8249 2284.6677,779.62521 2283.7425,778.71086 C 2283.4227,778.39474 2282.5187,778.97395 2282.2127,778.99296 C 2281.1938,779.05598 2280.3796,778.12665 2279.6166,777.60047 C 2279.8033,777.35539 2279.995,777.11532 2280.1927,776.88024 C 2279.3813,777.02229 2278.644,776.07201 2278.9299,775.29981 C 2279.0363,775.01174 2279.4232,774.61765 2279.3654,774.28458 C 2279.2207,773.4364 2277.905,774.81669 2278.8018,773.27937 C 2278.0665,773.4234 2277.8815,773.4334 2277.9381,772.63026 C 2276.9071,774.13754 2274.8744,771.50208 2273.9715,771.55009 C 2274.8378,772.68327 2272.7765,772.51024 2272.2455,772.14518 C 2270.7737,771.12903 2273.614,769.25282 2273.8765,768.23874" id="path2562"/>
    <path d="M 2006.5199,739.00246 C 2006.827,739.22156 2007.9604,739.34161 2007.8075,738.57927 C 2007.7342,738.2111 2006.5112,737.44472 2006.2245,737.14657 C 2005.8662,736.77437 2005.4337,736.43618 2004.8659,736.55324 C 2005.1782,735.75279 2004.0989,735.14742 2003.5476,734.89626 C 2003.2587,734.76418 2003.0374,734.16578 2002.6351,734.488 C 2001.8901,735.08438 2001.8862,735.68675 2002.5897,736.31511 C 2003.762,737.36368 2005.8802,737.37368 2006.5199,739.00246" id="path2206"/>
    <path d="M 2182.695,804.33882 C 2182.4237,805.55437 2183.1293,806.66983 2183.0257,807.87662 C 2184.1153,807.3554 2184.8807,809.50863 2186.0815,808.57731 C 2186.9025,807.94077 2186.9089,807.81848 2188.0213,807.94579 C 2189.0673,808.06607 2189.697,806.87629 2190.7354,807.6551 C 2190.5489,805.96325 2189.1294,804.50316 2189.6574,802.76773 C 2190.3004,800.6459 2190.6267,799.2586 2190.2398,796.93409 C 2189.9155,794.99048 2190.2692,793.46462 2190.3439,791.57454 C 2190.3782,790.71167 2190.2836,789.85485 2190.3734,788.99007 C 2190.5233,787.54086 2189.8701,787.54286 2189.506,786.31393 C 2188.798,783.92435 2192.9263,781.97127 2194.7366,782.53757 C 2196.3715,783.04885 2195.8845,786.69921 2195.03,787.65395 C 2192.6277,790.3373 2196.8642,793.39053 2199.2411,794.63203 C 2200.2495,795.15869 2197.9888,798.83593 2199.0685,800.33337 C 2199.6511,801.14076 2201.4475,801.55449 2202.3637,801.68773 C 2203.4907,801.85103 2203.109,800.03887 2203.1969,799.39882 C 2203.396,797.95858 2205.445,798.22098 2206.4341,797.80936 C 2207.022,797.564 2209.5256,798.80889 2208.0267,797.05627 C 2209.223,798.91004 2210.489,795.15269 2208.5415,794.60299 C 2208.2948,796.3663 2207.6903,793.93718 2206.7747,793.95219 C 2206.9532,793.68788 2207.1327,793.42457 2207.3113,793.16127 C 2206.5161,793.12723 2205.4745,792.09008 2204.9894,791.51047 C 2204.2041,790.56452 2205.1684,789.78678 2204.4945,788.83793 C 2204.852,788.92601 2205.2125,788.99907 2205.5759,789.05813 C 2204.7471,788.55569 2204.9621,787.3387 2206.0066,787.39674 C 2205.8127,787.02746 2205.5581,786.70421 2205.2446,786.42901 C 2204.6693,785.80057 2205.081,785.13011 2204.6915,784.44467 C 2204.3655,783.87032 2203.6081,783.82629 2203.2464,783.29498 C 2202.8352,782.69065 2202.6964,781.72815 2202.3579,781.05483 C 2201.8477,780.03938 2201.4177,779.04498 2200.3438,778.52079 C 2199.4685,778.09363 2199.0443,776.26507 2197.8828,776.81222 C 2197.9327,776.19004 2197.9526,775.56588 2197.9425,774.94173 C 2199.1638,775.97398 2200.1317,776.91625 2201.3565,775.21379 C 2202.4183,773.73646 2203.5334,773.71546 2205.0404,772.8713 C 2207.1089,771.71311 2208.6026,766.85165 2211.3225,766.93766 C 2212.0987,766.96266 2212.2491,769.20582 2213.1425,768.26074 C 2213.6757,767.6977 2214.6895,766.25762 2214.1403,765.45559 C 2213.2274,764.12356 2209.706,764.53257 2208.6274,765.42959 C 2209.2158,765.49159 2209.7211,765.7316 2210.1413,766.14962 C 2208.7234,766.19962 2204.6408,765.20559 2204.153,767.04166 C 2203.8261,768.27074 2200.1263,768.22474 2200.3518,766.51063 C 2199.1224,767.26667 2197.8504,768.52076 2197.2359,769.83888 C 2196.5679,771.27405 2196.2621,772.12117 2194.599,771.75912 C 2193.5097,771.52309 2192.4761,771.23905 2192.1709,770.0109 C 2192.0169,769.39184 2191.9567,768.76578 2191.6129,768.20673 C 2190.9798,767.17867 2190.5558,768.01572 2189.8582,767.50969 C 2187.6128,765.88361 2187.4908,760.82353 2188.4477,758.57553 C 2188.9964,757.28652 2189.9163,755.84151 2191.187,755.1585 C 2192.2362,754.59548 2194.8201,755.5255 2195.9202,755.92451 C 2196.7006,756.20651 2198.1895,755.5545 2198.8859,755.2325 C 2200.3227,754.56548 2200.7268,755.58551 2202.123,755.79751 C 2203.6763,756.03251 2205.7402,755.1925 2207.4006,755.2335 C 2209.388,755.2835 2210.6656,755.3955 2212.2616,756.54352 C 2214.2461,757.97153 2220.3857,757.00852 2221.9861,755.1255 C 2223.0855,753.83246 2223.467,752.38339 2224.7919,751.18731 C 2226.2183,749.8992 2226.141,747.71693 2227.6811,746.56474 C 2227.1353,746.22068 2226.8221,745.62056 2227.0228,744.98042 C 2226.4576,745.12645 2225.6605,744.72636 2225.1856,745.13146 C 2224.4717,745.73858 2224.5188,746.9248 2223.5384,747.22585 C 2222.0417,747.68493 2222.9971,748.14699 2222.2939,749.08511 C 2221.8887,749.62617 2220.8856,749.41715 2220.6034,750.15823 C 2219.8959,752.01437 2217.0535,752.34539 2215.4736,752.00437 C 2214.1351,751.71535 2212.5524,751.40733 2211.1787,751.47633 C 2210.4069,751.51534 2209.6722,752.37039 2209.0358,752.11438 C 2207.0416,751.31232 2205.6326,750.93129 2203.4974,750.70928 C 2202.3998,750.59527 2201.7591,750.27224 2200.5937,750.39025 C 2199.2643,750.52426 2198.8572,748.71007 2198.1842,748.72307 C 2197.3152,748.73907 2194.0792,747.14984 2193.9032,748.9561 C 2193.6635,751.41733 2191.443,753.76146 2189.6251,751.17931 C 2189.4571,751.98637 2189.1971,752.5994 2188.5748,753.15043 C 2187.7335,753.89546 2187.9112,755.04649 2187.0934,755.70951 C 2185.5325,756.97252 2187.5886,759.17253 2185.9891,760.31953 C 2185.8533,759.75353 2185.4454,759.36953 2184.8361,759.52953 C 2185.2397,761.05753 2186.421,760.68353 2185.9456,762.44554 C 2185.5125,764.05156 2186.987,765.5236 2186.534,767.16067 C 2186.198,766.55064 2186.0555,765.84661 2185.514,765.35959 C 2184.6259,767.79671 2182.7148,769.0698 2182.5954,771.84013 C 2182.5414,773.07734 2182.6569,774.3966 2182.5738,775.60189 C 2182.4767,777.01428 2181.1609,777.92958 2181.0722,779.44113 C 2180.956,781.44301 2177.6887,782.36648 2178.207,784.03842 C 2178.4986,784.98001 2179.25,784.39164 2178.4443,785.72551 C 2177.7477,786.88035 2178.6831,789.38141 2179.156,790.57053 C 2179.8017,789.83983 2181.4778,789.56958 2182.3868,789.52054 C 2184.3758,789.41344 2182.841,791.3443 2183.5504,792.50153 C 2184.7271,794.42377 2184.5574,796.06789 2184.3361,798.28207 C 2184.1482,800.09497 2183.8373,802.91801 2182.695,804.33882" id="path2348"/>
    <path d="M 2202.5447,803.54724 C 2200.2603,804.35485 2202.4916,806.96149 2202.6086,806.84923 C 2203.2011,806.27795 2203.0267,804.19453 2202.5447,803.54724" id="path2366"/>
    <path d="M 2202.3525,763.62855 C 2201.9598,762.90554 2200.9385,762.87654 2200.9134,763.84855 C 2201.4355,764.04556 2201.9152,763.97155 2202.3525,763.62855" id="path2368"/>
    <path d="M 2203.4297,762.83854 C 2202.9663,762.18354 2202.3963,762.20254 2201.9185,762.83854 C 2202.3902,763.17054 2202.9522,763.15854 2203.4297,762.83854" id="path2370"/>
    <path d="M 2206.9005,806.65279 C 2207.1784,806.28196 2207.8765,805.48622 2207.5742,804.94307 C 2207.0228,803.94903 2207.9943,803.50215 2208.2153,802.6455 C 2208.3356,802.17762 2208.7658,798.98516 2207.5189,799.67627 C 2206.9022,800.01784 2206.0872,800.46759 2205.5619,800.92538 C 2204.5732,801.78491 2206.2004,802.88595 2205.5132,803.80475 C 2205.2483,804.15946 2204.5718,805.384 2204.8358,805.85201 C 2205.2649,806.60869 2206.5232,806.38419 2206.4681,805.49223 C 2206.6007,805.88208 2206.7452,806.26993 2206.9005,806.65279" id="path2372"/>
    <path d="M 2210.8707,797.70721 C 2209.0213,797.74126 2208.5643,801.73381 2208.5594,803.14846 C 2208.5548,804.62441 2208.0122,805.26074 2207.5448,806.60768 C 2206.9649,808.27658 2207.9768,807.83151 2208.9636,808.8189 C 2209.3783,808.2044 2209.381,807.38246 2209.8211,806.79511 C 2210.2651,806.20378 2211.161,806.5255 2211.5823,805.96025 C 2212.1863,805.15251 2210.769,803.7306 2210.0209,804.55827 C 2210.1895,803.6805 2210.0946,802.76072 2210.2895,801.88609 C 2210.4177,801.31006 2211.3789,799.39982 2211.7109,801.09167 C 2212.4404,799.7544 2210.8592,798.97915 2210.8707,797.70721" id="path2378"/>
    <path d="M 2212.4863,773.77947 C 2212.4507,773.26837 2212.4952,772.76528 2212.6187,772.2692 C 2215.3754,773.69445 2214.6567,768.26374 2212.4754,771.6191 C 2211.7529,770.55596 2213.1896,770.25692 2211.7321,769.80888 C 2211.2332,769.65586 2210.6458,769.59285 2210.1853,769.89288 C 2209.1326,770.57796 2209.3905,772.34121 2209.6737,773.34939 C 2210.4797,772.93531 2210.9347,772.12117 2211.3138,771.33906 C 2212.1068,771.90714 2211.3607,773.69645 2212.4863,773.77947" id="path2386"/>
    <path d="M 2210.5965,794.02228 C 2209.7941,794.3667 2209.9746,795.87363 2210.7996,796.18906 C 2212.0305,796.65971 2212.5949,794.28159 2210.5965,794.02228" id="path2388"/>
    <path d="M 2213.1161,769.96889 C 2212.8786,770.27393 2212.7242,770.20092 2212.9708,770.68898 C 2213.0185,770.44895 2213.0673,770.20892 2213.1161,769.96889" id="path2394"/>
    <path d="M 2213.4888,774.21956 C 2213.1723,774.34359 2213.0065,774.58364 2212.9923,774.93972 C 2213.1581,774.69967 2213.3229,774.45961 2213.4888,774.21956" id="path2396"/>
    <path d="M 2214.4529,805.06031 C 2214.5555,805.57341 2214.4938,805.77785 2215.1429,805.78286 C 2214.9122,805.54134 2214.6826,805.30082 2214.4529,805.06031" id="path2398"/>
    <path d="M 2215.7777,806.93443 C 2215.8565,807.34237 2216.1079,807.55987 2216.535,807.58593 C 2216.2825,807.36843 2216.0311,807.15092 2215.7777,806.93443" id="path2400"/>
    <path d="M 2218.0062,810.62352 C 2217.5173,811.14292 2217.698,811.38357 2218.5472,811.34547 C 2218.3665,811.10481 2218.1868,810.86417 2218.0062,810.62352" id="path2404"/>
    <path d="M 2221.4888,773.9295 C 2220.2379,775.76593 2221.2493,777.36639 2223.4421,776.66018 C 2223.7891,776.44512 2224.1472,776.25306 2224.5194,776.08502 C 2224.9379,776.16904 2225.3602,776.21005 2225.7873,776.20705 C 2226.5814,775.80794 2227.9733,776.12503 2228.336,775.08076 C 2227.7602,775.15077 2227.3756,774.8487 2227.2517,774.29058 C 2226.3283,775.60289 2222.8765,773.4364 2221.4888,773.9295" id="path2408"/>
    <path d="M 2229.174,735.76079 C 2228.4401,735.58769 2228.3559,735.82783 2228.9235,736.48121 C 2229.0077,736.24107 2229.0909,736.00093 2229.174,735.76079" id="path2414"/>
    <path d="M 2230.9043,730.57301 C 2231.3748,729.67019 2230.2269,726.79225 2229.0599,728.0496 C 2230.226,728.37393 2229.7554,730.08257 2230.9043,730.57301" id="path2416"/>
    <path d="M 2229.0547,775.00974 C 2228.0251,776.09502 2230.679,776.15103 2231.1951,776.15904 C 2232.5985,776.18204 2234.677,776.3991 2235.7485,775.29981 C 2233.5404,774.97473 2231.2062,775.79194 2229.0547,775.00974" id="path2418"/>
    <path d="M 2233.1641,776.66018 C 2231.6225,776.99428 2233.0451,780.51258 2233.8371,781.06083 C 2234.1533,780.50258 2233.5311,777.22535 2233.1641,776.66018" id="path2422"/>
    <path d="M 2238.3964,792.73078 C 2239.4237,792.2042 2241.7215,791.85383 2242.3366,790.8438 C 2243.1728,789.56658 2242.6998,788.62975 2241.3679,788.33651 C 2242.4179,787.14455 2240.1185,786.41 2239.3252,786.21286 C 2237.8349,785.84259 2236.512,786.30592 2235.0365,786.46604 C 2233.23,786.66319 2232.8576,787.55887 2233.6808,789.30234 C 2234.569,791.13509 2236.6705,791.83381 2238.3964,792.73078" id="path2424"/>
    <path d="M 2238.842,726.75321 C 2239.0639,726.17555 2238.8704,725.59687 2238.4063,725.23943 C 2238.5275,725.75205 2238.6721,726.25664 2238.842,726.75321" id="path2426"/>
    <path d="M 2239.2031,725.09526 C 2240.0246,724.28123 2240.2702,723.00852 2240.1673,721.92798 C 2240.115,721.37215 2239.6998,719.72555 2239.1309,721.04465 C 2238.7354,721.96303 2239.7683,722.69108 2239.3902,723.38704 C 2239.0446,724.0269 2238.3817,724.50151 2239.2031,725.09526" id="path2428"/>
    <path d="M 2243.0984,761.89853 C 2242.1943,761.51153 2241.4889,763.53955 2242.0987,764.05856 C 2243.1546,764.95658 2243.2433,762.44454 2243.0984,761.89853" id="path2432"/>
    <path d="M 2243.1141,764.85857 C 2242.2493,765.30959 2242.6966,766.66664 2243.7021,766.36863 C 2243.5903,765.83261 2243.3946,765.32859 2243.1141,764.85857" id="path2434"/>
    <path d="M 2243.7671,752.17838 C 2243.5509,752.5214 2243.6796,752.65441 2243.9913,752.96842 C 2243.9169,752.70541 2243.8415,752.4414 2243.7671,752.17838" id="path2438"/>
    <path d="M 2245.3306,762.25854 C 2245.0952,762.57354 2244.8559,762.88654 2244.6155,763.19754 C 2244.3702,762.96254 2244.1289,762.72154 2243.8916,762.47754 C 2243.2401,764.47557 2244.2113,763.74655 2244.8448,765.13758 C 2244.9864,765.44559 2244.0683,766.76765 2245.0522,766.53064 C 2245.5856,766.40263 2246.16,766.09662 2246.3588,766.79965 C 2246.5871,767.61069 2249.4533,766.25062 2247.0495,765.5896 C 2246.0679,765.31959 2245.8339,764.75457 2246.3584,763.90555 C 2246.6877,763.37755 2245.6272,762.55254 2245.3306,762.25854" id="path2440"/>
    <path d="M 2244.2893,756.35852 C 2244.108,756.69852 2243.9606,756.60952 2244.2931,757.07952 C 2244.2918,756.83852 2244.2905,756.59852 2244.2893,756.35852" id="path2442"/>
    <path d="M 2244.7328,771.97915 C 2243.6242,772.84429 2244.2124,774.4016 2245.5366,774.58064 C 2246.0961,774.65566 2246.5879,774.22056 2247.141,774.22056 C 2247.7422,774.22056 2248.3423,774.4116 2248.9446,774.44561 C 2250.9976,774.56064 2248.9728,772.59125 2248.357,772.2782 C 2247.0081,771.5911 2246.0536,770.94001 2244.7328,771.97915" id="path2444"/>
    <path d="M 2244.5625,753.18843 C 2244.3954,753.16543 2244.2292,753.14143 2244.0621,753.11843 C 2244.1936,753.40544 2244.362,753.66945 2244.5663,753.90946 C 2244.565,753.66845 2244.5638,753.42844 2244.5625,753.18843" id="path2446"/>
    <path d="M 2246.4662,759.52853 C 2246.532,760.42253 2246.1869,761.35653 2246.8211,762.13153 C 2247.4341,762.88054 2248.0841,763.24154 2248.4442,764.19656 C 2248.8388,765.23959 2250.7831,767.48869 2251.6953,766.93866 C 2249.0767,764.27056 2248.7556,761.05153 2248.2223,757.61953 C 2247.9904,756.13251 2248.0439,754.90949 2249.901,755.85351 C 2251.4804,756.65652 2253.7682,757.14352 2255.5232,757.29853 C 2254.4182,756.75952 2254.391,755.4155 2253.4932,754.70949 C 2252.5933,753.99946 2250.0598,754.11547 2251.1471,752.28139 C 2251.8726,751.0573 2253.8065,751.0183 2254.1644,749.49416 C 2254.4069,748.46604 2253.6706,746.74077 2254.1026,745.98763 C 2252.2551,745.51854 2250.2467,747.34287 2249.5078,748.86909 C 2251.2313,748.9521 2249.554,749.84619 2249.076,750.03521 C 2248.0362,750.44625 2248.4971,751.56734 2248.0092,752.33239 C 2247.5024,753.12543 2246.417,752.31139 2246.0932,751.78336 C 2245.5151,750.84429 2246.702,750.23623 2247.3378,749.81619 C 2248.6492,748.9501 2249.4951,746.28169 2248.766,744.76337 C 2248.4535,744.11321 2247.3593,743.87716 2247.6196,743.00592 C 2247.8882,742.17066 2249.0475,741.65449 2248.7656,740.65914 C 2247.0049,740.67214 2246.125,742.89488 2245.7123,744.26725 C 2245.274,745.72158 2244.1326,748.29301 2244.4022,749.73218 C 2244.534,750.43925 2244.8429,751.17731 2245.2431,751.77436 C 2245.4036,752.05837 2245.6317,752.26639 2245.9264,752.39739 C 2245.4506,752.99742 2245.2834,753.73245 2245.3624,754.48648 C 2245.4647,755.4725 2245.8087,756.03651 2246.3996,756.77052 C 2246.9946,757.50753 2246.5929,758.70553 2246.4662,759.52853" id="path2452"/>
    <path d="M 2245.5902,769.74887 C 2245.3282,769.94189 2245.0662,770.13591 2244.8041,770.32893 C 2245.3396,770.39994 2245.8432,770.30393 2246.3129,770.0389 C 2246.0713,769.94289 2245.8308,769.84588 2245.5902,769.74887" id="path2454"/>
    <path d="M 2245.2452,787.82609 C 2244.8143,788.42858 2245.0096,788.66879 2245.8292,788.54768 C 2245.6349,788.30648 2245.4406,788.06628 2245.2452,787.82609" id="path2456"/>
    <path d="M 2246.3206,786.89536 C 2246.148,787.15556 2246.0795,787.44278 2246.1151,787.75603 C 2246.3872,787.75903 2246.651,787.71199 2246.9046,787.61492 C 2246.7352,787.35471 2246.5409,787.11553 2246.3206,786.89536" id="path2458"/>
    <path d="M 2248.1901,784.8039 C 2247.964,785.17314 2247.7268,785.53338 2247.4756,785.88462 C 2248.0441,785.76554 2248.3242,785.38228 2248.1901,784.8039" id="path2462"/>
    <path d="M 2263.6998,789.62664 C 2265.3133,790.55751 2266.9942,791.20416 2268.5358,792.35637 C 2270.3299,793.69589 2270.4509,791.68765 2270.1105,790.34931 C 2269.934,789.52554 2268.8273,789.26031 2268.66,788.47662 C 2268.4886,787.66796 2268.4837,786.76526 2267.6799,786.28691 C 2266.9374,785.8446 2266.6542,785.2672 2265.6879,785.45433 C 2264.7177,785.64246 2263.7857,785.50736 2262.9922,784.88195 C 2262.2197,784.27256 2261.231,783.81028 2260.2309,783.8413 C 2259.2309,783.87232 2258.7681,784.68582 2257.8839,784.87995 C 2257.1036,785.05006 2256.8014,784.64279 2256.3837,784.15449 C 2256.2357,783.98038 2253.7877,784.28257 2253.4345,784.25755 C 2250.0674,784.01341 2246.5311,786.40399 2247.9292,790.13911 C 2247.9522,789.37841 2248.9831,786.28791 2250.0707,786.53509 C 2249.731,787.55187 2251.5441,789.17623 2252.4102,789.33737 C 2252.7656,789.40343 2256.7968,786.03673 2255.8433,788.62675 C 2256.4758,788.48763 2260.2158,789.98997 2260.421,788.70182 C 2260.5981,787.5939 2263.5008,788.51365 2263.6998,789.62664" id="path2464"/>
    <path d="M 2248.651,790.63859 C 2248.0933,790.91286 2247.6891,791.48244 2247.8668,792.15015 C 2248.7109,792.04303 2249.2619,791.38234 2250.0496,791.1491 C 2249.3533,792.44246 2251.0861,791.20416 2250.8782,789.98797 C 2250.0673,790.04402 2249.5138,790.81076 2248.651,790.63859" id="path2466"/>
    <path d="M 2249.6692,739.72277 C 2249.9015,739.39463 2250.0549,739.50068 2249.7704,739.00246 C 2249.737,739.24257 2249.7036,739.48267 2249.6692,739.72277" id="path2468"/>
    <path d="M 2250.7163,742.09964 C 2253.4499,741.49044 2254.5481,739.19055 2253.039,736.76936 C 2252.687,737.55077 2251.7972,737.74887 2251.2399,738.32815 C 2250.2754,739.32861 2250.183,740.95225 2250.7163,742.09964" id="path2470"/>
    <path d="M 2251.8184,789.98797 C 2251.6088,790.25622 2251.5833,790.5465 2251.7533,790.85881 C 2252.048,790.71467 2252.3104,790.52148 2252.5412,790.27824 C 2252.2996,790.18115 2252.059,790.08406 2251.8184,789.98797" id="path2474"/>
    <path d="M 2252.8976,789.77778 C 2252.6345,790.52548 2253.2524,791.16211 2253.9899,790.78874 C 2253.8923,790.22019 2253.4869,789.8018 2252.8976,789.77778" id="path2478"/>
    <path d="M 2259.1475,759.52853 C 2259.527,760.17453 2260.0969,760.70653 2260.8054,760.96853 C 2260.3026,760.45153 2259.8024,759.86153 2259.1475,759.52853" id="path2482"/>
    <path d="M 2264.0622,777.02029 C 2264.5552,777.18634 2265.059,777.30638 2265.5745,777.3804 C 2266.1275,777.36739 2266.4199,776.86624 2267.0124,776.94926 C 2266.427,776.15203 2267.6382,775.76393 2267.0055,774.55363 C 2266.3284,773.25637 2263.4674,775.39984 2262.3232,775.57988 C 2262.5055,776.3911 2263.2339,776.99028 2264.0622,777.02029" id="path2484"/>
    <path d="M 2263.2315,769.45884 C 2262.9332,769.60686 2262.6682,769.80088 2262.4345,770.0389 C 2263.1266,770.42094 2263.3926,770.22792 2263.2315,769.45884" id="path2486"/>
    <path d="M 2264.9785,759.59853 C 2265.0998,759.83853 2265.2211,760.07853 2265.3424,760.31853 C 2265.4352,759.71653 2265.2512,759.90553 2264.9785,759.59853" id="path2488"/>
    <path d="M 2269.6793,763.33855 C 2272.6933,764.18956 2269.6712,761.29553 2269.0154,760.60853 C 2269.8638,760.48853 2270.4378,761.39953 2270.8979,761.94653 C 2271.7575,762.96754 2271.9818,762.08853 2272.8121,762.50254 C 2274.3836,763.28554 2274.5123,761.04453 2273.3678,760.41953 C 2272.2895,759.83153 2266.6723,758.98953 2266.5668,761.10753 C 2267.9947,760.14253 2267.2161,761.70153 2266.3484,761.39753 C 2267.0412,762.27954 2268.6051,761.67753 2268.3077,763.26755 C 2268.3888,762.72354 2268.7796,762.31154 2269.313,762.18754 C 2269.4551,762.56554 2269.5762,762.94854 2269.6793,763.33855" id="path2490"/>
    <path d="M 2267.6074,766.72865 C 2267.3557,768.08473 2271.0007,767.60669 2270.6261,766.21862 C 2269.8587,767.08066 2268.5649,766.42863 2267.6074,766.72865" id="path2494"/>
    <path d="M 2269.0284,763.19754 C 2268.5994,763.37555 2268.2649,763.66155 2268.023,764.05756 C 2268.6511,764.43756 2270.0489,763.62055 2269.0284,763.19754" id="path2496"/>
    <path d="M 2271.071,767.29868 C 2268.3391,767.7547 2269.4256,769.66286 2270.9157,771.12903 C 2271.7815,771.98015 2273.4629,767.7627 2271.071,767.29868" id="path2500"/>
    <path d="M 2272.876,768.16873 C 2272.6527,768.48876 2272.4259,768.34875 2272.5899,768.88879 C 2272.6846,768.64877 2272.7803,768.40875 2272.876,768.16873" id="path2506"/>
    <path d="M 2273.6755,794.82327 C 2273.8192,795.27084 2273.8172,795.45708 2274.3678,795.54419 C 2274.1373,795.30388 2273.9069,795.06357 2273.6755,794.82327" id="path2508"/>
    <path d="M 2274.5499,793.88111 C 2273.92,793.787 2274.0073,794.02729 2274.813,794.60299 C 2274.7257,794.36269 2274.6373,794.1224 2274.5499,793.88111" id="path2510"/>
    <path d="M 2289.1816,795.11364 C 2288.9517,796.11195 2290.9358,796.32424 2291.4472,796.83595 C 2290.8393,796.05187 2289.7902,795.89566 2289.1816,795.11364" id="path2522"/>
    <path d="M 2215.0913,846.29003 C 2215.5115,846.58732 2215.4828,846.89873 2216.0642,846.65282 C 2216.3479,847.72825 2214.3952,848.06997 2214.3276,849.48648 C 2215.1718,849.21827 2216.0666,849.45321 2216.9288,849.28583 C 2218.0522,849.06704 2218.8047,847.84316 2219.9597,847.8099 C 2221.8154,847.75648 2222.4091,847.22226 2223.538,845.83656 C 2224.2656,844.94284 2225.5137,843.81255 2225.7599,842.69153 C 2226.1342,840.98776 2225.2117,842.35603 2226.6633,841.85655 L 2227.4763,838.00282 L 2225.7449,836.7299 C 2222.8504,837.94138 2225.1975,838.62247 2221.7328,839.30687 C 2220.8693,839.47723 2221.7484,841.9743 2221.1602,842.36902 C 2220.5718,842.76376 2220.3038,841.43317 2219.9183,842.0031 C 2219.5328,842.57308 2217.9204,840.54375 2217.665,841.23978 C 2217.4096,841.93591 2215.2896,845.51614 2215.0913,846.29003" id="path2392"/>
    <path d="M 2180.7389,830.05731 C 2180.2483,830.25632 2180.105,830.61818 2180.3092,831.1429 C 2180.9776,831.07957 2181.1148,830.61114 2180.7389,830.05731" id="path2346"/>
    <path d="M 2074.8639,816.17894 C 2074.5662,816.31338 2074.3155,816.50702 2074.1108,816.76086 C 2074.8307,817.14615 2075.0813,816.9515 2074.8639,816.17894" id="path2278"/>
    <path d="M 2086.0378,812.05744 C 2085.3742,811.56006 2082.136,810.96443 2081.5368,811.55605 C 2081.3596,809.51264 2079.5892,812.1868 2079.3643,812.85972 C 2079.1348,813.54072 2079.3003,816.82206 2077.7775,815.52784 C 2077.6056,816.60634 2076.9976,817.47126 2076.6712,818.48779 C 2076.1771,817.47426 2075.2755,817.75122 2074.5681,818.2068 C 2076.969,819.33684 2079.625,817.98202 2081.8189,819.44122 C 2082.5027,819.89589 2083.4423,819.93203 2084.182,820.27631 C 2085.3624,820.82439 2083.8186,821.66264 2083.7022,822.45479 C 2083.3879,824.59371 2089.5056,824.22212 2090.6595,824.427 C 2092.8802,824.8217 2094.814,826.42684 2097.0418,826.99244 C 2097.745,827.17128 2098.7088,827.40537 2099.3659,827.05473 C 2100.0675,826.68 2099.8523,826.0411 2100.8943,826.01096 C 2103.5505,825.93261 2106.2836,826.56347 2108.8177,827.38829 C 2111.9546,828.40815 2115.03,830.05128 2118.2245,830.77197 C 2119.5517,831.07153 2121.3966,830.7961 2122.6066,831.36808 C 2123.8541,831.9572 2124.8465,831.41734 2126.1699,831.54401 C 2128.8772,831.80338 2131.9984,833.47851 2134.3425,831.78629 C 2136.2544,830.40408 2138.7607,832.92444 2140.5572,833.82243 C 2141.1642,834.12615 2144.7518,834.3454 2144.7074,834.75877 C 2144.6271,835.51015 2145.7809,835.96182 2146.3667,835.66506 C 2146.7995,835.44476 2145.5,833.93607 2145.3461,833.72288 C 2143.9957,831.85063 2145.3355,829.996 2145.3758,828.07052 C 2145.4006,826.86184 2144.1868,826.6358 2143.2955,826.36155 C 2141.7693,825.89142 2141.3539,826.54338 2139.949,826.40575 C 2138.6209,826.27716 2136.8954,827.23558 2135.7137,826.67197 C 2134.9631,826.31433 2132.8353,825.61619 2132.4435,824.81768 C 2132.1081,824.13575 2133.1431,820.9067 2131.5751,822.32427 C 2131.8277,821.25505 2130.8307,820.21809 2130.8372,819.14113 C 2129.8985,819.63995 2128.5742,819.29669 2127.537,819.39706 C 2127.1239,819.3529 2126.7751,819.16923 2126.4897,818.84707 C 2125.7249,818.22185 2125.0095,818.69151 2124.2117,818.27905 C 2123.7925,818.06229 2122.9966,816.3816 2122.3537,817.22542 C 2121.7179,818.05929 2120.3119,817.91579 2119.7085,816.97257 C 2118.2835,814.74136 2116.7752,814.46852 2115.9296,817.24248 C 2115.6441,818.1767 2115.178,820.30141 2113.7221,819.83266 C 2112.91,819.57069 2112.7158,819.15518 2111.829,819.2164 C 2111.1118,819.26558 2110.3722,819.45427 2109.6405,819.29368 C 2108.2076,818.97954 2107.6197,819.05783 2106.2595,819.14313 C 2105.4722,819.19332 2104.1376,818.1496 2103.4595,818.53295 C 2100.7165,820.08459 2099.8302,816.08062 2098.6387,814.55278 C 2097.568,813.14355 2097.814,814.44846 2096.9083,814.44846 C 2095.8444,814.44846 2094.85,812.90686 2093.7744,813.45848 C 2092.7536,813.98204 2091.9696,812.60399 2091.2997,812.06145 C 2090.1986,811.17099 2089.4196,811.53399 2088.2167,810.8381 C 2088.0514,811.85086 2087.1105,813.24083 2086.0378,812.05744" id="path2280"/>
    <path d="M 2102.2412,826.15863 C 2102.3675,826.9191 2103.2822,826.84677 2103.8052,826.88193 C 2103.3199,826.5484 2102.799,826.3073 2102.2412,826.15863" id="path2296"/>
    <path d="M 2133.592,819.29067 C 2132.851,819.17324 2131.0775,820.62965 2131.9992,821.35443 C 2132.867,822.03813 2134.8681,822.6295 2134.8997,821.45884 C 2136.182,822.86144 2137.6407,822.04917 2139.0069,821.54518 C 2139.5694,821.33737 2140.1868,821.16972 2140.8132,821.30725 C 2140.6168,820.33453 2141.6949,820.35661 2142.3138,820.15385 C 2141.9619,818.70857 2140.046,819.04679 2139.0438,819.18729 C 2137.2568,819.43821 2135.3265,818.80893 2133.592,819.29067" id="path2308"/>
    <path d="M 2131.6088,809.1798 C 2131.0385,809.26903 2130.9421,809.68307 2131.1584,810.18236 C 2131.841,810.17234 2131.9717,809.72418 2131.6088,809.1798" id="path2310"/>
    <path d="M 2144.1591,820.73605 C 2144.264,821.27111 2144.1834,821.51506 2144.868,821.52811 C 2144.6475,821.25103 2144.4108,820.98601 2144.1591,820.73605" id="path2312"/>
    <path d="M 2145.4593,829.69549 C 2144.6482,831.48067 2147.091,832.3473 2148.3554,832.92947 C 2149.1518,833.2965 2149.7942,833.67159 2150.3651,834.36048 C 2151.3972,835.60571 2150.1987,835.27376 2150.2018,836.17308 C 2150.2044,836.76163 2152.3794,834.07184 2152.4812,834.03564 C 2153.4353,833.68768 2155.8236,832.71329 2154.4974,831.41533 C 2153.5389,830.47645 2151.6776,829.15279 2150.3988,829.88645 C 2148.9371,830.72774 2147.0346,830.75187 2145.4593,829.69549" id="path2314"/>
    <path d="M 2145.6491,821.37853 C 2145.871,821.56225 2146.1105,821.56225 2146.3709,821.37853 C 2146.1303,821.37853 2145.8907,821.37853 2145.6491,821.37853" id="path2316"/>
    <path d="M 2151.5239,818.77882 C 2150.9413,819.10399 2150.8437,819.66102 2151.4039,820.15385 C 2151.909,819.46731 2152.8204,819.36293 2153.6164,819.72125 C 2153.2179,818.85108 2152.3116,818.83302 2151.5239,818.77882" id="path2318"/>
    <path d="M 2154.0004,835.92963 C 2154.202,835.54233 2154.1736,835.15406 2153.9152,834.76279 C 2153.6446,834.93378 2153.4197,835.15205 2153.2403,835.4166 C 2153.4936,835.5876 2153.747,835.75861 2154.0004,835.92963" id="path2320"/>
    <path d="M 2159.6943,830.78102 C 2158.6913,831.30374 2157.4743,832.27591 2157.6994,833.60622 C 2157.8795,834.66523 2157.6378,836.37831 2156.202,835.27577 C 2155.2093,837.00612 2160.981,836.52218 2161.222,836.79483 C 2160.6651,835.73548 2162.041,833.70377 2162.4884,832.84501 C 2163.1747,831.52792 2160.6718,830.40408 2159.6943,830.78102" id="path2322"/>
    <path d="M 2171.7116,836.93569 C 2173.2054,836.13183 2174.7206,835.87027 2175.481,834.19052 C 2175.856,834.7477 2175.1838,835.90247 2175.7772,836.20024 C 2176.4145,836.51916 2176.8255,836.28475 2177.3745,836.05638 C 2178.0684,835.76666 2178.6844,836.18918 2179.3938,836.2928 C 2178.9972,835.81092 2178.4983,835.54334 2177.8969,835.48802 C 2179.2141,834.65215 2181.3136,836.21936 2181.5361,833.96926 C 2180.402,835.52523 2180.3392,832.64391 2179.9917,832.04165 C 2179.1522,830.58199 2177.7399,832.07986 2177.8634,833.17482 C 2177.5667,832.08489 2176.5926,830.2322 2175.457,831.60935 C 2174.5968,832.64994 2173.6607,830.60109 2173.1435,830.07138 C 2172.3873,829.2965 2169.5541,829.88544 2170.4815,831.1821 C 2171.6163,832.76758 2172.9791,833.14466 2174.6066,834.03966 C 2174.1652,834.69943 2172.8711,835.05649 2172.129,835.22648 C 2170.8539,835.51719 2170.611,834.31824 2170.0048,833.49661 C 2168.5911,831.58422 2164.6609,832.26284 2163.4485,833.77919 C 2162.866,834.50732 2163.6074,835.64393 2163.076,836.38636 C 2162.3644,837.38143 2163.831,838.18042 2164.6458,838.39175 C 2165.1505,838.52259 2165.575,838.54674 2165.9761,838.21665 C 2166.7189,837.60582 2166.7206,838.00834 2167.7386,837.96808 C 2169.169,837.91072 2170.233,836.46584 2171.7116,836.93569" id="path2328"/>
    <path d="M 2168.8376,832.30909 C 2169.2996,831.6938 2169.5348,830.94587 2169.9115,830.27844 C 2168.3511,829.58694 2168.6142,831.36909 2168.8376,832.30909" id="path2330"/>
    <path d="M 2179.6354,842.30079 C 2180.4554,844.10064 2182.1226,844.04322 2183.7586,844.22455 C 2185.6955,844.43912 2187.3583,846.22251 2188.618,847.60427 C 2190.9835,850.19739 2195.8004,847.85123 2192.9677,844.95393 C 2192.0838,844.05128 2191.4136,843.30086 2190.2162,843.29885 C 2190.2724,843.29885 2188.1564,840.97367 2187.8946,840.75318 C 2187.7014,840.59009 2184.4929,840.64143 2184.3468,840.74009 C 2182.9255,841.70264 2180.732,840.17431 2179.6354,842.30079" id="path2342"/>
    <path d="M 2183.5345,832.661 C 2183.1792,833.33571 2182.7391,834.12414 2183.479,834.84326 C 2183.4274,833.84355 2185.3606,833.35884 2183.5345,832.661" id="path2350"/>
    <path d="M 2184.8696,834.10905 C 2185.1175,834.6783 2185.0876,835.2114 2184.78,835.70831 C 2185.7658,835.94774 2185.5144,834.83018 2185.6739,834.25991 C 2185.4051,834.20962 2185.1373,834.15934 2184.8696,834.10905" id="path2352"/>
    <path d="M 2187.682,836.00005 C 2188.4233,835.58559 2189.9464,836.05236 2190.8391,835.95075 C 2191.662,835.8572 2192.9246,836.03928 2193.7535,836.20628 C 2194.6599,836.38938 2195.2104,837.38948 2196.1995,836.92161 C 2196.8824,836.59864 2198.6168,837.22145 2198.2299,835.84814 C 2200.5472,836.79182 2201.4589,836.17207 2203.5608,835.38139 C 2204.9652,834.85331 2210.0857,835.5705 2209.1127,832.66 C 2210.1262,832.85205 2209.9118,831.61136 2210.8349,831.58523 C 2210.331,830.389 2208.9165,828.6051 2208.7571,830.9318 C 2209.1912,830.64532 2209.67,830.59606 2210.1891,830.78202 C 2209.2742,831.93911 2207.4872,832.01753 2206.8381,833.43627 C 2206.0534,835.15406 2204.4201,834.0115 2203.3825,833.10745 C 2202.399,832.25078 2201.3756,833.66656 2200.367,833.27639 C 2199.8343,833.07025 2199.9031,833.48052 2199.6007,833.78824 C 2199.1272,834.27198 2198.0787,833.42923 2197.6814,833.15672 C 2196.3593,832.25078 2194.3362,831.68576 2192.8276,831.33792 C 2190.451,830.79107 2189.7694,831.67972 2187.9036,832.64793 C 2186.9682,833.1346 2186.334,833.12153 2186.3267,834.47816 C 2186.3238,835.18021 2186.753,837.2627 2187.682,836.00005" id="path2354"/>
    <path d="M 2191.2034,809.68107 C 2189.9919,810.09413 2190.845,814.67115 2191.1886,815.59806 C 2191.3071,813.61895 2191.6421,811.68239 2191.2034,809.68107" id="path2356"/>
    <path d="M 2192.5574,820.37468 C 2192.3654,820.73304 2192.3931,821.09443 2192.6406,821.45884 C 2192.907,821.31227 2193.1337,821.11752 2193.3176,820.87659 C 2193.0633,820.70995 2192.8108,820.54232 2192.5574,820.37468" id="path2358"/>
    <path d="M 2193.956,822.54315 C 2194.202,823.16168 2195.0617,822.84237 2195.4105,822.68372 C 2194.9244,822.71284 2194.4397,822.66665 2193.956,822.54315" id="path2360"/>
    <path d="M 2199.3749,851.59328 C 2199.6375,851.7002 2199.8738,851.64977 2200.087,851.44197 C 2199.8486,851.49241 2199.6123,851.54284 2199.3749,851.59328" id="path2362"/>
    <path d="M 2200.853,851.07886 C 2200.8121,851.19989 2200.7712,851.32093 2200.7313,851.44197 C 2201.3253,851.66288 2202.169,851.49846 2202.6032,851.095 C 2202.8219,850.90739 2202.8603,850.67744 2202.7186,850.40413 C 2202.1576,849.48043 2201.4102,850.77124 2200.853,851.07886" id="path2364"/>
    <path d="M 2209.4652,852.9744 C 2209.1922,853.44461 2209.2068,853.92899 2209.5081,854.42755 C 2210.6792,853.72817 2212.4399,852.5123 2213.7449,852.16727 C 2213.4558,851.6992 2213.2008,851.21502 2212.9787,850.71577 C 2211.6503,851.34917 2210.9583,852.42453 2209.4652,852.9744" id="path2374"/>
    <path d="M 2209.9629,833.39504 C 2210.0499,833.60924 2210.1369,833.82344 2210.2239,834.03865 C 2210.4862,833.50365 2210.8638,833.07125 2211.3568,832.74144 C 2210.7672,832.72033 2210.3015,832.93751 2209.9629,833.39504" id="path2380"/>
    <path d="M 2211.3193,831.36406 C 2211.0063,831.64756 2210.8681,832.00948 2210.9025,832.44885 C 2211.5095,832.37143 2212.9349,832.64693 2213.089,831.79634 C 2213.2858,830.72473 2211.7876,831.07957 2211.3193,831.36406" id="path2382"/>
    <path d="M 2213.8242,847.6708 C 2213.3397,848.00143 2213.0527,848.58209 2213.0795,849.19307 C 2214.03,849.3191 2214.1448,848.36232 2213.8242,847.6708" id="path2384"/>
    <path d="M 2213.7017,831.29369 C 2213.9157,831.51485 2214.1012,831.75513 2214.2602,832.01753 C 2213.7144,832.24776 2212.853,832.66402 2212.7117,833.30756 C 2212.4637,834.44597 2214.5369,833.5851 2214.99,833.89786 C 2214.7362,832.5323 2216.7368,831.43342 2217.8109,831.22332 C 2216.2798,829.66936 2215.7129,831.68274 2214.773,832.15828 C 2215.1754,831.11274 2214.442,831.17708 2213.7017,831.29369" id="path2390"/>
    <path d="M 2218.1516,831.86672 C 2217.8669,832.1623 2217.7519,832.52426 2217.8047,832.95159 C 2218.4122,832.80479 2218.9864,833.12455 2219.3069,833.67661 C 2219.8446,833.06421 2220.9339,831.58723 2220.076,830.71065 C 2219.7504,831.51586 2218.9017,831.64554 2218.1516,831.86672" id="path2402"/>
    <path d="M 2221.9013,830.05731 C 2221.5152,830.52771 2221.0423,831.72597 2222.3364,831.00216 C 2221.6115,831.33691 2221.0176,832.02255 2221.0415,832.88221 C 2222.8102,832.71228 2224.8708,832.85808 2226.4777,832.106 C 2227.4925,831.63147 2227.0468,830.52168 2225.9908,830.33774 C 2225.3661,830.22919 2224.848,830.48851 2224.2283,830.42921 C 2223.4489,830.35483 2222.6884,829.95077 2221.9013,830.05731" id="path2406"/>
    <path d="M 2230.8722,830.20808 C 2230.3068,830.14978 2229.9624,831.11274 2229.8924,831.5048 C 2230.414,831.26454 2230.7779,830.78403 2230.8722,830.20808" id="path2410"/>
    <path d="M 2231.8631,829.05229 C 2233.2723,827.78918 2234.7629,828.07655 2236.5744,828.38805 C 2237.5377,828.55385 2238.3465,826.70813 2239.5499,826.73124 C 2237.8246,824.79157 2237.0682,825.48361 2234.874,826.36657 C 2234.261,826.6137 2233.7724,826.03708 2233.2563,826.26712 C 2232.3122,826.68704 2231.9263,828.08961 2231.8631,829.05229" id="path2420"/>
    <path d="M 2244.2934,824.63188 C 2244.0144,825.01153 2243.9035,825.44745 2243.9594,825.93763 C 2244.5871,825.71463 2244.8526,825.20739 2244.2934,824.63188" id="path2430"/>
    <path d="M 2246.2734,830.3488 C 2246.1645,831.20321 2246.4103,831.25247 2247.0091,830.49957 C 2246.7632,830.44931 2246.5183,830.39905 2246.2734,830.3488" id="path2436"/>
    <path d="M 2247.241,829.77589 C 2247.0218,831.03735 2249.4453,831.46057 2249.5713,830.05631 C 2248.7967,830.20205 2248.0061,829.99299 2247.241,829.77589" id="path2450"/>
    <path d="M 2249.694,830.71065 C 2249.738,830.92878 2249.7839,831.14692 2249.8277,831.36406 C 2250.0849,831.18411 2250.3049,830.96598 2250.4866,830.71065 C 2250.2218,830.71065 2249.9579,830.71065 2249.694,830.71065" id="path2460"/>
    <path d="M 2253.4344,820.80632 C 2253.1266,821.00006 2252.9829,821.28818 2253.0042,821.66967 C 2253.7995,821.75902 2253.9433,821.47189 2253.4344,820.80632" id="path2472"/>
    <path d="M 2255.3911,830.56892 C 2255.6613,831.06047 2256.0645,831.27861 2256.5987,831.22231 C 2256.439,830.61215 2255.9523,830.34276 2255.3911,830.56892" id="path2476"/>
    <path d="M 2261.2489,827.16324 C 2260.6515,827.72488 2261.1006,829.10153 2262.0391,829.08445 C 2263.827,829.05229 2262.8363,826.97838 2261.2489,827.16324" id="path2480"/>
    <path d="M 2270.0237,831.94715 C 2271.1754,831.54903 2272.1907,830.80615 2273.1161,830.05731 C 2271.9106,830.53977 2270.6616,830.42116 2270.0237,831.94715" id="path2492"/>
    <path d="M 2270.7095,824.56158 C 2270.6333,825.18328 2270.8759,825.20638 2271.4384,824.63188 C 2271.1948,824.60878 2270.9521,824.58468 2270.7095,824.56158" id="path2498"/>
    <path d="M 2271.9424,823.8385 C 2271.8423,824.03232 2271.7414,824.22714 2271.6403,824.42097 C 2272.2352,824.61581 2272.5981,824.35168 2272.6684,823.7682 C 2272.4267,823.7913 2272.1841,823.8154 2271.9424,823.8385" id="path2502"/>
    <path d="M 2276.5658,821.23798 C 2275.386,821.31026 2272.3694,825.30682 2273.6089,826.36858 C 2271.1828,825.29075 2273.3042,831.17406 2274.2576,828.45538 C 2274.679,827.25165 2275.9334,826.66393 2276.4817,825.51876 C 2276.9343,824.57162 2276.1233,822.43271 2277.2853,822.03009 C 2277.079,821.73593 2276.8402,821.47189 2276.5658,821.23798" id="path2504"/>
    <path d="M 2277.3577,821.23798 C 2277.7978,821.87849 2278.6441,821.7038 2279.1777,822.25198 C 2279.0989,821.26107 2278.0957,821.18076 2277.3577,821.23798" id="path2512"/>
    <path d="M 2284.7373,808.7377 C 2284.5421,808.50614 2284.2976,808.43597 2284.0037,808.52819 C 2284.3445,809.05048 2283.9412,810.65862 2284.6492,810.87319 C 2285.7551,811.2101 2284.9518,809.12466 2284.7373,808.7377" id="path2516"/>
    <path d="M 2285.2664,807.87662 C 2284.6266,807.74531 2284.618,807.98588 2285.2396,808.59836 C 2285.2482,808.35777 2285.2578,808.1172 2285.2664,807.87662" id="path2518"/>
    <path d="M 2285.4875,811.55605 C 2286.7277,810.59344 2287.8069,807.17899 2288.1558,805.64156 C 2287.0906,806.02639 2287.2692,807.0958 2286.954,807.98087 C 2286.5093,809.22792 2285.7935,810.19941 2285.4875,811.55605" id="path2520"/>
    <path d="M 2295.3108,812.99913 C 2295.1635,813.88976 2295.0889,815.09747 2295.8765,815.81877 C 2294.4196,815.7365 2294.3141,820.08761 2296.6138,818.94241 C 2299.6018,817.45219 2297.3217,814.43943 2295.3108,812.99913" id="path2524"/>
    <path d="M 2299.8486,816.68059 C 2299.359,817.00869 2299.3534,817.68599 2299.621,818.2068 C 2299.958,817.75824 2300.0342,817.2495 2299.8486,816.68059" id="path2534"/>
    <path d="M 2299.7427,815.45761 C 2299.1075,815.85087 2299.2225,816.09165 2300.0858,816.17994 C 2299.9708,815.93916 2299.8577,815.69738 2299.7427,815.45761" id="path2536"/>
    <path d="M 2300.7568,815.59806 C 2301.4263,812.98308 2300.0734,814.7524 2300.7568,815.59806" id="path2538"/>
    <path d="M 2052.7784,807.08477 C 2052.9396,806.10857 2051.4862,804.98716 2050.7839,805.93219 C 2051.499,806.26993 2051.8446,807.44761 2052.7784,807.08477" id="path2230"/>
    <path d="M 1998.7264,709.36971 C 1999.796,709.71159 1999.3029,708.32894 1998.2599,708.6468 C 1998.4157,708.88844 1998.5705,709.12908 1998.7264,709.36971" id="path2202"/>
    <path d="M 2015.598,714.06084 C 2014.944,714.43163 2014.0957,714.98779 2013.3153,714.76833 C 2012.5724,714.5589 2012.3953,713.87644 2011.5431,713.85439 C 2010.1188,713.81731 2008.8482,714.55489 2007.389,714.41359 C 2005.6715,714.24724 2004.569,713.68202 2003.5064,712.38812 C 2002.7134,711.42285 2000.4477,710.07753 1999.1289,710.97176 C 1994.2626,714.2753 2005.3291,723.51522 2007.0604,725.93126 C 2007.7198,726.85232 2008.6493,726.88836 2009.695,727.08057 C 2011.4232,727.39892 2011.9167,729.33988 2012.6684,730.61805 C 2013.2464,731.59988 2014.3953,734.06171 2015.4315,734.50501 C 2017.2335,735.2765 2016.4682,737.05051 2016.9221,738.67832 C 2017.3489,740.21097 2018.9414,739.82781 2020.0912,740.64513 C 2020.8235,741.16432 2021.5374,741.72252 2022.2592,742.25669 C 2023.1577,742.91389 2024.0854,743.58908 2024.8716,744.39629 C 2025.9762,745.53054 2024.9246,745.65457 2025.2647,746.9138 C 2025.6727,748.42303 2026.3306,749.8772 2026.7477,751.40233 C 2027.1892,753.01742 2028.352,754.70349 2028.2439,756.40752 C 2028.1291,758.20453 2029.5178,757.10152 2030.2041,757.90853 C 2031.3265,759.22953 2032.9674,758.92153 2033.2802,761.07953 C 2033.6876,763.89255 2037.4015,765.7196 2038.0436,768.66977 C 2038.1353,769.09181 2037.4324,769.13981 2037.7683,769.59485 C 2038.2239,770.21192 2038.6266,770.863 2038.9734,771.54609 C 2039.7608,773.09434 2041.3894,775.12877 2041.4565,776.88525 C 2041.5215,778.58381 2041.4838,779.66222 2042.5351,781.13587 C 2043.3268,782.24541 2044.5352,783.02683 2045.2013,784.22253 C 2045.9953,785.64746 2046.4133,787.0835 2047.6723,788.21641 C 2048.9182,789.33737 2050.6598,790.08907 2051.4666,791.66363 C 2052.2872,793.21733 2052.1954,794.12941 2053.6858,795.31289 C 2055.1961,796.5115 2056.5502,797.87847 2058.0021,799.14742 C 2059.2582,800.24422 2060.4786,801.28 2061.9616,802.03536 C 2063.4407,802.78877 2063.6586,803.34785 2064.4316,804.63643 C 2064.8415,805.31987 2065.3676,805.96025 2065.8746,806.57662 C 2066.3063,807.01561 2066.7695,807.41854 2067.266,807.7834 C 2067.5737,808.05003 2067.2317,808.34374 2067.6175,808.60939 C 2067.8927,808.79885 2070.436,811.92607 2070.3724,810.2716 C 2070.3345,809.30211 2069.3788,808.56127 2069.2354,807.60398 C 2069.033,806.25891 2071.2253,807.9959 2071.488,808.21944 C 2073.3577,809.81441 2075.1117,809.82143 2074.7564,806.79711 C 2075.9211,807.76636 2076.7682,809.73621 2078.3731,810.04501 C 2079.3342,810.23049 2079.164,807.34738 2079.1632,806.86026 C 2079.1593,804.98415 2079.3511,803.1204 2079.4022,801.24594 C 2079.4284,800.24722 2080.0084,798.83092 2079.5181,797.87346 C 2079.1401,797.13438 2078.8811,796.71278 2079.0789,795.91769 C 2079.3207,794.95143 2080.0432,793.65684 2079.8707,792.62567 C 2079.7426,791.86084 2078.8828,791.8278 2079.0303,790.79375 C 2079.1909,789.89589 2079.7377,789.11217 2080.1855,788.33951 C 2080.6681,787.50583 2081.0487,787.15055 2080.8601,786.11178 C 2080.6789,785.12411 2079.8684,785.52638 2079.3108,784.94599 C 2078.5512,784.15449 2077.3336,781.51405 2077.7803,780.48357 C 2076.9085,780.34151 2072.7199,779.24105 2072.3785,780.12341 C 2072.2474,779.86431 2072.1263,779.6022 2072.0151,779.33409 C 2071.1057,780.47056 2070.9945,782.07133 2069.6495,782.86474 C 2070.0431,782.27743 2071.8681,780.27848 2070.0696,780.26347 C 2071.0402,779.86831 2072.1958,779.01897 2072.0297,777.82554 C 2071.9049,776.92726 2070.962,777.24035 2070.3995,776.90125 C 2069.8279,776.55615 2069.5055,775.07376 2069.3741,774.49862 C 2068.9869,772.81029 2068.575,771.20704 2068.3557,769.47684 C 2068.2201,768.41275 2065.1022,768.29874 2064.1879,768.51076 C 2063.4685,768.67777 2062.0874,767.25667 2061.5615,766.82065 C 2060.6702,766.08362 2061.0208,764.53657 2060.6373,763.49055 C 2061.0384,763.97256 2061.6349,764.06556 2062.1484,763.69955 C 2061.9409,762.86654 2061.1353,762.75654 2060.415,762.69954 C 2060.9989,762.65754 2061.4292,762.24454 2061.5709,761.68953 C 2061.0837,761.65953 2060.6028,761.70653 2060.1313,761.83053 C 2060.9783,761.58253 2061.4792,760.83053 2062.0989,760.26853 C 2062.5761,759.83553 2063.8288,759.96253 2064.1178,759.47653 C 2064.5944,758.67353 2062.8229,756.93152 2062.3607,756.41352 C 2061.0775,754.97749 2060.129,755.09749 2058.6603,756.14451 C 2057.5236,756.95352 2054.6469,758.99953 2053.4119,757.36952 C 2055.9693,758.83253 2060.8577,754.30947 2056.206,753.26044 C 2055.4643,753.09343 2054.7016,753.41444 2053.9753,753.11943 C 2053.1518,752.78641 2052.8019,751.85436 2052.1347,751.32732 C 2050.7642,750.24423 2051.5219,748.01897 2050.0241,746.86879 C 2049.4714,746.44472 2048.8966,745.78659 2048.2992,745.44352 C 2047.6637,745.07744 2046.8209,745.39051 2046.1174,745.02543 C 2044.973,744.43029 2045.0567,742.66282 2044.3504,741.69251 C 2044.0053,741.21434 2041.5159,738.70233 2040.9018,740.20196 C 2040.4446,741.31838 2041.763,742.74384 2041.9055,743.83014 C 2041.4345,743.35101 2041.2969,742.70683 2040.9282,742.17466 C 2040.3264,741.29437 2039.1778,741.16232 2038.4405,740.44506 C 2037.2207,739.25757 2037.1535,737.35867 2035.993,736.124 C 2035.6335,736.59027 2035.5468,737.09454 2035.733,737.63682 C 2035.5419,737.27463 2034.3754,734.82221 2034.7513,736.77237 C 2033.9727,735.84184 2035.2173,734.68312 2034.0182,733.88259 C 2032.9316,733.15808 2032.1117,731.89411 2031.0468,731.08145 C 2029.8217,730.14563 2028.8573,728.6412 2027.421,728.00656 C 2026.91,727.78032 2026.3585,727.6612 2025.8518,727.42594 C 2024.9763,727.0195 2025.1318,726.36176 2024.5752,725.75105 C 2023.8446,724.94908 2022.5051,724.89701 2021.7652,724.16107 C 2020.8342,723.23584 2022.1648,721.61652 2021.1658,720.77824 C 2019.9621,719.76762 2019.7261,719.7576 2019.2328,718.16588 C 2018.8347,716.8144 2016.6279,715.01484 2015.598,714.06084" id="path2204"/>
    <path d="M 2017.1822,754.19747 C 2018.6827,755.79451 2019.1821,751.34132 2018.5155,750.43825 C 2017.7292,749.37514 2016.4732,747.36688 2015.2361,746.83179 C 2014.3215,746.43572 2013.8026,747.72393 2012.8342,747.13984 C 2012.9925,748.48204 2014.1855,749.47316 2014.765,750.62927 C 2015.1249,751.34632 2015.9549,751.59434 2016.3755,752.25739 C 2016.7569,752.86042 2016.8288,753.58345 2017.1822,754.19747" id="path2208"/>
    <path d="M 2014.3513,741.81155 C 2014.3624,741.0913 2013.8693,739.90385 2012.9504,740.58711 C 2013.4817,740.92124 2013.9487,741.32938 2014.3513,741.81155" id="path2210"/>
    <path d="M 2023.4113,763.62855 C 2023.5998,762.99054 2023.3482,762.36154 2022.8246,761.96853 C 2022.4297,762.50954 2022.141,763.34355 2021.9885,763.99156 C 2021.785,764.85957 2023.7034,764.89258 2023.4113,763.62855" id="path2212"/>
    <path d="M 2022.0938,759.52853 C 2022.4751,760.59653 2023.0431,761.57553 2023.617,762.54954 C 2023.8588,761.75153 2023.2184,759.39953 2022.0938,759.52853" id="path2214"/>
    <path d="M 2023.8389,745.48453 C 2023.9437,744.92241 2023.7037,744.92241 2023.1179,745.48453 C 2023.3579,745.48453 2023.5979,745.48453 2023.8389,745.48453" id="path2216"/>
    <path d="M 2025.761,758.73853 C 2025.5612,757.78653 2024.0567,757.93853 2023.5306,758.44753 C 2024.2005,758.89253 2025.0018,758.94653 2025.761,758.73853" id="path2218"/>
    <path d="M 2028.0669,775.14977 C 2031.0528,774.72867 2026.3737,768.90179 2026.4462,767.51869 C 2025.9562,767.78771 2025.1236,767.6567 2024.7775,768.14373 C 2024.2802,768.84479 2023.9665,770.19392 2024.5015,770.94601 C 2025.5164,772.36821 2026.1109,774.72968 2028.0669,775.14977" id="path2220"/>
    <path d="M 2033.628,780.12041 C 2033.4378,779.3491 2032.4437,776.63417 2031.3874,777.35739 C 2030.2224,778.15666 2033.0946,779.80328 2033.628,780.12041" id="path2222"/>
    <path d="M 2034.6531,783.58315 C 2034.8836,784.43767 2035.8773,784.04242 2036.1792,783.4981 C 2036.63,782.68765 2035.1387,781.46402 2034.5632,781.13186 C 2034.2625,781.95527 2034.8038,782.74968 2034.6531,783.58315" id="path2224"/>
    <path d="M 2038.0525,788.40657 C 2038.0812,787.85511 2037.5684,787.44078 2037.6633,786.90036 C 2037.7865,786.20085 2038.2023,786.36597 2037.9904,785.67048 C 2037.8373,785.16313 2037.2088,783.59316 2036.4368,783.88533 C 2035.2833,784.32259 2037.4965,787.94718 2038.0525,788.40657" id="path2226"/>
    <path d="M 2048.238,742.74784 C 2047.9799,741.32338 2046.0095,740.88522 2045.4459,742.42474 C 2045.1602,743.282 2045.7093,744.50331 2046.6561,744.69236 C 2047.799,744.92041 2047.8298,743.40903 2048.238,742.74784" id="path2228"/>
    <path d="M 2053.5826,746.49173 C 2052.5087,746.03764 2051.273,746.10166 2050.2594,745.48353 C 2050.0648,746.53774 2050.9598,747.01682 2051.8405,747.17785 C 2052.7051,747.33587 2053.1725,748.13299 2053.8017,748.65206 C 2053.7986,747.92596 2053.8625,747.18585 2053.5826,746.49173" id="path2232"/>
    <path d="M 2053.7338,749.15612 C 2053.2906,748.40803 2052.6411,747.56691 2051.7155,747.42789 C 2051.4799,748.74307 2051.6197,751.09631 2053.312,751.38733 C 2053.575,750.66327 2053.4407,749.8742 2053.7338,749.15612" id="path2234"/>
    <path d="M 2058.139,752.75841 C 2057.637,751.81236 2056.6653,751.16531 2055.657,750.87229 C 2055.0963,750.70827 2054.5819,749.9042 2054.2176,749.83419 C 2053.7952,749.75319 2053.4272,752.14538 2053.9416,752.4874 C 2055.126,753.27944 2056.8317,752.4654 2058.002,753.47744 C 2058.048,753.23843 2058.093,752.99842 2058.139,752.75841" id="path2236"/>
    <path d="M 2059.0066,752.17838 C 2058.6964,750.94329 2054.7703,748.55805 2055.3204,750.73928 C 2056.8187,750.06722 2057.4796,752.66341 2059.0066,752.17838" id="path2238"/>
    <path d="M 2060.0264,754.48848 C 2059.9192,753.97546 2059.604,753.68545 2059.0837,753.61745 C 2058.7229,754.15947 2058.795,754.63948 2059.2997,755.05749 C 2059.5651,754.89849 2059.8073,754.70849 2060.0264,754.48848" id="path2240"/>
    <path d="M 2061.0104,750.66827 C 2060.8072,750.37825 2060.5423,750.16323 2060.2176,750.02121 C 2060.1332,750.62827 2060.4332,750.87129 2061.0104,750.66827" id="path2242"/>
    <path d="M 2061.601,753.18843 C 2061.4226,752.6214 2060.981,752.24538 2060.3689,752.4684 C 2060.3925,753.06943 2060.7537,753.58545 2061.2441,753.90846 C 2061.363,753.66845 2061.482,753.42844 2061.601,753.18843" id="path2244"/>
    <path d="M 2063.2979,761.89853 C 2062.7703,761.53853 2060.818,761.74553 2061.618,762.68054 C 2062.1085,763.25254 2063.2143,762.45154 2063.2979,761.89853" id="path2248"/>
    <path d="M 2064.9042,751.52834 C 2065.107,750.77528 2064.8434,750.63227 2064.1134,751.09831 C 2064.376,751.24132 2064.6406,751.38433 2064.9042,751.52834" id="path2252"/>
    <path d="M 2066.4767,749.73318 C 2065.9506,748.53204 2064.9673,749.8962 2064.9703,750.61127 C 2064.974,751.46633 2066.5872,750.55326 2066.4767,749.73318" id="path2256"/>
    <path d="M 2066.7092,752.68841 C 2067.1012,751.97037 2066.9062,751.73035 2066.1262,751.96837 C 2066.3212,752.20838 2066.5152,752.4484 2066.7092,752.68841" id="path2258"/>
    <path d="M 2070.4419,750.66827 C 2069.4001,748.15099 2066.53,750.51626 2067.734,750.9633 C 2068.5383,751.26132 2068.892,750.48926 2069.1557,751.81836 C 2069.4204,753.15443 2070.4722,751.22732 2070.4419,750.66827" id="path2262"/>
    <path d="M 2067.5026,753.47844 C 2067.4945,753.20043 2067.4243,752.93742 2067.2893,752.68841 C 2067.3614,752.95142 2067.4315,753.21543 2067.5026,753.47844" id="path2264"/>
    <path d="M 2069.1314,762.54854 C 2068.7885,762.82354 2068.11,762.96254 2067.6945,763.09754 C 2066.8975,763.35555 2068.2484,764.93558 2068.3442,765.35859 C 2068.3942,764.63857 2068.7612,764.41256 2069.3522,764.85857 C 2069.5426,763.99956 2070.1651,763.15354 2069.1314,762.54854" id="path2266"/>
    <path d="M 2068.6826,758.15853 C 2068.2725,758.61153 2068.4397,758.87453 2069.186,758.94753 C 2069.0179,758.68453 2068.8508,758.42253 2068.6826,758.15853" id="path2268"/>
    <path d="M 2069.3995,759.52853 C 2069.5057,760.04253 2068.6077,761.93353 2069.6942,761.79453 C 2070.301,761.71653 2070.6676,761.38553 2071.276,761.69253 C 2071.8994,762.00753 2072.4266,762.51154 2073.161,762.11853 C 2072.7754,761.51153 2070.1083,759.45653 2069.3995,759.52853" id="path2270"/>
    <path d="M 2070.0903,752.89842 C 2069.8393,752.88542 2069.6005,752.93542 2069.3709,753.04843 C 2069.6117,752.99842 2069.8505,752.94842 2070.0903,752.89842" id="path2272"/>
    <path d="M 2069.6809,757.72853 C 2069.3599,758.43153 2070.4104,758.99653 2070.8474,759.23953 C 2070.4792,758.71953 2070.09,758.21653 2069.6809,757.72853" id="path2274"/>
    <path d="M 2075.733,774.42961 C 2076.5821,775.58788 2074.4439,776.11202 2074.0131,776.88024 C 2074.9003,777.59647 2075.577,778.18166 2076.7623,777.74552 C 2077.5613,777.45242 2078.8895,778.13565 2079.121,778.95595 C 2079.3272,779.68223 2079.888,780.5536 2080.0088,781.19289 C 2080.2892,782.66464 2079.4246,783.28198 2081.103,784.19952 C 2081.8239,784.59376 2085.0895,787.09551 2085.8676,786.38498 C 2086.6407,785.67748 2085.449,785.34926 2085.2114,784.76487 C 2084.8354,783.8403 2085.9634,782.16837 2086.8588,781.99228 C 2085.7166,781.30395 2084.1547,781.63811 2083.1027,780.7707 C 2082.134,779.97135 2081.7834,777.9926 2081.8844,776.81422 C 2081.9434,776.11402 2081.4606,773.85149 2080.99,773.27837 C 2079.6628,771.6531 2077.9615,773.52142 2079.1871,775.00874 C 2078.6733,775.07876 2075.821,771.16204 2075.733,774.42961" id="path2282"/>
    <path d="M 2086.7994,784.66381 C 2086.5826,784.73385 2086.3669,784.8029 2086.1511,784.87294 C 2086.3018,785.47034 2086.754,785.72951 2087.3026,785.38428 C 2087.1625,785.12511 2086.9944,784.88495 2086.7994,784.66381" id="path2286"/>
    <path d="M 2091.8388,784.01341 C 2091.5043,784.13448 2091.215,784.3246 2090.9711,784.58376 C 2091.5354,784.85293 2091.8625,784.63679 2091.8388,784.01341" id="path2290"/>
    <path d="M 2093.6181,781.70114 C 2092.6721,782.66864 2092.4554,784.3406 2092.565,785.61744 C 2092.681,786.98042 2094.7006,787.69798 2094.3592,786.24488 C 2094.9525,786.28391 2095.846,787.93017 2096.4306,787.35071 C 2097.2323,786.55611 2098.0484,784.94699 2097.9113,783.77927 C 2097.7107,782.07133 2095.0032,781.423 2093.6181,781.70114" id="path2292"/>
    <path d="M 2096.3421,726.24863 C 2096.959,726.35075 2097.5097,726.70415 2097.8896,727.18669 C 2097.3184,726.81828 2096.9212,727.12462 2096.8582,727.7623 C 2098.6382,728.01957 2099.2103,726.22361 2098.5635,724.86797 C 2097.414,722.46175 2095.817,724.37134 2096.3421,726.24863" id="path2294"/>
    <path d="M 2101.0777,774.42961 C 2101.3799,774.45761 2101.6698,774.4116 2101.9473,774.28958 C 2101.6441,774.26157 2101.3543,774.30858 2101.0777,774.42961" id="path2298"/>
    <path d="M 2103.3024,773.13935 C 2102.8959,772.81929 2102.4889,772.81929 2102.0812,773.13935 C 2102.2505,773.4234 2102.4686,773.66245 2102.7345,773.85949 C 2102.9536,773.64144 2103.1416,773.4014 2103.3024,773.13935" id="path2302"/>
    <path d="M 2109.4029,768.52876 C 2108.2666,766.92765 2105.9795,769.43684 2107.4019,770.82999 C 2108.077,770.15291 2109.8629,769.84488 2109.4029,768.52876" id="path2306"/>
    <path d="M 2158.903,787.97621 C 2156.2871,786.88135 2157.2907,793.51768 2157.8805,794.39273 C 2158.5097,793.25738 2159.267,793.60278 2159.0869,792.04804 C 2158.9453,790.82878 2158.4324,789.1402 2158.903,787.97621" id="path2324"/>
    <path d="M 2160.0584,789.05713 C 2159.2449,789.20626 2159.3171,790.07505 2159.8442,790.49846 C 2159.959,790.025 2160.0308,789.54456 2160.0584,789.05713" id="path2326"/>
    <path d="M 2168.0025,730.71713 C 2167.8205,731.37469 2168.0578,731.44675 2168.7144,730.93332 C 2168.4771,730.86126 2168.2408,730.7892 2168.0025,730.71713" id="path2332"/>
    <path d="M 2168.9081,729.85236 C 2168.5675,730.54799 2169.2098,731.15851 2169.7789,731.36668 C 2169.8516,730.71713 2169.9108,729.62215 2168.9081,729.85236" id="path2334"/>
    <path d="M 2169.3453,724.08597 C 2169.3048,724.70777 2169.6868,725.12429 2170.3278,724.8069 C 2170.2766,724.22816 2169.9273,723.94779 2169.3453,724.08597" id="path2336"/>
    <path d="M 2169.0052,762.76854 C 2168.7802,762.97654 2168.6854,763.24054 2168.719,763.55855 C 2168.8137,763.29554 2168.9095,763.03154 2169.0052,762.76854" id="path2338"/>
    <path d="M 2170.6865,728.62719 C 2170.6921,729.14469 2170.943,729.48102 2171.4371,729.63616 C 2171.475,729.10966 2171.1693,728.76633 2170.6865,728.62719" id="path2340"/>
    <path d="M 2176.5179,739.50668 C 2176.5502,740.02489 2176.7741,740.43205 2177.1902,740.73117 C 2176.9889,740.31001 2176.7652,739.90184 2176.5179,739.50668" id="path2344"/>
    <path d="M 2102.7795,752.03837 C 2103.7108,751.41233 2103.0728,750.75628 2103.2691,749.9132 C 2103.5252,748.81808 2105.1139,748.74707 2105.2794,747.4999 C 2104.9508,748.04398 2104.5469,748.52304 2104.0657,748.93909 C 2103.1819,747.64692 2104.2643,746.37371 2105.088,745.41652 C 2105.6253,744.79338 2105.7836,744.20824 2106.0613,743.45704 C 2106.4241,742.48376 2107.6784,742.25769 2108.3916,741.59447 C 2108.2271,742.48476 2107.0528,743.57607 2108.3972,744.11221 C 2108.5886,744.18923 2109.079,746.29169 2109.4579,746.70277 C 2110.5663,747.90496 2112.5506,748.84608 2113.2656,750.38025 C 2113.5423,750.9733 2114.7677,751.48734 2115.3571,751.79236 C 2116.4617,752.36239 2118.0097,751.23532 2118.9588,750.81228 C 2120.8451,749.96921 2122.6482,751.08331 2124.6604,750.88729 C 2125.4651,750.80828 2126.1933,750.19023 2126.9016,749.81119 C 2127.961,749.24413 2127.6537,747.85795 2128.4536,746.98281 C 2129.2875,746.07065 2133.5393,745.14646 2134.2037,746.54174 C 2134.8369,747.86895 2138.728,749.13512 2139.9664,748.36902 C 2141.0364,747.70693 2141.2624,746.65176 2142.7208,747.15284 C 2143.438,747.39988 2144.0043,746.81278 2144.6181,746.56774 C 2145.1262,746.3627 2145.7243,747.02382 2146.2462,746.99782 C 2145.9586,745.61156 2148.8854,742.59279 2148.1105,741.69751 C 2146.7757,740.15295 2149.978,738.18209 2151.1598,737.77889 C 2150.5082,736.93345 2149.3426,733.82155 2151.4843,733.56537 C 2154.175,733.24214 2152.2331,731.58386 2153.8227,730.1156 C 2154.4359,729.55008 2153.7629,727.23574 2153.8916,726.26165 C 2154.0105,725.36058 2154.2869,724.21915 2154.7236,723.40707 C 2155.101,722.7081 2155.8306,722.37463 2156.0392,721.56244 C 2157.4362,722.09022 2157.7786,722.37162 2159.3143,721.72167 C 2159.8375,721.50034 2161.0284,723.40807 2161.2301,721.41722 C 2162.1722,722.36261 2164.0303,722.12527 2165.2559,722.0131 C 2166.826,721.86989 2167.7121,723.57129 2169.2278,723.43711 C 2168.7607,723.75854 2168.2497,723.9508 2167.6938,724.01288 C 2167.9567,724.25019 2170.579,726.50793 2168.7823,725.59987 C 2169.1443,725.86218 2170.0991,726.03739 2170.2701,726.47389 C 2170.441,726.91138 2170.4118,727.34686 2170.9373,727.54507 C 2170.03,728.65321 2168.6483,727.96051 2168.3038,726.82429 C 2168.4627,727.31382 2168.5128,727.81836 2168.4544,728.3379 C 2167.6958,727.8554 2166.3319,727.90445 2165.5052,728.26582 C 2166.5192,728.66422 2167.0101,729.72124 2168.1099,729.99649 C 2167.8045,730.563 2167.6252,731.81305 2166.6853,731.36568 C 2167.3546,732.28342 2168.391,732.66671 2169.4315,733.02198 C 2168.5157,734.02269 2170.2075,734.12075 2168.8001,734.31889 C 2169.2826,734.3379 2169.735,734.45798 2170.1565,734.67912 C 2168.7125,735.06937 2170.4731,735.88286 2170.9908,736.55124 C 2171.5817,737.31665 2172.0988,738.15207 2172.5766,738.99446 C 2173.1777,740.0539 2171.7411,742.13765 2170.5036,742.09864 C 2171.3004,742.38273 2170.9003,743.18797 2171.5329,743.71111 C 2172.4435,744.4643 2173.3533,745.24148 2174.3018,745.94663 C 2175.0666,746.51473 2175.5203,747.4869 2176.4119,747.80694 C 2177.6061,748.236 2178.45,749.45015 2179.2446,750.38025 C 2179.5796,750.77228 2180.4451,750.46425 2179.8447,751.41133 C 2179.1024,752.5814 2177.8795,752.00037 2176.85,752.5234 C 2175.1421,753.38944 2173.1074,751.0043 2171.7547,750.45725 C 2172.3821,751.36933 2172.8788,752.5204 2171.4211,752.6034 C 2170.0974,752.67741 2169.6881,754.69649 2169.3559,755.68851 C 2168.4677,758.33853 2168.0493,761.37453 2168.2207,764.13756 C 2168.5997,763.69955 2169.0776,763.45955 2169.6564,763.41755 C 2169.4743,764.01156 2168.5246,764.72157 2169.234,764.99758 C 2168.554,765.41959 2168.5569,766.01461 2169.241,766.43663 C 2168.3061,766.70064 2167.2714,767.81871 2167.011,766.50663 C 2166.7309,768.36375 2163.2951,772.2812 2162.7701,768.52676 C 2162.0523,769.83988 2163.2854,770.868 2161.809,771.89714 C 2161.1282,772.37121 2161.4688,773.11034 2160.9945,773.70846 C 2160.4427,774.4026 2159.4164,774.3796 2158.911,775.14777 C 2161.1713,774.28858 2160.4352,777.43842 2159.3558,778.24969 C 2159.9176,778.79889 2161.0592,778.03761 2161.532,778.60582 C 2161.9907,779.15902 2161.0817,781.29694 2160.743,781.78018 C 2160.3447,781.31395 2159.865,781.19489 2159.3009,781.421 C 2160.7241,782.64763 2158.8873,786.57712 2157.8766,784.58276 C 2157.6107,785.45833 2158.3475,786.21186 2158.8265,786.8233 C 2156.8477,787.18658 2157.4712,790.20017 2155.8168,790.87483 C 2154.0266,791.61558 2152.2447,792.84691 2150.4283,793.66986 C 2149.9502,793.88612 2146.2245,796.50249 2146.312,795.02753 C 2146.3651,794.13241 2146.2087,793.15026 2146.2028,792.23724 C 2146.1951,790.93589 2145.3372,789.85785 2145.6511,788.54468 C 2144.1954,789.97896 2143.1926,789.43846 2144.2067,787.4638 C 2143.5487,788.58672 2142.0827,789.30935 2142.4045,787.32269 C 2142.2554,788.37654 2139.4935,790.82578 2138.6683,789.20125 C 2138.3856,788.63976 2139.1588,788.2084 2138.6189,787.61792 C 2137.6266,786.53409 2136.5834,788.49764 2136.2826,787.03246 C 2136.6154,788.69981 2134.4601,785.73252 2134.2517,785.01103 C 2134.2717,786.52008 2132.655,788.20039 2131.3767,788.85595 C 2130.0464,789.53856 2128.8703,787.61792 2127.5813,788.55169 C 2127.1137,788.88998 2125.3471,791.50146 2124.9493,789.8058 C 2124.5117,787.74202 2125.2015,785.89863 2124.094,783.86031 C 2123.2409,786.09477 2122.9361,785.05406 2121.2845,785.00803 C 2120.5892,784.98902 2120.0228,785.59042 2119.4862,785.93066 C 2118.4659,786.57912 2117.7931,785.9997 2116.76,785.81157 C 2117.0924,785.44732 2117.451,785.1101 2117.8357,784.8009 C 2117.0011,784.92698 2116.7329,786.00971 2115.8201,785.88162 C 2116.1923,783.68921 2113.9892,784.90396 2113.0881,785.59142 C 2112.0319,784.28057 2112.8614,782.10734 2112.3925,780.59562 C 2112.0748,779.56818 2112.261,778.48177 2112.0673,777.43742 C 2111.9043,776.55615 2110.5229,775.84795 2110.6104,775.07676 C 2110.6306,774.89571 2111.3846,773.96251 2111.4744,773.69345 C 2111.7921,772.73127 2111.9644,771.89714 2111.3694,771.01002 C 2110.9626,770.40394 2110.8746,769.75087 2110.528,769.16881 C 2110.1057,768.46075 2109.2084,768.19874 2109.2541,767.22567 C 2109.0492,767.47569 2108.8332,767.7147 2108.6082,767.94572 C 2107.8385,766.47263 2107.0335,767.82771 2105.9885,767.19767 C 2105.3968,766.84165 2105.7679,766.18362 2106.0262,765.7806 C 2106.2864,765.37459 2107.2556,765.84261 2107.5897,765.85561 C 2107.0252,765.5416 2106.6868,764.77757 2106.063,764.62157 C 2105.5994,764.50457 2105.0017,764.59157 2104.6976,764.12656 C 2104.2696,763.47455 2104.0077,760.81753 2105.3395,761.61553 C 2104.9903,760.68753 2104.4122,759.56453 2105.5498,759.45653 C 2104.5831,758.18753 2103.303,757.08452 2102.9548,755.4715 C 2102.8098,754.79749 2102.175,752.6104 2102.7795,752.03837" id="path2554"/>
    <path d="M 2166.4167,729.05961 C 2166.4463,728.89145 2166.4769,728.72328 2166.5065,728.55512 C 2167.2717,728.66523 2167.9737,728.98254 2168.6368,729.34789 C 2167.8728,729.48602 2167.1204,729.30785 2166.4167,729.05961" id="path2556"/>
    <path d="M 2169.9476,723.50921 C 2170.828,723.39305 2171.9785,723.22783 2171.7103,724.51953 C 2170.8667,724.69376 2170.4799,723.94479 2169.9476,723.50921" id="path2558"/>
    <path d="M 2296.0279,811.77666 C 2296.1142,812.37233 2296.3843,812.87778 2296.8412,813.29198 C 2296.625,812.94798 2296.842,810.84913 2296.9653,810.37487 C 2297.2783,809.16476 2296.0436,809.79235 2296.3441,808.7387 C 2297.3555,809.23193 2297.8892,807.61901 2298.2672,807.03466 C 2298.9149,806.0314 2299.9764,808.18235 2299.9966,808.72668 C 2300.0495,810.15128 2300.0507,811.68139 2300.0565,813.10644 C 2300.0854,815.34225 2298.3341,814.31706 2297.1441,813.51264 C 2298.7423,815.266 2293.2076,811.61621 2296.0279,811.77666" id="path2564"/>
    <path d="M 2297.8969,814.01313 C 2298.2094,814.21073 2299.2489,815.43554 2298.655,815.72848 C 2297.6884,816.20603 2296.8463,814.2649 2297.8969,814.01313" id="path2566"/>
  </g>
</svg>