<svg fill="#fff" height="407" viewBox="-140 -430 3053 1838" width="774" xmlns="http://www.w3.org/2000/svg">
<path xmlns="http://www.w3.org/2000/svg" d="M 1327.918,455.3347 C 1328.0921,454.39876 1328.929,454.04211 1329.5766,453.5241 C 1330.5854,452.71745 1330.4858,451.67479 1331.7822,451.10394 C 1333.0065,450.56498 1333.4824,449.18844 1333.7316,447.92816 C 1333.9265,446.94422 1335.0705,444.74432 1334.734,443.7849 C 1334.3897,442.80482 1333.9567,442.9339 1334.3105,441.36628 C 1334.6305,439.9486 1333.4512,438.67124 1333.627,437.22291 C 1333.8263,435.57623 1335.5539,432.44068 1333.0295,431.86992 C 1333.9299,430.77146 1335.4037,430.20674 1336.0975,428.90239 C 1336.3541,428.4201 1336.1844,427.59341 1336.8137,427.40326 C 1337.5052,427.19507 1337.9394,427.40101 1338.4871,426.78873 C 1339.6795,425.45516 1340.9256,424.86342 1342.6065,424.35713 C 1343.3872,424.12253 1344.4591,423.50424 1345.2912,423.85403 C 1346.2784,424.27029 1345.2941,424.77323 1345.4028,425.55545 C 1346.2242,425.55545 1346.419,425.12495 1345.9377,424.41916 C 1347.4451,424.76421 1347.8767,424.52291 1348.4862,425.96104 C 1348.7543,426.59283 1347.9187,426.65363 1348.7292,427.25471 C 1349.349,427.71492 1349.4486,428.51455 1348.8698,429.03951 C 1348.9169,428.98781 1349.5603,429.78445 1350.2177,429.50023 C 1351.1116,429.11257 1351.8678,428.34589 1352.5986,427.69917 C 1352.8837,427.44714 1353.8735,426.33046 1354.3339,426.55117 C 1355.4348,427.08027 1355.2836,428.22332 1354.7807,429.17438 C 1353.8178,430.99706 1350.5439,432.74335 1350.431,434.81091 C 1350.3478,436.36124 1351.2168,438.22696 1352.5474,438.98148 C 1354.5596,440.12031 1354.4925,440.17383 1354.9636,442.59558 C 1355.5555,445.63979 1353.5173,448.79728 1351.2862,450.63692 C 1349.0716,452.46321 1345.689,453.49096 1347.8807,457.0285 C 1348.3607,457.80529 1349.0019,458.53654 1349.8224,458.92625 C 1350.7355,459.35988 1351.1076,458.76333 1351.9483,458.88552 C 1352.2246,458.92515 1352.3971,460.33673 1352.5652,460.63472 C 1352.9759,461.36132 1354.1356,459.21792 1354.7647,459.45671 C 1355.6244,459.78348 1355.0411,460.51268 1355.2977,461.11952 C 1355.6545,461.96234 1356.89,462.72563 1355.598,462.85958 C 1356.275,463.61585 1357.759,462.78383 1358.3896,463.65316 C 1358.9163,464.38052 1358.03,467.20446 1358.216,468.2639 C 1358.4943,469.85063 1359.3075,470.58495 1357.5986,471.61593 C 1356.2496,472.42909 1354.1808,472.6866 1353.3261,474.16974 C 1353.0196,474.7005 1352.3429,474.78767 1351.908,475.14611 C 1351.3462,475.61012 1351.5398,476.52032 1350.8515,477.03073 C 1349.3456,478.14783 1347.596,478.77186 1348.1669,481.1777 C 1348.667,483.28413 1349.4696,484.92665 1348.2973,486.98187 C 1346.9327,489.37594 1345.7342,490.29053 1343.3416,491.37725 C 1342.7639,487.47393 1341.7123,483.69925 1340.9241,479.82695 C 1340.1431,475.99451 1339.8402,473.79799 1336.554,471.58099 C 1335.08,470.58605 1334.4191,469.72275 1334.0244,467.95096 C 1333.6776,466.39079 1332.9914,465.03738 1331.6229,464.20283 C 1330.9388,463.78484 1330.0906,463.59391 1329.6326,462.84751 C 1329.1636,462.08207 1329.4817,461.10963 1329.0359,460.31914 C 1328.1483,458.74572 1327.8086,457.15083 1327.918,455.3347" id="path5410"/>
</svg>