<svg fill="#fff" height="407" viewBox="-140 -430 3053 1838" width="774" xmlns="http://www.w3.org/2000/svg">
<path xmlns="http://www.w3.org/2000/svg" d="M 2051.2428,563.18313 C 2052.6115,563.24872 2052.6332,561.20746 2053.2724,560.40089 C 2054.313,559.08729 2056.3066,561.12932 2056.8549,561.78981 C 2057.8353,562.96971 2058.8275,561.99814 2059.7292,560.75419 C 2060.9698,559.04245 2061.1796,560.64894 2061.8009,561.53355 C 2062.1813,560.87195 2062.4117,559.25414 2063.2723,560.28937 C 2063.8037,560.92822 2064.2655,561.71481 2064.9496,562.20123 C 2065.3769,562.50532 2066.1852,559.33651 2067.525,559.28229 C 2066.8238,561.38666 2070.9515,559.48457 2071.671,558.84325 C 2072.5622,558.05048 2071.7307,557.51 2072.0047,556.81699 C 2072.451,555.68728 2074.8496,555.57553 2075.5735,554.32295 C 2076.4288,555.86376 2077.6233,557.07794 2079.1675,557.8992 C 2080.3752,558.54287 2081.77,557.31172 2082.533,558.49071 C 2083.2979,559.67329 2085.0548,557.83764 2086.0259,559.01429 C 2086.518,559.61178 2086.8513,562.03251 2085.3103,561.45959 C 2084.9819,563.50792 2085.8149,565.01156 2086.1291,567.00284 C 2086.7904,566.49451 2088.8286,567.18577 2088.6923,568.05034 C 2088.4881,569.3456 2090.9851,569.05586 2091.1261,570.29455 C 2091.3948,570.14507 2091.6636,569.99557 2091.9325,569.84504 C 2092.161,570.90276 2092.9817,570.11288 2093.8878,569.84711 C 2095.0244,569.51382 2095.7339,570.75228 2096.4009,571.33963 C 2095.3936,572.12497 2095.4349,570.62981 2094.4099,571.39255 C 2093.4812,572.08348 2093.0636,573.06769 2091.9335,573.24188 C 2090.7231,573.4285 2091.4852,574.52204 2090.9304,575.31469 C 2090.3903,576.08639 2087.8911,576.833 2089.3017,575.44522 C 2088.5618,575.25564 2087.3512,576.44367 2087.2473,576.86199 C 2086.6561,576.49441 2086.591,575.26911 2085.606,575.59336 C 2085.8468,575.91239 2086.1485,576.15992 2086.5117,576.33908 C 2085.745,577.10943 2086.1761,577.49039 2086.542,578.308 C 2086.8473,578.98881 2085.3693,578.96915 2085.1151,578.79845 C 2085.3404,579.50292 2085.2244,581.47464 2084.4,582.00067 C 2084.4937,582.03374 2084.5915,582.03374 2084.6954,582.00067 C 2084.5296,582.56379 2081.8537,585.09379 2081.4568,584.4548 C 2080.1274,585.07934 2079.4452,586.95314 2079.1358,588.19888 C 2078.7084,589.91704 2079.2453,591.0801 2078.1219,592.6946 C 2076.8483,594.52423 2078.7126,594.94186 2078.5662,596.61794 C 2079.1794,595.46124 2079.1914,597.20485 2079.5886,597.8348 C 2080.1234,598.68138 2080.7843,599.33772 2081.5707,599.94361 C 2082.3188,600.52063 2083.0732,601.12011 2083.7203,601.80876 C 2084.6497,602.79784 2084.0625,603.86146 2084.2686,605.11846 C 2083.8609,604.76376 2083.3744,604.56692 2082.8081,604.52796 C 2084.5941,604.84065 2085.1785,607.13925 2086.4648,608.29252 C 2087.403,609.13417 2090.4998,610.77279 2089.4314,612.56399 C 2090.6245,611.91452 2092.1218,614.16612 2092.6566,614.8458 C 2092.3642,614.70272 2092.0623,614.58008 2091.7507,614.47787 C 2093.008,615.33426 2094.1362,616.27522 2094.8666,617.64174 C 2096.2591,616.17511 2098.3037,619.46393 2097.5355,620.21396 C 2098.2327,619.7609 2097.4136,618.34419 2098.6304,619.03833 C 2096.4698,620.73532 2101.9996,624.65776 2101.9333,626.15952 C 2102.5794,624.885 2102.6837,625.94866 2103.013,626.53435 C 2103.5277,627.44988 2102.617,627.07412 2102.6924,627.77265 C 2102.8324,629.0716 2103.7426,630.22764 2104.1116,631.43926 C 2104.6112,633.0806 2104.7619,634.86044 2105.3003,636.50843 C 2105.5173,637.1717 2105.7555,637.84196 2105.832,638.55678 C 2105.8692,638.90603 2105.6828,640.74716 2105.4368,638.97201 C 2105.293,639.96169 2106.1091,642.83392 2105.185,641.09215 C 2105.3723,641.67959 2105.6735,642.19086 2106.0915,642.626 C 2104.7185,642.81262 2105.7253,643.49209 2105.8473,644.26269 C 2106.0372,645.37779 2106.3197,646.13082 2106.817,647.12081 C 2107.0197,647.52403 2106.8502,649.52744 2106.7082,650.14003 C 2106.3375,649.72591 2106.0931,649.23985 2105.9773,648.68183 C 2104.5333,649.48896 2105.6647,651.15947 2106.0234,652.10885 C 2105.5951,651.83964 2105.1286,651.64532 2104.6281,651.52588 C 2105.2221,652.11796 2105.5928,655.23087 2105.1511,656.11368 C 2105.1936,655.58685 2105.0943,655.10243 2104.8524,654.65842 C 2105.2396,655.38257 2104.7852,656.13188 2104.5013,656.84265 C 2105.3205,656.82041 2105.3076,657.41887 2105.0359,658.04152 C 2104.7453,658.70552 2103.7493,659.02283 2103.6665,659.24413 C 2103.1617,660.60908 2103.6901,660.64848 2102.1395,661.4111 C 2101.6902,661.76964 2101.2199,662.09483 2100.7296,662.38567 C 2100.0607,662.65024 2099.7717,663.58721 2099.2653,663.73663 C 2098.4263,663.98396 2097.5537,664.33424 2096.796,664.80461 C 2096.4411,665.02464 2095.7878,666.65338 2095.5385,666.5656 C 2094.8267,666.31435 2093.5091,667.22947 2092.9151,667.65015 C 2092.1095,668.22109 2090.5747,668.72338 2089.967,669.42026 C 2089.5387,668.42382 2088.1923,668.4561 2088.2142,667.16894 C 2088.0727,667.67839 2087.9313,668.18679 2087.7859,668.69514 C 2087.7073,668.28564 2087.5745,667.8983 2087.3884,667.53313 C 2087.6873,668.37339 2087.5671,668.32498 2087.0288,667.38685 C 2087.8438,667.38685 2086.265,666.87434 2086.2817,666.87837 C 2086.4514,667.7601 2085.9938,668.88979 2084.8975,668.62252 C 2085.0963,669.43438 2086.3643,668.20192 2086.5327,669.34866 C 2086.7956,670.81173 2084.234,670.09486 2083.7127,670.0747 C 2084.5745,670.8087 2086.063,670.66655 2086.5827,671.8178 C 2085.7026,671.95086 2085.5792,673.33261 2084.6145,672.62918 C 2083.9745,672.16252 2083.6087,670.75829 2082.7371,670.65647 C 2083.2634,671.3168 2085.9306,673.63392 2085.4317,674.35737 C 2083.6909,673.63089 2082.8516,671.85812 2081.4373,670.72906 C 2081.6926,671.89138 2086.7995,675.46052 2084.3535,676.76186 C 2082.7471,677.61685 2080.3254,673.45455 2079.2304,672.7602 C 2079.934,674.03294 2082.6803,675.9964 2082.1026,677.68935 C 2081.655,678.99825 2079.419,679.35563 2078.3417,679.8821 C 2076.5235,680.77085 2076.3927,682.09821 2075.2333,683.51583 C 2074.4442,684.48252 2072.4394,686.08565 2071.2848,684.93816 C 2071.6821,684.46542 2072.1802,684.17573 2072.776,684.0691 C 2072.6565,683.76732 2072.5767,683.45345 2072.5348,683.12649 C 2072.2211,683.26935 2071.9006,683.39008 2071.5722,683.48866 C 2071.7168,681.6625 2071.4352,679.84888 2071.5186,678.02063 C 2071.5602,677.11938 2071.6732,676.19584 2072.0028,675.3346 C 2072.2243,674.75433 2073.6341,672.28952 2073.8075,674.06417 C 2073.9521,671.21499 2068.5155,671.63031 2069.152,669.20243 C 2069.0242,669.63203 2068.8316,669.60782 2068.5757,669.12982 C 2069.0747,668.9624 2069.4437,668.18477 2069.9883,668.18477 C 2070.5672,668.18477 2071.2024,668.34212 2071.7773,668.07886 C 2072.2592,667.85694 2072.8381,667.17499 2073.1821,666.77445 C 2073.8485,666.00356 2072.8248,665.23558 2073.6185,664.48061 C 2074.8741,665.80678 2076.9238,664.36957 2078.4328,664.07683 C 2078.9576,663.97487 2079.211,664.4261 2079.4101,664.80865 C 2079.8925,665.73211 2081.0071,665.64431 2081.8827,665.93494 C 2081.9751,665.1397 2081.2062,664.47556 2082.1677,664.33626 C 2082.1039,662.99354 2080.4373,662.94306 2079.9733,662.01202 C 2079.5757,661.21616 2079.353,660.19388 2079.2422,659.29263 C 2079.1362,658.43771 2080.0394,658.33967 2080.5219,657.67866 C 2081.2577,656.67179 2083.2768,658.13855 2084.0864,658.29925 C 2083.7023,657.45425 2084.3874,656.45644 2083.818,655.67887 C 2084.5334,655.5019 2085.2748,655.86392 2085.9871,655.5646 C 2086.5906,655.31077 2087.8298,654.53604 2088.4269,654.14255 C 2089.1194,653.68429 2089.3183,653.03071 2090.1662,652.79292 C 2090.8221,652.60977 2091.6744,652.68161 2092.234,652.19284 C 2093.7418,650.87603 2091.9454,647.26062 2092.274,645.57341 C 2092.574,644.12683 2093.2305,643.08949 2092.6825,641.68973 C 2092.4987,641.26058 2092.3117,640.8324 2092.1226,640.40518 C 2091.8084,639.64096 2092.124,639.09688 2091.9199,638.39027 C 2091.6318,637.39107 2091.0642,637.48247 2091.1203,636.15085 C 2091.1887,634.5393 2092.3179,633.59603 2092.577,632.16849 C 2092.6392,631.82475 2092.8534,630.02719 2092.6775,629.86336 C 2091.5834,628.84665 2092.7089,629.09806 2093.2911,628.03533 C 2094.1891,626.39685 2092.4463,624.78005 2091.3648,624.01978 C 2090.8692,623.67119 2089.5736,622.93108 2089.7351,622.12759 C 2089.9278,621.16785 2091.5622,620.7751 2092.0374,619.92417 C 2091.0672,619.53435 2089.8432,618.73517 2089.3027,617.83064 C 2088.8996,617.15872 2088.3773,617.7173 2087.9527,616.79616 C 2087.3795,615.55497 2086.8386,616.71036 2086.0076,616.17511 C 2085.5241,615.8625 2085.0874,614.53306 2085.0595,613.94226 C 2084.972,612.08227 2084.3976,610.49343 2083.0476,609.18126 C 2082.6665,608.81064 2081.7271,608.56388 2081.2069,607.93204 C 2080.2274,606.73868 2079.0244,605.52846 2078.2353,604.19268 C 2077.727,603.33329 2077.5906,602.27872 2077.0501,601.43931 C 2076.8349,601.10677 2076.4568,600.70952 2075.9889,601.06058 C 2075.6238,600.36458 2074.8204,600.12124 2074.4819,599.40448 C 2074.2326,598.87656 2073.4964,597.63032 2074.1539,597.0404 C 2074.9881,596.3013 2071.6482,595.58362 2071.4278,595.53014 C 2069.2096,594.99843 2068.0421,592.32813 2065.9549,591.72271 C 2065.3519,591.54766 2063.7735,590.73813 2065.2378,590.08705 C 2067.3193,589.16167 2064.9561,588.61537 2065.4541,587.5802 C 2065.7208,587.02328 2068.2401,587.84213 2068.4956,587.88234 C 2069.545,588.04732 2072.7288,586.23617 2071.2888,585.79764 C 2071.6938,585.293 2072.7184,585.0267 2072.8265,584.31129 C 2072.9631,583.40773 2072.0967,582.59685 2071.2137,582.71153 C 2070.6133,582.78901 2070.6002,582.40262 2070.5042,581.90354 C 2070.2921,580.80068 2069.1226,581.0984 2068.3133,580.74072 C 2068.6317,579.95591 2069.7336,580.11 2069.8927,579.45741 C 2070.165,578.34939 2069.0209,577.93027 2068.3894,577.40861 C 2067.6352,576.78538 2067.176,576.03667 2065.9561,576.25623 C 2064.0564,576.59693 2064.3192,577.60011 2063.3241,578.7312 C 2062.5785,578.22004 2061.5107,577.25333 2060.5831,577.43035 C 2059.5255,577.63219 2057.8828,575.75909 2057.4923,575.00284 C 2057.0463,574.14376 2056.8323,572.08659 2057.2789,571.05739 C 2058.0694,569.23345 2056.5232,569.63219 2056.3759,568.20515 C 2056.5132,568.79102 2056.3352,569.31445 2055.8428,569.77548 C 2054.9225,569.47852 2054.967,567.73759 2054.2331,567.06624 C 2053.2423,566.15037 2051.6254,564.53715 2051.2428,563.18313" id="path3562"/>
</svg>