<svg fill="#fff" height="407" viewBox="-140 -430 3053 1838" width="774" xmlns="http://www.w3.org/2000/svg">
<path xmlns="http://www.w3.org/2000/svg" transform="matrix(1,0,0,1, -233, 73)" class="land kp" d="M 2453.6087,322.40531 C 2454.7419,321.15094 2456.0393,320.12194 2457.267,318.95487 C 2458.159,318.10711 2459.2102,318.56885 2459.788,317.6796 C 2460.9805,315.84444 2464.5396,315.93391 2465.3519,314.0937 C 2465.843,312.97962 2466.7771,313.49954 2467.5049,313.30787 C 2468.814,312.96306 2469.6995,310.83028 2470.8249,310.01912 C 2473.3591,308.18915 2472.9788,304.60247 2475.1373,303.646 C 2475.9957,303.26546 2476.8504,302.23442 2477.51,302.70418 C 2478.4475,303.37242 2478.7469,304.55111 2479.6125,305.27811 C 2481.145,306.56466 2483.5014,306.70045 2485.8572,306.91796 C 2487.1637,307.03849 2489.8669,307.23102 2490.1205,304.93408 C 2490.2305,303.9362 2489.066,303.78071 2488.6763,303.13491 C 2488.1478,302.25943 2488.0243,301.11633 2487.8361,300.03352 C 2490.3201,299.45976 2492.6849,299.67008 2495.0354,299.45698 C 2498.1308,299.17698 2497.5903,297.25019 2499.0164,295.71321 C 2500.2505,294.3828 2501.5888,295.26618 2502.7851,294.82596 C 2504.5094,294.19124 2504.7881,289.35393 2505.0485,288.35148 C 2507.1968,288.22788 2508.7088,288.68291 2508.6874,290.54773 C 2508.656,293.21904 2512.3152,293.93532 2512.8308,296.41561 C 2511.5843,297.09113 2511.3933,296.0889 2510.3682,296.26345 C 2509.7591,296.36675 2508.534,297.95736 2508.1349,298.3868 C 2506.6051,300.03771 2503.4834,302.8473 2502.9177,304.68294 C 2502.5177,305.97282 2505.8705,312.46087 2502.3278,313.92416 C 2501.1528,314.4093 2499.7841,314.81437 2498.7977,315.87747 C 2498.168,316.55732 2498.3489,317.48437 2497.5417,318.03976 C 2496.3646,318.8491 2495.4701,318.89031 2494.3443,320.00804 C 2493.4616,320.88621 2492.6631,321.92836 2491.6025,322.62591 C 2490.3834,323.42582 2489.2743,323.19714 2488.0679,323.63942 C 2487.0306,324.01863 2486.0781,324.7781 2485.1148,325.41548 C 2483.8046,326.28221 2482.7066,326.69759 2483.4472,327.69738 C 2484.0594,328.52318 2483.4952,330.15703 2483.1826,331.35468 C 2483.4576,329.76987 2482.511,330.63674 2482.0981,331.76865 C 2481.3093,333.92792 2483.987,333.07248 2485.0066,333.98229 C 2486.5295,335.3426 2492.3841,338.26831 2490.6155,341.38456 C 2488.0262,345.93713 2481.7628,341.12883 2478.0319,344.66188 C 2476.7006,345.92363 2475.3867,349.45786 2474.0312,349.20211 C 2473.3273,349.0675 2469.7516,347.64391 2470.2931,349.9692 C 2469.6659,349.4269 2468.1689,349.1025 2467.7708,348.48315 C 2467.1472,347.51052 2466.3786,346.73277 2464.929,346.67211 C 2465.3019,347.14529 2465.7632,347.53208 2466.3107,347.83523 C 2465.2955,347.93627 2464.3451,349.69337 2462.6315,350.74263 C 2462.3914,349.4444 2463.7637,349.99208 2463.985,349.19404 C 2464.2861,348.10467 2463.1133,347.60078 2462.5108,349.09712 C 2462.4976,347.45526 2459.6204,349.06346 2459.4398,347.44853 C 2461.6375,347.44853 2459.6001,345.7793 2461.5484,346.57502 C 2460.9192,345.29625 2458.1769,346.00054 2456.7915,345.70106 C 2457.3514,344.89677 2458.1547,344.52282 2458.7936,344.82792 C 2457.4918,343.54499 2460.1232,341.5266 2459.4735,340.05812 C 2460.4124,341.09771 2460.6027,339.17907 2462.4034,339.07744 C 2463.5089,339.01511 2464.8416,339.18314 2465.5287,339.7656 C 2465.4575,337.28646 2459.6221,339.79947 2461.1283,336.25647 C 2461.7283,334.8576 2463.3819,332.80582 2463.5969,331.49495 C 2463.8154,330.15974 2462.3972,330.30696 2463.7249,328.60778 C 2460.6071,330.19654 2458.9635,327.22898 2457.2457,326.34644 C 2457.4015,327.05825 2457.0423,327.71376 2456.1725,328.31301 C 2456.4721,326.98723 2455.5566,326.43391 2454.6706,325.94459 C 2454.1722,325.66981 2452.1596,323.47375 2454.4181,323.39159 C 2454.1465,323.06291 2453.8778,322.73415 2453.6087,322.40531" id="kp"/>
</svg>