<svg fill="#fff" height="407" viewBox="-140 -430 3053 1838" width="774" xmlns="http://www.w3.org/2000/svg">
<path xmlns="http://www.w3.org/2000/svg" d="M 330.23159,414.23135 C 329.77768,412.00639 325.84714,410.09343 325.06934,407.58594 C 324.18972,404.73802 325.15933,402.16589 323.77681,399.25262 C 323.23981,398.12038 320.1382,395.61744 320.10108,394.80391 C 320.00072,392.51965 320.09865,390.47086 321.80978,389.43935 C 321.075,390.00042 320.92655,389.89147 321.36209,389.11001 C 321.59214,388.45917 321.88454,387.7116 321.51341,386.76485 C 320.89948,385.19377 322.09972,384.14482 321.90891,382.68918 C 321.76045,381.5586 320.32427,379.9197 320.49577,379.0637 C 320.784,377.63795 319.87398,377.22909 319.20984,375.61567 C 318.73996,374.47223 319.05221,373.57452 319.15357,372.67138 C 319.27994,371.55675 318.50425,370.53648 318.32236,369.38315 C 318.10216,368.07979 318.43641,366.94518 318.77539,365.93961 C 318.91566,365.52292 319.6624,363.13455 319.91197,364.54568 C 319.79442,363.8771 320.23494,363.92216 320.6879,363.76207 C 320.9914,363.65533 320.88694,362.03996 320.14869,363.4359 C 320.3085,362.25849 320.22206,360.33653 321.76101,360.2711 C 320.27964,360.73499 321.04202,359.16767 321.10982,358.53271 C 321.21066,357.60045 321.39482,356.71512 321.5678,355.82189 C 321.82924,354.47108 321.53003,352.78913 322.09426,351.61077 C 322.91982,349.89062 322.96144,346.9684 322.87179,344.72757 C 322.84092,343.90504 322.49966,341.82463 323.79867,342.04133 C 322.53181,340.68223 322.87527,338.87577 323.0684,337.96951 C 323.31802,336.80329 322.49253,334.94965 324.06,334.857 C 325.23601,334.7875 328.35384,335.94023 328.76958,335.04473 C 328.31244,335.34819 326.96939,334.54485 326.27353,334.257 C 324.93523,333.70303 324.5962,334.0252 323.6884,334.19723 C 322.31979,334.45704 322.23369,331.39351 322.18799,330.91015 C 322.35249,331.53786 322.48751,332.15539 322.59157,332.76031 C 323.77216,332.44018 322.25464,329.03689 324.38329,329.85328 C 323.57097,329.37162 322.86777,329.19508 322.27326,329.32258 C 321.30021,327.29275 322.90823,327.31855 324.09977,326.84793 C 323.45411,326.89709 322.60854,326.51849 321.85404,325.96261 C 321.77877,326.2369 321.74039,326.53078 321.74113,326.84793 C 320.69968,323.95781 320.70384,321.00464 318.4432,317.88605 C 317.3657,316.39623 315.89387,311.67286 317.53344,312.06738 C 320.14714,312.69628 322.60487,314.05869 325.21385,314.49454 C 326.78512,314.7572 330.11412,314.37003 331.12523,315.90034 C 330.83058,315.20143 331.00959,314.69745 331.56007,314.55679 C 331.63873,315.24871 332.48288,316.13651 332.76365,316.87323 C 333.10413,317.75951 331.8661,318.76395 331.54733,319.29551 C 332.03403,317.23702 330.73965,319.17534 330.55565,319.4429 C 329.96973,320.2872 329.61198,321.29765 329.15754,322.23417 C 330.46729,323.00199 330.92419,322.31197 331.37004,321.87845 C 330.92093,322.04274 330.51408,322.25023 330.15067,322.50088 C 329.26193,321.15548 330.21423,320.36392 330.90956,319.9518 C 332.10702,319.2472 332.43416,318.06219 333.2765,317.06321 C 334.66575,318.46273 332.07259,319.40575 332.6025,320.89953 C 333.57754,319.94561 334.18489,323.31289 332.91506,323.47817 C 332.96417,323.18212 333.01418,322.88722 333.06153,322.58976 C 332.09308,322.73048 332.25887,323.85549 332.12876,324.63188 C 331.57336,323.88508 331.54189,323.24011 331.85115,322.85637 C 330.92751,323.30919 331.01969,324.67376 329.86202,324.89792 C 330.77657,324.61586 330.91296,324.82157 330.2741,325.51841 C 330.62235,324.76368 330.93752,324.91147 331.21027,325.96138 C 330.88946,324.98905 331.33607,324.50252 332.56506,325.02599 C 333.34184,325.35717 333.68168,324.14024 333.88615,323.8518 C 334.64122,322.78355 336.25644,322.13908 334.90516,319.74134 C 333.91832,317.98653 336.60413,316.94153 335.37141,315.60567 C 334.33522,314.48209 334.88008,313.56281 333.71199,312.312 C 332.83356,311.37061 332.51594,312.56529 332.10074,310.96454 C 334.72445,312.04741 333.33807,309.4399 333.62154,308.35023 C 332.49635,308.55198 331.57737,306.74845 331.69405,306.09792 C 331.90651,304.92 335.67079,305.63925 336.98302,305.63925 C 342.32127,305.63925 347.65837,305.63925 352.99662,305.63925 C 363.44982,305.63925 373.90189,305.63925 384.3551,305.63925 C 405.48938,305.63925 426.62251,305.63925 447.75565,305.63925 C 468.9781,305.63925 490.20055,305.63925 511.423,305.63925 C 521.62086,305.63925 531.81873,305.63925 542.01659,305.63925 C 543.27157,305.63925 542.78136,304.11332 542.70406,302.98957 C 542.63959,302.04237 543.91773,301.04239 545.02958,302.6832 C 546.31875,304.58408 545.11876,308.16849 547.90675,308.7875 C 548.73606,308.97162 552.34977,308.95033 552.97558,310.19816 C 553.65905,311.56046 556.50609,309.82411 557.03823,309.52627 C 558.20343,308.87017 560.56339,310.25694 562.1477,310.60331 C 562.09406,311.33313 562.68502,311.81396 563.43541,311.8639 C 563.30613,312.24586 564.11554,313.8656 564.67714,313.52916 C 564.91641,313.38583 564.47951,312.59024 564.86286,312.58401 C 565.79413,312.56779 566.66499,313.22752 567.6397,313.78088 C 568.42724,314.22682 568.87015,313.92291 569.17916,314.68625 C 569.38095,315.18402 569.85846,315.37683 570.26751,315.41663 C 572.64379,315.65044 573.70192,313.7734 575.86311,313.74849 C 575.84931,315.48131 578.49127,315.12803 579.23043,315.06209 C 579.92825,314.99987 580.74362,314.84556 581.62365,315.36688 C 583.35922,316.39374 583.93698,315.77726 585.49621,316.16882 C 581.5516,317.77812 577.35211,319.35001 574.24473,321.90316 C 572.95689,322.9625 572.00939,324.33988 570.76002,325.42856 C 569.32951,326.64389 567.36531,327.36277 566.31452,328.96699 C 569.11656,331.58801 574.37758,327.28292 576.34977,327.11091 C 576.66675,328.33151 576.10309,329.77363 575.41175,330.3788 C 576.03337,330.55145 576.67029,329.77853 577.15986,330.09096 C 578.02432,330.64328 577.93171,330.78774 578.9009,330.78774 C 580.58515,330.78897 581.74699,329.63515 582.92003,328.92652 C 584.31021,328.08604 586.43286,328.60636 587.71783,327.71526 C 589.41531,326.53816 591.20399,325.62671 592.61612,324.18707 C 592.70363,325.07278 593.60729,325.67716 594.12615,326.49144 C 594.66502,327.3468 594.0823,328.02343 594.25971,328.79037 C 594.49896,328.41986 596.85951,325.98352 595.73128,328.08358 C 597.06901,326.29224 599.43557,327.85401 601.47611,330.00398 C 603.38979,332.01968 604.1826,331.23323 606.20289,331.92309 C 608.99861,332.87759 610.19445,330.49268 612.1402,329.89126 C 613.30588,329.5322 614.77869,329.8447 616.0725,329.73442 C 617.69821,329.59594 619.1394,329.13254 620.70149,328.87869 C 620.58731,329.83245 620.44137,330.77305 620.70174,331.87663 C 622.46354,332.27762 623.83749,332.10649 625.22787,331.88396 C 626.4817,331.68341 627.30783,334.52168 626.33524,334.77897 C 627.41402,334.85578 628.08871,336.1375 628.98699,336.79356 C 628.12961,338.3705 624.49383,335.88664 623.20372,337.00404 C 623.15382,337.04662 622.63503,338.36079 622.67211,338.35836 C 621.6524,338.4276 620.91812,336.79964 619.79888,336.40046 C 616.49366,335.22024 615.76467,337.42001 612.97253,337.26678 C 610.0139,337.10379 610.08282,339.98866 607.86731,340.7295 C 607.82175,339.67203 608.5449,339.10282 608.8722,338.28303 C 607.28076,338.58795 607.06514,339.74968 605.69619,340.20576 C 605.49982,339.53127 605.46701,338.91827 605.59896,338.36929 C 603.30412,339.49244 602.64662,343.28015 601.24955,345.2635 C 600.89411,345.76779 601.04551,346.58643 600.67914,347.07923 C 600.26286,347.62719 599.31948,347.57903 598.86507,348.13394 C 598.17325,348.97838 597.29215,350.37226 597.67386,351.83864 C 599.4781,351.41405 599.95787,347.80897 602.5475,348.75711 C 603.48863,349.10222 601.88739,351.72951 601.7497,352.08563 C 601.295,353.25867 601.46677,354.84183 600.86845,355.90313 C 599.65702,358.05834 599.86264,360.66007 598.82535,362.93043 C 598.30034,364.08103 598.04654,365.57265 598.29415,367.09889 C 598.52562,368.51795 599.39678,369.98709 598.98617,371.21166 C 598.31918,373.20888 599.37782,377.71174 601.13607,380.18269 C 602.59773,382.23428 604.87426,380.98648 605.83468,380.42225 C 608.0527,379.12336 609.24677,376.89745 610.18622,374.46988 C 610.69639,373.15714 611.08788,371.78282 611.13758,370.20994 C 611.17736,368.86978 609.86277,365.68748 610.84015,364.96866 C 608.23131,363.64229 608.96655,361.17848 609.32843,359.74274 C 609.56323,358.81628 609.02011,357.84611 609.0546,356.87387 C 609.09135,355.85893 610.25373,355.08454 610.60985,354.22344 C 611.014,353.2455 610.91036,352.28822 610.92226,351.1225 C 610.93479,350.07681 611.8077,349.99273 612.29246,349.34625 C 612.9015,348.5358 612.76652,348.02804 613.89212,347.73674 C 615.21774,347.39359 615.18872,345.73884 616.2954,345.16816 C 615.96028,346.34537 616.38503,347.95101 615.75953,348.98439 C 616.25122,348.6645 616.57532,348.20373 616.73041,347.59829 C 616.91386,348.32526 616.77072,348.97357 616.41497,349.41837 C 617.79538,348.65608 617.75645,346.85515 617.78403,345.20437 C 617.81994,343.15319 620.24643,343.957 621.36865,342.99477 C 618.56901,342.53389 620.96156,339.32981 622.00675,339.10282 C 622.64076,338.96562 624.64793,339.99594 625.45881,340.37916 C 627.37512,341.28569 629.1238,342.41894 631.06345,343.15924 C 632.67077,343.77332 634.14021,345.76417 633.1804,346.41528 C 632.25849,347.04069 633.45305,348.98559 633.67139,350.11285 C 633.93669,351.48843 633.82326,353.80939 632.68459,354.26532 C 631.43678,354.76649 631.68014,356.37368 630.59702,357.03139 C 629.57273,357.65292 628.2075,358.37064 628.62579,360.0843 C 629.16618,362.29411 631.22749,360.55422 631.72264,360.37103 C 632.74733,359.99267 635.10546,355.00802 637.28588,357.10776 C 638.97931,358.73765 639.04388,362.75952 639.54861,364.45087 C 640.20719,366.6507 641.02815,371.80048 638.38176,372.02416 C 638.91457,370.99843 637.37934,370.4304 637.06645,371.31178 C 636.80141,372.06065 636.95398,373.0807 636.5137,373.71909 C 636.04572,374.39706 635.29423,374.78697 634.81374,375.4467 C 634.29877,376.15061 634.23697,377.12012 633.69254,377.8148 C 633.29309,378.32646 631.16565,380.23528 633.05289,380.86151 C 633.72846,381.08574 634.41333,381.21303 635.09025,381.47689 C 635.41694,381.65899 635.71499,381.89007 635.98284,382.16895 C 636.50076,382.49324 637.22569,382.17361 637.85643,382.48508 C 637.11308,382.67052 636.24383,382.65536 635.64931,383.07279 C 636.6554,383.57047 637.1711,382.8571 638.05764,382.99001 C 638.64641,383.07862 639.30286,383.37585 639.8713,383.3945 C 641.71789,383.45394 643.07038,382.57722 644.9713,382.6367 C 646.80836,382.69268 647.78519,380.97713 649.02055,380.17918 C 650.45662,379.25086 652.30594,378.74312 653.96629,378.11222 C 657.42485,376.79782 660.86057,375.25422 663.52573,372.91017 C 664.65648,371.91703 665.97363,370.99253 666.99298,369.89156 C 667.586,369.25099 667.42076,366.64006 665.79956,366.5892 C 666.50227,364.53975 667.38319,364.06444 669.84213,363.68973 C 671.16891,363.48809 672.73387,363.49165 674.22597,363.74784 C 675.41547,363.95299 676.77645,365.29912 677.79062,364.99354 C 679.07733,364.60611 680.45057,364.84427 681.83042,364.66299 C 683.34695,364.46509 684.27055,363.36591 685.49303,362.7429 C 686.4243,362.26918 687.75692,362.30005 687.61456,360.83131 C 687.46927,359.32367 687.99787,358.28602 688.79291,357.35115 C 688.2579,357.66008 687.29559,357.93434 687.66495,356.66379 C 686.99381,357.34996 686.63816,356.82135 686.8512,356.19934 C 687.07132,355.55904 687.76327,355.20886 688.31058,354.89683 C 689.94605,353.96618 691.00342,352.66692 692.24641,351.28808 C 693.59185,349.80051 695.26034,347.83546 697.44616,347.38155 C 700.2514,346.7937 703.67881,347.28882 706.72598,347.22619 C 711.24129,347.13344 715.67498,347.01298 720.31021,347.25871 C 721.19966,347.30568 723.86179,347.72591 724.12397,346.76719 C 724.33216,345.97763 724.46304,344.97988 725.08039,344.4897 C 725.77108,343.9437 727.00373,344.2409 727.76279,343.60412 C 728.00818,343.89296 728.25174,344.18291 728.49348,344.474 C 729.31601,344.01378 728.53705,342.94882 729.73626,343.09152 C 729.46334,343.05887 731.51634,339.71814 731.76381,339.47667 C 732.76564,338.49442 733.39996,338.21742 733.12499,336.48323 C 732.90976,335.12517 733.76411,333.83362 734.49185,333.11332 C 735.37395,332.23973 734.89097,330.72164 735.34454,329.58245 C 735.97693,327.99888 737.33964,326.87005 738.32108,325.57256 C 739.1235,324.46926 741.28214,319.10473 742.57119,323.4424 C 743.26195,325.75468 747.18772,323.32646 747.74501,323.14141 C 751.07007,322.03533 752.3368,327.11829 752.30624,329.31155 C 752.27943,331.26994 752.42468,333.2794 752.47923,335.2568 C 752.50877,336.28481 751.82359,339.21814 752.85538,340.2967 C 753.94751,341.43832 754.9913,340.32217 754.91909,342.0256 C 754.86816,343.22937 754.53018,344.46434 755.81512,345.6918 C 756.22095,344.95936 757.01792,345.26712 757.57169,346.21155 C 758.22512,347.32374 757.2807,347.64164 757.47002,348.63924 C 758.31182,347.83666 758.57314,348.75471 758.29779,349.35226 C 758.00296,349.99513 757.14511,350.19812 756.47422,350.35184 C 755.65693,350.53796 754.9642,350.67842 754.36996,351.22329 C 753.94313,351.61437 752.45492,353.21077 752.5424,351.23529 C 751.8921,351.49682 751.68282,352.44403 750.85726,352.44403 C 750.23753,352.44403 750.79039,353.70526 750.13888,353.91113 C 749.96254,353.37602 749.51428,351.97053 748.71628,352.18993 C 747.81601,352.43924 747.76399,354.03798 747.05625,352.35894 C 747.29034,353.13412 747.02181,353.04189 746.4935,353.00835 C 745.86825,352.96763 746.46204,354.61341 746.55648,354.94466 C 744.98197,354.05593 744.75999,352.93289 744.53308,351.49442 C 744.55876,352.49436 743.52157,352.62738 743.13257,353.30657 C 742.68817,354.08106 742.72305,355.16344 742.33521,355.97599 C 741.43137,357.87592 739.69683,356.90609 738.96489,358.98306 C 738.59705,358.42665 738.42174,358.30509 738.44091,357.69586 C 738.26629,357.957 738.0861,358.2145 737.90327,358.46717 C 737.67604,356.26621 736.97588,358.67212 737.05635,359.23912 C 736.79259,358.29197 736.58234,357.33803 737.05994,356.66379 C 736.65537,356.9049 736.40749,357.27719 736.31741,357.78053 C 737.07187,357.56467 736.78248,359.99862 736.47105,360.35319 C 736.30441,359.98077 736.12597,359.60941 735.93683,359.23912 C 735.66069,359.59037 734.77882,360.81823 735.63422,359.06643 C 734.95894,361.03106 735.13913,359.27604 735.19597,358.72336 C 734.53115,359.32962 732.92891,359.92722 733.29391,361.2391 C 733.40017,361.61703 732.205,363.28167 731.90555,363.52961 C 730.72974,364.50776 727.0095,369.47635 730.10244,371.43074 C 729.50294,371.91232 726.87725,373.13715 727.43978,374.39236 C 727.70541,374.9854 729.05844,375.19788 729.54345,375.72714 C 730.7671,377.06153 730.17032,378.69046 732.00317,380.01789 C 733.54789,381.13596 735.46521,380.04594 735.17915,378.44703 C 734.21412,378.44703 734.67163,377.4271 733.50587,376.76148 C 735.15522,376.68294 735.79202,379.30349 735.589,380.30189 C 735.35262,381.47805 731.45062,382.22495 730.19084,382.06627 C 730.22577,381.46521 730.2883,380.87669 730.37915,380.29955 C 729.04428,381.21186 727.75017,382.5189 725.98551,382.65419 C 726.02303,381.77337 725.8788,380.78091 726.37731,380.13243 C 725.74133,380.5496 725.25698,381.66716 724.55863,380.13243 C 723.78219,382.04177 724.31289,383.78836 721.86709,384.22635 C 721.3859,384.31253 717.38693,385.03433 717.09532,383.99689 C 717.44311,385.09718 715.88571,385.10183 715.17552,385.09252 C 713.62647,385.07158 712.83067,385.09485 711.58099,385.72312 C 709.08789,386.97517 706.59692,388.01579 704.80105,390.02012 C 705.43937,388.38722 706.02,386.81249 704.94291,384.58268 C 704.58938,386.42546 706.54519,389.90886 704.21106,390.75234 C 702.38806,391.41119 702.77704,393.10701 705.05994,393.35321 C 705.36367,395.51823 704.62139,397.41565 704.15176,399.24687 C 704.23287,398.69469 704.31411,398.14225 704.39551,397.58957 C 702.65392,397.54696 703.85245,402.60527 701.83995,402.42632 C 701.19687,402.37011 700.51592,405.08492 700.26245,405.55302 C 699.69189,406.60191 698.89523,407.99145 697.47451,408.07596 C 697.49175,407.5551 698.31836,406.25428 697.41452,405.72695 C 695.90736,404.84794 695.06703,404.79527 693.71418,403.30589 C 691.28046,400.6274 695.02471,399.75398 695.89995,398.58422 C 694.26679,399.44123 691.36115,400.73998 693.27369,403.61537 C 694.37896,405.27607 694.34876,406.93343 695.59279,408.67538 C 696.59045,410.07063 696.64383,411.09755 695.93225,411.60671 C 697.17889,411.85838 697.01604,413.01583 696.7679,413.655 C 696.95056,411.78436 696.52637,413.4833 696.5137,413.88921 C 696.46516,414.53931 695.67261,414.99828 695.32977,415.44459 C 694.40536,416.65102 693.91759,417.96854 693.27406,419.37303 C 692.69918,420.63014 691.66746,421.56286 691.11925,422.7987 C 690.79562,423.52791 690.76322,425.50359 689.66436,425.47317 C 688.7707,423.65204 689.8148,421.74142 690.50542,420.50007 C 690.85266,419.8767 691.63288,417.80194 692.25755,417.66139 C 691.54922,417.39612 690.97674,417.47775 690.54254,417.90621 C 690.52738,417.11718 692.07894,415.53542 690.10383,415.53769 C 690.33506,415.01531 690.46102,414.44273 690.4712,413.81872 C 690.07966,415.17886 688.99234,413.16371 689.35288,415.04598 C 689.08697,414.60408 687.69124,413.81304 687.66297,413.36161 C 687.61176,412.55616 688.61293,412.14072 687.64754,411.1978 C 688.19814,411.20692 688.76164,411.34361 689.33686,411.60785 C 688.95424,410.92436 687.70852,409.50153 687.02084,410.04896 C 687.00553,408.89224 687.86604,409.66464 688.42047,409.20377 C 689.35347,408.42651 687.29703,407.90351 686.80657,408.48816 C 686.73639,407.13688 688.64946,407.63278 688.41191,406.10217 C 688.24063,406.33548 688.05507,406.55503 687.85523,406.76082 C 686.44193,404.517 689.35129,403.89957 690.72637,403.71164 C 690.38881,403.50076 690.0561,403.28182 689.72708,403.05137 C 690.22718,402.74634 690.57415,402.30586 690.77018,401.7298 C 690.35351,402.08213 689.91894,402.41256 689.46538,402.72111 C 689.61759,402.43091 689.75121,402.12688 689.86631,401.81244 C 689.01927,401.70799 688.7944,402.20261 688.61972,402.85644 C 688.49942,403.30933 687.42794,404.67733 687.82712,402.96882 C 687.50347,403.30818 687.34036,403.74831 687.33882,404.28908 C 686.50517,402.71882 685.68503,404.53991 686.0383,405.27836 C 685.70682,405.14788 685.37624,405.01051 685.04547,404.86626 C 685.36662,405.49237 685.80739,406.0404 686.36774,406.51387 C 685.42255,406.61677 685.59768,406.78369 686.44597,407.41914 C 683.73662,405.96605 686.81602,413.27063 686.49097,413.98356 C 685.06138,413.16712 684.44186,411.95743 684.4228,410.62351 C 684.4294,411.7149 684.4868,412.68133 685.58951,413.66865 C 686.4229,414.43591 687.53995,415.58424 686.79749,416.43774 C 686.13618,415.16751 683.32206,415.1482 683.35527,413.65728 C 682.92588,413.57882 682.91756,413.85056 683.30718,414.47568 C 682.67482,414.15747 682.07106,413.62885 681.66395,413.00218 C 680.79787,414.19498 679.68364,412.65972 680.40304,411.5771 C 680.95351,410.75002 682.59531,409.93265 681.41425,408.40824 C 681.99994,409.9737 678.64002,412.85087 679.8713,413.72436 C 680.60372,414.25408 681.30796,413.56631 682.01958,414.38591 C 683.17148,415.76362 683.29695,415.37873 684.79215,415.76362 C 685.40345,415.9214 686.1553,417.21697 686.77304,417.65005 C 687.80484,418.37079 687.78891,418.76725 687.2886,419.63791 C 685.96944,421.93464 683.74819,418.4263 682.55782,416.76559 C 682.91571,418.29035 684.72153,420.58264 686.17683,421.32777 C 687.96497,422.24305 688.01995,423.61255 686.03012,423.28301 C 686.22649,423.57757 686.41523,423.87545 686.59526,424.17665 C 685.6179,424.90511 684.53018,423.16561 683.71743,422.47008 C 684.97448,424.01308 688.71874,426.31693 686.18775,427.33909 C 684.40002,424.42928 682.66268,424.65933 679.89834,423.68928 C 680.31802,424.23981 682.03043,424.36726 682.80769,424.84761 C 683.87899,425.51036 686.17747,427.14215 685.48771,428.39197 C 685.81609,427.84651 686.45173,427.89938 687.05108,428.47293 C 686.55376,427.16691 687.96471,427.60014 688.7396,427.81502 C 689.71682,428.08722 689.72457,428.83942 689.98145,429.74849 C 690.32255,430.95215 690.54619,432.12111 690.78756,433.31709 C 691.09836,434.85118 692.41928,436.50096 692.38755,437.99246 C 691.9424,436.69656 691.50815,435.35135 690.79858,434.09443 C 690.1102,432.87446 690.67286,431.61079 689.47732,430.49529 C 689.54336,430.92858 689.61193,431.80036 688.92133,430.98021 C 689.3492,432.56174 690.82656,434.19968 690.52002,435.73951 C 690.41377,435.10856 690.09958,434.5445 689.57517,434.04739 C 689.51601,434.91609 688.93624,435.01792 688.17969,434.28925 C 688.41181,434.5736 688.62503,434.87021 688.8184,435.1757 C 688.33286,435.57509 687.77228,435.49455 687.1363,434.934 C 688.37339,436.57138 686.46111,435.31108 685.853,435.01457 C 686.14845,435.26968 686.43033,435.53705 686.69962,435.82003 C 686.00324,436.02244 685.61925,436.91002 684.63664,436.38358 C 683.59307,435.8245 683.6314,434.56129 683.9141,433.88613 C 683.61124,434.25566 683.31161,436.8642 684.10554,437.29774 C 684.8106,437.68312 685.37475,436.80162 686.03992,437.03071 C 686.58188,437.2173 688.72227,436.35787 688.94579,437.50106 C 689.09407,438.28276 688.99558,439.411 688.65911,440.00098 C 689.28048,439.76346 689.37831,439.16445 689.3637,438.48705 C 689.34333,437.596 690.35363,437.85064 690.72121,437.26869 C 691.65005,438.51719 690.79582,439.3965 690.96003,440.56286 C 689.65773,439.75007 689.45591,441.61577 689.06989,442.23824 C 688.35603,443.39226 686.22806,442.73468 684.94022,442.00666 C 685.01932,441.72492 685.12175,441.45761 685.24716,441.20361 C 684.68771,441.35289 684.40767,441.80622 684.77103,442.48648 C 683.61833,441.9688 682.43942,442.10352 681.31075,441.36403 C 682.04322,441.97882 686.25475,443.52129 684.85099,444.16739 C 684.3151,444.41419 684.92972,445.21765 684.49097,445.62422 C 683.52071,446.5258 682.82954,446.43256 681.33752,445.44983 C 681.75486,446.5591 682.59018,446.95752 683.54024,446.8299 C 684.18386,446.74334 686.03897,445.78414 686.00867,446.80882 C 686.2924,446.61016 686.60322,446.45032 686.94081,446.32821 C 686.72924,447.03519 686.27743,447.93146 685.67984,448.32507 C 685.34091,448.54788 682.97861,448.36055 683.72601,448.96349 C 682.45903,448.75736 680.74293,448.56451 680.08449,449.40224 C 679.63627,449.97596 678.64053,450.95675 678.55207,449.28259 C 678.267,449.64371 678.48237,450.30038 678.48813,450.77525 C 678.49334,451.28427 677.50809,451.49004 677.1775,451.7179 C 675.73424,452.70859 675.25898,454.42855 674.76275,456.12779 C 674.74236,455.60608 674.63761,455.07758 674.44748,454.53895 C 674.67611,457.6191 671.64039,456.62946 669.4586,457.38001 C 666.98515,458.23371 666.01164,460.78203 664.95673,463.01985 C 664.39747,462.44889 664.41029,461.82499 664.84413,461.43822 C 664.08333,461.96451 665.23704,463.67618 664.27554,463.88905 C 663.75686,464.00315 664.08853,464.39366 663.82561,464.72596 C 663.35823,465.31581 663.01568,464.70951 662.54131,465.07354 C 662.03742,465.46049 660.22591,468.96176 659.2901,466.80916 C 660.09926,468.58551 658.73866,468.82943 657.74612,469.46911 C 657.12529,469.87028 656.64256,470.26043 655.73387,470.09324 C 655.34696,470.0222 653.08391,470.09433 655.11256,470.43198 C 652.94358,470.90937 656.80487,470.61443 654.674,471.61154 C 656.45358,471.42592 653.83762,472.9975 653.63925,471.13982 C 654.01109,473.26255 652.72067,470.82308 652.51915,470.35331 C 652.73072,471.05463 653.15231,471.72071 653.35614,472.42034 C 653.6081,473.28981 652.16961,474.62202 652.78829,473.02586 C 652.10377,474.89334 652.15086,475.57634 650.18813,476.24272 C 650.3618,476.50289 650.5326,476.7641 650.70398,477.02744 C 650.30907,477.33535 649.82034,477.38757 649.23766,477.18412 C 649.28936,477.47677 649.39271,477.76284 649.5486,478.0456 C 649.80409,477.95316 650.05215,477.84876 650.29277,477.73239 C 650.37035,478.69901 649.57386,479.10659 648.69654,479.06529 C 649.77875,479.5988 649.7154,481.04091 648.81295,480.31459 C 649.41091,481.59766 648.61055,481.09085 647.60691,480.86181 C 648.23807,481.06045 648.79024,481.42512 649.26338,481.9557 C 648.75401,482.66721 647.86324,482.58046 647.78283,483.66997 C 647.71915,484.44574 646.92731,486.40201 647.70797,487.17545 C 648.03476,487.44688 648.0686,487.69124 647.80782,487.90529 C 647.18211,488.42086 647.7394,488.59484 648.05348,489.44612 C 648.66459,491.10318 648.68693,493.03997 649.04046,494.71728 C 649.80245,498.325 651.47488,501.95864 653.38851,505.31846 C 654.33028,506.96932 654.30063,507.32968 654.18512,508.89434 C 654.06689,510.43634 654.87481,511.84907 655.35499,513.38118 C 654.4009,511.79894 653.76745,510.10861 654.07319,508.48834 C 654.42065,506.63028 652.72366,507.06343 652.31805,505.53788 C 652.93164,508.3569 653.86745,511.04254 655.17692,513.74776 C 655.88782,515.21552 657.53445,518.22208 656.76321,519.58657 C 659.12525,519.23597 658.3606,529.84417 658.10996,530.99688 C 657.6623,532.88039 657.07751,536.82663 655.43885,537.85967 C 654.89227,538.20496 654.9156,536.73604 654.32501,537.81651 C 653.90382,538.58597 652.97681,537.82282 652.29946,538.08917 C 651.16751,538.5344 649.27517,537.94916 650.34915,536.49481 C 650.67104,537.03623 651.1924,537.45957 651.77635,537.63226 C 651.96558,536.80451 650.45964,535.96274 650.04146,535.34094 C 649.12174,533.97339 649.42674,532.48039 647.6713,531.52388 C 646.62703,530.95885 645.66278,530.87857 645.26984,529.57994 C 644.88206,528.29951 645.2755,526.50175 643.61256,525.77117 C 644.43082,525.46299 644.67106,524.52965 645.30755,524.01672 C 644.59024,524.25625 644.32511,525.19394 643.62422,525.48735 C 643.03675,525.73305 642.91372,522.11855 643.2249,521.65062 C 642.78947,522.00927 642.28809,521.9838 641.72162,521.57421 C 643.06875,522.82713 641.42941,523.09543 640.53162,521.57421 C 639.70599,520.175 639.7867,517.75747 638.1446,516.83109 C 639.28981,516.75131 640.94966,513.97258 640.00793,512.76721 C 639.79333,512.94097 639.58511,513.12005 639.38016,513.30445 C 639.30184,512.6414 638.77925,512.11571 638.16462,511.84587 C 637.92542,512.39297 638.00784,512.8429 638.65093,513.24263 C 639.2196,513.59645 638.40713,514.74592 638.25971,514.99298 C 637.78594,514.41681 637.31631,513.66252 637.73802,514.99298 C 636.10118,511.85761 638.45345,508.87832 638.5127,505.97342 C 638.53415,504.93737 638.3219,504.00784 637.88774,502.95781 C 637.14891,501.17028 636.59088,501.73879 635.27872,500.68315 C 633.37058,499.14791 632.35236,496.91571 631.03352,494.99076 C 630.39359,494.05603 629.18638,493.03135 628.14475,492.70151 C 626.62496,492.21958 626.03693,493.70376 624.65844,493.55508 C 625.15542,494.74205 624.04451,494.461 623.23469,495.06719 C 622.91895,495.30294 621.50816,496.43278 621.47567,495.41488 C 620.60163,496.24022 619.26947,496.50055 617.97227,496.50055 C 618.51633,495.45362 617.56405,494.07973 616.40549,493.55508 C 616.91998,493.62296 616.7806,493.3385 615.98718,492.70151 C 617.18978,493.51198 617.28599,492.49884 616.25828,492.39318 C 614.70748,492.2336 615.53645,491.13771 616.33406,490.91543 C 615.61503,490.94564 614.89676,490.97909 614.1741,490.99312 C 614.43562,491.24992 614.69447,491.50884 614.95064,491.76987 C 613.56921,492.15596 610.72592,490.39521 609.31047,489.74959 C 609.48692,489.77766 612.16371,490.14908 611.86559,489.64916 C 611.57784,489.16745 610.65704,488.85308 610.20573,488.75908 C 609.39721,488.59052 608.83129,489.29491 608.21888,489.5606 C 607.17459,490.01305 605.5511,490.01629 604.33228,489.98282 C 605.00581,489.90832 605.60931,489.70099 606.14312,489.36188 C 605.45745,489.14692 605.08942,488.62401 605.38962,488.03825 C 605.10742,488.47921 604.86362,488.94599 604.6582,489.43856 C 604.62274,487.28684 603.80087,489.32623 603.48893,489.7809 C 603.02267,490.46214 602.36258,490.81183 601.43208,490.7611 C 601.96385,490.61109 603.20522,489.90832 602.18303,489.12856 C 601.95854,490.896 599.88982,491.84106 598.06754,491.1485 C 599.88457,491.79576 598.12454,487.55392 597.64374,486.71467 C 597.44315,487.62312 597.18099,488.65643 596.86231,489.50228 C 596.6194,490.14692 595.44942,489.77118 594.91854,490.12209 C 594.63281,490.31102 592.984,490.36607 593.09296,490.09942 C 592.69108,491.08268 591.53254,489.45152 590.90828,489.74959 C 591.25035,489.86081 589.0241,490.38658 588.54334,490.44487 C 587.32849,490.59274 587.33912,491.33083 586.23812,491.75693 C 584.25541,492.52256 582.96111,489.95043 581.03985,489.99145 C 580.36093,490.00549 578.54098,492.02224 579.84526,492.67672 C 580.703,493.10679 582.00002,493.04752 582.7046,492.73062 C 583.28107,492.47081 584.69658,492.61635 585.03444,492.23683 C 584.8541,492.59479 583.39753,493.31156 583.73015,493.86752 C 584.57277,495.27172 584.96038,494.4793 585.42464,493.77164 C 586.03512,492.84273 587.51751,494.04418 587.16154,495.0758 C 586.85918,495.95296 584.98175,495.23512 585.64572,496.73503 C 584.53953,496.34995 584.60208,497.09744 585.0424,497.90588 C 585.75417,499.21021 586.70843,499.33049 587.95096,499.68486 C 588.55656,499.85772 588.98142,500.68315 589.50529,501.14024 C 590.03059,501.59936 588.74969,502.3929 588.9248,502.99639 C 587.84994,501.77526 587.29142,502.96531 586.7341,503.53647 C 587.01718,502.95245 587.29684,502.35752 587.41648,501.68302 C 586.68831,501.59293 586.79192,501.20139 586.39863,500.7529 C 586.15724,500.47602 584.23286,499.8341 583.90735,499.82981 C 584.26504,498.83534 581.04372,497.37914 580.77086,497.69735 C 580.61799,497.87686 581.63458,499.02976 581.66395,499.4411 C 581.75205,500.63915 581.6342,501.69589 580.45486,501.99296 C 580.15322,500.87522 580.24551,500.53934 579.00029,500.29356 C 577.00594,499.89959 578.19322,501.38162 576.91378,501.67659 C 574.90476,502.13879 572.0124,499.60433 572.71451,497.51031 C 572.45532,498.44749 571.17795,498.01765 570.46937,497.44043 C 570.00797,497.06411 569.6046,496.51023 569.64315,495.96264 C 568.85106,495.8389 567.59296,496.51346 568.25609,495.18668 C 567.31821,495.19745 565.28325,496.1122 566.55107,497.4329 C 565.06951,497.18669 564.00914,497.92737 562.38731,497.51998 C 560.47997,497.04045 558.64961,495.90776 556.74607,495.34276 C 557.38401,494.59668 557.57287,493.89553 556.86937,492.78344 C 556.76445,493.59818 557.08742,495.58816 556.15155,495.82706 C 555.27642,496.04979 553.58798,496.26712 552.58732,495.80662 C 552.87261,495.11348 553.64848,494.60099 553.32775,493.63589 C 552.41969,494.17559 551.7023,495.29648 552.83425,496.50378 C 550.16517,496.87914 547.55633,497.81237 545.71612,499.52164 C 546.15875,498.62692 547.11299,498.04237 548.0255,497.6651 C 547.19396,497.50601 546.47121,497.7425 545.77977,497.97466 C 546.12527,497.30604 546.49421,496.49195 546.00675,495.57417 C 545.37123,495.72376 545.43416,496.38653 544.92726,496.65867 C 544.44431,496.91786 544.13617,495.86149 543.76429,496.50378 C 543.44374,497.05873 544.51579,499.14684 545.30307,499.36701 C 544.33811,500.68636 543.11341,501.55753 542.22338,502.95459 C 541.00785,504.86349 537.73631,504.51229 536.72776,506.31258 C 537.18688,506.15852 537.645,506.00445 538.10421,505.85037 C 537.06511,506.54578 535.94944,507.17036 534.74346,507.62155 C 535.19682,507.05487 535.92659,506.79072 536.31396,506.15852 C 535.83813,506.29974 535.38563,506.47946 534.95648,506.69767 C 535.92246,505.96165 533.44116,506.15959 532.95889,505.3099 C 533.21721,505.84287 533.21046,506.30509 532.93903,506.69767 C 532.60823,504.40627 530.54081,508.0395 533.2531,507.92834 C 532.55653,508.83558 531.24377,509.23083 530.22601,507.77442 C 530.63867,509.0439 529.2156,511.82561 529.11523,510.15772 C 528.87361,511.3637 527.1643,510.11715 527.0782,511.5408 C 527.73689,511.71894 528.22012,511.56533 528.52804,511.07988 C 528.83099,513.45685 526.45344,513.03478 524.90188,513.53784 C 525.20916,513.57727 525.51392,513.60285 525.81592,513.6135 C 525.71598,514.18778 526.23846,514.5638 526.53189,515.05261 C 526.8868,515.64456 526.10699,516.93428 525.94504,517.38101 C 525.51001,518.57817 523.91979,518.6547 522.95693,517.29274 C 523.44769,517.84678 523.56015,518.38153 523.2953,518.90019 C 524.08343,519.07872 524.9125,519.25191 525.50908,518.82474 C 525.51508,519.6588 525.45744,521.05732 524.74617,521.47763 C 524.15371,521.82889 525.25111,523.60966 525.39623,524.17358 C 525.83162,525.86436 525.73724,529.35901 527.38204,530.7254 C 527.58209,530.50671 527.77072,530.27955 527.94739,530.04179 C 528.34993,530.84794 526.63095,531.60519 526.11543,531.68228 C 525.0973,531.83432 523.93341,529.9657 522.72078,529.9657 C 521.72862,529.9657 520.45939,530.23517 519.4173,529.66344 C 518.20039,528.99533 516.58162,527.46802 515.16723,527.2638 C 512.71565,526.91138 512.3523,525.27551 511.45838,523.01059 C 510.85823,521.48931 510.11158,520.17819 509.84022,518.60899 C 509.724,517.93397 509.87157,517.30231 509.6984,516.61832 C 509.44771,515.62859 508.08167,515.28366 507.44411,514.47859 C 506.45452,513.22984 506.01446,511.75734 504.8634,510.59431 C 503.72704,509.44551 503.10285,508.21905 502.47561,506.82173 C 501.8793,505.494 501.65762,504.13745 500.9988,502.81204 C 500.6708,502.15273 500.13635,501.65621 499.79212,501.02222 C 499.37277,500.24955 498.25487,499.75787 498.00245,499.05876 C 497.53245,497.75647 495.62696,497.33184 495.13978,495.95081 C 495.08537,495.80016 492.6247,495.47408 492.39374,495.43963 C 489.83738,495.06504 487.28664,494.97138 485.44946,496.31553 C 483.4523,497.7769 483.98458,501.43525 481.78097,502.8517 C 480.80131,503.48183 478.95637,501.9833 477.92082,501.37625 C 476.98621,500.82801 476.01919,500.37191 475.08859,499.80941 C 474.37667,499.37882 473.50988,498.18745 472.79324,497.93597 C 471.27474,497.40387 470.38471,495.20821 470.08574,493.89014 C 469.88352,493.00009 470.1148,492.30476 469.73187,491.38909 C 469.39039,490.57223 468.91759,489.80574 468.76436,488.96328 C 468.47638,487.3874 467.02695,486.79689 465.7645,486.03085 C 463.99822,484.96128 462.24333,482.63576 460.7912,481.06805 C 459.58603,479.7661 458.63306,480.02027 457.62647,478.25437 C 456.49116,476.26014 453.84215,476.8751 452.44088,476.8751 C 450.18332,476.8751 447.93547,476.97412 445.63265,476.83375 C 443.07578,476.67812 443.37891,477.99014 443.21967,479.94207 C 443.01975,482.41453 437.56019,481.10061 435.51669,481.10061 C 431.36272,481.10061 427.23291,481.50868 423.02495,481.30357 C 421.05564,481.20807 418.85841,479.9399 416.83745,479.16418 C 414.05419,478.0967 411.25147,477.24396 408.46069,476.21659 C 403.20367,474.28198 397.94505,472.1748 392.68333,470.04515 C 392.67329,469.2417 393.1605,468.74083 393.39164,468.07569 C 387.10831,468.28576 381.11989,469.15859 375.04035,469.80908 C 374.27172,467.9575 374.20409,466.22426 373.53773,464.39037 C 372.72371,462.15015 370.89222,461.29426 369.02234,459.69874 C 367.07723,458.05971 367.47979,459.00768 365.73195,458.42972 C 364.5394,458.03658 365.54412,455.22986 362.62883,455.33909 C 360.84213,455.4075 359.90443,454.85906 358.28992,453.29981 C 356.58347,451.65154 354.64557,451.93025 352.89431,451.57079 C 351.74593,451.33516 348.72602,452.00545 348.17802,449.79988 C 347.83396,448.41154 348.70479,447.12174 348.14497,445.6953 C 347.60856,444.32637 346.01683,444.56091 346.23257,443.02512 C 346.36859,442.06455 344.68271,440.89831 343.69609,440.14816 C 342.72402,439.40765 342.3796,438.4491 341.90488,437.45973 C 341.19959,436.01573 338.72031,434.58256 338.51962,433.28124 C 338.20557,431.23943 338.45561,431.25177 339.1934,429.85407 C 340.05825,428.21767 338.49626,427.83976 336.82829,426.90916 C 334.34984,425.52726 335.38305,424.22064 334.29521,422.50171 C 333.65185,421.48488 333.75079,419.19416 334.82967,419.13641 C 335.06945,419.68431 334.74423,420.22859 335.07259,420.76472 C 335.486,421.43967 336.5205,421.97644 337.12833,422.4746 C 336.81915,420.26592 334.49086,417.777 336.51983,416.60565 C 333.09836,414.02108 335.53324,418.94845 333.96211,418.6268 C 332.95533,418.42063 330.72982,415.76589 330.3792,417.25892 C 330.60912,416.59544 330.45035,414.56999 331.7694,416.36058 C 331.39566,415.60241 331.00236,414.82107 330.23159,414.23135" id="path3804"/>
</svg>