<svg fill="#fff" height="407" viewBox="-140 -430 3053 1838" width="774" xmlns="http://www.w3.org/2000/svg">
<path xmlns="http://www.w3.org/2000/svg" d="M 1487.7912,73.909674 C 1489.7244,73.045186 1492.4012,72.855469 1494.1186,71.086461 C 1495.3969,69.769337 1494.0687,68.455723 1496.0893,67.933603 C 1497.8416,67.480372 1502.1671,67.456602 1501.4026,63.670392 C 1502.736,64.49938 1504.1384,65.539908 1505.8363,64.981336 C 1507.4977,64.436799 1507.1441,62.777062 1506.2563,61.807896 C 1507.6424,62.163254 1509.4881,62.499843 1510.6287,63.471208 C 1510.9694,63.762577 1512.6385,62.557149 1512.8532,61.807896 C 1513.1923,60.61576 1514.659,61.105607 1515.2567,61.005454 C 1514.9782,60.606477 1514.7026,60.205284 1514.4254,59.80373 C 1515.8844,59.105725 1517.5717,60.394782 1518.6319,61.196466 C 1520.1967,62.379662 1522.1265,61.75605 1523.7082,62.74011 C 1522.7953,66.358149 1516.7332,64.31161 1515.8531,62.473961 C 1515.5324,62.863889 1515.2694,63.306999 1515.0655,63.803133 C 1516.2833,64.510423 1517.6303,64.907788 1518.7681,65.789573 C 1518.0201,66.050106 1517.2793,66.358149 1516.543,66.713605 C 1517.5649,66.618356 1518.5452,65.762043 1519.5619,65.886832 C 1520.7024,66.024426 1521.7813,66.414967 1522.9445,66.45162 C 1522.6589,66.951643 1522.3567,67.434658 1522.0353,67.898896 C 1523.4124,66.83264 1525.4849,65.837287 1526.3581,67.635764 C 1525.2943,68.327986 1524.807,68.579775 1526.1552,68.949909 C 1524.2346,69.306995 1525.4663,69.827552 1526.1669,70.129423 C 1525.2386,70.872344 1522.3599,70.848749 1522.8444,73.000022 C 1524.1703,70.445629 1526.8492,71.463644 1527.4864,68.030404 C 1528.7553,68.67644 1530.3723,68.026752 1531.768,68.074232 C 1533.3091,68.127185 1534.6892,69.046495 1536.1604,69.374373 C 1539.5855,70.138512 1542.9779,68.683734 1546.2495,70.556431 C 1549.8962,72.645787 1553.7939,74.331407 1557.6308,75.95171 C 1560.9158,77.337367 1563.1702,80.788224 1566.6771,81.635052 C 1566.4012,81.237568 1566.1139,80.855741 1565.8162,80.484276 C 1568.2835,82.56713 1571.5217,85.22226 1575.0172,84.690292 C 1574.8697,84.210665 1574.7032,83.74292 1574.5166,83.292395 C 1575.9193,83.95302 1577.2326,85.268031 1578.1389,86.665475 C 1579.1576,88.239133 1580.8873,87.959122 1582.2183,88.948938 C 1583.4169,89.844333 1584.1326,89.240602 1584.2624,91.4408 C 1584.3134,92.310834 1584.513,95.227509 1585.1481,95.449965 C 1588.2543,96.538392 1585.42,100.65021 1583.1774,102.75647 C 1579.805,105.91564 1577.1799,107.69413 1573.3296,108.77844 C 1569.1254,109.9627 1565.46,110.6241 1561.4464,110.09672 C 1556.9758,109.51012 1553.1476,107.578 1548.5425,107.32209 C 1544.6472,107.10479 1541.2866,106.23977 1538.0586,104.14451 C 1537.3653,103.69525 1534.0612,104.32918 1533.9958,104.10892 C 1533.4134,102.12738 1530.7534,103.47981 1531.452,101.28625 C 1530.5158,102.697 1529.4472,102.47263 1528.6715,101.5401 C 1528.1442,100.90608 1526.2994,101.86872 1525.466,101.47878 C 1524.7662,101.1516 1519.4622,97.35659 1522.385,97.219171 C 1520.9284,97.291321 1519.3344,97.167629 1518.0828,96.476457 C 1516.9009,95.82395 1515.3322,96.737908 1514.0539,96.476457 C 1515.7533,97.468214 1517.8894,97.059375 1519.3769,98.577954 C 1519.0004,99.04547 1518.6129,99.49716 1518.2144,99.933066 C 1519.2474,99.719434 1523.4183,102.11207 1520.9397,101.77509 C 1522.1975,102.3417 1523.9104,101.92319 1524.8973,103.12166 C 1523.8482,102.52023 1522.7377,103.85805 1521.6361,103.61044 C 1523.0573,104.07672 1525.1628,102.73778 1526.1591,104.34273 C 1525.0192,103.92247 1523.6125,103.8377 1522.36,104.58829 C 1523.5389,104.93695 1526.3228,105.37666 1527.5849,105.07397 C 1527.7116,107.09805 1526.0884,106.71883 1525.0502,107.14186 C 1528.3324,107.35745 1532.232,107.99864 1534.7498,110.26253 C 1535.3377,110.79141 1538.7007,115.53904 1536.1198,114.72778 C 1537.0928,117.1033 1533.0254,118.40745 1533.6387,119.42708 C 1534.2454,120.43655 1537.354,121.96359 1535.6889,123.85366 C 1537.048,124.08701 1536.6913,126.43447 1538.0183,126.54979 C 1537.5928,126.80146 1537.1733,127.07411 1536.7612,127.3677 C 1537.0687,127.63359 1537.3712,127.90582 1537.6698,128.1844 C 1537.3287,128.57773 1536.9835,128.96431 1536.6361,129.349 C 1537.8321,129.86581 1538.9006,130.80612 1539.9915,131.52761 C 1541.34,132.41691 1542.5662,130.80773 1543.973,131.74323 C 1544.4885,131.925 1544.8693,132.28834 1545.1155,132.83131 C 1545.6928,134.1608 1545.8512,132.55508 1546.4896,133.06087 C 1547.6873,134.0038 1548.2738,135.69322 1549.7011,136.28874 C 1551.4403,137.01433 1553.377,137.21987 1555.1367,137.91721 C 1556.809,138.58031 1557.4493,136.88044 1558.6757,137.03505 C 1563.1608,137.5989 1559.7755,133.92368 1561.1223,132.25298 C 1559.9127,131.76897 1559.2569,130.5853 1557.7077,131.12028 C 1556.5104,131.53405 1555.0961,131.70945 1554.2759,130.73844 C 1552.5209,128.65862 1550.1428,127.19903 1548.9532,124.44417 C 1551.122,124.58274 1551.3359,123.93852 1552.4283,122.02255 C 1553.4502,120.23777 1555.3738,121.59002 1556.4059,121.85711 C 1559.1246,122.56108 1560.4365,126.40685 1563.7812,125.26526 C 1563.1291,125.97781 1562.2917,126.3971 1561.5186,126.31912 C 1561.5329,128.57287 1563.4947,126.45721 1564.8583,126.30937 C 1567.0155,126.07535 1569.0081,126.92157 1570.7534,127.91068 C 1572.4099,128.85111 1573.2943,128.73466 1575.2499,128.20059 C 1576.5388,127.84912 1579.0793,128.89477 1580.2194,129.35223 C 1579.854,126.91833 1578.9484,124.80763 1577.6721,123.05331 C 1576.814,121.87022 1573.7135,120.00275 1573.9087,118.12543 C 1574.1106,116.1653 1577.119,115.2472 1578.2385,114.47702 C 1580.287,113.06652 1581.8578,111.39997 1584.1042,110.79309 C 1586.3162,110.19554 1588.1811,109.57216 1590.1033,107.51067 C 1591.6738,105.82613 1593.22,104.04452 1595.0774,104.79311 C 1596.9661,105.55075 1597.9154,105.64538 1600.0078,105.76363 C 1601.3419,105.83795 1604.0956,106.38151 1603.9856,108.47776 C 1603.1688,108.67431 1602.3994,109.11756 1601.6804,109.80686 C 1601.9075,110.17377 1602.1959,110.45507 1602.5468,110.65088 C 1602.818,108.95978 1604.577,108.79524 1605.4647,108.99503 C 1607.1351,109.37091 1607.2176,111.56536 1608.1942,112.81496 C 1607.2172,110.41322 1607.2645,104.14281 1611.03,102.75987 C 1609.588,102.24476 1610.6509,99.811734 1610.022,98.583094 C 1608.914,96.393865 1607.116,96.827321 1605.4398,95.825673 C 1604.2691,95.125733 1605.4801,93.026892 1606.1347,91.809146 C 1606.643,90.8634 1607.2124,89.887927 1607.5278,88.861579 C 1607.9188,87.591362 1606.8893,86.826931 1608.5832,86.723395 C 1607.9422,86.034929 1607.5415,85.259229 1609.0819,84.949303 C 1607.4746,84.683242 1609.3579,82.292657 1608.3093,81.289047 C 1606.5599,79.614015 1603.8293,78.483314 1601.6747,77.536007 C 1603.3952,75.619476 1605.9098,77.695217 1607.2605,78.195749 C 1610.036,79.225531 1613.8893,77.711313 1616.9269,78.083176 C 1619.8303,78.440459 1621.0749,79.631828 1622.9937,81.615541 C 1624.7408,83.421412 1627.3246,84.394109 1627.6089,87.729743 C 1623.9565,88.989117 1620.6859,87.628151 1617.0123,89.116622 C 1617.0343,89.577458 1617.0552,90.036115 1617.077,90.496084 C 1615.7292,90.894722 1613.3857,91.935918 1614.295,93.952932 C 1615.0319,95.593043 1617.2043,94.985971 1618.4073,95.858404 C 1619.531,96.675998 1619.6994,98.577954 1620.6646,99.591211 C 1622.0271,101.01863 1624.6613,100.03045 1626.5005,100.17906 C 1626.1252,100.60584 1625.7379,101.01522 1625.3415,101.40722 C 1626.7889,100.19785 1628.8112,100.39933 1630.2968,100.09878 C 1631.2384,99.907435 1633.2225,100.19955 1634.0752,99.686954 C 1636.2665,98.370601 1634.418,97.145293 1635.1831,95.503409 C 1636.0075,93.726343 1637.4904,92.126883 1635.9701,90.995636 C 1637.1687,89.863515 1637.9443,91.221746 1639.3986,90.114549 C 1640.9294,88.948938 1644.6836,89.432621 1645.683,90.368939 C 1644.8846,89.085186 1643.9367,87.652675 1642.675,86.970793 C 1645.8625,87.90135 1648.5173,85.811669 1651.9152,84.739638 C 1654.3221,83.979497 1657.4464,80.733137 1660.1459,80.48961 C 1661.5775,80.359797 1663.1588,80.782893 1664.6939,79.740472 C 1666.1571,78.747506 1668.2348,77.911583 1669.4735,78.536879 C 1670.6413,79.125685 1669.2158,79.884697 1669.3134,81.113286 C 1669.418,82.45736 1672.7142,80.0182 1673.4351,79.845529 C 1672.8686,78.761782 1672.0661,77.705948 1670.7636,77.790001 C 1674.9774,73.101183 1682.8917,72.151936 1687.0261,72.350987 C 1684.6854,73.961961 1682.6974,72.739794 1680.4418,73.521846 C 1681.3675,74.008834 1682.5275,73.94934 1683.4561,74.430477 C 1680.49,74.774357 1682.6394,79.0169 1682.7872,79.845529 C 1681.2814,81.390213 1678.3545,79.252271 1677.4771,82.273173 C 1679.1493,82.703422 1683.039,83.534494 1685.0081,81.379565 C 1684.2671,83.651083 1686.1796,82.188139 1687.1244,81.674073 C 1688.2409,81.06534 1688.547,83.727026 1690.0202,83.037793 C 1691.0481,76.134787 1702.241,76.55631 1704.9879,77.600413 C 1705.88,77.940186 1706.7666,78.394027 1707.9266,77.965213 C 1709.118,77.525272 1710.1916,76.080948 1711.3356,76.063001 C 1712.0577,76.052232 1713.1716,75.985818 1713.375,74.822948 C 1713.663,73.158979 1716.2243,75.382278 1716.3612,75.466748 C 1716.195,75.062229 1716.0639,74.632155 1715.9683,74.171049 C 1718.3864,72.059619 1720.6059,72.80848 1722.8858,72.349178 C 1720.1178,72.660251 1724.2231,75.067625 1724.7728,75.723661 C 1721.2136,76.796498 1722.1369,80.068032 1724.2147,80.550059 C 1725.0419,80.742022 1727.4369,81.714864 1728.5083,80.11074 C 1729.263,78.981228 1727.9435,77.57 1727.4299,77.272925 C 1729.0023,75.398454 1737.0741,77.115364 1736.2096,71.285971 C 1735.9579,69.507279 1733.9462,71.291411 1733.5243,69.252357 C 1733.0735,67.083425 1731.4082,66.053774 1730.157,64.731225 C 1731.2837,63.211029 1731.5284,64.22322 1732.6393,63.539457 C 1733.0205,63.493344 1733.3989,63.447226 1733.7783,63.406638 C 1734.0469,62.841722 1734.3525,62.294591 1734.6973,61.763457 C 1736.3043,60.470929 1737.5923,61.051824 1738.7606,61.502286 C 1740.7026,62.24835 1742.9941,62.314935 1745.2118,62.398153 C 1749.155,62.547907 1753.1328,62.727176 1756.7014,63.764421 C 1760.4226,64.841585 1763.5208,67.043162 1767.2026,68.161875 C 1764.8479,68.809548 1765.733,71.574202 1766.9737,69.740227 C 1768.1454,68.00301 1772.1609,70.3348 1773.3888,70.521922 C 1770.6068,70.452895 1775.1683,72.233376 1775.797,72.414303 C 1777.4386,72.88619 1779.0528,73.437022 1780.7703,73.759992 C 1784.638,74.486308 1786.8911,78.401171 1790.5163,79.744033 C 1790.7381,79.825944 1794.928,85.285634 1795.1967,80.839751 C 1795.2652,79.665671 1796.6272,78.140359 1797.3319,77.072383 C 1798.8142,74.821148 1797.0295,73.740152 1798.8105,73.520041 C 1798.2158,72.423348 1796.8235,73.550719 1795.745,73.520041 C 1794.4678,73.483948 1793.8821,72.372696 1793.1316,71.566954 C 1792.4616,70.846934 1791.7641,70.151237 1791.1834,69.319743 C 1790.3975,68.192912 1791.2926,66.574387 1791.031,65.128395 C 1789.3942,66.376478 1787.6596,65.396656 1786.6054,64.915143 C 1785.363,64.344751 1782.9685,61.839372 1781.8049,64.468091 C 1780.1243,63.908191 1781.2197,61.007309 1781.6041,59.001396 C 1782.0877,59.075919 1785.0077,59.310587 1784.8175,57.620444 C 1784.7147,56.701777 1784.1674,56.473217 1783.7128,55.961335 C 1783.3226,55.523983 1784.0655,53.35141 1784.0714,52.68089 C 1784.0919,50.214689 1785.658,46.938169 1782.2684,48.028667 C 1780.8268,48.490812 1777.9162,47.355565 1781.0498,45.376017 C 1778.1237,46.178919 1781.9096,41.468546 1783.8563,40.905421 C 1786.3467,40.181957 1789.5858,38.791804 1792.0672,36.237269 C 1795.3563,32.839427 1795.3158,27.044195 1797.2297,23.162069 C 1798.0639,21.510457 1799.4397,19.737228 1800.846,18.72649 C 1802.0485,17.861282 1804.8007,18.315705 1802.0377,19.085571 C 1805.5179,19.986947 1809.5734,19.052755 1813.5745,18.732648 C 1815.7026,18.562228 1817.7177,18.636154 1819.1792,19.657367 C 1820.3895,20.504297 1822.394,19.806838 1823.8578,20.256954 C 1825.9957,20.914828 1828.2155,24.705724 1826.603,28.59094 C 1825.9856,30.127771 1824.7412,32.712597 1823.4393,33.925772 C 1822.5551,34.747025 1823.1119,35.816532 1822.0916,36.90485 C 1821.2296,37.821996 1820.1211,37.853315 1819.276,38.256343 C 1819.4836,44.101322 1827.6166,41.751764 1826.5238,48.628213 C 1826.3367,50.237501 1825.8497,50.873844 1826.2471,52.164548 C 1826.7112,53.674024 1824.7172,53.632532 1824.4367,55.268503 C 1824.0421,57.551283 1826.6414,59.628867 1825.7311,62.111448 C 1824.9503,64.226903 1825.5381,64.331863 1825.6967,65.919858 C 1824.6624,68.055971 1826.2963,67.533394 1824.8712,69.434459 C 1822.3019,72.850048 1828.815,75.608697 1829.8657,76.240652 C 1830.7001,76.740943 1831.9802,76.868172 1832.4928,77.788213 C 1833.3748,79.371695 1831.8676,79.938103 1830.595,81.635052 C 1829.5817,82.982965 1829.4015,83.336582 1829.6796,84.346491 C 1830.1085,85.901337 1828.797,87.969625 1829.2213,89.111383 C 1825.5068,89.753647 1824.6312,93.984058 1821.751,95.232684 C 1821.901,95.672322 1822.0807,96.085744 1822.2865,96.474736 C 1821.6656,96.294048 1820.9533,96.374935 1820.1464,96.722431 C 1822.7431,97.51114 1817.3245,99.348352 1816.5408,99.461245 C 1814.2948,99.784388 1811.6173,101.54861 1809.2675,102.20394 C 1806.8914,102.86691 1806.4222,100.89926 1804.4487,100.8191 C 1802.3307,100.73381 1800.1968,99.777551 1797.6986,100.91461 C 1799.6263,101.84489 1799.417,104.41557 1801.9717,104.81511 C 1804.4193,105.19913 1806.5124,106.2347 1809.0105,106.51478 C 1811.6497,106.81324 1814.5902,106.19926 1817.0906,106.83178 C 1818.3507,107.1486 1819.2159,108.33995 1820.6812,108.27608 C 1821.5801,108.23741 1823.4803,106.79638 1823.6552,105.67579 C 1824.1286,102.61202 1825.8705,103.70882 1827.9482,102.27707 C 1830.1364,100.76622 1832.9601,101.11069 1834.7044,98.084278 C 1836.5146,95.049818 1835.6855,92.971448 1839.3458,91.188706 C 1845.2496,88.307361 1841.5434,83.333048 1839.9226,81.65279 C 1838.6859,80.372246 1839.6047,79.642516 1839.7537,77.555688 C 1839.9535,74.687961 1843.6021,74.803152 1845.1507,74.385448 C 1848.2569,73.54711 1852.7901,71.744519 1855.1748,72.768716 C 1856.6247,73.388286 1857.0803,75.931962 1858.4942,76.862797 C 1860.2088,77.993812 1861.5801,78.033134 1861.5747,80.907261 C 1861.5695,82.241287 1861.3928,83.659914 1861.2336,85.060266 C 1861.1045,86.201867 1861.6385,88.193642 1860.0321,87.470466 C 1860.9904,93.101386 1870.0072,90.055289 1874.0215,91.240874 C 1873.5905,90.701536 1873.0508,89.535581 1871.8908,90.283576 C 1870.6701,91.070437 1871.2345,89.924542 1870.476,89.861771 C 1868.1814,89.669921 1866.195,89.083439 1864.0144,88.700799 C 1862.7702,88.482261 1862.693,85.547843 1863.6506,83.864754 C 1864.4816,82.402465 1867.3861,82.754743 1867.2215,81.65279 C 1867.0275,80.363354 1865.9773,79.820602 1865.4746,78.813531 C 1864.5094,76.880714 1865.3331,74.279162 1863.2216,73.427997 C 1861.1815,72.600584 1859.3309,71.93288 1857.4989,70.794294 C 1855.8822,69.789349 1853.0441,70.056701 1851.137,69.31428 C 1848.8988,68.439301 1846.8174,69.700198 1844.0166,70.429279 C 1841.2825,71.140881 1838.1753,71.307731 1835.8075,71.055619 C 1834.0832,70.872344 1835.4032,67.343217 1834.7785,65.954717 C 1833.826,63.834468 1832.3631,63.449071 1833.5506,59.861383 C 1833.9833,58.544665 1834.2368,57.263308 1835.0458,55.935069 C 1835.7374,54.794719 1837.8285,53.011557 1838.17,51.94875 C 1838.7155,50.245105 1836.9504,48.733143 1836.382,47.984718 C 1834.0047,44.868138 1831.9246,41.412267 1828.2746,39.796376 C 1829.3657,38.932395 1830.684,37.966829 1831.5982,36.6988 C 1832.2272,35.8244 1832.5509,34.482666 1833.3903,33.81114 C 1836.2015,31.565374 1838.8026,32.220759 1841.5457,30.775523 C 1847.0485,27.869466 1842.8007,21.587904 1841.9249,19.964438 C 1847.1325,17.1838 1850.5113,24.831059 1847.3608,30.410916 C 1845.2529,34.178641 1845.2598,34.674048 1846.2948,36.72628 C 1846.7749,37.67907 1847.5754,39.862612 1845.3351,39.51573 C 1845.8527,42.158798 1849.4932,42.100675 1851.6961,42.455104 C 1853.7366,42.782154 1858.4722,41.122993 1858.2865,44.402048 C 1861.3096,38.463574 1869.4335,52.189149 1874.4061,45.233718 C 1872.4608,46.363104 1871.4222,45.652786 1869.7404,46.063763 C 1869.9901,45.556706 1870.2402,45.050968 1870.4927,44.5427 C 1868.3107,45.475982 1868.8941,43.271287 1868.2747,42.152986 C 1867.7462,41.194845 1865.2446,42.79376 1866.0556,40.501058 C 1862.9043,43.437424 1859.5521,40.195582 1857.8845,39.435789 C 1856.6705,38.881632 1855.1993,38.735164 1854.0271,38.109655 C 1852.3311,37.20883 1852.1418,34.579355 1851.3096,32.726471 C 1854.3199,32.032196 1857.4292,30.620157 1859.6812,31.726339 C 1861.9975,32.863203 1863.7329,35.735874 1867.9373,32.726471 C 1867.921,30.709798 1866.4131,29.658749 1864.5168,30.08987 C 1863.3862,30.347126 1860.4593,31.296957 1862.4691,28.566911 C 1863.5492,29.894326 1867.557,26.456835 1869.3824,26.191033 C 1871.2922,25.914975 1874.2992,25.900864 1876.5399,26.416573 C 1878.8271,26.943681 1880.563,28.244393 1882.8993,28.68904 C 1884.1276,28.921183 1885.3889,29.125198 1886.4302,29.658749 C 1886.9146,29.9063 1889.1735,31.958732 1886.658,31.15174 C 1888.9049,31.96866 1890.3812,33.823 1892.4582,34.855481 C 1895.0445,36.142935 1898.6011,35.848003 1902.3509,34.859425 C 1902.4984,33.324583 1901.7871,32.476668 1901.0273,31.766074 C 1900.1335,30.930829 1899.9348,30.185612 1899.3554,29.141195 C 1897.831,26.394428 1893.9233,27.122578 1890.9627,26.525271 C 1888.6655,26.06411 1885.9927,24.713811 1887.2694,20.806621 C 1888.4202,17.233262 1886.919,14.700553 1884.0162,14.926589 C 1886.7592,14.876831 1884.605,12.995815 1883.8601,12.979146 C 1884.8576,12.405703 1888.7965,9.88273 1886.0382,10.573243 C 1890.0443,6.830616 1896.8132,7.99575 1899.716,7.99575 C 1904.9644,7.99575 1910.6036,8.230031 1916.4902,6.866618 C 1918.8951,6.307134 1920.0248,7.569025 1922.196,7.36394 C 1923.922,7.203176 1926.1549,5.143093 1928.0854,4.943056 C 1930.3192,4.710962 1934.2141,6.29865 1936.869,4.482986 C 1936.4553,3.951918 1936.2447,3.234086 1936.253,2.328397 C 1936.9907,2.328397 1937.7297,2.328397 1938.4674,2.328397 C 1936.1791,1.993821 1935.1274,0.199932 1933.06,-0.382713 C 1931.4165,-0.847338 1928.3915,0.083478 1928.281,-2.331629 C 1929.0895,-2.286035 1929.7876,-2.075507 1930.3786,-1.706837 C 1930.2047,-2.590104 1929.7159,-3.111962 1928.9159,-3.270843 C 1930.2557,-3.016232 1932.084,-3.745728 1933.101,-2.964026 C 1933.5292,-2.729193 1933.8035,-2.329457 1933.9213,-1.76103 C 1934.1193,-1.024701 1936.2138,-2.522752 1936.8541,-2.490167 C 1936.7554,-3.462465 1935.782,-3.634575 1935.0277,-3.808948 C 1934.5406,-3.920155 1930.8338,-4.966308 1933.9821,-5.156646 C 1932.4859,-5.344896 1930.8772,-5.333949 1929.4763,-5.682243 C 1928.7999,-5.851036 1928.1104,-6.07256 1927.6928,-6.597308 C 1926.3072,-8.341771 1930.5918,-7.754923 1928.369,-9.117636 C 1931.5186,-9.875249 1931.1544,-4.533499 1934.9834,-6.577534 C 1934.871,-7.525742 1934.7297,-8.849981 1936.0925,-7.845314 C 1935.4691,-9.73335 1939.0248,-11.386472 1937.0915,-11.83888 C 1938.6379,-12.354402 1938.9803,-11.039205 1940.1054,-10.874595 C 1941.8255,-13.853959 1935.6982,-12.542053 1935.4165,-14.091796 C 1938.7496,-15.274421 1939.9772,-12.392371 1943.3095,-13.699229 C 1945.9194,-14.725325 1948.909,-18.264745 1951.2328,-18.155713 C 1948.4754,-18.59887 1953.4741,-18.391992 1953.9958,-18.482912 C 1955.1001,-18.669373 1958.5571,-19.003895 1958.2801,-20.619676 C 1963.6536,-21.382308 1969.2847,-22.427132 1974.4856,-22.864392 C 1978.9712,-23.239969 1983.8029,-23.316057 1989.7191,-26.269152 C 1987.8332,-25.792573 1986.3599,-25.871568 1984.9379,-26.10169 C 1984.2417,-26.213322 1979.1835,-26.159827 1981.7803,-25.432686 C 1980.7863,-25.233174 1979.415,-26.862925 1981.9622,-28.070048 C 1984.7226,-29.380223 1985.4589,-26.755734 1988.5635,-28.116834 C 1987.7291,-28.119173 1987.1226,-28.40003 1986.7404,-28.960117 C 1992.319,-27.721701 2001.1732,-31.181737 2005.4043,-28.116834 C 2003.9743,-27.271033 2002.524,-26.264499 2001.0536,-25.101006 C 2002.4394,-25.321316 2004.0247,-25.79025 2005.6465,-26.443681 C 2007.7322,-27.287367 2007.4599,-25.597489 2008.7613,-25.432686 C 2010.0936,-25.265645 2012.4251,-27.063418 2013.5846,-26.604328 C 2014.582,-26.210996 2016.3756,-26.562413 2018.079,-27.2757 C 2017.6076,-27.667962 2017.039,-27.948435 2016.3718,-28.114494 C 2016.9763,-28.357886 2022.4581,-28.273615 2019.4926,-29.295689 C 2026.8198,-31.635445 2028.2119,-28.374275 2033.4123,-27.780123 C 2033.704,-32.58745 2026.9563,-30.309178 2026.9875,-34.92483 C 2031.0594,-34.204199 2035.1823,-33.199913 2041.0461,-35.135119 C 2042.6663,-35.668628 2043.6647,-33.992135 2045.2041,-34.11602 C 2047.8898,-34.332935 2049.4607,-33.036001 2051.9952,-33.036001 C 2050.9681,-33.506579 2041.7897,-35.297709 2042.6209,-36.303775 C 2044.536,-38.634654 2043.2448,-38.934476 2042.4115,-39.321763 C 2040.919,-40.012796 2042.7965,-43.616128 2044.3304,-42.584113 C 2044.3312,-43.145047 2044.3669,-43.736467 2044.4326,-44.351163 C 2046.2811,-45.581754 2048.1003,-46.690766 2049.9512,-47.915815 C 2049.4907,-48.212252 2048.9849,-48.44911 2048.4341,-48.631241 C 2050.4638,-47.943205 2055.2705,-51.774547 2058.1076,-52.408159 C 2061.5474,-53.17482 2064.8254,-54.128923 2067.1685,-53.438417 C 2069.4896,-52.754558 2071.9755,-52.408159 2074.1411,-51.487211 C 2076.6081,-50.438487 2080.4483,-51.086908 2081.1102,-48.095138 C 2079.4515,-48.506482 2076.754,-46.735408 2074.3939,-45.898208 C 2071.0204,-44.705782 2068.8672,-45.515044 2065.2791,-43.996949 C 2069.8859,-44.208445 2073.9253,-43.579299 2079.1544,-44.703318 C 2078.0143,-43.186728 2076.6156,-42.224568 2075.5898,-42.053501 C 2080.4724,-42.66978 2087.2661,-44.614626 2090.1038,-42.481344 C 2092.107,-40.975487 2084.6261,-34.793469 2083.0228,-35.094484 C 2084.5077,-33.78259 2088.3269,-34.998893 2090.9927,-35.14229 C 2092.2853,-35.211622 2096.2943,-35.675811 2095.8912,-38.380994 C 2099.674,-38.922381 2102.3595,-38.081694 2106.2423,-38.704748 C 2109.7678,-39.270905 2112.4618,-38.569408 2115.7385,-38.774858 C 2118.176,-38.927219 2130.3856,-37.992441 2126.454,-32.865052 C 2129.6167,-35.23075 2130.8864,-33.247439 2131.3218,-32.106363 C 2131.6034,-31.354166 2132.6529,-29.302733 2131.7043,-27.777786 C 2134.1866,-29.864362 2135.1169,-29.370829 2136.0372,-28.957772 C 2135.5697,-29.732681 2134.5746,-30.010214 2134.3231,-30.990518 C 2138.1522,-32.201102 2136.4768,-27.84323 2137.268,-26.099365 C 2137.7855,-24.964254 2139.2226,-26.050538 2140.0331,-25.263325 C 2140.7972,-24.514992 2139.3005,-22.282271 2139.146,-20.784424 C 2134.9853,-20.775269 2134.3514,-25.641606 2129.053,-24.429377 C 2129.9978,-23.369099 2132.2815,-23.659822 2132.2919,-21.538252 C 2132.3255,-19.514273 2135.1704,-21.687384 2136.4188,-21.04773 C 2137.3695,-20.555629 2141.3573,-17.826559 2136.7663,-14.484807 C 2134.5501,-12.879632 2132.7378,-11.361974 2130.7403,-10.68339 C 2129.9333,-10.410101 2128.4781,-10.718955 2127.4004,-9.653556 C 2126.5745,-8.838925 2125.7362,-7.437635 2124.7491,-6.898454 C 2123.4155,-6.169108 2123.3583,-7.805627 2121.804,-6.993027 C 2118.1193,-5.073497 2116.6244,-4.695195 2113.5366,-4.059757 C 2113.6782,-3.708673 2113.7997,-3.342689 2113.9054,-2.961851 C 2111.5414,-1.76103 2110.1677,-2.17533 2108.1301,-1.55514 C 2108.903,-1.074464 2110.5872,-1.724178 2110.9484,-0.775985 C 2107.5837,3.056549 2104.0635,2.201894 2100.7145,4.785503 C 2099.0966,6.035567 2098.939,7.154511 2097.0763,7.583821 C 2095.1271,8.03164 2093.1922,7.957745 2091.0932,8.744514 C 2089.8311,9.216207 2087.5432,10.392866 2086.3617,12.071666 C 2085.105,13.849133 2083.4756,12.893705 2082.7007,13.022901 C 2080.6619,13.362351 2079.852,15.556299 2078.9273,17.033317 C 2077.4839,19.323409 2073.711,20.659574 2072.5275,20.698383 C 2074.6976,21.369791 2077.7682,20.271267 2081.5987,17.595784 C 2081.0775,17.1838 2081.9306,14.918296 2083.3935,14.854023 C 2084.8159,14.791813 2085.8676,15.158707 2087.4117,14.984631 C 2089.4412,14.756556 2090.9559,15.229144 2093.048,14.932808 C 2093.8358,14.820845 2099.5929,14.059049 2097.4133,13.274914 C 2098.7433,13.124975 2100.1854,12.797823 2101.5239,12.637269 C 2102.9851,12.462043 2105.8752,10.520817 2106.7771,11.170391 C 2106.2116,10.893935 2105.7682,10.491455 2105.4483,9.96255 C 2108.4231,11.32738 2113.3093,9.228834 2118.3301,7.382973 C 2118.2352,3.137842 2106.0265,11.860654 2108.2835,5.398304 C 2109.8168,4.970727 2109.8681,4.150358 2111.2465,3.234086 C 2113.233,1.931591 2115.5041,2.771885 2116.4618,3.095059 C 2116.931,3.251193 2118.873,5.311127 2120.3955,3.321753 C 2121.8418,1.478493 2122.8107,2.098945 2123.1171,2.784731 C 2119.3,3.311063 2124.1996,7.213755 2125.1401,7.461211 C 2126.8695,7.915512 2130.4333,8.833001 2134.0543,6.007975 C 2133.7025,5.321759 2133.572,4.431832 2133.6498,3.398712 C 2135.184,4.647058 2137.6439,5.852996 2137.7109,8.396682 C 2137.7426,9.69782 2135.3571,10.996582 2137.0285,11.835576 C 2138.6584,12.651868 2138.6173,13.443524 2141.6882,12.370225 C 2139.5467,12.918714 2138.2171,11.71643 2137.9282,10.260675 C 2148.5343,7.425266 2157.2366,7.454868 2164.9072,8.689725 C 2168.39,9.249877 2180.2563,6.052545 2179.1513,11.013338 C 2177.9232,11.124329 2177.3941,10.287956 2175.3151,11.766601 C 2174.7837,15.396897 2178.3269,16.176715 2181.341,16.465901 C 2185.6999,16.884838 2189.6322,17.811901 2194.0212,18.173883 C 2197.6884,18.473908 2202.1294,18.13071 2206.312,17.805728 C 2208.1212,17.667836 2209.1634,18.55812 2211.1785,18.14099 C 2214.9808,17.350707 2212.1526,15.363766 2215.2486,14.466082 C 2213.6689,13.892788 2211.671,11.11386 2215.2402,7.226449 C 2215.419,8.177278 2215.7099,9.329831 2217.9993,7.833145 C 2218.0497,7.287797 2218.0438,6.779783 2217.9874,6.309255 C 2218.8919,7.448525 2221.7028,6.400439 2223.1719,6.919556 C 2225.1017,7.602843 2227.3592,7.666243 2228.5772,9.05834 C 2229.0113,9.422387 2229.5825,9.647374 2230.2947,9.729345 C 2230.8936,9.828107 2229.7721,11.258313 2230.3208,11.314823 C 2232.1343,11.501037 2235.9605,8.814041 2236.8936,10.107443 C 2233.4679,11.067791 2235.4968,11.839755 2236.2641,11.93588 C 2237.4864,12.086286 2239.4329,11.339936 2240.8037,11.314823 C 2240.7423,10.923265 2240.6967,10.520817 2240.6642,10.107443 C 2243.7882,8.801401 2245.6643,10.680171 2247.8017,10.761918 C 2248.9945,10.808024 2249.9616,11.651616 2250.7533,12.831176 C 2251.68,14.219006 2254.5731,13.541325 2255.6978,14.764852 C 2255.9588,15.050955 2254.7384,16.058913 2254.8171,16.412212 C 2254.9551,17.037441 2257.2829,15.214643 2257.4029,16.253164 C 2255.3684,17.978537 2253.5969,18.50472 2252.3013,18.625887 C 2253.6175,19.700371 2256.4749,19.259863 2258.1783,19.952159 C 2256.5789,20.733104 2255.8957,20.328516 2254.4902,20.837248 C 2255.9005,20.9679 2257.0601,21.353478 2258.3851,21.569563 C 2257.0553,22.493715 2256.2057,22.341196 2255.6844,22.156061 C 2255.722,22.552673 2255.8317,22.894051 2256.0135,23.180336 C 2253.5545,24.570237 2252.7849,23.811056 2251.4478,23.764445 C 2251.8544,25.594346 2255.4365,24.4084 2257.2139,24.930087 C 2258.9796,25.447053 2258.6326,27.855425 2260.3868,28.406686 C 2259.1662,28.989199 2257.302,29.880355 2259.4274,29.70268 C 2253.6722,32.627361 2252.8817,28.91318 2249.9899,28.262429 C 2249.3054,30.837254 2253.0825,37.33036 2257.6276,34.13519 C 2257.2314,33.231557 2256.6582,32.472702 2256.2583,31.565374 C 2257.942,32.260446 2258.8885,33.720202 2259.4244,35.411116 C 2258.9033,34.605003 2256.8914,35.708329 2255.7064,35.694555 C 2254.5206,37.259799 2255.691,37.349958 2256.5033,37.418545 C 2258.1261,37.555684 2258.4728,38.668749 2258.8841,39.903518 C 2259.8325,42.774416 2263.475,43.10895 2265.1902,45.256797 C 2266.5652,46.98031 2269.4779,47.162235 2271.0201,48.767478 C 2273.5953,51.177439 2276.746,43.269354 2279.743,42.441552 C 2278.0146,42.133612 2279.5879,37.855273 2281.2885,35.393395 C 2284.6527,30.47071 2285.5558,34.963909 2286.2863,35.546955 C 2288.417,37.244117 2289.6066,39.303171 2293.0826,39.749615 C 2294.9609,39.991158 2300.6987,38.672656 2299.2711,41.744007 C 2299.7091,40.705232 2300.6072,38.469438 2302.146,38.660934 C 2303.3731,38.813287 2306.5807,36.951932 2308.1816,36.757682 C 2309.9686,36.539778 2311.3024,36.867572 2312.5214,37.257839 C 2317.4286,38.830862 2320.2462,42.313755 2325.2616,43.694229 C 2325.2541,42.65446 2323.7235,42.996823 2323.1486,42.443488 C 2324.0475,42.278895 2324.7961,42.278895 2325.3938,42.443488 C 2325.256,42.137487 2325.1442,41.811875 2325.0583,41.466605 C 2326.1305,41.088034 2327.008,40.946224 2327.6909,41.045302 C 2325.6497,39.977527 2323.7308,41.414208 2325.8085,37.393071 C 2327.0816,37.302921 2329.0293,36.545668 2328.5328,38.097918 C 2331.3641,35.062454 2332.5717,37.847443 2332.9188,38.430346 C 2333.9891,40.230616 2338.585,37.786758 2340.2074,38.942157 C 2339.5313,36.074137 2338.0345,33.429459 2335.3061,32.282271 C 2336.0011,32.310048 2336.7621,32.26243 2337.5848,32.141375 C 2337.4562,31.475922 2337.9649,30.369055 2339.3489,29.127198 C 2339.7118,29.626796 2340.5443,29.580858 2341.8483,28.985199 C 2341.1122,28.444746 2339.8475,28.520853 2338.328,28.839148 C 2337.1844,29.079204 2333.3166,28.71106 2335.0074,29.848419 C 2334.2589,29.554892 2332.9281,26.21319 2336.9687,24.88967 C 2339.0377,24.218157 2340.1261,24.806804 2341.5329,24.841165 C 2343.4923,24.88967 2346.7188,23.438018 2348.6513,23.474527 C 2347.034,23.652963 2347.7877,21.653111 2347.0273,21.098509 C 2346.288,20.555382 2345.2281,20.228326 2345.4765,18.921461 C 2349.0029,19.56315 2351.6124,21.426879 2355.748,21.426879 C 2360.5301,21.426879 2364.9942,21.744789 2369.1897,22.306617 C 2376.8396,23.330502 2388.9447,22.048194 2392.1073,26.965796 C 2388.6751,27.122578 2384.9485,27.192909 2382.4146,26.418587 C 2380.9514,25.973426 2378.1791,23.571866 2374.2163,28.266437 C 2373.9566,27.727022 2373.2959,27.582521 2372.2378,27.833358 C 2372.4211,29.287136 2373.8784,29.24116 2376.1922,28.466778 C 2379.5401,27.345586 2382.6345,27.650764 2385.302,27.42391 C 2389.4125,27.076354 2395.2367,26.390401 2386.1332,33.567934 C 2385.5599,32.68683 2389.2276,29.065204 2387.4168,29.129197 C 2386.851,29.654755 2386.2919,30.181623 2385.741,30.709798 C 2386.0869,29.3431 2385.1927,28.005844 2383.4519,28.40869 C 2384.4733,28.588937 2382.8326,30.163673 2383.2078,30.753616 C 2383.6291,31.408322 2385.0222,31.255188 2384.1229,32.857259 C 2382.1939,32.546073 2379.7968,32.710615 2378.1204,32.145344 C 2378.1436,32.896884 2380.4359,34.500427 2377.6351,34.849566 C 2377.6871,36.56334 2385.2095,36.390515 2389.2655,32.379481 C 2392.3574,29.295132 2394.0369,27.11454 2396.9549,26.967806 C 2399.9013,26.819008 2402.5768,27.010023 2405.0413,27.361654 C 2409.5126,28.003839 2413.1998,29.141195 2416.0838,31.207446 C 2416.4094,31.442123 2417.2517,34.352397 2414.6226,34.610921 C 2412.9703,34.772663 2412.9206,33.443309 2411.4797,33.425502 C 2409.2287,35.745711 2409.6236,34.642486 2408.1947,34.703635 C 2405.3126,39.424089 2416.7953,34.099636 2416.1966,37.310761 C 2415.7562,39.617096 2418.0358,38.058791 2420.1844,38.520252 C 2422.5681,39.035855 2420.8415,40.423251 2416.8249,42.302136 C 2418.0718,42.214977 2420.1461,41.57332 2421.8929,40.86267 C 2425.0267,39.587859 2426.4853,40.473827 2427.9468,40.934566 C 2430.2262,41.650913 2432.9708,42.747332 2432.3376,45.635493 C 2430.8319,46.059924 2430.0274,45.769974 2429.0854,45.635493 C 2432.5968,47.852845 2438.2579,48.666372 2446.0349,46.878782 C 2454.6171,44.902786 2463.0936,43.269354 2468.8442,44.180379 C 2474.7396,45.110611 2481.0631,45.664314 2486.0345,47.359393 C 2488.2981,48.129923 2489.8261,49.51835 2491.5582,50.854862 C 2493.4238,52.298894 2492.6188,55.155744 2493.2623,57.369918 C 2492.6461,57.244602 2491.9502,57.199704 2491.1747,57.235248 C 2491.6677,57.457805 2492.9874,57.19222 2492.8271,57.95488 C 2492.6877,58.621131 2490.9955,60.218292 2491.1819,60.665882 C 2491.7948,62.12255 2493.5313,62.33158 2495.3777,62.705002 C 2497.3496,63.105807 2499.2268,63.532079 2500.4915,64.54171 C 2502.035,65.778561 2506.5185,63.537612 2509.3488,63.506256 C 2512.0966,63.478586 2514.9302,63.34206 2517.5988,63.397413 C 2520.3017,63.45276 2524.4677,62.152153 2526.0443,63.255325 C 2529.119,65.409514 2535.9753,63.985587 2539.9034,65.354406 C 2541.6981,65.978566 2545.6311,67.156621 2550.9498,63.17042 C 2555.3736,59.833487 2556.4763,65.890501 2556.422,67.088915 C 2556.2272,70.899568 2563.0735,69.279677 2565.2046,71.295038 C 2566.1842,72.224328 2565.2611,74.495312 2566.6351,75.153951 C 2568.544,76.068385 2573.2426,74.378243 2574.9007,75.578154 C 2574.3198,75.319364 2574.3207,74.570941 2575.0699,73.505604 C 2575.324,73.922295 2575.4913,74.398057 2575.5705,74.932709 C 2575.6478,74.257542 2575.6146,73.651759 2575.4745,73.115632 C 2576.3203,72.627706 2577.1625,72.151936 2578.0046,71.68111 C 2578.1909,68.851479 2576.2255,67.509626 2575.1457,65.516036 C 2574.5951,64.503061 2573.2153,64.593236 2571.6563,64.457047 C 2570.1668,64.328181 2572.6916,62.044833 2574.3554,61.92638 C 2574.327,60.127233 2574.5716,58.025845 2573.0773,57.235248 C 2579.1248,56.735489 2582.787,58.798255 2588.1131,59.031207 C 2589.942,59.111314 2591.3654,59.366442 2592.2162,60.261027 C 2592.7465,60.819928 2593.6414,62.8565 2596.4854,61.124151 C 2595.8815,60.69187 2595.2125,60.31119 2594.5507,59.922747 C 2597.1376,59.548853 2597.7567,60.90528 2599.8344,60.990615 C 2601.9118,61.075934 2604.2457,60.920122 2606.3386,60.990615 C 2610.8892,61.144549 2615.5798,60.391067 2618.5796,61.931933 C 2621.5061,63.434312 2625.6262,63.983744 2628.6672,65.378287 C 2631.541,66.697121 2638.0242,65.16699 2638.7463,68.147269 C 2637.9055,67.917163 2637.3883,67.427344 2636.3487,67.357849 C 2635.4007,69.849381 2640.443,68.017621 2641.4814,69.070183 C 2642.7227,70.331165 2645.1131,70.757987 2645.7102,72.46495 C 2644.7929,72.041516 2644.2209,71.358499 2643.1737,71.030219 C 2647.879,73.424387 2654.7745,74.221505 2658.0171,77.773907 C 2657.5083,77.387483 2656.8894,77.086711 2656.1581,76.871755 C 2656.6247,78.527952 2659.2687,78.374382 2660.4984,79.434069 C 2661.2241,80.059134 2661.272,82.464442 2664.3076,81.109735 C 2663.007,80.297545 2661.5572,79.594421 2660.2205,78.802825 C 2662.573,79.423377 2664.0786,80.694039 2665.8503,81.746785 C 2664.1763,81.132818 2664.8982,82.664485 2665.7699,82.430799 C 2667.7516,81.899267 2667.5626,83.060783 2668.212,83.591025 C 2668.7963,84.065978 2670.6353,83.666979 2671.413,84.037741 C 2672.5658,84.588059 2673.3202,85.421156 2674.5255,85.929465 C 2676.8927,86.928691 2679.8874,87.463457 2681.6152,88.920985 C 2682.1544,89.378514 2681.885,94.445535 2684.1264,93.354234 C 2684.2453,92.995706 2684.3169,92.662925 2684.3411,92.355943 C 2686.303,92.728806 2685.4331,94.882419 2685.2202,96.61236 C 2685.0978,98.718426 2686.7218,99.719434 2686.7172,101.75977 C 2685.0977,100.98794 2686.3133,103.3152 2687.1107,103.46963 C 2688.8811,103.81057 2687.4586,106.49622 2689.7438,106.39669 C 2692.2237,103.4849 2691.9227,108.23573 2692.2722,108.45759 C 2693.1432,107.11659 2694.0513,105.85146 2693.6674,105.14839 C 2693.1491,104.19873 2690.5265,104.71864 2690.473,103.47302 C 2696.0194,100.82763 2688.3244,97.322239 2687.77,97.203709 C 2690.0861,96.885774 2692.9233,96.780897 2694.7478,96.870302 C 2695.4671,96.904684 2695.326,97.572947 2695.9404,97.698254 C 2696.7616,97.868141 2698.2736,97.392656 2698.9421,97.698254 C 2696.4963,97.698254 2696.9118,100.34469 2698.4661,99.917688 C 2698.7566,99.450983 2699.0153,98.99754 2699.2337,98.562534 C 2699.4,99.878385 2701.9636,99.423617 2704.189,99.05574 C 2703.2398,98.336319 2701.0301,98.60708 2700.1655,97.820098 C 2700.6876,97.789211 2704.9824,98.315749 2702.3106,98.315749 C 2705.1915,98.699585 2709.6162,98.211172 2710.7809,99.898891 C 2711.5554,101.02033 2711.9676,102.25837 2713.365,102.93316 C 2714.2484,103.35932 2721.6845,105.4392 2718.1502,108.0945 C 2719.9005,107.19576 2720.9217,107.22777 2721.3511,107.60157 C 2721.604,107.81865 2722.4777,109.21824 2720.4561,108.82043 C 2721.3949,109.39104 2723.1072,109.26187 2723.0652,110.5103 C 2717.6511,112.40988 2720.1494,113.82879 2717.7092,116.0262 C 2714.5527,115.92681 2714.0557,113.86871 2711.5493,113.27634 C 2712.0162,114.79253 2716.954,114.35076 2714.4183,117.57415 C 2713.3809,117.54112 2713.1428,116.9198 2712.1391,116.86027 C 2710.8684,116.78586 2708.6619,117.56094 2707.4288,117.45359 C 2710.9183,116.6436 2706.5304,116.61052 2705.9185,116.19179 C 2704.8139,115.43625 2703.8848,114.51688 2701.2411,114.95021 C 2702.5793,115.59872 2704.3871,115.94007 2704.2566,117.56424 C 2704.2061,118.15182 2706.5506,117.30821 2706.2684,117.91093 C 2705.7598,118.9908 2705.5374,119.92383 2705.6774,120.65497 C 2705.2319,120.18847 2704.1743,120.16875 2702.4993,120.77317 C 2704.3234,121.11286 2706.7261,120.81749 2705.5172,123.26086 C 2705.2078,123.88304 2704.5537,124.54688 2703.5808,124.71964 C 2701.9089,125.01776 2700.7645,124.68053 2698.9708,126.29962 C 2701.1283,125.1692 2703.0549,125.98432 2699.7369,127.81833 C 2702.7476,126.83392 2704.8627,129.2876 2704.679,130.72877 C 2701.8997,131.64348 2703.1039,129.04353 2700.251,130.14823 C 2701.3934,130.16759 2701.1535,131.21208 2700.1799,132.46671 C 2695.0129,134.2585 2698.9783,129.00796 2697.0391,128.2864 C 2697.7805,132.0858 2693.5442,131.36987 2692.2719,129.95943 C 2690.4534,127.94956 2685.4798,127.9771 2684.5763,125.36292 C 2685.0867,127.29797 2681.6908,125.73552 2681.2623,125.45895 C 2680.0387,124.67238 2679.1076,123.86019 2678.8015,122.42691 C 2678.2613,119.35467 2676.0078,117.01073 2671.9394,116.47815 C 2671.0101,116.35568 2670.3362,116.02785 2669.2549,116.02785 C 2668.2067,116.02785 2666.2171,117.25038 2664.8839,117.5758 C 2662.2642,118.2145 2659.2171,118.09903 2658.1442,117.40734 C 2657.134,116.75609 2658.7441,114.47037 2657.374,114.04496 C 2655.7836,113.55264 2655.7234,111.98946 2654.8378,110.99546 C 2656.627,111.26294 2659.2134,106.28196 2657.2166,106.40175 C 2656.8945,107.10479 2656.21,107.91286 2655.1682,108.82378 C 2652.667,109.21657 2654.0207,106.80481 2653.0949,106.03552 C 2653.0866,106.37645 2653.037,106.74075 2652.9448,107.12838 C 2652.2095,107.17218 2651.6209,107.093 2651.1862,106.88404 C 2651.5656,107.46185 2651.8856,108.07937 2652.3744,108.58024 C 2650.3308,109.61408 2648.5824,109.94092 2649.2923,108.58024 C 2646.8705,111.30472 2647.6768,112.81496 2648.5439,113.74563 C 2649.1081,114.35242 2653.5152,115.20075 2651.6284,117.14462 C 2649.2912,119.54226 2644.7112,117.21568 2646.9426,119.83011 C 2646.0614,118.49153 2649.7447,118.4091 2650.152,118.69756 C 2650.5361,118.96774 2649.8052,121.33427 2647.8778,122.25833 C 2646.7321,122.80643 2646.2137,122.50382 2644.8604,123.5206 C 2643.7812,124.33167 2642.9924,125.13827 2641.7699,125.83473 C 2640.5514,126.52705 2635.7288,128.61171 2635.1355,128.52109 C 2635.7672,128.1342 2636.3993,127.74541 2637.0307,127.35473 C 2633.021,127.60765 2628.0486,128.27507 2627.3105,125.76805 C 2626.6266,123.47977 2623.417,121.51462 2618.2915,123.01572 C 2619.2726,122.86694 2619.0702,123.66266 2619.973,123.57286 C 2621.0192,123.4667 2622.3733,123.01081 2623.201,123.1334 C 2624.5888,123.33765 2626.1171,124.28111 2624.9389,126.18262 C 2622.2758,126.98649 2623.3464,124.38548 2620.4779,125.39873 C 2617.7201,126.37111 2617.9364,124.28764 2615.7324,124.66097 C 2617.3859,125.17246 2618.4508,126.14037 2619.1691,127.35311 C 2618.4456,127.76324 2617.7287,128.15201 2617.0157,128.51947 C 2618.154,128.39809 2619.9951,127.3677 2620.683,127.72921 C 2621.0944,127.9447 2621.3301,128.90771 2622.9377,127.86856 C 2627.0979,125.17083 2627.5675,126.97837 2626.6148,128.9158 C 2625.0049,132.15332 2629.1611,133.53093 2632.4073,133.2759 C 2631.794,133.1026 2632.2211,132.41208 2633.6151,131.54049 C 2634.2618,132.86182 2635.3504,133.88842 2635.5914,135.46474 C 2634.7289,134.39781 2634.6416,135.96951 2634.8557,136.19618 C 2635.1925,136.55198 2635.9056,136.62215 2636.3748,136.87566 C 2637.0029,137.21828 2637.0274,138.03335 2637.0925,138.74239 C 2637.1373,139.30931 2637.1441,139.89785 2637.1182,140.50321 C 2636.0673,140.2117 2635.8986,140.36539 2636.6151,140.96076 C 2636.3361,140.52855 2635.6859,139.80271 2633.7476,141.52862 C 2637.1693,140.12454 2634.8691,143.36122 2637.503,142.43855 C 2637.2501,142.0043 2637.1523,141.47328 2637.2106,140.84522 C 2637.3661,142.25858 2638.4447,143.06644 2638.949,144.25409 C 2638.7881,143.83696 2638.3034,143.68578 2637.4833,143.80074 C 2638.902,144.07311 2639.8533,144.73223 2640.936,145.27281 C 2642.1868,145.89761 2640.6366,147.41911 2640.9506,148.48069 C 2641.3236,149.75859 2643.755,149.75547 2643.6113,151.34776 C 2643.5393,152.12754 2641.0312,154.49162 2639.7109,154.58283 C 2640.1916,154.8023 2639.9521,155.4911 2639.1358,156.36099 C 2637.7359,154.55191 2634.047,154.13745 2631.0363,153.54774 C 2629.7028,153.28752 2626.7093,153.85273 2626.5753,152.69076 C 2626.5355,152.35724 2626.4248,149.06148 2625.4936,151.68341 C 2624.0482,151.63214 2624.4423,150.19016 2623.4651,149.77729 C 2623.8173,150.2182 2623.4259,151.03836 2623.2761,151.76263 C 2623.0065,153.03494 2624.4416,152.99309 2625.4416,153.35879 C 2622.4586,153.53071 2620.9837,154.74667 2617.0862,156.60446 C 2615.1938,157.50503 2610.8869,159.14107 2610.1536,158.6868 C 2609.9497,159.08277 2609.7229,159.48767 2609.4702,159.90302 C 2607.3402,160.71145 2606.2559,160.65483 2604.9847,160.56454 C 2605.557,160.74358 2605.7194,161.18406 2605.4729,161.8854 C 2602.906,162.98392 2602.3702,161.9755 2600.5064,162.32505 C 2601.4231,162.86044 2599.4415,163.98307 2598.5067,163.93589 C 2597.7278,163.89632 2597.5759,163.34356 2596.6521,163.42277 C 2596.2204,164.24172 2596.0365,164.95778 2596.1485,165.503 C 2594.7777,165.43013 2594.5121,166.10537 2594.468,166.81168 C 2592.0438,168.03442 2592.6685,166.04622 2590.403,167.03128 C 2591.1319,167.40216 2592.1744,167.5671 2591.8707,168.66451 C 2591.3497,168.51951 2590.826,168.37447 2590.3047,168.22941 C 2590.7991,168.28381 2591.1313,168.92573 2589.6889,169.75093 C 2588.9681,170.16236 2588.1831,169.75093 2587.7753,169.75093 C 2588.5609,170.27384 2588.2999,170.56299 2586.9909,170.61869 C 2587.7285,170.65783 2587.8636,171.19653 2587.5903,171.91807 C 2586.5847,171.90605 2586.2977,171.29429 2585.4332,171.16043 C 2585.6719,171.48975 2586.2075,171.59949 2586.3473,172.00219 C 2586.5756,172.66428 2584.5826,174.18247 2584.59,172.99881 C 2584.0949,173.53099 2580.933,175.60292 2580.4026,175.1547 C 2581.041,176.74591 2576.1141,178.07282 2575.2587,177.73205 C 2574.946,178.6468 2574.8763,178.996 2573.914,178.69734 C 2574.4576,179.22473 2573.7872,183.21425 2571.2348,184.76634 C 2568.9864,182.25874 2568.2581,178.19926 2564.2681,176.97396 C 2562.6335,176.47154 2559.6279,176.49839 2557.1176,176.84578 C 2554.7721,177.16915 2549.9546,179.64187 2549.2721,178.26916 C 2549.2149,178.61113 2549.1276,178.96777 2549.0128,179.33906 C 2548.1726,179.55431 2547.5067,179.58844 2547.0093,179.44446 C 2545.7223,181.03679 2543.329,184.1433 2540.8716,185.48584 C 2537.3093,187.47392 2541.0513,181.55337 2541.108,180.66353 C 2541.1544,179.9386 2541.9458,177.24215 2540.0021,178.11596 C 2538.4731,178.80285 2536.6711,180.65316 2534.6849,181.57852 C 2532.9057,182.40651 2532.5582,182.22326 2531.3269,182.32376 C 2531.8163,182.66504 2533.1965,182.79205 2532.8369,183.70696 C 2532.2673,185.15194 2529.8332,186.39988 2529.2352,185.76371 C 2528.72,185.21961 2528.9231,184.16688 2528.7093,183.42082 C 2528.4662,182.57937 2525.2077,182.86588 2526.4405,183.70696 C 2523.6533,184.99596 2524.3997,182.0784 2520.943,183.70696 C 2521.3112,183.78953 2521.6922,183.8603 2522.086,183.91927 C 2521.1602,184.81786 2520.2622,185.23874 2519.7773,184.97977 C 2517.7908,186.85642 2520.1989,187.15864 2517.8663,188.694 C 2516.8234,189.37848 2518.746,191.17255 2518.4428,191.93891 C 2516.1709,191.43636 2517.6746,194.02946 2517.6288,194.34292 C 2517.2951,193.98737 2516.6394,193.98737 2515.6671,194.34292 C 2516.1969,194.61416 2516.4454,195.12879 2516.3996,195.80373 C 2514.7331,194.47058 2509.5058,203.3826 2509.2872,203.93062 C 2508.4319,206.05987 2508.6273,207.20103 2509.649,208.19818 C 2510.2555,208.77646 2513.1018,208.67703 2511.8673,210.44607 C 2513.2193,208.93409 2512.9212,206.40769 2515.1015,207.58954 C 2516.314,208.24793 2518.5876,208.45683 2518.5588,210.05775 C 2518.5306,211.45129 2517.1541,212.22051 2515.4547,213.80295 C 2514.3002,214.87517 2514.8343,215.59705 2514.9269,216.1327 C 2515.107,217.19998 2514.981,218.44499 2515.0621,219.56615 C 2515.1801,221.25506 2516.1702,220.83355 2517.6959,221.22715 C 2519.0514,221.57591 2520.4606,226.29537 2517.6094,228.20361 C 2514.7274,230.1317 2513.4505,228.02808 2514.0055,226.58351 C 2514.5231,225.23183 2515.8296,225.23183 2516.7673,224.06806 C 2517.443,223.2281 2516.0523,223.56059 2515.3945,224.48351 C 2515.0946,223.83731 2513.6032,224.14172 2512.1225,225.38307 C 2514.6911,226.06532 2509.7394,227.73773 2508.9881,229.39253 C 2508.0817,231.54591 2506.7589,233.65736 2506.6335,235.49604 C 2506.4831,237.61408 2507.3868,238.88205 2508.3066,240.28795 C 2508.7851,241.01913 2509.7583,241.71703 2509.5296,242.89279 C 2509.3502,243.80827 2507.1033,245.15242 2506.3909,246.16371 C 2505.825,245.86681 2504.7326,246.15022 2503.817,246.23657 C 2502.5945,246.35124 2502.6421,245.32804 2501.5997,245.24969 C 2499.4133,245.08351 2497.3641,247.22488 2494.7984,248.8482 C 2491.9305,250.66134 2491.9346,252.5412 2491.7558,254.04398 C 2491.6865,254.62615 2492.9757,258.27492 2491.8195,257.16076 C 2492.3648,258.58177 2494.1114,259.29066 2493.4621,261.4599 C 2492.8363,261.34079 2491.7635,261.04559 2491.9993,260.24548 C 2492.2842,259.28004 2491.1557,260.02942 2490.4237,260.02942 C 2488.7804,260.02942 2485.3416,262.3487 2483.5104,263.55336 C 2483.3516,262.8786 2483.2668,261.81448 2481.8502,262.31565 C 2481.1045,263.3844 2481.9855,263.24576 2482.5809,263.37912 C 2483.1568,263.50716 2482.4387,265.16997 2482.4831,265.75464 C 2482.5275,266.34284 2481.8932,266.95033 2481.9515,267.57444 C 2482.0293,268.43165 2482.6643,269.0494 2482.2287,270.16305 C 2481.2079,272.76706 2479.5677,276.27585 2475.9084,278.58099 C 2474.4119,279.52408 2475.1544,279.76616 2473.8623,280.71957 C 2471.9832,282.10574 2470.5074,283.70872 2468.4794,284.94084 C 2469.4074,283.03462 2468.1117,282.36903 2467.4583,281.41359 C 2466.6995,280.30186 2466.9264,278.53952 2466.9595,276.93715 C 2466.9951,275.1235 2466.587,273.57067 2466.1981,272.02669 C 2466.0021,271.25689 2465.8043,270.48769 2465.6635,269.68109 C 2465.5383,268.97466 2464.5167,268.10751 2466.3864,267.91192 C 2462.1274,267.8699 2463.3281,260.51713 2462.6646,257.5824 C 2461.588,252.90111 2460.6511,248.35188 2459.9313,243.7433 C 2459.2884,239.77516 2459.7843,235.49878 2460.5101,230.70211 C 2460.8383,228.8777 2461.2546,227.01137 2461.7195,225.12081 C 2461.9416,224.21121 2462.1974,223.25314 2462.7631,222.19488 C 2463.0797,221.60101 2465.2009,219.11985 2463.657,221.47409 C 2464.7473,220.16869 2467.8834,216.81398 2468.6861,217.3445 C 2468.895,216.03431 2470.8126,214.0257 2470.7057,212.85335 C 2470.5786,211.50364 2469.1804,210.83984 2469.8466,209.0136 C 2471.5227,208.63726 2471.8652,210.03365 2473.6394,209.42804 C 2474.7368,209.05335 2475.37,207.36187 2476.3504,206.65847 C 2477.0774,207.55681 2480.0208,206.11548 2480.7724,206.96612 C 2479.7983,206.54877 2481.5257,205.24095 2482.9406,204.27952 C 2483.8114,203.686 2484.6989,203.11916 2485.5575,202.49739 C 2486.9376,201.4962 2487.2394,200.41734 2487.77,201.4072 C 2487.487,200.00459 2491.2826,197.8389 2491.155,196.30732 C 2490.9745,194.22249 2495.1918,192.22715 2496.6538,189.88552 C 2497.918,187.85059 2497.7843,189.22351 2499.6681,187.87696 C 2501.6343,186.48505 2502.3057,185.16518 2503.9938,183.70549 C 2504.8381,182.97366 2506.8891,182.10058 2507.432,181.27367 C 2508.1874,180.12102 2507.4335,179.78135 2507.8249,178.80136 C 2509.6658,177.98504 2511.447,177.27194 2513.3392,176.32834 C 2514.1843,175.90603 2515.0496,174.97234 2515.8334,174.61642 C 2517.1328,174.02528 2518.2041,174.13607 2518.5305,174.58351 C 2518.6762,174.78244 2521.4262,173.06179 2521.9439,172.89082 C 2521.1789,172.58174 2519.8822,172.30855 2521.1274,170.74364 C 2522.466,169.05856 2523.9164,169.06309 2523.7727,167.58374 C 2523.655,166.41467 2521.1706,167.30076 2522.4424,165.18717 C 2523.5626,163.54157 2524.5422,162.56153 2524.4448,161.38431 C 2524.3287,160.00566 2523.6789,156.98179 2528.7382,154.67557 C 2531.6825,153.3309 2533.3911,155.44788 2534.1161,156.25156 C 2533.7938,155.63771 2533.1303,155.25953 2533.0559,154.47461 C 2534.3696,154.47461 2535.1169,155.07267 2536.8077,154.69721 C 2534.1619,154.07402 2530.5453,154.21944 2529.1657,152.52635 C 2527.8014,150.85326 2522.5389,152.5946 2518.4991,153.69638 C 2517.5665,155.05567 2518.2008,155.57753 2519.1825,155.69943 C 2516.1698,157.1896 2517.1977,159.5076 2516.8062,160.63188 C 2516.0041,162.89855 2518.6881,162.37846 2518.3253,164.19304 C 2517.8407,164.36493 2517.3491,164.54741 2516.8506,164.74047 C 2516.6309,165.1173 2516.4578,165.48175 2516.3283,165.83385 C 2515.722,165.41799 2515.8692,164.48202 2515.4587,163.94959 C 2515.1187,163.50807 2512.2472,163.91915 2513.735,164.74047 C 2512.4813,164.13219 2509.7937,164.92891 2507.0892,167.79551 C 2504.885,170.1473 2499.5517,172.99281 2499.2519,175.15769 C 2498.5531,174.43689 2496.3272,175.29069 2494.263,176.87559 C 2493.8605,176.3179 2495.2904,174.92599 2494.7464,174.51769 C 2494.2432,174.13757 2496.7229,172.22296 2495.8411,171.61452 C 2494.8031,170.90015 2491.6081,173.72276 2492.4039,171.65811 C 2492.9823,170.15182 2492.5971,169.23512 2492.1499,168.33821 C 2494.2108,169.16873 2492.4029,167.35979 2493.5107,167.35979 C 2492.7243,166.69048 2494.4831,166.15845 2494.9828,165.11274 C 2495.6237,163.9435 2496.3342,162.41508 2496.3061,161.57838 C 2496.2593,160.26297 2494.3087,161.42099 2492.2553,162.8086 C 2488.8759,165.08844 2490.2703,163.11805 2489.3998,162.6927 C 2488.5664,162.28537 2488.7723,161.0235 2487.2226,161.21463 C 2485.6835,161.4057 2483.4743,162.47763 2482.1033,162.46085 C 2481.1163,162.44864 2478.78,163.3329 2478.1644,163.10433 C 2477.0705,162.69575 2475.465,162.64542 2474.1432,162.43644 C 2473.8129,162.83909 2473.4839,163.24148 2473.151,163.6436 C 2471.9674,162.87416 2469.5555,165.85509 2467.7179,166.27065 C 2467.5689,167.0222 2468.4087,168.69018 2466.2466,169.56999 C 2463.5948,170.65031 2462.4186,173.55196 2461.6605,174.77048 C 2461.1566,175.57902 2459.2225,176.9516 2458.1265,177.62785 C 2456.1454,178.84594 2455.149,178.82217 2453.3333,180.71983 C 2451.8848,182.22918 2450.9994,183.75709 2450.7995,184.87527 C 2448.5879,184.3481 2449.4926,187.9927 2449.8768,188.36321 C 2449.1183,187.29504 2447.7834,189.71898 2448.5282,190.02135 C 2449.2112,190.29729 2450.4853,190.02573 2450.9906,190.46806 C 2450.8272,190.2535 2450.7043,190.0082 2450.6244,189.73213 C 2455.1122,186.91071 2455.2763,191.97968 2456.5599,192.56619 C 2452.518,194.65912 2453.023,192.44544 2450.2992,193.08968 C 2449.9055,195.68357 2445.4884,193.3687 2444.9306,193.19287 C 2443.442,192.72328 2443.9608,192.66801 2441.9925,193.71587 C 2440.383,194.5721 2438.7365,195.52863 2439.2636,196.5315 C 2438.6126,195.61696 2435.3392,194.82586 2433.269,195.48952 C 2433.1792,195.83992 2433.0954,196.1858 2433.0165,196.5315 C 2429.2314,196.89147 2426.2685,196.72958 2425.2765,194.34147 C 2426.6361,194.25006 2428.3768,193.57208 2429.6462,193.60985 C 2430.8707,193.64616 2432.0942,194.0135 2434.0212,192.9821 C 2433.6767,191.56167 2430.7167,192.41051 2429.9359,191.22649 C 2428.8947,189.65177 2427.6918,188.07033 2424.3874,188.67498 C 2423.2331,191.35038 2418.3658,187.81249 2417.8737,187.64982 C 2416.2495,187.11317 2414.2488,185.55201 2410.9539,187.14544 C 2407.6027,188.8213 2410.6827,189.18695 2410.7122,190.04325 C 2410.3348,189.12992 2408.1081,190.08414 2407.5447,189.30538 C 2405.4289,191.59372 2409.3274,190.72048 2408.4109,192.56037 C 2407.8473,191.78309 2405.2866,193.03153 2405.014,192.11944 C 2404.5355,190.51914 2402.8004,190.3586 2400.0066,191.19879 C 2399.8799,191.59663 2399.7823,191.98113 2399.7149,192.35085 C 2399.3531,191.56167 2397.602,192.71164 2396.9825,192.10197 C 2396.2582,191.38973 2394.8551,191.01509 2393.3017,191.1711 C 2390.8924,191.41305 2388.7704,188.90176 2388.6686,193.29315 C 2387.9063,192.68401 2385.7285,193.8814 2385.3233,192.87452 C 2384.9454,191.93454 2385.5165,190.82842 2384.1198,190.67234 C 2380.58,190.27978 2375.9917,191.3154 2372.5455,190.77591 C 2371.0215,190.53811 2369.2994,191.20462 2367.4988,191.40722 C 2365.8666,191.59081 2365.337,191.17693 2363.4575,191.69861 C 2361.3967,192.27081 2359.0116,192.87452 2356.7484,194.96792 C 2354.9895,196.59078 2354.7703,198.23711 2352.6571,199.83481 C 2350.8657,201.18608 2348.6648,201.56223 2347.0144,203.16785 C 2345.5576,204.58395 2345.1603,206.41197 2344.8486,207.57104 C 2344.548,208.70686 2343.958,209.66496 2342.4284,209.80253 C 2340.8455,209.94433 2340.1311,211.54891 2338.9426,212.67542 C 2337.4339,214.10463 2336.5793,214.43718 2334.9953,215.33258 C 2333.3745,216.24934 2332.2592,217.75966 2330.6442,218.69569 C 2329.5372,219.33674 2328.2854,221.42945 2327.3583,222.39133 C 2326.159,223.6343 2326.5076,224.11671 2327.0646,224.57796 C 2324.8956,224.69601 2322.2789,228.9564 2320.1186,230.18959 C 2318.9865,230.84947 2317.5003,231.76186 2316.4851,232.69099 C 2315.445,233.64364 2314.4733,233.55584 2313.4264,234.26619 C 2312.327,235.01009 2311.9541,236.15396 2310.9192,236.9834 C 2309.4674,238.14607 2308.0866,238.55776 2306.6239,239.33554 C 2301.9871,241.79981 2304.2109,243.45764 2305.4887,244.04102 C 2307.3171,244.87404 2309.1007,245.18079 2311.8347,244.93757 C 2313.7255,244.76861 2317.709,244.39138 2315.724,247.32459 C 2315.3393,247.89293 2315.8529,248.785 2315.8,249.24745 C 2315.6777,250.28831 2315.4256,251.2326 2314.8999,252.46089 C 2313.9046,254.94775 2316.852,253.74339 2318.5833,253.4106 C 2318.8614,252.79142 2319.421,251.87043 2319.3352,251.38675 C 2319.2679,250.71768 2317.6892,251.4685 2318.1456,250.36346 C 2319.0743,248.10965 2321.6387,248.54964 2322.9845,248.19444 C 2322.039,249.19504 2320.6721,250.63182 2319.5658,250.51778 C 2319.6147,252.17442 2322.094,251.97222 2323.4889,252.44617 C 2322.678,252.89576 2318.9726,256.55782 2319.215,256.78015 C 2320.0782,257.57576 2323.4823,256.76285 2325.3526,255.80518 C 2327.3266,254.79431 2327.8948,252.00838 2329.1692,252.25475 C 2330.4653,252.50506 2327.608,256.18225 2326.7028,257.25122 C 2329.6986,256.63371 2329.6337,255.36125 2330.1059,253.0255 C 2330.3564,251.77399 2329.975,251.87847 2329.8789,250.90411 C 2329.8248,249.99835 2331.0163,248.73793 2329.8798,248.48641 C 2331.4623,248.1083 2332.3105,248.92215 2333.2225,249.30927 C 2334.5008,249.85333 2336.2799,248.81996 2338.0279,248.63438 C 2341.1495,248.30209 2341.367,252.04588 2342.4485,253.60174 C 2343.0825,254.51536 2344.2063,255.00245 2345.2263,255.55191 C 2346.473,256.22222 2346.892,257.41085 2347.8919,258.24568 C 2348.4194,258.68801 2353.0549,259.50294 2350.8977,261.85284 C 2349.7429,263.10843 2350.9101,260.37138 2349.4013,262.88124 C 2348.5137,262.27599 2347.739,261.04559 2346.0408,261.358 C 2347.2314,263.4966 2352.4685,264.04422 2349.7137,268.43559 C 2348.7039,270.03866 2350.6157,270.64342 2351.5517,270.91947 C 2353.1722,271.40071 2350.0313,273.58631 2351.717,274.21586 C 2350.007,275.05712 2350.2414,276.51106 2348.789,277.31368 C 2347.4619,278.0468 2346.7607,280.07287 2347.5389,280.29151 C 2345.2704,281.35287 2346.1323,282.99207 2346.1612,283.86203 C 2346.1994,285.04375 2344.5435,286.9481 2344.3973,288.2538 C 2344.2412,289.64072 2343.4602,294.74939 2345.8471,294.05958 C 2342.8027,296.75594 2344.7861,297.31174 2344.6539,299.34672 C 2344.5895,300.31318 2344.2303,301.59934 2343.1279,302.72607 C 2343.7784,302.95175 2343.5019,305.17155 2342.4376,305.53618 C 2344.126,304.9917 2342.1887,308.44672 2342.1849,309.46744 C 2342.1735,312.06239 2339.068,314.04374 2336.466,316.44717 C 2333.5137,319.26702 2333.8693,322.29839 2330.8018,325.02599 C 2329.3808,326.28732 2328.6911,328.39409 2328.2151,329.72217 C 2328.1154,330.20978 2328.0308,330.69225 2327.958,331.1696 C 2327.4493,332.07714 2326.9341,332.31674 2326.5919,333.37464 C 2325.8116,335.77703 2322.7258,339.29947 2320.4882,341.44074 C 2319.547,342.34755 2318.8284,343.17979 2317.8112,344.04519 C 2316.4679,345.18627 2316.2904,345.96075 2315.2239,347.18162 C 2314.8493,347.61033 2313.7326,349.54096 2313.2374,349.59023 C 2311.8157,349.72962 2312.2605,351.82544 2311.0752,352.51953 C 2309.6301,353.36644 2309.7199,353.27783 2308.74,354.5871 C 2307.9772,355.60683 2307.4319,357.36785 2306.0392,358.02734 C 2307.1579,358.8961 2302.5953,362.99214 2301.1725,363.96247 C 2297.1964,366.67554 2293.9538,368.28649 2289.9399,369.96114 C 2288.7107,370.47401 2287.4627,371.20223 2287.3323,370.026 C 2287.3089,369.81372 2285.0705,369.04447 2284.7951,369.05863 C 2283.793,369.10702 2283.0563,367.99709 2281.9919,368.52031 C 2281.4659,368.77888 2281.8195,364.84309 2281.6933,364.36079 C 2281.5046,364.92246 2279.6195,366.91089 2278.9897,366.9168 C 2277.4342,366.93336 2280.1744,364.55634 2278.6471,364.42598 C 2276.6305,364.25293 2276.6705,368.58053 2274.7397,368.19318 C 2275.2457,368.62776 2273.8929,370.77219 2273.2121,371.6745 C 2272.5267,371.19988 2270.8099,370.25356 2269.3876,371.25053 C 2270.4634,372.10066 2270.579,372.84665 2269.3716,374.72239 C 2269.031,373.03131 2268.9276,371.07147 2267.2592,370.48698 C 2268.8857,368.92407 2270.0591,369.05391 2271.4937,368.94768 C 2272.4396,368.87804 2272.5998,367.57763 2272.903,367.00312 C 2274.6385,363.71108 2273.2057,362.58264 2273.4974,359.82605 C 2273.8424,356.56949 2273.6285,353.76032 2272.8803,351.0397 C 2272.7937,350.72524 2271.44,348.51174 2272.3943,348.21095 C 2273.6309,347.82101 2274.4417,348.10626 2275.8224,346.87081 C 2276.3705,346.38032 2277.9255,344.31699 2278.5308,344.19983 C 2279.7568,343.96425 2281.4323,345.40709 2282.3541,345.73763 C 2282.957,345.95472 2287.8798,347.89323 2288.0555,345.34314 C 2288.126,344.31578 2287.6555,342.48066 2289.655,341.64663 C 2291.2509,340.98158 2290.7318,339.90375 2290.8506,339.06518 C 2291.0695,337.54282 2293.4269,336.77166 2292.5127,335.46395 C 2294.8172,334.50826 2293.969,333.10233 2293.9437,332.21895 C 2293.9273,331.67362 2294.6258,330.95788 2294.8136,330.36287 C 2295.1414,329.32136 2294.9655,328.47876 2295.2925,327.43525 C 2295.5214,326.70412 2296.1335,325.88879 2296.2417,325.18606 C 2296.3589,324.42367 2295.6714,323.85796 2296.654,322.87365 C 2298.2427,321.28158 2299.186,322.17366 2299.9466,319.9258 C 2300.4957,318.3003 2299.4072,317.85504 2299.2,316.65215 C 2299.0914,315.9886 2299.2136,315.20517 2299.6638,314.32894 C 2300.3981,312.89584 2299.8563,313.38708 2299.1326,312.74243 C 2298.1257,311.84392 2296.1578,312.21217 2294.1033,313.21006 C 2293.7494,313.38209 2290.4073,315.2512 2290.5615,315.342 C 2289.1892,314.52442 2285.5963,315.36315 2284.0059,318.02746 C 2282.9811,319.91466 2279.0082,319.42556 2277.5767,319.60761 C 2276.4626,319.74877 2276.1394,319.7822 2275.7025,319.11092 C 2275.3306,318.54083 2273.5606,319.28312 2272.7698,319.41813 C 2271.4646,319.64105 2268.5091,316.00476 2269.347,314.66011 C 2270.8528,312.24087 2269.8371,311.16572 2268.6218,310.05806 C 2267.2753,308.8351 2270.8502,306.5551 2267.3721,306.85641 C 2264.887,307.07229 2263.5417,305.66565 2262.7947,303.96222 C 2262.3667,302.99083 2261.7774,302.97696 2260.8332,302.58988 C 2260.6845,302.52934 2259.333,299.56819 2259.1816,301.99316 C 2258.085,301.32407 2256.3659,301.52485 2255.5544,300.52556 C 2254.8339,299.63904 2254.2892,299.33406 2252.8332,299.44164 C 2250.8202,299.5897 2249.6927,299.80984 2248.0177,299.29736 C 2246.4547,298.82004 2245.6509,297.53497 2245.1338,296.08928 C 2244.8374,295.17802 2245.8433,293.1679 2245.2805,292.55976 C 2244.2702,291.46865 2243.7298,291.09315 2243.9071,289.12872 C 2244.2072,285.70343 2240.8957,284.60755 2240.8051,281.32573 C 2240.7821,280.56183 2240.1815,278.84537 2239.5771,278.52007 C 2238.7559,278.07793 2238.5124,276.12897 2237.9467,275.35774 C 2237.1351,274.24974 2237.8999,272.63261 2237.2571,271.49876 C 2236.5942,270.328 2235.7166,269.29977 2235.1072,268.0852 C 2234.8097,267.49563 2233.5139,267.69658 2233.72,266.72553 C 2233.9401,265.68356 2233.8831,265.73621 2233.2387,265.12387 C 2232.4791,264.40163 2230.8674,263.93869 2230.9517,262.64871 C 2231.0048,261.82374 2228.664,261.42682 2227.9822,261.00719 C 2227.3671,260.62841 2226.0592,259.94457 2225.0189,261.64118 C 2224.0672,260.80988 2222.1702,261.09458 2221.2042,260.27861 C 2220.7082,259.86236 2220.4684,259.22564 2219.9723,258.80751 C 2219.4219,258.34267 2218.3805,258.47817 2217.8549,257.97193 C 2215.6181,255.80917 2210.4301,257.94269 2206.9454,257.51591 C 2203.8719,257.1408 2199.66,259.14734 2196.2048,259.4711 C 2192.6543,259.80269 2191.4012,264.18404 2187.9473,265.25428 C 2188.2601,266.6519 2188.5702,266.9845 2190.3112,266.8662 C 2191.5022,266.78469 2193.347,266.91089 2193.1585,268.24532 C 2192.9385,269.81208 2194.1045,270.9077 2193.6901,272.38194 C 2192.988,274.92175 2191.2316,274.85535 2189.2832,276.94754 C 2187.8469,278.48896 2187.3253,280.55277 2186.5314,282.13285 C 2186.097,282.99594 2185.5601,284.07197 2184.7246,284.88037 C 2183.7999,285.77412 2184.3804,286.50773 2183.647,287.42931 C 2182.609,288.73428 2182.0152,289.59209 2181.4905,290.936 C 2181.1865,291.71506 2182.9408,292.04436 2182.8177,293.06338 C 2182.5714,295.08646 2178.2192,295.47044 2177.0393,295.86568 C 2175.3247,296.44363 2173.8545,298.35008 2172.3111,299.50365 C 2170.4383,300.90468 2168.5904,299.02645 2167.3562,298.76432 C 2165.7331,298.42103 2163.9293,298.23857 2162.8326,297.21532 C 2161.6189,296.08166 2161.0479,294.7214 2158.6415,295.02414 C 2156.7325,295.26448 2155.0014,296.54012 2153.3662,296.14263 C 2151.4644,295.68016 2150.7373,294.33201 2149.486,293.23162 C 2146.9017,290.96539 2142.6932,292.6197 2138.0211,295.38272 C 2136.2925,296.44108 2135.7062,297.48044 2134.4415,298.94161 C 2132.6295,301.03229 2131.2211,299.8655 2129.4777,300.28157 C 2127.9065,300.65701 2125.6173,300.70377 2124.0489,301.38847 C 2122.9111,301.88588 2122.1766,301.47686 2121.0994,301.9452 C 2120.1216,302.37041 2119.1953,303.10049 2118.206,303.5176 C 2116.5276,304.22663 2115.3627,303.42059 2113.9809,303.38909 C 2111.5635,303.3349 2109.2698,303.49744 2107.3135,302.63149 C 2104.2745,301.28618 2100.3505,302.91015 2098.145,300.35363 C 2097.329,299.41 2096.1664,298.98593 2095.8106,297.63389 C 2095.339,295.84027 2095.2314,295.25431 2093.0509,295.19074 C 2091.1546,295.13606 2089.6267,294.95928 2088.6227,293.75014 C 2087.8322,292.79694 2087.2293,291.53249 2085.745,291.30391 C 2084.1133,291.05099 2082.6754,291.59633 2081.2351,290.93473 C 2079.4857,290.13323 2076.7289,289.85439 2074.2175,290.41965 C 2069.3707,291.51079 2063.6094,294.52927 2060.0072,292.77272 C 2058.9993,292.28424 2058.7822,291.71123 2057.4163,291.56058 C 2056.4264,291.45205 2054.992,290.79289 2054.5589,290.03219 C 2054.1152,289.25547 2052.9552,289.27595 2052.8688,288.21279 C 2052.7829,287.16885 2052.2261,286.57964 2051.999,285.62887 C 2051.5568,283.77958 2052.3383,280.44285 2050.215,279.96547 C 2047.7587,279.41661 2045.0959,279.36093 2043.0303,278.24911 C 2040.4005,276.83194 2036.9403,276.94624 2034.1675,275.79351 C 2031.5188,274.69259 2029.2174,273.152 2026.5892,272.05282 C 2026.3598,272.99674 2025.6654,275.54899 2024.2528,275.95866 C 2022.296,276.52666 2021.5636,277.67319 2021.4973,279.35705 C 2019.3981,278.41766 2018.3342,284.59726 2019.3604,285.3833 C 2020.3164,286.11466 2019.5629,288.06025 2020.7007,288.74581 C 2021.861,289.44363 2022.4211,289.77507 2021.7453,291.78272 C 2021.3038,293.08887 2019.8783,295.23778 2018.297,295.44501 C 2016.803,295.64076 2016.0276,297.24577 2014.5789,297.55273 C 2012.9555,297.89635 2011.7294,296.37886 2010.2938,296.18963 C 2008.2945,295.9254 2006.5941,295.25304 2004.6486,294.97073 C 2003.3804,294.79391 2002.3394,295.1297 2000.8412,295.99528 C 2000.2175,296.36235 1996.8774,295.03177 1996.2526,294.91476 C 1994.4748,294.58271 1992.9666,293.95645 1992.2173,292.43732 C 1991.6469,291.28603 1991.5294,289.69062 1990.3586,289.0455 C 1988.0972,287.7987 1983.8168,289.51915 1981.5737,288.40374 C 1980.577,287.90769 1982.1175,285.83453 1979.9506,287.088 C 1977.4873,288.51137 1978.0776,285.82039 1976.3119,285.85895 C 1976.2847,287.68584 1973.9693,287.58324 1972.9472,287.66917 C 1972.1982,287.73201 1971.5849,287.80511 1970.8431,288.53571 C 1969.2742,290.08207 1969.1413,289.66631 1967.437,290.19078 C 1966.3104,290.53726 1965.4768,291.15957 1964.4545,291.96652 C 1963.3049,292.87344 1962.7413,292.58782 1961.5737,292.98053 C 1961.2951,293.07485 1958.8099,293.9921 1958.719,294.28746 C 1958.2315,295.89364 1956.9133,295.20854 1955.615,295.97622 C 1955.5605,296.76355 1955.693,297.54512 1956.1865,297.98635 C 1954.747,298.49705 1953.585,298.94161 1952.1709,299.1733 C 1952.2273,299.47328 1952.2764,299.77695 1952.3195,300.08431 C 1951.2531,300.77327 1950.4625,300.37513 1949.7938,299.99325 C 1949.2896,301.73568 1948.2494,300.56474 1947.2323,300.37513 C 1946.0338,300.15133 1944.8687,300.6608 1944.2366,302.11178 C 1943.4324,303.95719 1939.3846,305.22688 1938.1439,304.6256 C 1937.2184,304.17753 1937.8255,303.21267 1936.4636,303.02486 C 1935.127,302.84207 1935.0847,301.12703 1934.3586,300.27272 C 1933.7824,299.59729 1932.0653,300.00336 1933.1022,298.40076 C 1933.9047,297.15823 1933.1177,296.89048 1932.0862,297.64784 C 1931.53,298.05607 1930.5993,298.71239 1930.2094,299.31761 C 1929.042,301.13587 1928.1946,299.65043 1927.4601,299.53782 C 1925.9314,299.30495 1922.5539,299.76177 1921.6777,298.59206 C 1920.775,297.38658 1920.5263,295.68016 1920.0062,294.23781 C 1919.2503,292.12475 1914.7629,293.40237 1914.2475,290.844 C 1913.5716,287.51782 1910.9355,284.85206 1907.5149,284.16598 C 1907.1628,284.09515 1906.5399,283.95606 1906.0847,284.31792 C 1904.7315,285.39358 1905.3453,285.03218 1903.9422,285.28428 C 1902.9031,285.47202 1902.2188,286.7748 1900.8617,286.81974 C 1900.3876,286.78122 1899.8862,286.88521 1899.3559,287.13035 C 1898.2311,287.623 1898.0234,286.8775 1897.1923,286.73629 C 1896.1904,286.56551 1894.1463,287.68584 1893.5289,286.87622 C 1893.0783,286.28553 1893.1657,284.76585 1892.2198,284.70794 C 1891.7006,284.67834 1890.2652,285.11064 1890.368,284.27028 C 1890.4922,283.24219 1891.8605,282.01409 1890.1908,282.19351 C 1889.388,282.27869 1889.2708,281.22366 1888.3669,281.19265 C 1888.1801,281.18489 1886.3595,281.58409 1886.0905,281.96245 C 1885.2945,283.07717 1886.3019,283.39687 1885.3591,284.50458 C 1884.0208,286.07483 1882.2496,285.49516 1882.8634,286.78251 C 1880.2056,286.07612 1879.0586,280.7519 1877.7685,278.52396 C 1875.6978,274.9595 1873.4616,271.54451 1871.3492,267.992 C 1869.2941,264.54797 1867.4311,261.01249 1864.4389,258.37987 C 1861.1992,255.53192 1857.1159,253.72468 1854.3776,250.31784 C 1855.0453,249.9433 1855.9008,250.499 1856.4903,249.9715 C 1857.3891,249.16681 1858.2474,247.96159 1857.1787,247.60746 C 1857.5342,247.23566 1857.9035,246.87986 1858.2867,246.54007 C 1856.7545,247.09417 1855.1192,248.1729 1853.8273,247.94678 C 1853.726,247.92928 1851.7006,249.32137 1851.5231,249.39662 C 1849.9447,250.05743 1848.363,250.56206 1846.8665,250.70426 C 1847.4407,252.1704 1844.4831,253.34375 1843.498,253.69261 C 1841.4148,254.42991 1840.0217,254.7089 1839.2908,257.34035 C 1838.6014,257.33636 1838.5201,256.89329 1838.2184,256.43265 C 1837.733,255.69055 1836.9031,256.71492 1836.3733,256.00906 C 1835.3493,254.64617 1832.9516,256.94253 1831.6978,257.91345 C 1831.7468,256.63904 1830.102,256.78681 1830.1788,255.51725 C 1830.2792,253.81955 1832.5925,252.9292 1833.7055,253.11243 C 1834.0168,252.17174 1833.8091,251.36128 1833.3934,250.79816 C 1830.267,255.49725 1827.3803,247.17637 1824.6086,251.18434 C 1825.4303,250.82498 1825.9299,251.19239 1826.08,251.85972 C 1825.372,251.84632 1824.6802,252.13693 1824.0085,252.72719 C 1823.9067,251.4417 1822.8352,251.12804 1824.4154,250.12187 C 1823.0026,250.02252 1822.8097,248.13657 1821.7924,247.50779 C 1821.3079,248.33842 1821.4098,249.07407 1821.9249,249.44499 C 1821.1245,249.56859 1820.0798,248.48103 1819.3012,249.09423 C 1818.5384,249.69486 1817.3268,250.77669 1816.6296,250.26818 C 1815.4655,249.41946 1813.7398,250.67743 1813.0047,248.5725 C 1815.538,248.36129 1813.5264,245.4469 1815.1575,244.10462 C 1814.455,243.56867 1813.6866,243.22471 1813.2996,242.34921 C 1812.8036,241.22558 1813.3432,239.69351 1812.6124,238.67768 C 1811.3301,236.89872 1810.3375,236.81949 1808.2058,238.5564 C 1806.6046,239.86087 1804.4879,237.67821 1803.6319,237.07489 C 1802.7853,236.47928 1801.6035,236.45742 1800.5246,236.27153 C 1799.4688,237.02573 1798.5275,235.84217 1797.4157,235.77925 C 1797.5696,236.102 1797.7167,236.43008 1797.8545,236.76349 C 1797.0889,236.86184 1796.391,236.79627 1795.7603,236.56674 C 1795.6866,238.24833 1794.4147,237.9115 1793.3886,238.43373 C 1792.8652,238.69948 1790.9807,239.52748 1792.7012,239.90441 C 1791.1763,241.32064 1787.819,242.0671 1786.1082,242.42107 C 1783.8482,242.88736 1781.6369,243.33035 1779.3714,243.86376 C 1777.3419,244.34269 1769.7456,243.92871 1768.9209,246.55761 C 1768.7175,247.20332 1768.1278,248.84282 1767.4941,247.76771 C 1767.0015,246.93378 1765.9831,248.01947 1765.1815,247.84311 C 1763.9722,247.57649 1763.0847,247.83504 1761.7531,248.02889 C 1761.224,248.2052 1760.7247,248.25769 1760.2536,248.18367 C 1760.0435,248.51063 1759.8264,248.83341 1759.6044,249.15337 C 1758.4634,249.48664 1753.8124,248.61151 1753.1623,250.25744 C 1752.5085,251.96017 1749.1339,249.16278 1748.5526,252.82218 C 1747.5159,252.7379 1747.5766,251.47118 1746.445,251.47118 C 1745.3454,251.47118 1744.1721,252.44751 1743.1307,252.2012 C 1742.4475,252.03918 1738.5367,250.13126 1738.4288,252.33909 C 1737.9168,252.14764 1737.3555,252.11551 1736.7465,252.2427 C 1737.3783,253.01614 1739.1423,255.14786 1736.1716,255.41725 C 1736.8735,255.92911 1737.8908,256.67632 1738.9181,256.53785 C 1739.8756,256.40868 1740.66,255.96243 1741.0169,257.04766 C 1740.5135,257.61964 1735.7817,258.49676 1738.8014,259.53345 C 1740.8842,260.24945 1743.2157,260.12221 1744.9802,261.52077 C 1746.7591,262.93144 1742.3464,263.16653 1741.9164,263.16653 C 1741.1495,263.16653 1740.7229,262.58 1739.9961,262.53506 C 1739.0753,262.47956 1737.7164,262.75178 1736.7395,262.87068 C 1737.3019,263.99541 1735.3607,264.82477 1734.7566,265.63879 C 1734.507,265.97312 1736.8067,269.50945 1737.2199,269.87888 C 1736.5914,270.1984 1736.0028,270.82005 1735.4323,271.26866 C 1734.478,272.01885 1733.8588,271.70265 1732.8786,272.08417 C 1732.6224,272.18344 1729.1705,274.04777 1729.1718,274.04255 C 1728.8071,275.46833 1732.2058,275.21591 1732.5763,276.21216 C 1733.1872,277.85483 1734.1984,277.24358 1735.6409,277.66151 C 1736.8506,278.01308 1737.0932,279.30784 1738.6045,279.47488 C 1740.5423,279.69109 1740.5608,280.87988 1742.0579,281.49109 C 1740.2151,281.72357 1740.7963,284.37199 1740.4781,285.50031 C 1739.9378,287.40237 1735.0391,288.04615 1733.8155,287.97692 C 1732.9385,287.92692 1731.7535,287.86409 1731.1849,287.23429 C 1730.7978,286.8069 1730.4237,285.55688 1729.6056,285.7587 C 1728.7221,285.97589 1728.6215,287.24584 1728.3952,287.89871 C 1727.9172,289.27339 1726.3335,289.47307 1725.3555,289.54474 C 1726.6008,288.03205 1723.2292,287.88204 1722.6075,287.81536 C 1721.1239,287.65635 1719.0646,287.18425 1718.5621,285.6443 C 1718.2029,284.54706 1717.5744,281.70937 1715.5327,283.07846 C 1712.9489,284.8096 1712.833,281.0324 1711.8607,285.29714 C 1711.133,284.87265 1710.4862,285.94248 1709.7829,285.688 C 1709.1571,285.46045 1707.8414,284.49557 1707.7622,283.72289 C 1707.6809,282.92888 1703.9943,283.20868 1703.6231,284.46339 C 1703.2201,284.01402 1702.6971,283.7667 1702.0532,283.7216 C 1701.773,285.23412 1699.9005,285.60701 1699.2142,286.99816 C 1698.2546,288.94049 1695.917,289.36684 1695.0542,288.24611 C 1694.3316,287.30743 1692.5842,287.20863 1691.6446,286.26883 C 1690.7831,285.40773 1689.2242,283.14164 1687.4623,284.27929 C 1687.533,285.33315 1688.2928,286.1288 1688.5308,287.10469 C 1688.7149,287.86666 1687.8391,290.29947 1686.9636,289.22987 C 1686.4504,288.6049 1686.5398,287.25354 1686.9007,286.34718 C 1687.1582,285.70086 1684.6433,284.43378 1684.1326,283.46647 C 1683.426,282.13156 1682.2795,282.53805 1681.1313,281.92372 C 1679.8551,281.23917 1680.0576,279.2923 1678.2539,279.03842 C 1675.1553,278.60173 1670.9511,280.52432 1670.6821,275.89494 C 1669.4368,276.57473 1668.4688,276.60331 1667.3251,277.11894 C 1666.5148,277.48372 1666.3128,278.72875 1665.7217,279.35187 C 1665.177,277.66021 1663.0128,280.41827 1663.0047,278.16352 C 1662.9986,276.65788 1659.8562,276.39411 1658.6151,276.08347 C 1658.7076,276.70594 1658.8005,277.33056 1658.8926,277.95212 C 1656.9669,276.81376 1657.0813,278.70931 1655.9213,280.37559 C 1655.1718,281.45234 1654.1318,281.33219 1653.16,281.62026 C 1652.1031,281.93275 1651.4116,283.16613 1650.2951,283.16613 C 1649.6712,283.16613 1648.4608,282.90954 1648.0778,283.9084 C 1647.8306,284.55221 1648.5902,285.56202 1647.9011,286.08254 C 1645.9879,287.5268 1643.8618,288.66127 1641.9601,288.07307 C 1643.2978,288.57928 1643.1619,291.59506 1643.5329,292.87472 C 1643.7365,293.57691 1644.7146,294.43637 1643.7949,295.25813 C 1642.7341,296.22138 1640.904,296.96028 1639.8364,296.34712 C 1637.8012,295.17293 1636.9317,290.40559 1634.2682,290.37235 C 1631.1951,290.33399 1632.903,294.16907 1631.4636,295.1564 C 1629.1413,296.76863 1628.3042,297.86592 1628.2977,300.94891 C 1628.293,302.3641 1631.6439,303.72672 1629.4328,305.2973 C 1627.8407,306.42827 1625.8738,309.32097 1626.568,311.25943 C 1626.9395,312.29827 1628.1782,312.57777 1629.1016,312.85219 C 1630.7749,313.34844 1630.3586,314.25298 1631.3296,315.42907 C 1631.0177,315.63551 1630.7066,315.8444 1630.3963,316.05572 C 1630.814,316.59376 1631.3982,319.9617 1632.4397,318.73297 C 1633.3262,317.68506 1635.3042,318.13661 1636.2251,318.33254 C 1639.9859,319.13074 1641.0486,322.72061 1643.0275,325.71777 C 1643.6122,326.60578 1644.8425,327.63912 1644.9448,328.84557 C 1645.0858,330.53309 1642.0802,328.44808 1641.2846,329.68418 C 1640.6597,330.6543 1646.8872,332.33629 1646.8284,334.14111 C 1646.5638,333.95931 1646.2947,333.78358 1646.0213,333.6127 C 1645.9641,334.2326 1645.9369,334.84724 1645.9421,335.45664 C 1645.3726,334.99231 1644.0379,334.96184 1643.8736,336.15819 C 1643.3909,335.78068 1642.8295,335.75267 1642.1926,336.07053 C 1642.9097,336.2349 1642.8774,336.76801 1642.3644,337.38475 C 1643.0339,337.3884 1643.3485,337.7799 1643.1282,338.52357 C 1642.799,338.31097 1639.3738,336.82398 1640.4387,338.69847 C 1639.759,338.62074 1639.4422,339.19387 1638.8681,339.49487 C 1637.7007,340.10752 1636.2749,338.76891 1636.2908,340.70769 C 1635.5217,340.22516 1634.84,339.5968 1633.9519,339.31039 C 1634.4776,339.84552 1634.3717,340.74647 1634.4667,341.49403 C 1634.13,340.67132 1633.7265,339.58467 1632.6958,339.57374 C 1634.7166,342.68875 1631.5915,345.74005 1630.1465,349.05293 C 1629.9568,348.78116 1629.7899,348.49249 1629.6447,348.18689 C 1630.3226,349.4388 1627.7718,350.37826 1627.4779,351.5604 C 1627.0557,353.25029 1628.8374,353.59393 1629.7955,354.19593 C 1631.0761,355.00085 1631.6672,355.69167 1632.3531,357.09702 C 1632.7644,357.94031 1633.3782,358.89729 1633.2452,359.98434 C 1633.118,361.0168 1631.8772,361.81426 1633.2868,362.04471 C 1633.3136,361.16659 1633.7365,357.69824 1635.0611,358.7031 C 1634.2377,359.84986 1632.2767,364.04665 1634.2432,364.43546 C 1633.3896,365.07172 1632.7733,367.11545 1633.601,367.72062 C 1634.7605,368.56991 1634.9019,369.8668 1635.4532,371.16925 C 1635.968,372.37841 1637.1371,373.23592 1637.9763,374.15858 C 1638.9388,375.21548 1639.3777,376.55047 1640.2069,377.67777 C 1640.9201,378.64716 1641.9884,379.01924 1641.0364,380.34747 C 1640.1387,381.59946 1638.9314,382.33111 1637.8643,383.37469 C 1637.3379,383.88856 1636.6539,385.30315 1636.0689,385.56957 C 1635.0203,386.04876 1633.2407,385.26824 1632.3975,384.83297 C 1631.3802,384.30554 1631.6859,382.75448 1630.7795,382.18645 C 1629.9289,381.65432 1629.3532,381.26324 1628.6844,380.39654 C 1627.1277,378.37446 1624.1862,378.23047 1621.8629,377.16699 C 1621.2494,376.88573 1619.428,376.12246 1619.4752,375.22135 C 1619.5229,374.31601 1620.4567,372.99603 1619.5726,372.44195 C 1618.1937,371.57912 1617.2169,372.81137 1616.2181,371.16218 C 1615.6283,370.18872 1613.2342,369.52472 1612.8212,371.41189 C 1611.7309,367.77261 1606.9434,373.00896 1604.7946,371.07265 C 1605.8629,370.00595 1599.7732,367.10953 1598.9417,366.43068 C 1598.2609,365.87451 1597.3803,365.99642 1596.5186,365.96328 C 1595.5723,365.92659 1594.961,365.24346 1594.0534,365.20319 C 1592.7846,365.14752 1591.6589,365.7301 1590.3341,365.50753 C 1588.9171,365.26951 1587.5046,364.81821 1586.2509,364.17588 C 1584.6789,363.36946 1576.6476,359.64513 1576.2643,363.75259 C 1572.7912,361.74297 1570.9575,357.71017 1567.5705,355.51482 C 1566.0871,354.55242 1564.239,354.26173 1562.7826,353.32333 C 1561.4405,352.45961 1560.8911,350.50434 1559.2955,350.00354 C 1560.2555,351.58199 1556.7047,350.53315 1556.1473,349.26932 C 1555.0218,346.71658 1552.6212,347.01298 1550.4804,345.93181 C 1550.9607,344.96419 1551.9632,344.91832 1552.7481,344.45347 C 1552.0673,344.45347 1551.6531,343.96545 1551.6871,343.23541 C 1551.3823,343.41676 1551.0906,343.61984 1550.8087,343.84462 C 1551.6931,341.50615 1554.2804,343.7407 1555.0633,344.62736 C 1553.338,343.37687 1558.0386,343.89175 1558.6718,344.1056 C 1559.2315,343.17617 1558.6715,342.38748 1558.6716,341.49282 C 1557.8791,343.61742 1557.7486,341.20331 1557.8957,340.6192 C 1559.4073,341.73624 1560.0796,337.10623 1561.1754,336.42115 C 1561.204,337.00648 1561.2371,337.59024 1561.277,338.17246 C 1561.7722,337.58416 1561.8686,335.85863 1562.5797,335.54436 C 1563.4114,335.17758 1564.1196,336.65484 1564.9482,336.59642 C 1565.3596,335.48831 1563.0294,333.93246 1562.4171,333.49551 C 1560.8653,332.3864 1559.5286,332.80796 1559.1176,330.26735 C 1560.0565,330.70817 1560.8793,330.33348 1561.8723,330.02358 C 1562.9715,329.67927 1563.661,330.34695 1564.7095,330.26735 C 1565.33,328.52784 1562.7507,328.48858 1566.223,327.99152 C 1567.9565,327.74351 1570.1543,326.49759 1571.4369,325.40518 C 1569.8915,325.8974 1571.0639,323.62616 1569.1468,323.98247 C 1567.6303,324.26471 1566.0623,325.41995 1564.5411,325.22915 C 1565.0283,324.33495 1565.9785,323.93809 1566.8265,323.9874 C 1565.7788,323.9159 1565.1154,324.64543 1564.1772,325.07648 C 1562.8914,325.66732 1561.9738,324.6676 1563.2946,323.5423 C 1561.5251,323.14758 1563.605,320.28844 1565.1095,319.8342 C 1565.8727,319.6039 1566.2478,319.10721 1566.6945,318.41438 C 1567.601,317.0272 1568.7247,317.98653 1569.8267,317.7533 C 1571.0861,317.48775 1572.3592,318.03242 1573.6208,317.91086 C 1574.8169,317.79549 1576.2118,314.13964 1576.1677,313.00683 C 1575.7236,313.13027 1575.3531,313.03925 1575.0566,312.73744 C 1576.8528,311.4543 1573.8949,310.28945 1573.7734,309.82786 C 1573.4191,308.47679 1575.2579,307.46376 1576.1897,307.78484 C 1576.2987,305.86296 1574.8425,307.79864 1574.2943,306.38431 C 1573.8657,305.28221 1574.5755,305.24198 1575.375,304.90617 C 1578.4777,303.60705 1575.8033,300.59255 1577.2658,299.25685 C 1576.49,298.80991 1576.2932,299.57198 1575.5587,299.62259 C 1574.4877,299.69724 1573.4126,299.21002 1572.8479,298.30193 C 1572.0449,297.01104 1570.5069,298.15366 1569.905,296.24552 C 1568.7193,297.54385 1565.6701,296.03847 1564.5557,295.33695 C 1562.417,293.98192 1563.1666,294.83208 1561.0533,296.06134 C 1560.7247,294.68832 1559.3255,294.64252 1558.648,293.62532 C 1558.0313,292.70131 1557.6868,290.56411 1556.408,290.41837 C 1554.1869,290.16776 1552.0255,292.56486 1550.0171,292.67071 C 1549.9484,292.67453 1547.9581,291.60272 1547.8036,291.50313 C 1546.7238,290.81078 1546.0036,289.76227 1544.4705,290.62674 C 1542.7886,291.57591 1541.7816,290.67275 1541.4134,288.90591 C 1541.1941,287.85383 1540.1197,284.83018 1540.7453,283.81179 C 1539.0902,283.90969 1538.7448,281.33995 1536.8878,282.29934 C 1535.7085,282.90825 1533.0646,281.89919 1532.0086,281.49109 C 1533.4185,280.6407 1531.009,277.84575 1531.3027,277.35782 C 1531.9013,276.36163 1532.9605,276.68776 1533.7709,276.17316 C 1533.3984,274.81629 1531.5959,274.60795 1531.2088,273.24462 C 1530.8499,271.97051 1529.9868,269.16345 1528.1636,269.97318 C 1526.4369,270.73894 1525.2965,269.22113 1523.3042,270.06484 C 1521.125,270.9888 1520.0735,270.13948 1517.9503,269.97318 C 1517.8234,272.20433 1516.1286,273.38679 1514.3625,272.68744 C 1512.1716,271.81895 1511.8652,269.16607 1511.7399,266.76234 C 1511.6573,265.15548 1512.0397,265.15416 1510.9337,264.03235 C 1510.3758,263.46624 1508.9135,262.14907 1510.0453,261.19916 C 1512.4133,259.21237 1513.8439,261.73246 1516.0464,261.52077 C 1516.8335,261.44534 1520.8281,259.10354 1520.7312,258.35596 C 1520.5902,257.25921 1519.1768,256.65235 1518.5048,256.0517 C 1517.4513,255.10917 1519.3571,254.8757 1517.2452,254.26568 C 1516.0151,253.91174 1515.6514,253.74339 1514.3222,254.04799 C 1512.4476,254.47664 1513.9382,252.72184 1513.8537,251.85838 C 1513.7363,250.40909 1512.1427,250.53522 1511.2597,250.02386 C 1510.0541,249.32405 1509.4086,247.89023 1508.8748,246.53603 C 1508.3575,245.22537 1504.9062,242.21359 1506.5861,241.05173 C 1507.5542,240.38176 1507.1128,239.01417 1506.7693,238.27969 C 1506.0766,236.7949 1506.7559,236.08559 1506.8314,234.55672 C 1506.8678,233.81647 1502.2939,231.37805 1501.5395,231.10555 C 1500.3215,230.6663 1495.1137,233.98103 1495.037,231.78112 C 1495.0057,230.89078 1495.613,230.18132 1494.7296,229.68498 C 1493.9028,229.22004 1492.7267,229.26558 1491.7709,229.496 C 1489.7301,229.98696 1489.0614,227.84006 1487.0301,228.78381 C 1485.8552,229.32906 1485.9507,224.92926 1485.6905,224.26401 C 1485.0059,222.51252 1483.7677,219.47943 1481.8033,219.74934 C 1482.9474,218.27547 1483.8487,214.90755 1482.2542,214.04543 C 1478.5659,212.05515 1480.1466,210.57782 1483.0188,208.17686 C 1482.027,208.0219 1481.5782,205.76894 1480.8193,204.93538 C 1480.1951,204.25093 1480.5529,203.36399 1480.7896,202.48019 C 1481.2012,200.94046 1480.1726,199.62469 1480.3019,198.08565 C 1480.4322,196.54451 1482.1414,195.96151 1482.814,194.69827 C 1483.7511,192.93267 1483.7513,191.25127 1485.887,191.28625 C 1485.7316,190.49433 1485.112,190.09874 1484.5212,189.8154 C 1485.2584,188.8213 1484.5859,188.37053 1484.5402,187.40648 C 1484.4588,185.36083 1485.8909,187.41674 1486.7767,187.40941 C 1487.2974,187.40648 1487.4694,186.71406 1487.7105,186.27064 C 1488.5211,184.78106 1489.5433,186.33232 1490.498,186.25742 C 1492.1693,186.12668 1492.826,183.56686 1494.6828,183.6288 C 1496.82,183.69959 1498.6201,185.27551 1500.7144,185.27551 C 1502.6337,185.27551 1498.6521,182.56016 1498.5632,182.48039 C 1496.6586,180.76724 1494.5988,182.52323 1492.5545,181.61699 C 1491.1208,180.98052 1488.7643,178.59775 1487.8447,177.17362 C 1488.4178,177.59212 1489.0059,177.98504 1489.6067,178.35244 C 1489.4725,177.53703 1489.042,176.19258 1490.0231,175.56259 C 1489.4519,174.72262 1487.9113,175.806 1487.2861,176.25524 C 1485.6256,177.44769 1484.7032,177.41343 1482.9238,177.38961 C 1486.5169,173.42758 1491.1441,171.18299 1495.0783,167.69266 C 1499.183,164.05915 1502.8019,159.62564 1507.0803,156.16214 C 1509.0764,154.54573 1509.8357,152.91093 1511.0342,150.52492 C 1512.065,148.47132 1511.457,148.11975 1510.0589,146.99174 C 1506.694,144.27769 1503.2132,141.72779 1499.7054,139.11087 C 1501.3039,138.19718 1506.5221,134.60112 1503.5893,132.637 C 1502.2615,131.74806 1497.4281,129.46048 1501.3063,127.44229 C 1500.8336,125.72739 1499.4113,126.46533 1498.2905,125.99245 C 1496.5964,125.27665 1496.5586,122.476 1498.6805,121.92755 C 1498.4782,121.09317 1496.5136,120.76824 1497.2205,119.61301 C 1497.9732,118.38601 1498.9384,115.97816 1497.7081,115.52081 C 1498.7252,115.29862 1499.7412,114.86889 1500.7596,114.80249 C 1499.9175,108.72302 1495.8429,105.69606 1493.4194,100.9095 C 1490.8983,95.910082 1501.4237,93.118708 1499.5272,89.502427 C 1498.6662,87.862831 1496.281,86.465335 1495.0296,85.215217 C 1493.4319,83.617522 1491.1862,83.560994 1489.5537,82.007393 C 1487.8599,80.395366 1487.8258,78.474387 1489.6518,76.52045 C 1491.7639,74.304385 1488.8464,74.095356 1487.7912,73.909674" id="path2924"/>
</svg>