<svg fill="#fff" height="407" viewBox="-140 -430 3053 1838" width="774" xmlns="http://www.w3.org/2000/svg">
	<path class="land sy" transform="matrix(0.8,0,0,0.8,245,142)" d="M 1619.1856,401.09126 C 1620.6051,400.33141 1621.8727,397.93098 1623.2688,397.61059 C 1621.2154,395.53261 1624.4702,394.22411 1626.2833,394.78352 C 1624.803,392.78354 1627.774,392.72846 1628.2447,390.759 C 1628.5149,389.63356 1627.7897,387.43048 1626.6406,387.22398 C 1625.2864,386.98059 1627.1327,384.45535 1625.2271,385.47615 C 1622.607,386.87796 1621.8194,384.36576 1621.629,382.39877 C 1621.4685,380.72926 1622.9995,377.61027 1621.6084,376.36109 C 1620.4928,375.35868 1620.7784,373.09214 1620.8648,371.62323 C 1620.9303,370.51968 1623.5339,371.752 1623.905,371.94711 C 1624.1797,372.09177 1625.3464,370.90091 1625.8166,370.54093 C 1626.8521,369.74903 1626.0906,368.42614 1626.3701,367.40831 C 1627.2736,367.63455 1628.2802,367.36572 1629.2107,367.31381 C 1628.5979,365.77316 1627.7913,365.37344 1628.1263,363.51748 C 1628.2476,362.83965 1628.2002,360.86321 1629.1581,360.62666 C 1629.8789,360.44758 1630.9264,361.28273 1631.4534,361.58196 C 1632.8798,362.38715 1632.6423,362.77826 1634.2163,362.53266 C 1636.1373,362.23228 1637.1366,362.13882 1639.0257,361.34552 C 1640.9675,360.53178 1643.094,359.56921 1645.1418,359.87274 C 1646.6538,360.09602 1647.2782,361.10505 1648.5081,361.72352 C 1649.915,362.42853 1652.8667,362.44856 1654.4766,362.12946 C 1658.5837,361.31747 1661.9469,359.63339 1665.8241,357.91945 C 1669.6501,356.22778 1673.474,358.40666 1677.5646,357.03833 C 1679.6653,356.33499 1682.9232,353.19088 1682.5153,357.72667 C 1682.414,358.84021 1679.4926,361.09168 1678.6284,361.86375 C 1677.0829,363.26398 1675.543,363.16525 1673.8747,364.09904 C 1670.2987,366.10219 1673.3432,370.43068 1673.3452,372.81491 C 1673.3461,374.22314 1672.3174,375.94934 1672.0574,377.40258 C 1671.6726,379.56427 1672.0647,381.76282 1671.536,383.87686 C 1670.4456,388.2287 1666.5138,389.27498 1662.9391,391.3327 C 1658.4113,393.93984 1654.4989,395.67709 1650.1088,399.41447 C 1646.4886,402.4968 1642.0265,404.32298 1638.0563,406.88164 C 1635.04,408.82598 1630.0751,413.55417 1626.5761,410.95136 C 1625.3011,410.00459 1624.0816,409.59273 1623.068,408.31504 C 1621.6342,406.50815 1620.9547,408.20712 1619.4768,407.70644 C 1618.5851,407.40076 1620.4331,401.70466 1619.1856,401.09126" id="sy"/>
</svg>