<svg fill="#fff" height="407" viewBox="-140 -430 3053 1838" width="774" xmlns="http://www.w3.org/2000/svg">
<path xmlns="http://www.w3.org/2000/svg" d="M 709.71707,680.00792 C 711.5889,677.6682 712.3762,675.1563 712.762,672.20385 C 713.13295,669.37185 713.91168,667.31623 715.18509,664.83792 C 716.22358,662.81886 718.25148,662.22309 719.23402,660.10396 C 720.35486,657.68876 723.04526,657.95258 725.08581,656.62326 C 724.3805,658.76413 721.54353,657.27937 720.40209,658.80557 C 719.43034,660.10497 721.18095,663.19851 722.60477,663.75076 C 721.35154,663.68817 722.77544,666.46672 722.93762,666.99137 C 723.43523,668.60437 722.0197,670.23703 721.03013,671.25329 C 719.7417,672.57576 719.19075,674.18307 720.19191,675.91784 C 720.57979,676.58864 720.75882,677.4366 721.43196,677.91289 C 722.16576,678.44049 722.27012,678.20791 722.19029,679.16637 C 722.02187,681.18046 723.58245,681.63432 725.15675,680.71449 C 726.78217,679.76433 727.38117,678.35894 727.47204,676.50303 C 727.56066,674.12161 726.38871,672.78842 725.04253,670.84399 C 724.50716,670.07167 724.02133,669.20243 723.67152,668.33809 C 723.35658,667.55936 723.93308,666.49598 723.27842,665.85926 C 724.19391,665.96622 724.87172,664.58962 725.53607,664.18787 C 726.75158,663.45192 727.8678,662.48564 729.33122,662.2241 C 730.59721,661.99687 731.60972,661.82115 732.68354,661.1394 C 733.08821,660.88283 734.27252,659.85744 734.84915,660.11709 C 734.74322,659.71094 734.5257,659.37145 734.19651,659.09761 C 734.76759,659.32395 736.56594,660.74242 737.08982,660.07264 C 737.44521,659.61799 736.9544,658.50037 736.4349,658.29015 C 735.54656,657.93135 734.45626,658.74796 733.59019,658.80658 C 733.68252,657.80399 732.42941,652.4853 735.48587,653.70857 C 736.87651,654.26495 736.82601,657.20154 737.12303,658.35079 C 737.78156,660.9 740.38055,659.20775 742.23651,659.84027 C 744.3133,660.54847 746.87559,661.09596 747.93886,663.45294 C 748.58942,664.89545 747.42943,668.1303 749.86064,668.63967 C 752.75217,669.24579 756.25656,667.92352 759.04844,667.54725 C 761.44239,667.22443 763.91866,666.70685 765.55966,668.87466 C 766.23899,669.77219 767.1513,670.50523 768.203,670.86718 C 769.0598,671.16256 769.94036,671.35813 770.81112,671.58495 C 770.71891,671.56076 773.65784,672.17764 772.31746,672.17764 C 774.68222,673.41424 775.57005,670.73914 777.35684,670.57178 C 778.44292,670.46994 778.61074,669.32748 779.48773,668.90189 C 780.69717,668.31691 782.20477,669.43438 783.43136,668.69413 C 782.24601,667.52707 779.74611,668.77683 778.90891,667.31421 C 779.54131,667.31421 780.17471,667.31421 780.80812,667.31421 C 781.69891,667.31421 781.92083,666.76336 782.5672,666.73309 C 782.89488,666.84407 783.21409,666.97725 783.52589,667.13363 C 784.4242,667.29504 785.33731,667.18508 786.20543,667.03576 C 789.91484,666.40012 793.81079,667.11042 797.45306,666.36884 C 796.95782,667.54322 795.09347,667.32228 794.0701,667.88317 C 792.46522,668.76372 790.40331,667.36566 788.92989,668.69312 C 789.39876,668.1878 789.9273,668.25538 790.17672,668.98258 C 789.55389,668.93114 789.13622,669.32143 789.08767,669.92748 C 790.40224,669.1157 791.51282,669.94059 791.59652,671.55471 C 791.66257,672.83276 789.46597,671.97706 788.79957,671.95993 C 789.40591,673.75282 792.25839,672.4911 791.83773,670.87121 C 792.63859,670.98412 793.04044,671.89642 793.15304,672.58282 C 793.30269,673.49586 794.21878,674.52361 794.1738,675.36986 C 794.69495,674.76743 794.91959,673.93218 794.59852,673.122 C 795.37591,673.83545 795.58203,675.21372 795.01315,676.0236 C 795.74288,675.47362 795.34983,674.39465 795.20679,673.62988 C 795.60709,673.72259 796.00031,673.84351 796.38747,673.99263 C 796.30741,673.91102 793.82975,672.63321 795.2478,672.81059 C 796.59382,672.97889 798.42986,674.38357 797.82508,675.87856 C 798.10208,675.30035 798.56166,675.35173 798.18102,674.7906 C 798.69965,674.5216 799.25183,674.47425 799.83824,674.64451 C 798.51883,673.28223 800.5863,674.51052 801.08365,675.23588 C 801.99654,676.56749 803.40589,676.02159 804.52549,676.84848 C 807.47273,679.05463 804.14491,679.06469 803.50396,681.09794 C 803.72325,680.84433 803.95505,680.60278 804.19935,680.3733 C 804.43846,681.41494 803.37954,683.22106 802.92155,684.08721 C 802.63874,684.62233 802.74345,685.08097 802.054,685.08097 C 801.44384,685.08097 799.55534,684.53382 799.1788,685.08097 C 800.0841,685.58383 801.52079,685.73267 802.06204,686.7463 C 802.60663,685.99816 803.39433,685.46717 803.5745,686.6739 C 804.36975,685.75882 804.9756,685.32637 806.18366,685.08097 C 807.31207,684.85166 807.79921,686.06453 808.81954,685.04175 C 810.58298,683.27338 814.04007,687.66224 813.02999,688.183 C 812.02492,688.70171 811.46394,689.45055 810.65997,690.24554 C 809.90838,690.99019 808.57158,691.34792 807.97925,692.00203 C 807.55456,692.47123 807.2188,693.1172 806.83999,693.63153 C 806.07298,694.67414 807.27315,695.33197 807.22856,696.46371 C 807.19994,697.16757 807.49213,697.94968 808.29048,697.50291 C 809.24507,696.96977 809.9751,698.25386 809.26486,698.96459 C 808.48319,699.74652 807.28755,700.02254 806.53222,700.80737 C 806.17053,701.18371 805.49628,700.63777 805.10788,700.59963 C 804.76173,700.56551 804.59082,701.23991 804.26195,701.37036 C 801.25905,702.55844 804.39677,704.44256 802.83607,706.22499 C 802.43913,706.67831 800.83574,707.70422 801.43485,708.49539 C 802.45333,709.83992 803.49816,711.20031 804.58897,712.48534 C 805.88228,714.00973 808.50085,716.42265 806.15163,718.16989 C 805.35784,718.75992 804.88518,719.67747 804.08736,720.26342 C 803.64526,720.58894 802.00958,720.38962 801.9138,720.55489 C 801.4942,721.275 800.179,721.11275 800.17478,721.85988 C 800.17028,722.74716 798.60239,722.75717 797.9934,723.05258 C 796.82987,723.61735 795.40077,724.35833 794.07959,723.70647 C 793.18355,723.26488 792.39722,724.37134 791.48188,724.55157 C 790.36741,724.77286 790.3801,725.94828 790.66718,726.86734 C 791.08137,728.19475 790.00071,729.21677 788.85922,728.20676 C 788.08684,727.52205 787.68974,726.61105 786.97929,725.88721 C 786.03601,724.92505 785.48249,726.2196 784.57551,725.89322 C 783.32973,725.44368 782.87911,725.80812 781.63294,725.67496 C 780.66289,725.57084 780.88945,725.94628 780.48033,724.75684 C 780.09398,723.63338 778.64337,723.53624 777.68439,723.7285 C 776.41473,723.98284 776.42085,722.86532 775.41544,722.43071 C 774.60844,723.26488 776.19457,725.14432 776.71725,725.76106 C 778.2209,727.53506 779.43002,727.8534 779.54157,730.38184 C 779.57815,731.20255 779.62754,732.01621 779.86269,732.81482 C 780.16064,733.82355 781.24998,734.86124 781.13699,735.92289 C 780.94531,737.72686 780.96108,738.52024 783.15593,738.57527 C 783.79176,738.59128 786.26062,738.12606 786.08979,739.27658 C 785.77251,741.40541 784.84596,740.5571 783.626,741.86356 C 782.98256,742.55278 781.2002,742.38473 780.90526,743.11995 C 780.57104,743.95417 780.85198,744.78638 780.30003,745.59455 C 779.8077,746.3147 779.14422,746.8838 778.70417,747.64692 C 778.72569,745.67057 776.05974,748.47804 775.19348,748.79708 C 773.91348,749.27013 772.98993,749.83719 772.18316,750.9623 C 771.64265,751.71635 770.51659,753.68445 769.61113,753.98046 C 769.01361,753.25944 769.77981,752.35339 769.5862,751.57034 C 769.25946,750.24623 767.31694,751.53134 766.80566,751.90036 C 763.8778,754.01046 761.96658,752.03937 760.0482,749.52616 C 759.12393,748.35202 758.83744,746.65376 758.38608,745.27849 C 757.86881,743.69911 756.65053,741.50344 756.67522,739.84982 C 756.694,738.54826 753.31151,734.22182 751.77626,735.40157 C 751.68407,733.94063 753.7842,732.45655 754.77718,731.65692 C 756.50991,730.26073 755.28514,728.77534 753.9937,727.34486 C 751.14037,724.18811 751.91281,718.30412 751.8124,714.5108 C 751.77628,713.15386 752.36762,712.81509 753.21711,711.94108 C 753.78932,711.35268 753.20989,710.22691 753.48405,709.51609 C 753.78347,708.74205 754.96407,708.29384 754.84569,707.34522 C 754.67818,706.01135 754.80079,705.74356 753.36491,705.1949 C 751.79618,704.59504 749.13332,705.95118 747.40266,706.0936 C 746.2609,706.18788 745.13433,706.18386 743.99359,706.00333 C 742.27489,705.73152 742.57656,706.55395 741.21112,706.84479 C 741.46806,706.78963 739.48618,706.42758 739.68939,706.55596 C 738.87664,706.04546 738.17608,704.41147 737.65032,703.64402 C 736.90765,702.55844 736.20159,701.48878 735.50412,700.3678 C 735.1467,699.79269 734.6404,698.87826 733.82793,699.12721 C 732.31295,699.59195 731.56144,698.24884 730.10509,698.09725 C 729.16737,697.99887 728.50631,698.82707 727.66449,699.04389 C 726.42218,699.3651 725.20501,698.48676 723.95877,698.71765 C 723.16006,698.86421 722.65914,698.34421 721.83748,698.76885 C 721.02764,699.18744 719.89999,698.68954 719.4015,697.9306 C 719.01688,697.34528 718.87944,696.70369 718.68958,696.05602 C 718.42651,695.15722 717.11526,695.46453 716.6377,694.82178 C 715.72083,693.58733 716.71089,690.96708 717.4035,689.94906 C 718.71741,688.01813 715.81247,686.11984 715.12267,684.7199 C 714.39529,683.2442 714.96613,679.81567 712.83534,680.3743 C 712.8514,679.8509 712.75673,679.34355 712.55128,678.85127 C 711.73961,679.59119 710.87004,680.04114 709.71707,680.00792" id="path3410"/>
</svg>